<svg width="24" height="24" viewBox="0 0 24 24" fill="none" xmlns="http://www.w3.org/2000/svg">
    <g filter="url(#aasfu31r4a)">
        <rect x="1" width="20" height="20" rx="4" fill="#EAF5F9"/>
        <rect x="1.5" y=".5" width="19" height="19" rx="3.5" stroke="#41ABD9"/>
    </g>
    <g clip-path="url(#0sil5yk31b)">
        <path d="M16.82 6.822H14.99l-.324-1.843a1.166 1.166 0 0 0-.487-.767 1.184 1.184 0 0 0-.885-.192L4.978 5.48a1.176 1.176 0 0 0-.959 1.371l1.283 7.241c.06.31.236.575.487.767.206.148.428.221.678.221.074 0 .148 0 .207-.014l.516-.089v.398c0 .65.53 1.18 1.18 1.18h8.45c.649 0 1.18-.53 1.18-1.18V8.016c0-.663-.531-1.194-1.18-1.194zm-.679 2.536a.73.73 0 0 1-.737.738.73.73 0 0 1-.737-.738.73.73 0 0 1 .737-.737.74.74 0 0 1 .737.737zm-9.659 4.734a.183.183 0 0 1-.147-.03.19.19 0 0 1-.089-.132L4.978 6.69c-.015-.119.059-.222.162-.237l8.317-1.474h.03c.059 0 .103.029.118.044a.19.19 0 0 1 .088.133l.295 1.68H8.37c-.65 0-1.18.532-1.18 1.18v5.958l-.708.118zm10.338 1.475H8.37a.202.202 0 0 1-.207-.207v-2.005l2.758-3.17a.181.181 0 0 1 .28 0l1.71 1.946c.03.03.045.074.03.118l-.22 1.003c-.016.073.073.118.117.059l1.71-1.873c.06-.06.148-.06.193 0l2.27 2.492v1.43c0 .119-.088.207-.191.207z" fill="#41ABD9"/>
    </g>
    <defs>
        <clipPath id="0sil5yk31b">
            <path fill="#fff" transform="translate(4 4)" d="M0 0h14v12.555H0z"/>
        </clipPath>
        <filter id="aasfu31r4a" x="0" y="0" width="24" height="24" filterUnits="userSpaceOnUse" color-interpolation-filters="sRGB">
            <feFlood flood-opacity="0" result="BackgroundImageFix"/>
            <feColorMatrix in="SourceAlpha" values="0 0 0 0 0 0 0 0 0 0 0 0 0 0 0 0 0 0 127 0" result="hardAlpha"/>
            <feOffset dx="1" dy="2"/>
            <feGaussianBlur stdDeviation="1"/>
            <feComposite in2="hardAlpha" operator="out"/>
            <feColorMatrix values="0 0 0 0 0.552941 0 0 0 0 0.816628 0 0 0 0 0.87451 0 0 0 0.35 0"/>
            <feBlend in2="BackgroundImageFix" result="effect1_dropShadow_13150_88718"/>
            <feBlend in="SourceGraphic" in2="effect1_dropShadow_13150_88718" result="shape"/>
        </filter>
    </defs>
</svg>
