<svg width="24" height="25" viewBox="0 0 24 25" fill="none" xmlns="http://www.w3.org/2000/svg">
    <g filter="url(#nzxutbgu5a)">
        <rect x="1" y=".08" width="20" height="20" rx="4" fill="#EAF5F9"/>
        <rect x="1.5" y=".58" width="19" height="19" rx="3.5" stroke="#41ABD9"/>
    </g>
    <path d="M18.189 10.315c-.134.357-.402.624-.669.891-1.07 1.159-2.228 2.14-3.654 2.808a7.25 7.25 0 0 1-2.317.668c-1.07.09-2.095-.134-3.12-.535-1.203-.534-2.228-1.292-3.208-2.183-.401-.401-.802-.802-1.159-1.248-.311-.4-.356-.891 0-1.292C5.176 8.176 6.424 7.062 7.895 6.26c.713-.401 1.47-.624 2.272-.758.179 0 .357-.044.49-.044h.714c.089.044.178 0 .222.044.936.09 1.783.402 2.63.847 1.247.669 2.317 1.604 3.297 2.674.267.267.535.535.624.891.045.134.045.267.045.401zm-7.175 3.52c.267 0 .49 0 .758-.044.846-.134 1.604-.446 2.317-.891 1.203-.713 2.228-1.65 3.12-2.719.044-.089.044-.133 0-.222-.268-.312-.491-.58-.758-.847-.936-.936-2.006-1.783-3.209-2.317-.757-.312-1.56-.535-2.45-.49-.803.044-1.516.267-2.229.579-1.47.713-2.674 1.782-3.743 3.03-.045.09-.045.134 0 .223.134.133.223.267.356.4.936.981 1.961 1.872 3.164 2.496.847.535 1.738.803 2.674.803z" fill="#41ABD9"/>
    <path d="M7.895 10.092c.044-1.738 1.38-3.119 3.119-3.074a3.1 3.1 0 0 1 3.12 3.119c0 1.738-1.382 3.12-3.12 3.075-1.738 0-3.075-1.382-3.12-3.12zm.935 0c-.044 1.159.98 2.184 2.184 2.184 1.203 0 2.183-.98 2.183-2.184 0-1.158-.98-2.183-2.183-2.183-1.203 0-2.184 1.025-2.184 2.183z" fill="#41ABD9"/>
    <defs>
        <filter id="nzxutbgu5a" x="0" y=".08" width="24" height="24" filterUnits="userSpaceOnUse" color-interpolation-filters="sRGB">
            <feFlood flood-opacity="0" result="BackgroundImageFix"/>
            <feColorMatrix in="SourceAlpha" values="0 0 0 0 0 0 0 0 0 0 0 0 0 0 0 0 0 0 127 0" result="hardAlpha"/>
            <feOffset dx="1" dy="2"/>
            <feGaussianBlur stdDeviation="1"/>
            <feComposite in2="hardAlpha" operator="out"/>
            <feColorMatrix values="0 0 0 0 0.552941 0 0 0 0 0.816628 0 0 0 0 0.87451 0 0 0 0.35 0"/>
            <feBlend in2="BackgroundImageFix" result="effect1_dropShadow_1653_8367"/>
            <feBlend in="SourceGraphic" in2="effect1_dropShadow_1653_8367" result="shape"/>
        </filter>
    </defs>
</svg>
