<svg width="15" height="19" viewBox="0 0 15 19" fill="none" xmlns="http://www.w3.org/2000/svg">
    <path d="M11.5 6.588a3 3 0 0 1 3 3v6a3 3 0 0 1-3 3h-8a3 3 0 0 1-3-3v-6a3 3 0 0 1 3.003-3l1 .003a1 1 0 1 1-.006 2L3.5 8.588a1 1 0 0 0-1 1v6a1 1 0 0 0 1 1h8a1 1 0 0 0 1-1v-6a1 1 0 0 0-.997-1l-1 .003a1 1 0 0 1-.006-2l1.003-.003zM7.505 0c.196.012.39.08.553.208l.095.083 3.535 3.536a1 1 0 0 1-1.32 1.497l-.094-.083-1.779-1.779v9.122a1 1 0 0 1-2 0V3.362L4.617 5.241a1 1 0 0 1-1.32.083l-.094-.083a1 1 0 0 1-.083-1.32l.083-.094L6.738.29A.996.996 0 0 1 7.386 0h.119z" fill="#A93F60"/>
</svg>
