<?xml version="1.0" encoding="utf-8"?>
<!-- Generator: Adobe Illustrator 16.0.3, SVG Export Plug-In . SVG Version: 6.00 Build 0)  -->
<!DOCTYPE svg PUBLIC "-//W3C//DTD SVG 1.1//EN" "http://www.w3.org/Graphics/SVG/1.1/DTD/svg11.dtd">
<svg version="1.1" id="Capa_1" xmlns="http://www.w3.org/2000/svg" xmlns:xlink="http://www.w3.org/1999/xlink" x="0px" y="0px"
	 width="250px" height="38px" viewBox="0 0 250 38" enable-background="new 0 0 250 38" xml:space="preserve">
<g>
	<path fill="#E9E2D6" d="M0.031,38.047V9.712c0-5.216,6.458-9.445,14.423-9.445h221.153c7.965,0,14.424,4.229,14.424,9.445v28.334"
		/>
</g>
<g>
	<path fill="#6F7271" d="M28.987,24.992H27.14l-0.734-2.03h-3.361l-0.694,2.03h-1.801l3.275-8.939h1.795L28.987,24.992z
		 M25.861,21.456l-1.158-3.317l-1.136,3.317H25.861z"/>
	<path fill="#6F7271" d="M31.115,24.992l-2.455-6.476h1.692l1.147,3.306l0.333,1.104c0.088-0.281,0.144-0.466,0.167-0.555
		c0.054-0.184,0.111-0.366,0.172-0.549l1.159-3.306h1.657l-2.42,6.476H31.115z"/>
	<path fill="#6F7271" d="M37.177,20.492l-1.462-0.28c0.165-0.626,0.447-1.089,0.849-1.391c0.402-0.301,0.998-0.451,1.79-0.451
		c0.719,0,1.254,0.091,1.606,0.271c0.352,0.181,0.599,0.411,0.743,0.689c0.143,0.279,0.215,0.79,0.215,1.534l-0.017,2
		c0,0.569,0.026,0.989,0.077,1.259c0.052,0.271,0.148,0.561,0.29,0.869h-1.595c-0.042-0.113-0.094-0.281-0.155-0.506
		c-0.027-0.102-0.046-0.168-0.057-0.201c-0.275,0.285-0.57,0.498-0.883,0.641s-0.648,0.213-1.003,0.213
		c-0.627,0-1.122-0.18-1.483-0.543c-0.361-0.361-0.542-0.818-0.542-1.371c0-0.366,0.083-0.692,0.247-0.979
		c0.165-0.287,0.395-0.507,0.691-0.659s0.724-0.286,1.282-0.399c0.753-0.15,1.275-0.291,1.565-0.421v-0.171
		c0-0.329-0.076-0.564-0.229-0.704c-0.153-0.14-0.442-0.21-0.866-0.21c-0.287,0-0.51,0.06-0.671,0.18
		C37.406,19.98,37.276,20.191,37.177,20.492z M39.333,21.883c-0.206,0.073-0.533,0.16-0.98,0.262s-0.74,0.201-0.877,0.299
		c-0.21,0.158-0.315,0.36-0.315,0.604c0,0.24,0.084,0.447,0.252,0.623c0.168,0.174,0.382,0.262,0.642,0.262
		c0.291,0,0.568-0.102,0.832-0.305c0.195-0.154,0.323-0.344,0.384-0.567c0.042-0.146,0.063-0.425,0.063-0.835V21.883z"/>
	<path fill="#6F7271" d="M48.045,24.992h-1.612v-3.305c0-0.699-0.034-1.151-0.103-1.357c-0.069-0.205-0.181-0.364-0.335-0.479
		c-0.155-0.113-0.341-0.17-0.56-0.17c-0.279,0-0.529,0.081-0.751,0.244c-0.222,0.162-0.374,0.377-0.456,0.646
		c-0.082,0.268-0.123,0.764-0.123,1.487v2.933h-1.612v-6.476h1.497v0.951c0.531-0.731,1.2-1.098,2.007-1.098
		c0.355,0,0.68,0.068,0.975,0.205s0.517,0.31,0.668,0.521c0.151,0.211,0.256,0.451,0.315,0.72c0.059,0.269,0.089,0.652,0.089,1.152
		V24.992z"/>
	<path fill="#6F7271" d="M54.99,20.432l-1.589,0.305c-0.053-0.338-0.175-0.592-0.364-0.762c-0.189-0.172-0.435-0.257-0.737-0.257
		c-0.401,0-0.722,0.147-0.96,0.442c-0.239,0.295-0.358,0.787-0.358,1.479c0,0.769,0.121,1.311,0.364,1.629
		c0.243,0.316,0.568,0.475,0.978,0.475c0.306,0,0.557-0.092,0.751-0.277c0.195-0.185,0.333-0.503,0.413-0.954l1.583,0.286
		c-0.165,0.773-0.48,1.356-0.946,1.75c-0.466,0.395-1.091,0.592-1.875,0.592c-0.891,0-1.601-0.299-2.131-0.896
		s-0.794-1.424-0.794-2.481c0-1.069,0.266-1.901,0.797-2.497s1.25-0.894,2.156-0.894c0.742,0,1.332,0.17,1.77,0.509
		C54.484,19.219,54.798,19.736,54.99,20.432z"/>
	<path fill="#6F7271" d="M59.738,22.932l1.606,0.287c-0.207,0.625-0.533,1.102-0.978,1.43c-0.445,0.326-1.002,0.49-1.672,0.49
		c-1.059,0-1.843-0.367-2.351-1.104c-0.401-0.59-0.603-1.333-0.603-2.232c0-1.072,0.264-1.913,0.792-2.521
		c0.528-0.607,1.195-0.912,2.001-0.912c0.906,0,1.621,0.318,2.145,0.955s0.774,1.611,0.751,2.923h-4.038
		c0.012,0.509,0.142,0.904,0.39,1.187s0.558,0.424,0.929,0.424c0.252,0,0.464-0.073,0.636-0.22
		C59.521,23.492,59.65,23.257,59.738,22.932z M59.83,21.199c-0.012-0.496-0.132-0.873-0.361-1.131s-0.509-0.387-0.837-0.387
		c-0.352,0-0.642,0.136-0.872,0.408s-0.342,0.643-0.338,1.109H59.83z"/>
	<path fill="#6F7271" d="M71.593,24.992h-1.497v-0.951c-0.249,0.371-0.542,0.646-0.88,0.826c-0.338,0.182-0.68,0.271-1.023,0.271
		c-0.7,0-1.299-0.299-1.798-0.898c-0.499-0.6-0.748-1.437-0.748-2.51c0-1.098,0.243-1.932,0.728-2.503
		c0.486-0.571,1.099-0.857,1.841-0.857c0.68,0,1.269,0.301,1.766,0.903v-3.22h1.612V24.992z M67.292,21.614
		c0,0.691,0.089,1.191,0.27,1.5c0.26,0.447,0.623,0.671,1.089,0.671c0.371,0,0.687-0.168,0.946-0.503
		c0.26-0.335,0.39-0.837,0.39-1.503c0-0.744-0.126-1.279-0.378-1.607c-0.252-0.326-0.576-0.49-0.969-0.49
		c-0.382,0-0.703,0.161-0.961,0.484C67.42,20.489,67.292,20.973,67.292,21.614z"/>
	<path fill="#6F7271" d="M76.708,22.932l1.606,0.287c-0.207,0.625-0.533,1.102-0.978,1.43c-0.445,0.326-1.002,0.49-1.672,0.49
		c-1.059,0-1.843-0.367-2.351-1.104c-0.401-0.59-0.603-1.333-0.603-2.232c0-1.072,0.264-1.913,0.792-2.521
		c0.528-0.607,1.195-0.912,2.001-0.912c0.906,0,1.621,0.318,2.145,0.955s0.774,1.611,0.751,2.923h-4.038
		c0.012,0.509,0.142,0.904,0.39,1.187s0.558,0.424,0.929,0.424c0.252,0,0.464-0.073,0.636-0.22
		C76.491,23.492,76.621,23.257,76.708,22.932z M76.8,21.199c-0.012-0.496-0.132-0.873-0.361-1.131s-0.509-0.387-0.837-0.387
		c-0.352,0-0.642,0.136-0.872,0.408s-0.342,0.643-0.338,1.109H76.8z"/>
	<path fill="#6F7271" d="M82.409,23.145l1.617-0.262c0.069,0.334,0.208,0.586,0.418,0.76c0.21,0.172,0.505,0.259,0.883,0.259
		c0.417,0,0.73-0.081,0.94-0.244c0.142-0.114,0.212-0.267,0.212-0.458c0-0.129-0.038-0.237-0.115-0.322
		c-0.08-0.082-0.26-0.156-0.539-0.227c-1.3-0.305-2.124-0.582-2.472-0.835c-0.482-0.35-0.723-0.835-0.723-1.457
		c0-0.562,0.208-1.033,0.625-1.415c0.417-0.382,1.063-0.573,1.938-0.573c0.833,0,1.453,0.145,1.858,0.433
		c0.405,0.289,0.684,0.715,0.837,1.281l-1.52,0.299c-0.065-0.252-0.188-0.445-0.37-0.58c-0.182-0.134-0.44-0.201-0.777-0.201
		c-0.424,0-0.729,0.063-0.912,0.189c-0.122,0.09-0.184,0.205-0.184,0.348c0,0.122,0.054,0.226,0.161,0.311
		c0.146,0.114,0.647,0.275,1.505,0.482s1.458,0.461,1.798,0.762c0.336,0.305,0.504,0.73,0.504,1.275c0,0.593-0.233,1.104-0.7,1.529
		c-0.466,0.428-1.156,0.641-2.07,0.641c-0.83,0-1.486-0.178-1.97-0.537C82.875,24.244,82.558,23.759,82.409,23.145z"/>
	<path fill="#6F7271" d="M93.036,22.932l1.606,0.287c-0.207,0.625-0.533,1.102-0.978,1.43c-0.445,0.326-1.002,0.49-1.672,0.49
		c-1.059,0-1.843-0.367-2.351-1.104c-0.401-0.59-0.603-1.333-0.603-2.232c0-1.072,0.264-1.913,0.792-2.521
		c0.528-0.607,1.195-0.912,2.001-0.912c0.906,0,1.621,0.318,2.145,0.955s0.774,1.611,0.751,2.923H90.69
		c0.012,0.509,0.142,0.904,0.39,1.187s0.558,0.424,0.929,0.424c0.252,0,0.464-0.073,0.636-0.22
		C92.818,23.492,92.948,23.257,93.036,22.932z M93.128,21.199c-0.012-0.496-0.132-0.873-0.361-1.131s-0.509-0.387-0.837-0.387
		c-0.352,0-0.642,0.136-0.872,0.408s-0.342,0.643-0.338,1.109H93.128z"/>
	<path fill="#6F7271" d="M95.892,25.42l1.841,0.238c0.031,0.227,0.102,0.383,0.212,0.469c0.153,0.121,0.394,0.184,0.723,0.184
		c0.42,0,0.736-0.068,0.946-0.201c0.142-0.09,0.249-0.234,0.321-0.434c0.049-0.143,0.074-0.404,0.074-0.787v-0.945
		c-0.481,0.699-1.089,1.049-1.824,1.049c-0.818,0-1.466-0.367-1.944-1.104c-0.375-0.581-0.562-1.305-0.562-2.17
		c0-1.086,0.246-1.916,0.737-2.489c0.491-0.573,1.102-0.86,1.833-0.86c0.753,0,1.374,0.352,1.864,1.055v-0.909h1.508v5.812
		c0,0.764-0.06,1.336-0.178,1.713c-0.119,0.379-0.285,0.676-0.499,0.891c-0.214,0.215-0.5,0.385-0.857,0.506
		c-0.357,0.123-0.81,0.184-1.356,0.184c-1.032,0-1.765-0.188-2.196-0.564c-0.432-0.375-0.648-0.854-0.648-1.43
		C95.886,25.57,95.888,25.5,95.892,25.42z M97.332,21.621c0,0.687,0.125,1.189,0.376,1.509c0.25,0.319,0.559,0.479,0.926,0.479
		c0.394,0,0.726-0.163,0.998-0.491c0.271-0.326,0.407-0.812,0.407-1.454c0-0.671-0.13-1.169-0.39-1.494
		c-0.26-0.325-0.588-0.487-0.986-0.487c-0.386,0-0.705,0.159-0.955,0.479C97.457,20.479,97.332,20.966,97.332,21.621z"/>
	<path fill="#6F7271" d="M107.225,24.992v-0.969c-0.222,0.346-0.513,0.617-0.875,0.816s-0.743,0.299-1.144,0.299
		c-0.409,0-0.776-0.096-1.101-0.287c-0.325-0.189-0.56-0.459-0.706-0.805c-0.145-0.345-0.218-0.822-0.218-1.433v-4.098h1.612v2.976
		c0,0.911,0.029,1.469,0.089,1.674c0.059,0.205,0.167,0.368,0.324,0.488c0.157,0.119,0.355,0.18,0.597,0.18
		c0.275,0,0.522-0.08,0.74-0.24c0.218-0.161,0.367-0.36,0.447-0.598c0.081-0.238,0.121-0.82,0.121-1.748v-2.731h1.611v6.476H107.225
		z"/>
	<path fill="#6F7271" d="M110.391,17.639v-1.585h1.612v1.585H110.391z M110.391,24.992v-6.476h1.612v6.476H110.391z"/>
	<path fill="#6F7271" d="M113.533,18.517h1.485v0.884c0.531-0.687,1.164-1.031,1.898-1.031c0.39,0,0.729,0.085,1.015,0.256
		c0.287,0.17,0.522,0.429,0.706,0.774c0.268-0.346,0.556-0.604,0.865-0.774c0.311-0.171,0.641-0.256,0.992-0.256
		c0.447,0,0.826,0.097,1.136,0.29c0.31,0.193,0.541,0.477,0.694,0.851c0.11,0.276,0.166,0.724,0.166,1.341v4.141h-1.611v-3.701
		c0-0.643-0.056-1.057-0.166-1.244c-0.149-0.244-0.379-0.365-0.688-0.365c-0.226,0-0.438,0.072-0.637,0.219s-0.342,0.361-0.43,0.644
		c-0.089,0.282-0.133,0.729-0.133,1.339v3.109h-1.611v-3.549c0-0.63-0.028-1.037-0.086-1.219c-0.058-0.184-0.146-0.32-0.267-0.409
		s-0.284-0.134-0.49-0.134c-0.249,0-0.473,0.07-0.671,0.213c-0.199,0.143-0.342,0.348-0.428,0.616s-0.129,0.714-0.129,1.335v3.146
		h-1.611V18.517z"/>
	<path fill="#6F7271" d="M124.097,17.639v-1.585h1.612v1.585H124.097z M124.097,24.992v-6.476h1.612v6.476H124.097z"/>
	<path fill="#6F7271" d="M130.888,22.932l1.605,0.287c-0.206,0.625-0.532,1.102-0.978,1.43c-0.445,0.326-1.003,0.49-1.672,0.49
		c-1.059,0-1.843-0.367-2.352-1.104c-0.401-0.59-0.602-1.333-0.602-2.232c0-1.072,0.264-1.913,0.791-2.521
		c0.527-0.607,1.195-0.912,2.002-0.912c0.906,0,1.621,0.318,2.145,0.955s0.774,1.611,0.751,2.923h-4.037
		c0.012,0.509,0.142,0.904,0.39,1.187c0.249,0.282,0.559,0.424,0.93,0.424c0.252,0,0.464-0.073,0.637-0.22
		C130.67,23.492,130.8,23.257,130.888,22.932z M130.979,21.199c-0.012-0.496-0.132-0.873-0.361-1.131s-0.509-0.387-0.837-0.387
		c-0.353,0-0.643,0.136-0.872,0.408s-0.343,0.643-0.339,1.109H130.979z"/>
	<path fill="#6F7271" d="M139.433,24.992h-1.611v-3.305c0-0.699-0.034-1.151-0.104-1.357c-0.068-0.205-0.181-0.364-0.335-0.479
		c-0.155-0.113-0.342-0.17-0.56-0.17c-0.279,0-0.529,0.081-0.751,0.244c-0.222,0.162-0.374,0.377-0.456,0.646
		c-0.082,0.268-0.123,0.764-0.123,1.487v2.933h-1.611v-6.476h1.496v0.951c0.531-0.731,1.201-1.098,2.008-1.098
		c0.355,0,0.681,0.068,0.975,0.205c0.295,0.136,0.518,0.31,0.668,0.521c0.151,0.211,0.257,0.451,0.315,0.72
		c0.06,0.269,0.089,0.652,0.089,1.152V24.992z"/>
	<path fill="#6F7271" d="M143.86,18.517v1.366h-1.101v2.609c0,0.529,0.01,0.837,0.031,0.924c0.021,0.088,0.069,0.16,0.144,0.217
		s0.165,0.086,0.272,0.086c0.148,0,0.365-0.056,0.647-0.165l0.138,1.329c-0.374,0.17-0.799,0.256-1.272,0.256
		c-0.291,0-0.553-0.051-0.786-0.154c-0.233-0.105-0.404-0.238-0.514-0.402c-0.108-0.166-0.184-0.389-0.227-0.669
		c-0.034-0.198-0.051-0.602-0.051-1.207v-2.823h-0.74v-1.366h0.74V17.23l1.617-1v2.287H143.86z"/>
	<path fill="#6F7271" d="M144.606,21.663c0-0.569,0.132-1.12,0.396-1.652c0.264-0.533,0.638-0.939,1.121-1.22
		c0.483-0.281,1.023-0.421,1.62-0.421c0.921,0,1.677,0.318,2.266,0.955s0.883,1.44,0.883,2.412c0,0.98-0.297,1.792-0.892,2.436
		c-0.595,0.645-1.343,0.967-2.245,0.967c-0.559,0-1.091-0.135-1.598-0.402s-0.892-0.662-1.155-1.18
		C144.738,23.038,144.606,22.407,144.606,21.663z M146.258,21.754c0,0.643,0.144,1.135,0.43,1.477
		c0.287,0.342,0.641,0.512,1.062,0.512c0.42,0,0.773-0.17,1.058-0.512c0.285-0.342,0.428-0.838,0.428-1.488
		c0-0.634-0.143-1.121-0.428-1.463c-0.284-0.342-0.638-0.513-1.058-0.513c-0.421,0-0.774,0.171-1.062,0.513
		C146.401,20.621,146.258,21.112,146.258,21.754z"/>
	<path fill="#6F7271" d="M161.002,24.992h-1.496v-0.951c-0.249,0.371-0.542,0.646-0.881,0.826c-0.338,0.182-0.68,0.271-1.023,0.271
		c-0.7,0-1.299-0.299-1.798-0.898s-0.749-1.437-0.749-2.51c0-1.098,0.243-1.932,0.729-2.503c0.485-0.571,1.1-0.857,1.841-0.857
		c0.681,0,1.27,0.301,1.767,0.903v-3.22h1.611V24.992z M156.701,21.614c0,0.691,0.09,1.191,0.27,1.5
		c0.26,0.447,0.623,0.671,1.09,0.671c0.37,0,0.686-0.168,0.946-0.503c0.26-0.335,0.39-0.837,0.39-1.503
		c0-0.744-0.126-1.279-0.379-1.607c-0.252-0.326-0.575-0.49-0.969-0.49c-0.383,0-0.703,0.161-0.961,0.484
		S156.701,20.973,156.701,21.614z"/>
	<path fill="#6F7271" d="M166.118,22.932l1.605,0.287c-0.206,0.625-0.532,1.102-0.978,1.43c-0.445,0.326-1.003,0.49-1.672,0.49
		c-1.059,0-1.843-0.367-2.352-1.104c-0.401-0.59-0.602-1.333-0.602-2.232c0-1.072,0.264-1.913,0.791-2.521
		c0.527-0.607,1.195-0.912,2.002-0.912c0.906,0,1.621,0.318,2.145,0.955s0.774,1.611,0.751,2.923h-4.037
		c0.012,0.509,0.142,0.904,0.39,1.187c0.249,0.282,0.559,0.424,0.93,0.424c0.252,0,0.464-0.073,0.637-0.22
		C165.9,23.492,166.03,23.257,166.118,22.932z M166.21,21.199c-0.012-0.496-0.132-0.873-0.361-1.131s-0.509-0.387-0.837-0.387
		c-0.353,0-0.643,0.136-0.872,0.408s-0.343,0.643-0.339,1.109H166.21z"/>
	<path fill="#6F7271" d="M175.179,18.517v1.366h-1.101v2.609c0,0.529,0.01,0.837,0.031,0.924c0.021,0.088,0.069,0.16,0.144,0.217
		s0.165,0.086,0.272,0.086c0.148,0,0.365-0.056,0.647-0.165l0.138,1.329c-0.374,0.17-0.799,0.256-1.272,0.256
		c-0.291,0-0.553-0.051-0.786-0.154c-0.233-0.105-0.404-0.238-0.514-0.402c-0.108-0.166-0.184-0.389-0.227-0.669
		c-0.034-0.198-0.051-0.602-0.051-1.207v-2.823h-0.74v-1.366h0.74V17.23l1.617-1v2.287H175.179z"/>
	<path fill="#6F7271" d="M177.841,24.992h-1.611v-6.476h1.497v0.921c0.256-0.435,0.486-0.722,0.69-0.86
		c0.205-0.138,0.437-0.208,0.697-0.208c0.367,0,0.721,0.108,1.061,0.323l-0.499,1.494c-0.271-0.188-0.523-0.281-0.757-0.281
		c-0.226,0-0.417,0.066-0.573,0.199c-0.157,0.132-0.28,0.371-0.37,0.717c-0.09,0.345-0.135,1.068-0.135,2.17V24.992z"/>
	<path fill="#6F7271" d="M182.073,20.492l-1.463-0.28c0.164-0.626,0.447-1.089,0.849-1.391c0.401-0.301,0.998-0.451,1.789-0.451
		c0.719,0,1.255,0.091,1.606,0.271c0.352,0.181,0.6,0.411,0.742,0.689c0.144,0.279,0.216,0.79,0.216,1.534l-0.018,2
		c0,0.569,0.025,0.989,0.077,1.259c0.052,0.271,0.148,0.561,0.29,0.869h-1.595c-0.042-0.113-0.094-0.281-0.154-0.506
		c-0.027-0.102-0.046-0.168-0.058-0.201c-0.275,0.285-0.57,0.498-0.884,0.641s-0.647,0.213-1.003,0.213
		c-0.627,0-1.121-0.18-1.482-0.543c-0.361-0.361-0.542-0.818-0.542-1.371c0-0.366,0.082-0.692,0.246-0.979
		c0.165-0.287,0.395-0.507,0.691-0.659c0.296-0.152,0.724-0.286,1.281-0.399c0.754-0.15,1.275-0.291,1.566-0.421v-0.171
		c0-0.329-0.077-0.564-0.229-0.704c-0.153-0.14-0.441-0.21-0.866-0.21c-0.287,0-0.511,0.06-0.671,0.18
		C182.302,19.98,182.172,20.191,182.073,20.492z M184.229,21.883c-0.207,0.073-0.533,0.16-0.981,0.262
		c-0.447,0.102-0.739,0.201-0.877,0.299c-0.21,0.158-0.315,0.36-0.315,0.604c0,0.24,0.084,0.447,0.252,0.623
		c0.169,0.174,0.383,0.262,0.643,0.262c0.291,0,0.567-0.102,0.832-0.305c0.194-0.154,0.322-0.344,0.384-0.567
		c0.042-0.146,0.063-0.425,0.063-0.835V21.883z"/>
	<path fill="#6F7271" d="M192.94,24.992h-1.611v-3.305c0-0.699-0.034-1.151-0.104-1.357c-0.068-0.205-0.181-0.364-0.335-0.479
		c-0.155-0.113-0.342-0.17-0.56-0.17c-0.279,0-0.529,0.081-0.751,0.244c-0.222,0.162-0.374,0.377-0.456,0.646
		c-0.082,0.268-0.123,0.764-0.123,1.487v2.933h-1.611v-6.476h1.496v0.951c0.531-0.731,1.201-1.098,2.008-1.098
		c0.355,0,0.681,0.068,0.975,0.205c0.295,0.136,0.518,0.31,0.668,0.521c0.151,0.211,0.257,0.451,0.315,0.72
		c0.06,0.269,0.089,0.652,0.089,1.152V24.992z"/>
	<path fill="#6F7271" d="M194.008,23.145l1.617-0.262c0.068,0.334,0.208,0.586,0.419,0.76c0.21,0.172,0.504,0.259,0.883,0.259
		c0.417,0,0.73-0.081,0.94-0.244c0.142-0.114,0.213-0.267,0.213-0.458c0-0.129-0.039-0.237-0.115-0.322
		c-0.08-0.082-0.26-0.156-0.539-0.227c-1.3-0.305-2.124-0.582-2.472-0.835c-0.481-0.35-0.723-0.835-0.723-1.457
		c0-0.562,0.208-1.033,0.625-1.415c0.417-0.382,1.063-0.573,1.938-0.573c0.833,0,1.453,0.145,1.858,0.433s0.685,0.715,0.837,1.281
		l-1.52,0.299c-0.065-0.252-0.188-0.445-0.37-0.58c-0.182-0.134-0.44-0.201-0.777-0.201c-0.424,0-0.728,0.063-0.911,0.189
		c-0.123,0.09-0.184,0.205-0.184,0.348c0,0.122,0.053,0.226,0.16,0.311c0.146,0.114,0.647,0.275,1.506,0.482
		s1.457,0.461,1.798,0.762c0.336,0.305,0.505,0.73,0.505,1.275c0,0.593-0.233,1.104-0.7,1.529c-0.467,0.428-1.156,0.641-2.07,0.641
		c-0.83,0-1.486-0.178-1.97-0.537C194.473,24.244,194.157,23.759,194.008,23.145z"/>
	<path fill="#6F7271" d="M200.402,18.517h0.895v-0.488c0-0.545,0.055-0.951,0.163-1.22c0.109-0.268,0.311-0.487,0.603-0.655
		c0.293-0.169,0.662-0.253,1.109-0.253c0.459,0,0.908,0.073,1.349,0.22l-0.219,1.195c-0.256-0.065-0.502-0.098-0.739-0.098
		c-0.233,0-0.4,0.058-0.502,0.174c-0.102,0.116-0.152,0.338-0.152,0.667v0.458h1.205v1.348h-1.205v5.128h-1.611v-5.128h-0.895
		V18.517z"/>
	<path fill="#6F7271" d="M208.546,22.932l1.605,0.287c-0.206,0.625-0.532,1.102-0.978,1.43c-0.445,0.326-1.003,0.49-1.672,0.49
		c-1.059,0-1.843-0.367-2.352-1.104c-0.401-0.59-0.602-1.333-0.602-2.232c0-1.072,0.264-1.913,0.791-2.521
		c0.527-0.607,1.195-0.912,2.002-0.912c0.906,0,1.621,0.318,2.145,0.955s0.774,1.611,0.751,2.923H206.2
		c0.012,0.509,0.142,0.904,0.39,1.187c0.249,0.282,0.559,0.424,0.93,0.424c0.252,0,0.464-0.073,0.637-0.22
		C208.328,23.492,208.458,23.257,208.546,22.932z M208.638,21.199c-0.012-0.496-0.132-0.873-0.361-1.131s-0.509-0.387-0.837-0.387
		c-0.353,0-0.643,0.136-0.872,0.408s-0.343,0.643-0.339,1.109H208.638z"/>
	<path fill="#6F7271" d="M213.094,24.992h-1.611v-6.476h1.497v0.921c0.256-0.435,0.486-0.722,0.69-0.86
		c0.205-0.138,0.437-0.208,0.697-0.208c0.367,0,0.721,0.108,1.061,0.323l-0.499,1.494c-0.271-0.188-0.523-0.281-0.757-0.281
		c-0.226,0-0.417,0.066-0.573,0.199c-0.157,0.132-0.28,0.371-0.37,0.717c-0.09,0.345-0.135,1.068-0.135,2.17V24.992z"/>
	<path fill="#6F7271" d="M219.649,22.932l1.605,0.287c-0.206,0.625-0.532,1.102-0.978,1.43c-0.445,0.326-1.003,0.49-1.672,0.49
		c-1.059,0-1.843-0.367-2.352-1.104c-0.401-0.59-0.602-1.333-0.602-2.232c0-1.072,0.264-1.913,0.791-2.521
		c0.527-0.607,1.195-0.912,2.002-0.912c0.906,0,1.621,0.318,2.145,0.955s0.774,1.611,0.751,2.923h-4.037
		c0.012,0.509,0.142,0.904,0.39,1.187c0.249,0.282,0.559,0.424,0.93,0.424c0.252,0,0.464-0.073,0.637-0.22
		C219.432,23.492,219.562,23.257,219.649,22.932z M219.741,21.199c-0.012-0.496-0.132-0.873-0.361-1.131s-0.509-0.387-0.837-0.387
		c-0.353,0-0.643,0.136-0.872,0.408s-0.343,0.643-0.339,1.109H219.741z"/>
	<path fill="#6F7271" d="M228.194,24.992h-1.611v-3.305c0-0.699-0.034-1.151-0.104-1.357c-0.068-0.205-0.181-0.364-0.335-0.479
		c-0.155-0.113-0.342-0.17-0.56-0.17c-0.279,0-0.529,0.081-0.751,0.244c-0.222,0.162-0.374,0.377-0.456,0.646
		c-0.082,0.268-0.123,0.764-0.123,1.487v2.933h-1.611v-6.476h1.496v0.951c0.531-0.731,1.201-1.098,2.008-1.098
		c0.355,0,0.681,0.068,0.975,0.205c0.295,0.136,0.518,0.31,0.668,0.521c0.151,0.211,0.257,0.451,0.315,0.72
		c0.06,0.269,0.089,0.652,0.089,1.152V24.992z"/>
	<path fill="#6F7271" d="M235.139,20.432l-1.588,0.305c-0.054-0.338-0.175-0.592-0.364-0.762c-0.189-0.172-0.436-0.257-0.737-0.257
		c-0.401,0-0.722,0.147-0.961,0.442c-0.238,0.295-0.358,0.787-0.358,1.479c0,0.769,0.122,1.311,0.364,1.629
		c0.243,0.316,0.569,0.475,0.979,0.475c0.306,0,0.556-0.092,0.751-0.277c0.195-0.185,0.333-0.503,0.413-0.954l1.583,0.286
		c-0.165,0.773-0.48,1.356-0.946,1.75c-0.467,0.395-1.092,0.592-1.876,0.592c-0.891,0-1.601-0.299-2.13-0.896
		c-0.53-0.598-0.795-1.424-0.795-2.481c0-1.069,0.266-1.901,0.797-2.497c0.532-0.596,1.251-0.894,2.157-0.894
		c0.741,0,1.331,0.17,1.769,0.509C234.634,19.219,234.948,19.736,235.139,20.432z"/>
	<path fill="#6F7271" d="M236.36,17.639v-1.585h1.612v1.585H236.36z M236.36,24.992v-6.476h1.612v6.476H236.36z"/>
	<path fill="#6F7271" d="M240.829,20.492l-1.463-0.28c0.164-0.626,0.447-1.089,0.849-1.391c0.401-0.301,0.998-0.451,1.789-0.451
		c0.719,0,1.255,0.091,1.606,0.271c0.352,0.181,0.6,0.411,0.742,0.689c0.144,0.279,0.216,0.79,0.216,1.534l-0.018,2
		c0,0.569,0.025,0.989,0.077,1.259c0.052,0.271,0.148,0.561,0.29,0.869h-1.595c-0.042-0.113-0.094-0.281-0.154-0.506
		c-0.027-0.102-0.046-0.168-0.058-0.201c-0.275,0.285-0.57,0.498-0.884,0.641s-0.647,0.213-1.003,0.213
		c-0.627,0-1.121-0.18-1.482-0.543c-0.361-0.361-0.542-0.818-0.542-1.371c0-0.366,0.082-0.692,0.246-0.979
		c0.165-0.287,0.395-0.507,0.691-0.659c0.296-0.152,0.724-0.286,1.281-0.399c0.754-0.15,1.275-0.291,1.566-0.421v-0.171
		c0-0.329-0.077-0.564-0.229-0.704c-0.153-0.14-0.441-0.21-0.866-0.21c-0.287,0-0.511,0.06-0.671,0.18
		C241.058,19.98,240.928,20.191,240.829,20.492z M242.985,21.883c-0.207,0.073-0.533,0.16-0.981,0.262
		c-0.447,0.102-0.739,0.201-0.877,0.299c-0.21,0.158-0.315,0.36-0.315,0.604c0,0.24,0.084,0.447,0.252,0.623
		c0.169,0.174,0.383,0.262,0.643,0.262c0.291,0,0.567-0.102,0.832-0.305c0.194-0.154,0.322-0.344,0.384-0.567
		c0.042-0.146,0.063-0.425,0.063-0.835V21.883z"/>
</g>
<path fill-rule="evenodd" clip-rule="evenodd" fill="#E9E2D7" d="M-337.085,137.933c0,14.943-0.029,29.888,0.039,44.831
	c0.008,1.756-0.493,2.223-2.224,2.208c-9.15-0.083-18.301-0.004-27.451-0.072c-1.584-0.012-2.022,0.489-2.001,2.03
	c0.079,5.66,0.084,11.323-0.002,16.983c-0.024,1.579,0.479,2.003,2.024,2c23.172-0.043,46.346-0.043,69.518,0
	c1.531,0.002,2.059-0.398,2.034-1.992c-0.09-5.594-0.098-11.191,0.003-16.786c0.031-1.712-0.42-2.26-2.197-2.243
	c-9.15,0.088-18.301,0.01-27.451,0.071c-1.534,0.011-2.037-0.402-2.029-1.993c0.061-12.64,0.056-25.279,0.001-37.919
	c-0.006-1.364,0.459-1.901,1.706-2.379c16.382-6.277,32.738-12.623,49.102-18.949c0.425-0.164,1.044-0.229,1.119-0.683
	c0.111-0.673-0.632-0.731-1.061-0.953c-11.155-5.781-22.306-11.567-33.479-17.312c-8.485-4.362-17.004-8.657-25.497-13.004
	c-2.164-1.107-2.153-1.146-2.153,1.33C-337.087,108.045-337.085,122.989-337.085,137.933z"/>
<g>
	<path fill-rule="evenodd" clip-rule="evenodd" fill="#CEB899" d="M10.627,16.736c0-1.983,0-3.967,0-5.951
		c0-0.329-0.001-0.324,0.286-0.176c1.127,0.577,2.258,1.146,3.384,1.726c1.483,0.762,2.963,1.53,4.444,2.298
		c0.056,0.029,0.155,0.038,0.14,0.126c-0.009,0.061-0.092,0.069-0.148,0.091c-2.172,0.84-4.343,1.682-6.518,2.515
		c-0.166,0.064-0.227,0.135-0.227,0.316c0.007,1.678,0.008,3.356,0,5.034c-0.001,0.211,0.066,0.266,0.27,0.265
		c1.214-0.008,2.429,0.001,3.644-0.01c0.236-0.002,0.296,0.07,0.292,0.298c-0.013,0.742-0.012,1.486,0,2.229
		c0.003,0.212-0.066,0.265-0.27,0.265c-3.076-0.006-6.152-0.006-9.228,0c-0.205,0-0.271-0.057-0.268-0.266
		c0.011-0.752,0.011-1.504,0-2.254c-0.003-0.205,0.055-0.271,0.265-0.271c1.214,0.01,2.429-0.001,3.644,0.01
		c0.229,0.002,0.296-0.06,0.295-0.292C10.624,20.704,10.627,18.72,10.627,16.736z"/>
</g>
</svg>
