<?xml version="1.0" encoding="utf-8"?>
<!-- Generator: Adobe Illustrator 16.0.3, SVG Export Plug-In . SVG Version: 6.00 Build 0)  -->
<!DOCTYPE svg PUBLIC "-//W3C//DTD SVG 1.1//EN" "http://www.w3.org/Graphics/SVG/1.1/DTD/svg11.dtd">
<svg version="1.1" id="Capa_1" xmlns="http://www.w3.org/2000/svg" xmlns:xlink="http://www.w3.org/1999/xlink" x="0px" y="0px"
	 width="180px" height="36px" viewBox="0 0 180 36" enable-background="new 0 0 180 36" xml:space="preserve">
<g>
	<g>
		<path fill="#155462" d="M0,34.049V8.186c0-4.761,4.649-8.621,10.384-8.621h159.232C175.35-0.435,180,3.424,180,8.186V34.05"/>
	</g>
</g>
<rect y="34.049" fill="#BC955C" width="180.001" height="2.387"/>
<g>
	<path fill="#FFFFFF" d="M21.582,8.638c2.004,0,4.009-0.01,6.013,0.002c1.694,0.012,2.663,0.935,2.696,2.644
		c0.04,2.045,0.031,4.091,0.006,6.136c-0.022,1.882-0.071,3.754,0.798,5.514c0.122,0.246,0.128,0.798,0.002,0.866
		c-0.263,0.144-0.755,0.2-0.971,0.044c-2.518-1.83-5.407-1.534-8.252-1.519c-2.086,0.013-4.172,0.013-6.258-0.002
		c-1.718-0.01-2.652-0.921-2.665-2.645c-0.022-2.821-0.026-5.643,0.001-8.465c0.016-1.638,0.973-2.558,2.618-2.571
		C17.573,8.625,19.576,8.638,21.582,8.638z M28.046,19.243c-0.002-0.141-0.005-0.282-0.008-0.424c-4.514,0-9.027,0-13.542,0
		c0,0.142,0,0.282-0.001,0.424C19.012,19.243,23.53,19.243,28.046,19.243z M28.098,13.397c0-0.129-0.001-0.26-0.001-0.39
		c-4.535,0-9.07,0-13.606,0c0,0.129,0.001,0.261,0.001,0.39C19.027,13.397,23.563,13.397,28.098,13.397z M28.019,16.241
		c0-0.13-0.001-0.262-0.001-0.393c-4.535,0-9.07,0-13.606,0c0,0.13,0,0.262,0,0.393C18.948,16.241,23.483,16.241,28.019,16.241z"/>
	<path fill="#FFFFFF" d="M12.305,12.317c0.021,0.42,0.064,0.854,0.065,1.288c0.007,2.047-0.005,4.095,0.006,6.141
		c0.011,1.94,1.192,3.149,3.113,3.16c3.357,0.017,6.715,0,10.072,0.01c1.325,0.004,1.642,0.579,0.975,1.759
		c-0.567,1.006-1.5,1.324-2.589,1.324c-2.744-0.002-5.49,0.086-8.229-0.028c-2.063-0.084-3.966,0.199-5.737,1.308
		c-0.328,0.207-0.81,0.17-1.222,0.243c0.006-0.451-0.041-0.913,0.029-1.354C9,24.814,9.403,23.476,9.467,22.119
		c0.115-2.41,0.013-4.83,0.042-7.246C9.528,13.129,10.482,12.241,12.305,12.317z"/>
</g>
<g enable-background="new    ">
	<path fill="#FFFFFF" d="M52.686,19.518l2.943,0.934c-0.451,1.641-1.202,2.859-2.251,3.655c-1.049,0.797-2.38,1.194-3.994,1.194
		c-1.996,0-3.637-0.682-4.922-2.045c-1.285-1.364-1.928-3.229-1.928-5.594c0-2.502,0.646-4.445,1.938-5.829
		c1.292-1.385,2.991-2.077,5.096-2.077c1.839,0,3.333,0.544,4.481,1.631c0.684,0.643,1.196,1.565,1.538,2.769l-3.004,0.718
		c-0.178-0.779-0.548-1.395-1.113-1.846c-0.563-0.451-1.249-0.677-2.056-0.677c-1.114,0-2.019,0.399-2.712,1.2
		c-0.694,0.799-1.041,2.095-1.041,3.886c0,1.9,0.342,3.254,1.025,4.061s1.572,1.21,2.666,1.21c0.807,0,1.5-0.256,2.082-0.77
		C52.016,21.426,52.433,20.619,52.686,19.518z"/>
	<path fill="#FFFFFF" d="M57.546,19.446c0-0.957,0.236-1.883,0.708-2.778s1.14-1.58,2.005-2.051c0.864-0.473,1.83-0.708,2.896-0.708
		c1.647,0,2.998,0.535,4.05,1.604c1.053,1.07,1.579,2.422,1.579,4.056c0,1.647-0.532,3.013-1.594,4.097
		c-1.063,1.083-2.401,1.625-4.015,1.625c-0.998,0-1.95-0.226-2.855-0.677c-0.906-0.451-1.595-1.112-2.066-1.984
		C57.782,21.759,57.546,20.697,57.546,19.446z M60.5,19.6c0,1.081,0.256,1.908,0.769,2.482s1.145,0.861,1.897,0.861
		s1.382-0.287,1.892-0.861c0.509-0.574,0.764-1.408,0.764-2.502c0-1.066-0.255-1.887-0.764-2.461
		c-0.51-0.574-1.14-0.861-1.892-0.861s-1.384,0.287-1.897,0.861S60.5,18.521,60.5,19.6z"/>
	<path fill="#FFFFFF" d="M70.825,14.155h2.656v1.487c0.95-1.155,2.082-1.733,3.394-1.733c0.697,0,1.302,0.144,1.815,0.431
		s0.933,0.722,1.261,1.303c0.479-0.581,0.995-1.016,1.548-1.303s1.145-0.431,1.774-0.431c0.8,0,1.477,0.162,2.03,0.487
		c0.554,0.324,0.967,0.802,1.241,1.43c0.198,0.466,0.297,1.218,0.297,2.256v6.963H83.96V18.82c0-1.079-0.099-1.776-0.297-2.092
		c-0.267-0.41-0.677-0.615-1.23-0.615c-0.403,0-0.783,0.123-1.138,0.369s-0.612,0.607-0.769,1.082
		c-0.157,0.476-0.236,1.226-0.236,2.251v5.229h-2.881v-5.968c0-1.06-0.051-1.743-0.154-2.051s-0.261-0.536-0.477-0.687
		c-0.215-0.15-0.507-0.227-0.876-0.227c-0.444,0-0.844,0.12-1.2,0.359s-0.61,0.584-0.764,1.035c-0.154,0.451-0.231,1.2-0.231,2.246
		v5.291h-2.881V14.155z"/>
	<path fill="#FFFFFF" d="M96.02,21.579l2.871,0.481c-0.369,1.054-0.953,1.854-1.749,2.405c-0.796,0.55-1.792,0.825-2.989,0.825
		c-1.893,0-3.295-0.618-4.204-1.855c-0.718-0.991-1.077-2.242-1.077-3.754c0-1.805,0.472-3.218,1.415-4.239
		c0.943-1.022,2.137-1.533,3.578-1.533c1.621,0,2.898,0.535,3.836,1.604c0.936,1.07,1.384,2.709,1.343,4.917h-7.219
		c0.021,0.854,0.253,1.52,0.697,1.994c0.444,0.476,0.998,0.713,1.661,0.713c0.451,0,0.83-0.123,1.139-0.369
		C95.629,22.522,95.861,22.126,96.02,21.579z M96.184,18.667c-0.021-0.834-0.236-1.468-0.646-1.902
		c-0.41-0.434-0.909-0.651-1.497-0.651c-0.629,0-1.148,0.229-1.559,0.688s-0.612,1.08-0.604,1.866H96.184z"/>
	<path fill="#FFFFFF" d="M111.297,25.045h-2.881v-5.558c0-1.176-0.062-1.937-0.185-2.281c-0.123-0.346-0.323-0.613-0.6-0.806
		c-0.277-0.19-0.61-0.287-1-0.287c-0.499,0-0.946,0.138-1.343,0.41c-0.396,0.274-0.669,0.637-0.815,1.088
		c-0.147,0.451-0.221,1.285-0.221,2.502v4.932h-2.882v-10.89h2.677v1.6c0.95-1.23,2.146-1.846,3.589-1.846
		c0.636,0,1.217,0.114,1.743,0.344c0.526,0.229,0.925,0.521,1.194,0.876c0.27,0.356,0.458,0.76,0.564,1.211
		c0.105,0.451,0.158,1.097,0.158,1.938V25.045z"/>
	<path fill="#FFFFFF" d="M119.213,14.155v2.297h-1.969v4.389c0,0.889,0.02,1.406,0.057,1.554c0.037,0.146,0.123,0.269,0.257,0.363
		c0.133,0.097,0.296,0.145,0.487,0.145c0.266,0,0.652-0.093,1.158-0.277l0.246,2.235c-0.67,0.287-1.429,0.431-2.276,0.431
		c-0.52,0-0.987-0.087-1.405-0.262c-0.416-0.174-0.723-0.399-0.917-0.677c-0.195-0.276-0.33-0.651-0.405-1.122
		c-0.062-0.335-0.092-1.012-0.092-2.031v-4.747h-1.323v-2.297h1.323v-2.163l2.891-1.682v3.845H119.213z"/>
	<path fill="#FFFFFF" d="M123.366,17.478l-2.614-0.472c0.293-1.053,0.799-1.832,1.518-2.338c0.717-0.506,1.783-0.759,3.199-0.759
		c1.285,0,2.242,0.152,2.871,0.456c0.629,0.305,1.071,0.69,1.327,1.159c0.257,0.468,0.385,1.327,0.385,2.579l-0.03,3.363
		c0,0.957,0.046,1.662,0.138,2.117c0.093,0.454,0.265,0.941,0.519,1.461h-2.852c-0.074-0.191-0.167-0.475-0.276-0.852
		c-0.048-0.17-0.082-0.283-0.103-0.338c-0.492,0.479-1.019,0.838-1.579,1.076c-0.561,0.239-1.159,0.359-1.794,0.359
		c-1.121,0-2.005-0.304-2.651-0.912c-0.646-0.608-0.969-1.378-0.969-2.308c0-0.615,0.147-1.164,0.44-1.646
		c0.295-0.482,0.706-0.852,1.236-1.107c0.529-0.257,1.293-0.48,2.291-0.672c1.348-0.253,2.28-0.488,2.8-0.707v-0.287
		c0-0.555-0.137-0.949-0.41-1.185c-0.273-0.236-0.79-0.354-1.548-0.354c-0.514,0-0.913,0.102-1.2,0.303
		C123.776,16.618,123.544,16.972,123.366,17.478z M127.222,19.815c-0.369,0.123-0.954,0.271-1.753,0.44
		c-0.801,0.172-1.323,0.339-1.569,0.503c-0.376,0.267-0.563,0.604-0.563,1.015c0,0.404,0.15,0.753,0.451,1.047
		s0.684,0.44,1.148,0.44c0.52,0,1.015-0.171,1.486-0.513c0.349-0.26,0.578-0.577,0.688-0.953c0.074-0.246,0.112-0.715,0.112-1.405
		V19.815z"/>
	<path fill="#FFFFFF" d="M135.65,25.045h-2.881v-10.89h2.676v1.548c0.458-0.73,0.869-1.213,1.235-1.445s0.781-0.349,1.246-0.349
		c0.656,0,1.288,0.182,1.897,0.544l-0.893,2.512c-0.485-0.314-0.937-0.472-1.354-0.472c-0.403,0-0.745,0.111-1.025,0.333
		c-0.28,0.223-0.501,0.624-0.661,1.205c-0.161,0.581-0.241,1.798-0.241,3.65V25.045z"/>
	<path fill="#FFFFFF" d="M141.064,12.679v-2.666h2.881v2.666H141.064z M141.064,25.045v-10.89h2.881v10.89H141.064z"/>
	<path fill="#FFFFFF" d="M146.232,19.446c0-0.957,0.236-1.883,0.707-2.778c0.473-0.896,1.141-1.58,2.005-2.051
		c0.864-0.473,1.831-0.708,2.897-0.708c1.646,0,2.997,0.535,4.05,1.604c1.053,1.07,1.579,2.422,1.579,4.056
		c0,1.647-0.531,3.013-1.595,4.097c-1.063,1.083-2.401,1.625-4.015,1.625c-0.998,0-1.949-0.226-2.855-0.677
		s-1.594-1.112-2.066-1.984C146.469,21.759,146.232,20.697,146.232,19.446z M149.186,19.6c0,1.081,0.256,1.908,0.77,2.482
		c0.512,0.574,1.145,0.861,1.896,0.861s1.383-0.287,1.892-0.861s0.765-1.408,0.765-2.502c0-1.066-0.256-1.887-0.765-2.461
		s-1.14-0.861-1.892-0.861s-1.385,0.287-1.896,0.861C149.441,17.693,149.186,18.521,149.186,19.6z"/>
	<path fill="#FFFFFF" d="M158.712,21.938l2.892-0.44c0.123,0.561,0.372,0.986,0.749,1.276c0.375,0.291,0.902,0.436,1.578,0.436
		c0.745,0,1.306-0.136,1.682-0.41c0.253-0.19,0.38-0.447,0.38-0.769c0-0.219-0.068-0.399-0.205-0.544
		c-0.144-0.136-0.465-0.263-0.964-0.379c-2.324-0.513-3.798-0.98-4.42-1.404c-0.861-0.588-1.291-1.405-1.291-2.451
		c0-0.943,0.372-1.736,1.117-2.379s1.9-0.964,3.466-0.964c1.49,0,2.598,0.243,3.322,0.728c0.725,0.486,1.224,1.204,1.497,2.154
		l-2.717,0.502c-0.117-0.424-0.337-0.748-0.662-0.975c-0.324-0.225-0.788-0.338-1.389-0.338c-0.76,0-1.303,0.106-1.631,0.318
		c-0.219,0.15-0.328,0.345-0.328,0.584c0,0.205,0.096,0.379,0.287,0.523c0.26,0.191,1.157,0.461,2.691,0.81
		c1.535,0.349,2.606,0.776,3.215,1.282c0.602,0.512,0.902,1.227,0.902,2.143c0,0.998-0.417,1.855-1.251,2.574
		c-0.834,0.717-2.068,1.076-3.702,1.076c-1.483,0-2.657-0.301-3.521-0.902C159.544,23.787,158.979,22.971,158.712,21.938z"/>
</g>
</svg>
