<?xml version="1.0" encoding="utf-8"?>
<!-- Generator: Adobe Illustrator 16.0.3, SVG Export Plug-In . SVG Version: 6.00 Build 0)  -->
<!DOCTYPE svg PUBLIC "-//W3C//DTD SVG 1.1//EN" "http://www.w3.org/Graphics/SVG/1.1/DTD/svg11.dtd">
<svg version="1.1" id="Capa_1" xmlns="http://www.w3.org/2000/svg" xmlns:xlink="http://www.w3.org/1999/xlink" x="0px" y="0px"
	 width="224px" height="38px" viewBox="0 0 224 38" enable-background="new 0 0 224 38" xml:space="preserve">
<g>
	<g>
		<path fill="#155462" d="M0,38V9.666C0,4.45,5.786,0.221,12.923,0.221h198.153C218.213,0.221,224,4.45,224,9.666V38"/>
	</g>
	<g>
		<g>
			<path fill-rule="evenodd" clip-rule="evenodd" fill="#FFFFFF" d="M20.587,9.335c0,0.151,0,0.271,0,0.392
				c0,1.63,0.004,3.261-0.005,4.891c-0.001,0.23,0.072,0.323,0.291,0.408c2.312,0.895,3.729,2.567,4.104,5.009
				c0.521,3.385-1.814,6.466-5.041,7.056c-0.458,0.085-0.93,0.115-1.395,0.117c-3.666,0.01-7.333,0.006-10.998,0.006
				c-0.467,0-0.468,0-0.468-0.47c0-4.311,0.002-8.622-0.004-12.932c0-0.263,0.069-0.458,0.259-0.646
				c1.228-1.21,2.442-2.435,3.67-3.644c0.11-0.107,0.292-0.199,0.443-0.199c2.951-0.012,5.901-0.009,8.853-0.008
				C20.378,9.316,20.458,9.327,20.587,9.335z M14.332,20.932c-0.047,2.369,1.974,4.426,4.406,4.417
				c2.422-0.011,4.417-1.962,4.449-4.322c0.035-2.454-1.941-4.485-4.386-4.511C16.267,16.489,14.288,18.595,14.332,20.932z"/>
		</g>
		<g>
			<path fill-rule="evenodd" clip-rule="evenodd" fill="#155462" d="M14.332,20.932c-0.044-2.337,1.935-4.443,4.47-4.417
				c2.444,0.026,4.42,2.057,4.386,4.511c-0.033,2.36-2.027,4.312-4.449,4.322C16.306,25.358,14.284,23.301,14.332,20.932z
				 M17.837,23.611c1.37-1.353,2.772-2.737,4.171-4.121c-0.401-0.391-0.828-0.807-1.293-1.259c-0.94,0.947-1.895,1.91-2.928,2.951
				c-0.375-0.416-0.719-0.8-1.037-1.153c-0.446,0.449-0.859,0.865-1.253,1.261C16.268,22.054,17.061,22.842,17.837,23.611z"/>
		</g>
		<g>
			<path fill-rule="evenodd" clip-rule="evenodd" fill="#FFFFFF" d="M17.837,23.611c-0.776-0.77-1.569-1.558-2.34-2.321
				c0.395-0.396,0.807-0.813,1.253-1.261c0.317,0.354,0.662,0.737,1.037,1.153c1.033-1.041,1.987-2.003,2.928-2.951
				c0.465,0.453,0.892,0.868,1.293,1.259C20.609,20.875,19.207,22.259,17.837,23.611z"/>
		</g>
	</g>
	<g>
		<path fill="#FFFFFF" d="M34.922,23.613h-1.847l-0.734-2.031h-3.361l-0.694,2.031h-1.801l3.275-8.939h1.795L34.922,23.613z
			 M31.797,20.077l-1.158-3.317l-1.136,3.317H31.797z"/>
		<path fill="#FFFFFF" d="M37.05,23.613l-2.455-6.476h1.692l1.147,3.305l0.333,1.104c0.088-0.28,0.144-0.465,0.167-0.555
			c0.054-0.183,0.111-0.366,0.172-0.549l1.159-3.305h1.657l-2.42,6.476H37.05z"/>
		<path fill="#FFFFFF" d="M43.112,19.113l-1.462-0.28c0.165-0.626,0.447-1.089,0.849-1.391c0.402-0.301,0.998-0.451,1.79-0.451
			c0.719,0,1.254,0.091,1.606,0.271c0.352,0.181,0.599,0.411,0.743,0.689c0.143,0.279,0.215,0.79,0.215,1.534l-0.017,2
			c0,0.569,0.026,0.989,0.077,1.259c0.052,0.271,0.148,0.561,0.29,0.869h-1.595c-0.042-0.113-0.094-0.282-0.155-0.506
			c-0.027-0.102-0.046-0.169-0.057-0.202c-0.275,0.285-0.57,0.499-0.883,0.64c-0.313,0.143-0.648,0.214-1.003,0.214
			c-0.627,0-1.122-0.181-1.483-0.543c-0.361-0.362-0.542-0.819-0.542-1.372c0-0.366,0.083-0.692,0.247-0.979
			c0.165-0.287,0.395-0.506,0.691-0.659s0.724-0.286,1.282-0.399c0.753-0.15,1.275-0.291,1.565-0.421v-0.17
			c0-0.33-0.076-0.564-0.229-0.705c-0.153-0.14-0.442-0.21-0.866-0.21c-0.287,0-0.51,0.06-0.671,0.18
			C43.342,18.602,43.212,18.812,43.112,19.113z M45.269,20.503c-0.206,0.073-0.533,0.161-0.98,0.262s-0.74,0.201-0.877,0.299
			c-0.21,0.158-0.315,0.36-0.315,0.604c0,0.24,0.084,0.447,0.252,0.622c0.168,0.175,0.382,0.262,0.642,0.262
			c0.291,0,0.568-0.102,0.832-0.305c0.195-0.155,0.323-0.344,0.384-0.567c0.042-0.146,0.063-0.425,0.063-0.835V20.503z"/>
		<path fill="#FFFFFF" d="M53.98,23.613h-1.612v-3.305c0-0.699-0.034-1.151-0.103-1.357c-0.069-0.205-0.181-0.365-0.335-0.479
			s-0.341-0.171-0.56-0.171c-0.279,0-0.529,0.082-0.751,0.244s-0.374,0.378-0.456,0.646c-0.082,0.268-0.123,0.764-0.123,1.488v2.933
			h-1.612v-6.476h1.497v0.951c0.531-0.731,1.2-1.098,2.007-1.098c0.355,0,0.68,0.068,0.975,0.205s0.517,0.31,0.668,0.521
			c0.151,0.211,0.256,0.452,0.315,0.72c0.059,0.269,0.089,0.652,0.089,1.152V23.613z"/>
		<path fill="#FFFFFF" d="M60.925,19.052l-1.589,0.305c-0.053-0.337-0.175-0.592-0.364-0.762c-0.189-0.171-0.435-0.256-0.737-0.256
			c-0.401,0-0.722,0.147-0.96,0.442c-0.239,0.294-0.358,0.788-0.358,1.479c0,0.769,0.121,1.311,0.364,1.628
			c0.243,0.317,0.568,0.476,0.978,0.476c0.306,0,0.557-0.092,0.751-0.277s0.333-0.503,0.413-0.955l1.583,0.287
			c-0.165,0.772-0.48,1.356-0.946,1.75c-0.466,0.395-1.091,0.592-1.875,0.592c-0.891,0-1.601-0.299-2.131-0.896
			s-0.794-1.425-0.794-2.482c0-1.069,0.266-1.901,0.797-2.497s1.25-0.894,2.156-0.894c0.742,0,1.332,0.17,1.77,0.509
			C60.419,17.839,60.734,18.357,60.925,19.052z"/>
		<path fill="#FFFFFF" d="M65.674,21.552l1.606,0.287c-0.207,0.626-0.533,1.103-0.978,1.43s-1.002,0.491-1.672,0.491
			c-1.059,0-1.843-0.368-2.351-1.104c-0.401-0.589-0.603-1.333-0.603-2.232c0-1.073,0.264-1.914,0.792-2.521
			c0.528-0.607,1.195-0.912,2.001-0.912c0.906,0,1.621,0.318,2.145,0.955s0.774,1.611,0.751,2.924h-4.038
			c0.012,0.508,0.142,0.904,0.39,1.186c0.249,0.283,0.558,0.424,0.929,0.424c0.252,0,0.464-0.073,0.636-0.22
			C65.456,22.113,65.586,21.877,65.674,21.552z M65.766,19.82c-0.012-0.496-0.132-0.873-0.361-1.131
			c-0.229-0.258-0.509-0.387-0.837-0.387c-0.352,0-0.642,0.136-0.872,0.409s-0.342,0.643-0.338,1.11H65.766z"/>
		<path fill="#FFFFFF" d="M71.793,24.04l1.841,0.238c0.031,0.228,0.102,0.384,0.212,0.469c0.153,0.122,0.394,0.184,0.723,0.184
			c0.42,0,0.736-0.067,0.946-0.201c0.142-0.09,0.249-0.234,0.321-0.434c0.049-0.142,0.074-0.404,0.074-0.786v-0.945
			c-0.481,0.699-1.089,1.049-1.824,1.049c-0.818,0-1.466-0.368-1.944-1.104c-0.375-0.582-0.562-1.305-0.562-2.171
			c0-1.085,0.246-1.915,0.737-2.488s1.102-0.86,1.833-0.86c0.753,0,1.374,0.352,1.864,1.055v-0.909h1.508v5.812
			c0,0.764-0.06,1.335-0.178,1.713c-0.119,0.378-0.285,0.675-0.499,0.891c-0.214,0.215-0.5,0.384-0.857,0.506
			s-0.81,0.183-1.356,0.183c-1.032,0-1.765-0.188-2.196-0.563c-0.432-0.376-0.648-0.854-0.648-1.431
			C71.787,24.19,71.789,24.121,71.793,24.04z M73.232,20.241c0,0.687,0.125,1.19,0.376,1.509c0.25,0.319,0.559,0.479,0.926,0.479
			c0.394,0,0.726-0.164,0.998-0.491s0.407-0.812,0.407-1.455c0-0.671-0.13-1.168-0.39-1.494c-0.26-0.325-0.588-0.488-0.986-0.488
			c-0.386,0-0.705,0.16-0.955,0.479C73.358,19.1,73.232,19.586,73.232,20.241z"/>
		<path fill="#FFFFFF" d="M82.644,21.552l1.606,0.287c-0.207,0.626-0.533,1.103-0.978,1.43S82.27,23.76,81.6,23.76
			c-1.059,0-1.843-0.368-2.351-1.104c-0.401-0.589-0.603-1.333-0.603-2.232c0-1.073,0.264-1.914,0.792-2.521
			c0.528-0.607,1.195-0.912,2.001-0.912c0.906,0,1.621,0.318,2.145,0.955s0.774,1.611,0.751,2.924h-4.038
			c0.012,0.508,0.142,0.904,0.39,1.186c0.249,0.283,0.558,0.424,0.929,0.424c0.252,0,0.464-0.073,0.636-0.22
			C82.426,22.113,82.556,21.877,82.644,21.552z M82.736,19.82c-0.012-0.496-0.132-0.873-0.361-1.131
			c-0.229-0.258-0.509-0.387-0.837-0.387c-0.352,0-0.642,0.136-0.872,0.409s-0.342,0.643-0.338,1.11H82.736z"/>
		<path fill="#FFFFFF" d="M91.189,23.613h-1.612v-3.305c0-0.699-0.034-1.151-0.103-1.357c-0.069-0.205-0.181-0.365-0.335-0.479
			s-0.341-0.171-0.56-0.171c-0.279,0-0.529,0.082-0.751,0.244s-0.374,0.378-0.456,0.646c-0.082,0.268-0.123,0.764-0.123,1.488v2.933
			h-1.612v-6.476h1.497v0.951c0.531-0.731,1.2-1.098,2.007-1.098c0.355,0,0.68,0.068,0.975,0.205s0.517,0.31,0.668,0.521
			c0.151,0.211,0.256,0.452,0.315,0.72c0.059,0.269,0.089,0.652,0.089,1.152V23.613z"/>
		<path fill="#FFFFFF" d="M96.351,21.552l1.606,0.287c-0.207,0.626-0.533,1.103-0.978,1.43s-1.002,0.491-1.672,0.491
			c-1.059,0-1.843-0.368-2.351-1.104c-0.401-0.589-0.603-1.333-0.603-2.232c0-1.073,0.264-1.914,0.792-2.521
			c0.528-0.607,1.195-0.912,2.001-0.912c0.906,0,1.621,0.318,2.145,0.955s0.774,1.611,0.751,2.924h-4.038
			c0.012,0.508,0.142,0.904,0.39,1.186c0.249,0.283,0.558,0.424,0.929,0.424c0.252,0,0.464-0.073,0.636-0.22
			C96.133,22.113,96.263,21.877,96.351,21.552z M96.442,19.82c-0.012-0.496-0.132-0.873-0.361-1.131
			c-0.229-0.258-0.509-0.387-0.837-0.387c-0.352,0-0.642,0.136-0.872,0.409s-0.342,0.643-0.338,1.11H96.442z"/>
		<path fill="#FFFFFF" d="M100.898,23.613h-1.611v-6.476h1.497v0.921c0.256-0.435,0.487-0.722,0.691-0.86
			c0.204-0.138,0.437-0.208,0.697-0.208c0.367,0,0.72,0.108,1.061,0.323l-0.499,1.494c-0.271-0.187-0.524-0.281-0.757-0.281
			c-0.226,0-0.417,0.066-0.573,0.198c-0.157,0.132-0.28,0.371-0.37,0.717c-0.09,0.345-0.135,1.069-0.135,2.171V23.613z"/>
		<path fill="#FFFFFF" d="M105.131,19.113l-1.462-0.28c0.165-0.626,0.447-1.089,0.849-1.391c0.402-0.301,0.998-0.451,1.79-0.451
			c0.719,0,1.254,0.091,1.606,0.271c0.352,0.181,0.599,0.411,0.743,0.689c0.143,0.279,0.215,0.79,0.215,1.534l-0.017,2
			c0,0.569,0.026,0.989,0.077,1.259c0.052,0.271,0.148,0.561,0.29,0.869h-1.595c-0.042-0.113-0.094-0.282-0.155-0.506
			c-0.027-0.102-0.046-0.169-0.057-0.202c-0.275,0.285-0.57,0.499-0.883,0.64c-0.313,0.143-0.648,0.214-1.003,0.214
			c-0.627,0-1.122-0.181-1.483-0.543c-0.361-0.362-0.542-0.819-0.542-1.372c0-0.366,0.083-0.692,0.247-0.979
			c0.165-0.287,0.395-0.506,0.691-0.659s0.724-0.286,1.282-0.399c0.753-0.15,1.275-0.291,1.565-0.421v-0.17
			c0-0.33-0.076-0.564-0.229-0.705c-0.153-0.14-0.442-0.21-0.866-0.21c-0.287,0-0.51,0.06-0.671,0.18
			C105.36,18.602,105.23,18.812,105.131,19.113z M107.287,20.503c-0.206,0.073-0.533,0.161-0.98,0.262s-0.74,0.201-0.877,0.299
			c-0.21,0.158-0.315,0.36-0.315,0.604c0,0.24,0.084,0.447,0.252,0.622c0.168,0.175,0.382,0.262,0.642,0.262
			c0.291,0,0.568-0.102,0.832-0.305c0.195-0.155,0.323-0.344,0.384-0.567c0.042-0.146,0.063-0.425,0.063-0.835V20.503z"/>
		<path fill="#FFFFFF" d="M110.459,23.613v-8.939h1.611v8.939H110.459z"/>
		<path fill="#FFFFFF" d="M120.513,21.552l1.605,0.287c-0.206,0.626-0.532,1.103-0.978,1.43s-1.003,0.491-1.672,0.491
			c-1.059,0-1.843-0.368-2.352-1.104c-0.401-0.589-0.602-1.333-0.602-2.232c0-1.073,0.264-1.914,0.791-2.521
			c0.527-0.607,1.195-0.912,2.002-0.912c0.906,0,1.621,0.318,2.145,0.955s0.774,1.611,0.751,2.924h-4.037
			c0.012,0.508,0.142,0.904,0.39,1.186c0.249,0.283,0.559,0.424,0.93,0.424c0.252,0,0.464-0.073,0.637-0.22
			C120.295,22.113,120.425,21.877,120.513,21.552z M120.604,19.82c-0.012-0.496-0.132-0.873-0.361-1.131
			c-0.229-0.258-0.509-0.387-0.837-0.387c-0.353,0-0.643,0.136-0.872,0.409s-0.343,0.643-0.339,1.11H120.604z"/>
		<path fill="#FFFFFF" d="M129.058,23.613h-1.611v-3.305c0-0.699-0.034-1.151-0.104-1.357c-0.068-0.205-0.181-0.365-0.335-0.479
			c-0.155-0.114-0.342-0.171-0.56-0.171c-0.279,0-0.529,0.082-0.751,0.244s-0.374,0.378-0.456,0.646
			c-0.082,0.268-0.123,0.764-0.123,1.488v2.933h-1.611v-6.476h1.496v0.951c0.531-0.731,1.201-1.098,2.008-1.098
			c0.355,0,0.681,0.068,0.975,0.205c0.295,0.136,0.518,0.31,0.668,0.521c0.151,0.211,0.257,0.452,0.315,0.72
			c0.06,0.269,0.089,0.652,0.089,1.152V23.613z"/>
		<path fill="#FFFFFF" d="M133.485,17.137v1.366h-1.101v2.61c0,0.528,0.01,0.836,0.031,0.924s0.069,0.16,0.144,0.216
			c0.074,0.057,0.165,0.085,0.272,0.085c0.148,0,0.365-0.055,0.647-0.165l0.138,1.33c-0.374,0.17-0.799,0.256-1.272,0.256
			c-0.291,0-0.553-0.052-0.786-0.155c-0.233-0.104-0.404-0.238-0.514-0.402c-0.108-0.165-0.184-0.388-0.227-0.668
			c-0.034-0.199-0.051-0.602-0.051-1.207v-2.824h-0.74v-1.366h0.74v-1.287l1.617-1v2.287H133.485z"/>
		<path fill="#FFFFFF" d="M136.146,23.613h-1.611v-6.476h1.497v0.921c0.256-0.435,0.486-0.722,0.69-0.86
			c0.205-0.138,0.437-0.208,0.697-0.208c0.367,0,0.721,0.108,1.061,0.323l-0.499,1.494c-0.271-0.187-0.523-0.281-0.757-0.281
			c-0.226,0-0.417,0.066-0.573,0.198c-0.157,0.132-0.28,0.371-0.37,0.717c-0.09,0.345-0.135,1.069-0.135,2.171V23.613z"/>
		<path fill="#FFFFFF" d="M142.701,21.552l1.605,0.287c-0.206,0.626-0.532,1.103-0.978,1.43s-1.003,0.491-1.672,0.491
			c-1.059,0-1.843-0.368-2.352-1.104c-0.401-0.589-0.602-1.333-0.602-2.232c0-1.073,0.264-1.914,0.791-2.521
			c0.527-0.607,1.195-0.912,2.002-0.912c0.906,0,1.621,0.318,2.145,0.955s0.774,1.611,0.751,2.924h-4.037
			c0.012,0.508,0.142,0.904,0.39,1.186c0.249,0.283,0.559,0.424,0.93,0.424c0.252,0,0.464-0.073,0.637-0.22
			C142.483,22.113,142.613,21.877,142.701,21.552z M142.793,19.82c-0.012-0.496-0.132-0.873-0.361-1.131
			c-0.229-0.258-0.509-0.387-0.837-0.387c-0.353,0-0.643,0.136-0.872,0.409s-0.343,0.643-0.339,1.11H142.793z"/>
		<path fill="#FFFFFF" d="M145.558,24.04l1.841,0.238c0.03,0.228,0.101,0.384,0.212,0.469c0.153,0.122,0.394,0.184,0.723,0.184
			c0.421,0,0.736-0.067,0.946-0.201c0.142-0.09,0.248-0.234,0.321-0.434c0.05-0.142,0.074-0.404,0.074-0.786v-0.945
			c-0.481,0.699-1.09,1.049-1.823,1.049c-0.818,0-1.467-0.368-1.944-1.104c-0.375-0.582-0.563-1.305-0.563-2.171
			c0-1.085,0.246-1.915,0.737-2.488s1.102-0.86,1.832-0.86c0.754,0,1.375,0.352,1.864,1.055v-0.909h1.508v5.812
			c0,0.764-0.059,1.335-0.178,1.713c-0.118,0.378-0.284,0.675-0.499,0.891c-0.214,0.215-0.499,0.384-0.857,0.506
			c-0.357,0.122-0.81,0.183-1.355,0.183c-1.033,0-1.765-0.188-2.197-0.563c-0.432-0.376-0.647-0.854-0.647-1.431
			C145.552,24.19,145.554,24.121,145.558,24.04z M146.997,20.241c0,0.687,0.125,1.19,0.375,1.509
			c0.251,0.319,0.56,0.479,0.927,0.479c0.394,0,0.727-0.164,0.998-0.491s0.407-0.812,0.407-1.455c0-0.671-0.131-1.168-0.391-1.494
			c-0.26-0.325-0.589-0.488-0.986-0.488c-0.386,0-0.704,0.16-0.955,0.479C147.122,19.1,146.997,19.586,146.997,20.241z"/>
		<path fill="#FFFFFF" d="M154.086,19.113l-1.463-0.28c0.164-0.626,0.447-1.089,0.849-1.391c0.401-0.301,0.998-0.451,1.789-0.451
			c0.719,0,1.255,0.091,1.606,0.271c0.352,0.181,0.6,0.411,0.742,0.689c0.144,0.279,0.216,0.79,0.216,1.534l-0.018,2
			c0,0.569,0.025,0.989,0.077,1.259c0.052,0.271,0.148,0.561,0.29,0.869h-1.595c-0.042-0.113-0.094-0.282-0.154-0.506
			c-0.027-0.102-0.046-0.169-0.058-0.202c-0.275,0.285-0.57,0.499-0.884,0.64c-0.313,0.143-0.647,0.214-1.003,0.214
			c-0.627,0-1.121-0.181-1.482-0.543c-0.361-0.362-0.542-0.819-0.542-1.372c0-0.366,0.082-0.692,0.246-0.979
			c0.165-0.287,0.395-0.506,0.691-0.659c0.296-0.152,0.724-0.286,1.281-0.399c0.754-0.15,1.275-0.291,1.566-0.421v-0.17
			c0-0.33-0.077-0.564-0.229-0.705c-0.153-0.14-0.441-0.21-0.866-0.21c-0.287,0-0.511,0.06-0.671,0.18
			C154.314,18.602,154.185,18.812,154.086,19.113z M156.242,20.503c-0.207,0.073-0.533,0.161-0.981,0.262
			c-0.447,0.102-0.739,0.201-0.877,0.299c-0.21,0.158-0.315,0.36-0.315,0.604c0,0.24,0.084,0.447,0.252,0.622
			c0.169,0.175,0.383,0.262,0.643,0.262c0.291,0,0.567-0.102,0.832-0.305c0.194-0.155,0.322-0.344,0.384-0.567
			c0.042-0.146,0.063-0.425,0.063-0.835V20.503z"/>
		<path fill="#FFFFFF" d="M164.22,23.613h-1.611v-6.476h1.497v0.921c0.256-0.435,0.486-0.722,0.69-0.86
			c0.205-0.138,0.437-0.208,0.697-0.208c0.367,0,0.721,0.108,1.061,0.323l-0.499,1.494c-0.271-0.187-0.523-0.281-0.757-0.281
			c-0.226,0-0.417,0.066-0.573,0.198c-0.157,0.132-0.28,0.371-0.37,0.717c-0.09,0.345-0.135,1.069-0.135,2.171V23.613z"/>
		<path fill="#FFFFFF" d="M170.774,21.552l1.605,0.287c-0.206,0.626-0.532,1.103-0.978,1.43s-1.003,0.491-1.672,0.491
			c-1.059,0-1.843-0.368-2.352-1.104c-0.401-0.589-0.602-1.333-0.602-2.232c0-1.073,0.264-1.914,0.791-2.521
			c0.527-0.607,1.195-0.912,2.002-0.912c0.906,0,1.621,0.318,2.145,0.955s0.774,1.611,0.751,2.924h-4.037
			c0.012,0.508,0.142,0.904,0.39,1.186c0.249,0.283,0.559,0.424,0.93,0.424c0.252,0,0.464-0.073,0.637-0.22
			C170.557,22.113,170.687,21.877,170.774,21.552z M170.866,19.82c-0.012-0.496-0.132-0.873-0.361-1.131
			c-0.229-0.258-0.509-0.387-0.837-0.387c-0.353,0-0.643,0.136-0.872,0.409s-0.343,0.643-0.339,1.11H170.866z"/>
		<path fill="#FFFFFF" d="M179.09,19.052l-1.588,0.305c-0.054-0.337-0.175-0.592-0.364-0.762c-0.189-0.171-0.436-0.256-0.737-0.256
			c-0.401,0-0.722,0.147-0.961,0.442c-0.238,0.294-0.358,0.788-0.358,1.479c0,0.769,0.122,1.311,0.364,1.628
			c0.243,0.317,0.569,0.476,0.979,0.476c0.306,0,0.556-0.092,0.751-0.277s0.333-0.503,0.413-0.955l1.583,0.287
			c-0.165,0.772-0.48,1.356-0.946,1.75c-0.467,0.395-1.092,0.592-1.876,0.592c-0.891,0-1.601-0.299-2.13-0.896
			c-0.53-0.598-0.795-1.425-0.795-2.482c0-1.069,0.266-1.901,0.797-2.497c0.532-0.596,1.251-0.894,2.157-0.894
			c0.741,0,1.331,0.17,1.769,0.509C178.585,17.839,178.899,18.357,179.09,19.052z"/>
		<path fill="#FFFFFF" d="M183.839,21.552l1.605,0.287c-0.206,0.626-0.532,1.103-0.978,1.43s-1.003,0.491-1.672,0.491
			c-1.059,0-1.843-0.368-2.352-1.104c-0.401-0.589-0.602-1.333-0.602-2.232c0-1.073,0.264-1.914,0.791-2.521
			c0.527-0.607,1.195-0.912,2.002-0.912c0.906,0,1.621,0.318,2.145,0.955s0.774,1.611,0.751,2.924h-4.037
			c0.012,0.508,0.142,0.904,0.39,1.186c0.249,0.283,0.559,0.424,0.93,0.424c0.252,0,0.464-0.073,0.637-0.22
			C183.621,22.113,183.751,21.877,183.839,21.552z M183.931,19.82c-0.012-0.496-0.132-0.873-0.361-1.131
			c-0.229-0.258-0.509-0.387-0.837-0.387c-0.353,0-0.643,0.136-0.872,0.409s-0.343,0.643-0.339,1.11H183.931z"/>
		<path fill="#FFFFFF" d="M186.798,17.137h1.503v0.951c0.195-0.325,0.459-0.589,0.791-0.792c0.333-0.204,0.702-0.305,1.107-0.305
			c0.707,0,1.308,0.295,1.801,0.884s0.739,1.411,0.739,2.464c0,1.081-0.248,1.922-0.745,2.521s-1.1,0.899-1.807,0.899
			c-0.336,0-0.642-0.071-0.915-0.214c-0.273-0.142-0.561-0.386-0.862-0.731v3.263h-1.612V17.137z M188.393,20.266
			c0,0.728,0.136,1.265,0.407,1.613s0.603,0.521,0.992,0.521c0.375,0,0.687-0.16,0.935-0.479c0.249-0.319,0.373-0.842,0.373-1.57
			c0-0.679-0.128-1.183-0.385-1.513c-0.256-0.329-0.573-0.494-0.952-0.494c-0.394,0-0.721,0.162-0.98,0.485
			C188.522,19.152,188.393,19.631,188.393,20.266z"/>
		<path fill="#FFFFFF" d="M199.329,19.052l-1.588,0.305c-0.054-0.337-0.175-0.592-0.364-0.762c-0.189-0.171-0.436-0.256-0.737-0.256
			c-0.401,0-0.722,0.147-0.961,0.442c-0.238,0.294-0.358,0.788-0.358,1.479c0,0.769,0.122,1.311,0.364,1.628
			c0.243,0.317,0.569,0.476,0.979,0.476c0.306,0,0.556-0.092,0.751-0.277s0.333-0.503,0.413-0.955l1.583,0.287
			c-0.165,0.772-0.48,1.356-0.946,1.75c-0.467,0.395-1.092,0.592-1.876,0.592c-0.891,0-1.601-0.299-2.13-0.896
			c-0.53-0.598-0.795-1.425-0.795-2.482c0-1.069,0.266-1.901,0.797-2.497c0.532-0.596,1.251-0.894,2.157-0.894
			c0.741,0,1.331,0.17,1.769,0.509C198.824,17.839,199.139,18.357,199.329,19.052z"/>
		<path fill="#FFFFFF" d="M200.551,16.259v-1.585h1.612v1.585H200.551z M200.551,23.613v-6.476h1.612v6.476H200.551z"/>
		<path fill="#FFFFFF" d="M203.441,20.284c0-0.569,0.132-1.12,0.396-1.652s0.638-0.939,1.121-1.22
			c0.483-0.281,1.023-0.421,1.62-0.421c0.921,0,1.677,0.318,2.266,0.955s0.883,1.44,0.883,2.412c0,0.98-0.297,1.792-0.892,2.436
			c-0.595,0.645-1.343,0.967-2.245,0.967c-0.559,0-1.091-0.135-1.598-0.402c-0.507-0.269-0.892-0.662-1.155-1.18
			C203.573,21.659,203.441,21.028,203.441,20.284z M205.093,20.375c0,0.643,0.144,1.134,0.43,1.476
			c0.287,0.341,0.641,0.512,1.062,0.512c0.42,0,0.773-0.171,1.058-0.512c0.285-0.342,0.428-0.837,0.428-1.488
			c0-0.634-0.143-1.122-0.428-1.464c-0.284-0.341-0.638-0.512-1.058-0.512c-0.421,0-0.774,0.171-1.062,0.512
			C205.236,19.241,205.093,19.733,205.093,20.375z M205.77,16.344l0.791-1.823h1.807l-1.577,1.823H205.77z"/>
		<path fill="#FFFFFF" d="M216.528,23.613h-1.611v-3.305c0-0.699-0.034-1.151-0.104-1.357c-0.068-0.205-0.181-0.365-0.335-0.479
			c-0.155-0.114-0.342-0.171-0.56-0.171c-0.279,0-0.529,0.082-0.751,0.244s-0.374,0.378-0.456,0.646
			c-0.082,0.268-0.123,0.764-0.123,1.488v2.933h-1.611v-6.476h1.496v0.951c0.531-0.731,1.201-1.098,2.008-1.098
			c0.355,0,0.681,0.068,0.975,0.205c0.295,0.136,0.518,0.31,0.668,0.521c0.151,0.211,0.257,0.452,0.315,0.72
			c0.06,0.269,0.089,0.652,0.089,1.152V23.613z"/>
	</g>
</g>
</svg>
