<?xml version="1.0" encoding="utf-8"?>
<!-- Generator: Adobe Illustrator 16.0.3, SVG Export Plug-In . SVG Version: 6.00 Build 0)  -->
<!DOCTYPE svg PUBLIC "-//W3C//DTD SVG 1.1//EN" "http://www.w3.org/Graphics/SVG/1.1/DTD/svg11.dtd">
<svg version="1.1" id="Capa_1" xmlns="http://www.w3.org/2000/svg" xmlns:xlink="http://www.w3.org/1999/xlink" x="0px" y="0px"
	 width="475px" height="38px" viewBox="0 0 475 38" enable-background="new 0 0 475 38" xml:space="preserve">
<g>
	<path fill="#F4F4F3" d="M0.391,2.261c0.03-1.229-0.388-2.878,1.562-2.249C2.34,0.137,2.78,0.03,3.195,0.03
		c156.239,0,312.477,0.009,468.715-0.068c2.338-0.002,2.912,0.619,2.869,3.416c-0.158,10.528-0.152,21.065,0,31.595
		c0.039,2.553-0.422,3.049-2.558,3.047c-46.643-0.097-93.286-0.07-139.93-0.07c-110.426,0-220.853,0-331.279,0
		C1.009,27.475,1.015,16.999,0.988,6.525C0.984,5.081,1.289,3.542,0.391,2.261z"/>
</g>
<g>
	<path fill="#F4F4F3" d="M210.38,24.247c5.414,0.001,5.569-0.144,5.572-5.196c0.003-5.581-0.132-5.726-5.354-5.728
		c-5.368-0.002-5.573,0.189-5.576,5.201C205.02,24.158,205.103,24.246,210.38,24.247z"/>
</g>
<g>
	<path fill="#F4F4F3" d="M303.23,24.33c5.324,0,5.533-0.201,5.537-5.31c0.004-5.534-0.224-5.774-5.412-5.777
		c-5.486-0.002-5.66,0.167-5.66,5.491C297.695,24.236,297.787,24.33,303.23,24.33z"/>
</g>
<g>
	<path fill="#F4F4F3" d="M47.751,18.976c0.003-5.52-0.207-5.756-5.11-5.762c-5.662-0.007-6.008,0.296-6.016,5.255
		c-0.008,5.682,0.16,5.865,5.319,5.867C47.623,24.34,47.749,24.223,47.751,18.976z"/>
</g>
<g>
	<path fill="#F4F4F3" d="M404.381,18.891c0-5.605,0-5.605-5.344-5.607c-5.367-0.002-5.367-0.002-5.367,4.977
		c-0.002,6.071-0.002,6.071,5.199,6.072C404.383,24.332,404.383,24.332,404.381,18.891z"/>
</g>
<g>
	<path fill="#F4F4F3" d="M120.068,18.937c0-5.681,0-5.681-5.08-5.688c-5.64-0.007-5.64-0.007-5.642,5.409
		c-0.002,5.662-0.002,5.662,5.046,5.664C120.067,24.326,120.067,24.326,120.068,18.937z"/>
</g>
<g>
	<path fill="#FFD646" d="M210.38,24.247c-5.278-0.001-5.361-0.089-5.358-5.723c0.002-5.011,0.208-5.203,5.576-5.201
		c5.222,0.002,5.357,0.147,5.354,5.728C215.949,24.104,215.794,24.248,210.38,24.247z"/>
</g>
<g>
	<path fill="#F88F32" d="M303.23,24.33c-5.443,0-5.535-0.094-5.535-5.596c0-5.324,0.174-5.493,5.66-5.491
		c5.188,0.002,5.416,0.243,5.412,5.777C308.764,24.129,308.555,24.33,303.23,24.33z"/>
</g>
<g>
	<path fill="#5094C3" d="M47.751,18.976c-0.002,5.247-0.129,5.364-5.807,5.36c-5.159-0.002-5.327-0.186-5.319-5.867
		c0.007-4.959,0.354-5.263,6.016-5.255C47.545,13.219,47.754,13.456,47.751,18.976z"/>
</g>
<g>
	<path fill="#E1160B" d="M404.381,18.891c0.002,5.441,0.002,5.441-5.512,5.441c-5.201-0.001-5.201-0.001-5.199-6.072
		c0-4.979,0-4.979,5.367-4.977C404.381,13.285,404.381,13.285,404.381,18.891z"/>
</g>
<g>
	<path fill="#72985A" d="M120.068,18.937c-0.001,5.39-0.001,5.39-5.675,5.386c-5.049-0.003-5.049-0.003-5.046-5.664
		c0.002-5.416,0.002-5.416,5.642-5.409C120.068,13.256,120.068,13.256,120.068,18.937z"/>
</g>
<g>
	<path d="M60.148,22.666H59.05V18.53c-0.401,0.375-0.874,0.652-1.418,0.832v-0.996c0.287-0.094,0.598-0.271,0.934-0.533
		s0.566-0.567,0.691-0.916h0.891V22.666L60.148,22.666z"/>
	<path d="M63.644,16.917c0.555,0,0.988,0.198,1.301,0.594c0.373,0.469,0.559,1.246,0.559,2.332c0,1.083-0.188,1.862-0.563,2.335
		c-0.31,0.391-0.742,0.586-1.297,0.586c-0.557,0-1.006-0.214-1.348-0.643c-0.341-0.428-0.512-1.191-0.512-2.291
		c0-1.078,0.188-1.854,0.563-2.328C62.657,17.112,63.089,16.917,63.644,16.917z M63.644,17.827c-0.133,0-0.251,0.042-0.355,0.127
		s-0.185,0.236-0.242,0.455c-0.076,0.284-0.113,0.762-0.113,1.434c0,0.671,0.034,1.134,0.102,1.384
		c0.068,0.252,0.153,0.42,0.256,0.502c0.103,0.084,0.221,0.125,0.354,0.125s0.251-0.041,0.355-0.127
		c0.104-0.084,0.185-0.235,0.242-0.455c0.076-0.28,0.113-0.758,0.113-1.429c0-0.672-0.034-1.133-0.102-1.385
		s-0.153-0.419-0.256-0.504S63.777,17.827,63.644,17.827z"/>
	<path d="M68.093,16.917c0.555,0,0.988,0.198,1.301,0.594c0.373,0.469,0.559,1.246,0.559,2.332c0,1.083-0.188,1.862-0.563,2.335
		c-0.31,0.391-0.742,0.586-1.297,0.586c-0.557,0-1.006-0.214-1.348-0.643c-0.341-0.428-0.512-1.191-0.512-2.291
		c0-1.078,0.188-1.854,0.563-2.328C67.106,17.112,67.539,16.917,68.093,16.917z M68.093,17.827c-0.133,0-0.251,0.042-0.355,0.127
		s-0.185,0.236-0.242,0.455c-0.076,0.284-0.113,0.762-0.113,1.434c0,0.671,0.034,1.134,0.102,1.384
		c0.068,0.252,0.153,0.42,0.256,0.502c0.103,0.084,0.221,0.125,0.354,0.125c0.133,0,0.251-0.041,0.355-0.127
		c0.104-0.084,0.185-0.235,0.242-0.455c0.076-0.28,0.113-0.758,0.113-1.429c0-0.672-0.034-1.133-0.102-1.385
		c-0.068-0.252-0.153-0.419-0.256-0.504S68.226,17.827,68.093,17.827z"/>
	<path d="M70.695,18.354c0-0.513,0.113-0.893,0.338-1.141c0.225-0.248,0.531-0.371,0.916-0.371c0.398,0,0.71,0.123,0.936,0.369
		c0.226,0.246,0.338,0.627,0.338,1.143c0,0.513-0.113,0.893-0.338,1.141c-0.225,0.248-0.531,0.371-0.916,0.371
		c-0.398,0-0.71-0.123-0.936-0.369C70.807,19.251,70.695,18.87,70.695,18.354z M71.55,18.346c0,0.373,0.043,0.623,0.129,0.75
		c0.065,0.094,0.155,0.141,0.27,0.141c0.117,0,0.208-0.047,0.273-0.141c0.083-0.127,0.125-0.377,0.125-0.75
		c0-0.373-0.042-0.621-0.125-0.746c-0.065-0.096-0.156-0.145-0.273-0.145c-0.115,0-0.205,0.047-0.27,0.141
		C71.593,17.724,71.55,17.974,71.55,18.346z M72.785,22.885h-0.813l3.051-6.042h0.789L72.785,22.885z M74.558,21.381
		c0-0.513,0.113-0.893,0.338-1.141c0.225-0.247,0.533-0.371,0.924-0.371c0.393,0,0.703,0.124,0.928,0.371
		c0.225,0.248,0.338,0.628,0.338,1.141c0,0.516-0.113,0.896-0.338,1.145s-0.531,0.371-0.916,0.371c-0.398,0-0.71-0.123-0.936-0.371
		C74.671,22.277,74.558,21.896,74.558,21.381z M75.414,21.377c0,0.373,0.043,0.621,0.129,0.746c0.065,0.098,0.155,0.145,0.27,0.145
		c0.117,0,0.207-0.047,0.27-0.141c0.086-0.127,0.129-0.377,0.129-0.75c0-0.372-0.042-0.622-0.125-0.75
		c-0.065-0.094-0.156-0.141-0.273-0.141s-0.207,0.047-0.27,0.141C75.457,20.755,75.414,21.005,75.414,21.377z"/>
</g>
<g>
	<path d="M128.363,21.342l1.063-0.117c0.026,0.217,0.094,0.377,0.203,0.48s0.254,0.156,0.434,0.156c0.227,0,0.419-0.104,0.578-0.313
		c0.159-0.208,0.26-0.641,0.305-1.297c-0.276,0.319-0.621,0.479-1.035,0.479c-0.451,0-0.839-0.174-1.166-0.521
		c-0.327-0.347-0.49-0.8-0.49-1.357c0-0.581,0.172-1.049,0.518-1.404c0.346-0.355,0.785-0.533,1.318-0.533
		c0.581,0,1.057,0.225,1.43,0.674c0.373,0.449,0.559,1.188,0.559,2.217c0,1.047-0.194,1.803-0.582,2.266
		c-0.388,0.464-0.893,0.695-1.516,0.695c-0.448,0-0.81-0.119-1.086-0.357S128.441,21.816,128.363,21.342z M130.847,18.944
		c0-0.354-0.082-0.629-0.244-0.824c-0.162-0.195-0.351-0.293-0.564-0.293c-0.203,0-0.372,0.08-0.506,0.24
		c-0.134,0.16-0.201,0.422-0.201,0.787c0,0.37,0.073,0.641,0.219,0.814s0.328,0.26,0.547,0.26c0.211,0,0.389-0.082,0.533-0.25
		C130.775,19.511,130.847,19.267,130.847,18.944z"/>
	<path d="M132.812,21.342l1.063-0.117c0.026,0.217,0.094,0.377,0.203,0.48c0.109,0.104,0.254,0.156,0.434,0.156
		c0.227,0,0.419-0.104,0.578-0.313c0.159-0.208,0.26-0.641,0.305-1.297c-0.276,0.319-0.621,0.479-1.035,0.479
		c-0.451,0-0.839-0.174-1.166-0.521c-0.327-0.347-0.49-0.8-0.49-1.357c0-0.581,0.172-1.049,0.518-1.404
		c0.346-0.355,0.785-0.533,1.318-0.533c0.581,0,1.057,0.225,1.43,0.674c0.373,0.449,0.559,1.188,0.559,2.217
		c0,1.047-0.194,1.803-0.582,2.266c-0.388,0.464-0.893,0.695-1.516,0.695c-0.448,0-0.81-0.119-1.086-0.357
		C133.069,22.172,132.89,21.816,132.812,21.342z M135.296,18.944c0-0.354-0.082-0.629-0.244-0.824
		c-0.162-0.195-0.351-0.293-0.564-0.293c-0.203,0-0.372,0.08-0.506,0.24c-0.134,0.16-0.201,0.422-0.201,0.787
		c0,0.37,0.073,0.641,0.219,0.814s0.328,0.26,0.547,0.26c0.211,0,0.389-0.082,0.533-0.25
		C135.224,19.511,135.296,19.267,135.296,18.944z"/>
	<path d="M137.246,18.354c0-0.513,0.113-0.893,0.338-1.141s0.531-0.371,0.916-0.371c0.398,0,0.71,0.123,0.936,0.369
		s0.338,0.627,0.338,1.143c0,0.513-0.113,0.893-0.338,1.141s-0.531,0.371-0.916,0.371c-0.398,0-0.71-0.123-0.936-0.369
		S137.246,18.87,137.246,18.354z M138.101,18.346c0,0.373,0.043,0.623,0.129,0.75c0.065,0.094,0.155,0.141,0.27,0.141
		c0.117,0,0.208-0.047,0.273-0.141c0.083-0.127,0.125-0.377,0.125-0.75c0-0.373-0.042-0.621-0.125-0.746
		c-0.065-0.096-0.156-0.145-0.273-0.145c-0.115,0-0.205,0.047-0.27,0.141C138.144,17.724,138.101,17.974,138.101,18.346z
		 M139.335,22.885h-0.813l3.051-6.042h0.789L139.335,22.885z M141.109,21.381c0-0.513,0.113-0.893,0.338-1.141
		c0.225-0.247,0.533-0.371,0.924-0.371c0.393,0,0.703,0.124,0.928,0.371c0.225,0.248,0.338,0.628,0.338,1.141
		c0,0.516-0.113,0.896-0.338,1.145c-0.225,0.248-0.531,0.371-0.916,0.371c-0.398,0-0.71-0.123-0.936-0.371
		C141.222,22.277,141.109,21.896,141.109,21.381z M141.964,21.377c0,0.373,0.043,0.621,0.129,0.746
		c0.065,0.098,0.155,0.145,0.27,0.145c0.117,0,0.207-0.047,0.27-0.141c0.086-0.127,0.129-0.377,0.129-0.75
		c0-0.372-0.042-0.622-0.125-0.75c-0.065-0.094-0.156-0.141-0.273-0.141c-0.117,0-0.207,0.047-0.27,0.141
		C142.007,20.755,141.964,21.005,141.964,21.377z"/>
	<path d="M146.683,21.139v-1.098h2.156v1.098H146.683z"/>
	<path d="M151.46,18.038v-1.02h3.754v0.797c-0.31,0.305-0.625,0.742-0.945,1.313c-0.32,0.571-0.564,1.177-0.732,1.817
		c-0.168,0.644-0.25,1.217-0.248,1.722h-1.059c0.018-0.791,0.182-1.599,0.49-2.422c0.309-0.822,0.721-1.558,1.236-2.207H151.46z"/>
	<path d="M159.628,18.342l-1.063,0.117c-0.026-0.219-0.094-0.38-0.203-0.484c-0.109-0.104-0.251-0.156-0.426-0.156
		c-0.232,0-0.428,0.104-0.588,0.313c-0.16,0.209-0.261,0.642-0.303,1.301c0.273-0.323,0.613-0.484,1.02-0.484
		c0.458,0,0.851,0.174,1.178,0.523c0.327,0.348,0.49,0.799,0.49,1.351c0,0.586-0.172,1.057-0.516,1.409
		c-0.344,0.354-0.785,0.531-1.324,0.531c-0.578,0-1.053-0.225-1.426-0.674c-0.373-0.449-0.559-1.186-0.559-2.208
		c0-1.049,0.194-1.806,0.582-2.27c0.388-0.464,0.892-0.695,1.512-0.695c0.435,0,0.795,0.122,1.08,0.365
		C159.367,17.525,159.55,17.879,159.628,18.342z M157.14,20.736c0,0.356,0.082,0.633,0.246,0.826
		c0.164,0.193,0.352,0.291,0.563,0.291c0.203,0,0.373-0.08,0.508-0.238c0.135-0.158,0.203-0.42,0.203-0.781
		c0-0.372-0.073-0.645-0.219-0.818c-0.146-0.173-0.328-0.259-0.547-0.259c-0.211,0-0.389,0.083-0.535,0.248
		S157.14,20.414,157.14,20.736z"/>
	<path d="M160.367,18.354c0-0.513,0.113-0.893,0.338-1.141s0.531-0.371,0.916-0.371c0.398,0,0.71,0.123,0.936,0.369
		s0.338,0.627,0.338,1.143c0,0.513-0.113,0.893-0.338,1.141s-0.531,0.371-0.916,0.371c-0.398,0-0.71-0.123-0.936-0.369
		S160.367,18.87,160.367,18.354z M161.222,18.346c0,0.373,0.043,0.623,0.129,0.75c0.065,0.094,0.155,0.141,0.27,0.141
		c0.117,0,0.208-0.047,0.273-0.141c0.083-0.127,0.125-0.377,0.125-0.75c0-0.373-0.042-0.621-0.125-0.746
		c-0.065-0.096-0.156-0.145-0.273-0.145c-0.115,0-0.205,0.047-0.27,0.141C161.265,17.724,161.222,17.974,161.222,18.346z
		 M162.457,22.885h-0.813l3.051-6.042h0.789L162.457,22.885z M164.23,21.381c0-0.513,0.113-0.893,0.338-1.141
		c0.225-0.247,0.533-0.371,0.924-0.371c0.393,0,0.703,0.124,0.928,0.371c0.225,0.248,0.338,0.628,0.338,1.141
		c0,0.516-0.113,0.896-0.338,1.145s-0.531,0.371-0.916,0.371c-0.398,0-0.71-0.123-0.936-0.371
		C164.343,22.277,164.23,21.896,164.23,21.381z M165.085,21.377c0,0.373,0.043,0.621,0.129,0.746
		c0.065,0.098,0.155,0.145,0.27,0.145c0.117,0,0.207-0.047,0.27-0.141c0.086-0.127,0.129-0.377,0.129-0.75
		c0-0.372-0.042-0.622-0.125-0.75c-0.065-0.094-0.156-0.141-0.273-0.141c-0.117,0-0.207,0.047-0.27,0.141
		C165.128,20.755,165.085,21.005,165.085,21.377z"/>
</g>
<g>
	<path d="M220.339,18.038v-1.02h3.754v0.797c-0.31,0.305-0.625,0.742-0.945,1.313c-0.32,0.571-0.564,1.177-0.732,1.817
		c-0.168,0.644-0.25,1.217-0.248,1.722h-1.059c0.018-0.791,0.182-1.599,0.49-2.422c0.309-0.822,0.721-1.558,1.236-2.207H220.339z"/>
	<path d="M224.804,21.193l1.094-0.113c0.031,0.248,0.124,0.443,0.277,0.588c0.153,0.145,0.331,0.217,0.531,0.217
		c0.229,0,0.423-0.093,0.582-0.279c0.159-0.186,0.238-0.467,0.238-0.842c0-0.352-0.079-0.615-0.236-0.791
		c-0.158-0.176-0.363-0.264-0.615-0.264c-0.315,0-0.598,0.139-0.848,0.417l-0.891-0.128l0.563-2.98h2.902v1.027h-2.07l-0.172,0.973
		c0.245-0.123,0.495-0.184,0.75-0.184c0.487,0,0.9,0.177,1.238,0.531c0.338,0.354,0.508,0.814,0.508,1.378
		c0,0.472-0.137,0.893-0.41,1.262c-0.373,0.506-0.889,0.759-1.551,0.759c-0.529,0-0.959-0.143-1.293-0.427
		C225.068,22.055,224.869,21.673,224.804,21.193z"/>
	<path d="M229.246,18.354c0-0.513,0.113-0.893,0.338-1.141s0.531-0.371,0.916-0.371c0.398,0,0.71,0.123,0.936,0.369
		s0.338,0.627,0.338,1.143c0,0.513-0.113,0.893-0.338,1.141s-0.531,0.371-0.916,0.371c-0.398,0-0.71-0.123-0.936-0.369
		S229.246,18.87,229.246,18.354z M230.101,18.346c0,0.373,0.043,0.623,0.129,0.75c0.065,0.094,0.155,0.141,0.27,0.141
		c0.117,0,0.208-0.047,0.273-0.141c0.083-0.127,0.125-0.377,0.125-0.75c0-0.373-0.042-0.621-0.125-0.746
		c-0.065-0.096-0.156-0.145-0.273-0.145c-0.115,0-0.205,0.047-0.27,0.141C230.144,17.724,230.101,17.974,230.101,18.346z
		 M231.335,22.885h-0.813l3.051-6.042h0.789L231.335,22.885z M233.109,21.381c0-0.513,0.113-0.893,0.338-1.141
		c0.225-0.247,0.533-0.371,0.924-0.371c0.393,0,0.703,0.124,0.928,0.371c0.225,0.248,0.338,0.628,0.338,1.141
		c0,0.516-0.113,0.896-0.338,1.145c-0.225,0.248-0.531,0.371-0.916,0.371c-0.398,0-0.71-0.123-0.936-0.371
		C233.222,22.277,233.109,21.896,233.109,21.381z M233.964,21.377c0,0.373,0.043,0.621,0.129,0.746
		c0.065,0.098,0.155,0.145,0.27,0.145c0.117,0,0.207-0.047,0.27-0.141c0.086-0.127,0.129-0.377,0.129-0.75
		c0-0.372-0.042-0.622-0.125-0.75c-0.065-0.094-0.156-0.141-0.273-0.141c-0.117,0-0.207,0.047-0.27,0.141
		C234.007,20.755,233.964,21.005,233.964,21.377z"/>
	<path d="M238.684,21.139v-1.098h2.156v1.098H238.684z"/>
	<path d="M243.477,21.193l1.094-0.113c0.031,0.248,0.123,0.443,0.277,0.588c0.153,0.145,0.33,0.217,0.531,0.217
		c0.229,0,0.423-0.093,0.582-0.279c0.158-0.186,0.238-0.467,0.238-0.842c0-0.352-0.079-0.615-0.236-0.791
		c-0.158-0.176-0.363-0.264-0.615-0.264c-0.314,0-0.598,0.139-0.848,0.417l-0.891-0.128l0.563-2.98h2.902v1.027h-2.07l-0.172,0.973
		c0.244-0.123,0.494-0.184,0.75-0.184c0.486,0,0.898,0.177,1.238,0.531c0.338,0.354,0.508,0.814,0.508,1.378
		c0,0.472-0.137,0.893-0.41,1.262c-0.373,0.506-0.891,0.759-1.551,0.759c-0.529,0-0.96-0.143-1.293-0.427
		C243.74,22.055,243.541,21.673,243.477,21.193z"/>
	<path d="M250.719,22.666h-1.098V18.53c-0.4,0.375-0.874,0.652-1.418,0.832v-0.996c0.285-0.094,0.598-0.271,0.934-0.533
		s0.566-0.567,0.691-0.916h0.891V22.666z"/>
	<path d="M252.367,18.354c0-0.513,0.111-0.893,0.338-1.141c0.225-0.248,0.529-0.371,0.916-0.371c0.398,0,0.71,0.123,0.936,0.369
		s0.338,0.627,0.338,1.143c0,0.513-0.112,0.893-0.338,1.141s-0.531,0.371-0.916,0.371c-0.397,0-0.711-0.123-0.936-0.369
		C252.479,19.25,252.367,18.87,252.367,18.354z M253.223,18.346c0,0.373,0.043,0.623,0.129,0.75
		c0.064,0.094,0.154,0.141,0.271,0.141c0.117,0,0.208-0.047,0.272-0.141c0.084-0.127,0.125-0.377,0.125-0.75
		c0-0.373-0.041-0.621-0.125-0.746c-0.064-0.096-0.156-0.145-0.272-0.145c-0.115,0-0.205,0.047-0.271,0.141
		C253.266,17.724,253.223,17.974,253.223,18.346z M254.457,22.885h-0.813l3.051-6.042h0.789L254.457,22.885z M256.23,21.381
		c0-0.513,0.111-0.893,0.338-1.141c0.225-0.247,0.533-0.371,0.924-0.371c0.393,0,0.701,0.124,0.928,0.371
		c0.225,0.248,0.338,0.628,0.338,1.141c0,0.516-0.113,0.896-0.338,1.145c-0.227,0.248-0.531,0.371-0.916,0.371
		c-0.398,0-0.711-0.123-0.936-0.371C256.343,22.277,256.23,21.896,256.23,21.381z M257.086,21.377c0,0.373,0.043,0.621,0.129,0.746
		c0.064,0.098,0.154,0.145,0.27,0.145c0.117,0,0.207-0.047,0.271-0.141c0.086-0.127,0.129-0.377,0.129-0.75
		c0-0.372-0.042-0.622-0.125-0.75c-0.065-0.094-0.155-0.141-0.272-0.141s-0.207,0.047-0.271,0.141
		C257.129,20.755,257.086,21.005,257.086,21.377z"/>
</g>
<g>
	<path d="M414.713,21.646v1.02h-3.848c0.042-0.385,0.167-0.75,0.375-1.096c0.209-0.346,0.62-0.803,1.233-1.373
		c0.495-0.461,0.8-0.773,0.91-0.938c0.151-0.227,0.228-0.451,0.228-0.672c0-0.245-0.065-0.433-0.197-0.564
		c-0.131-0.131-0.313-0.197-0.545-0.197c-0.229,0-0.411,0.069-0.547,0.207c-0.135,0.138-0.213,0.367-0.234,0.688l-1.094-0.109
		c0.064-0.604,0.27-1.038,0.613-1.301c0.343-0.263,0.772-0.395,1.289-0.395c0.564,0,1.01,0.152,1.332,0.457s0.483,0.684,0.483,1.137
		c0,0.258-0.046,0.503-0.139,0.736c-0.092,0.233-0.238,0.478-0.439,0.731c-0.133,0.17-0.372,0.414-0.719,0.73
		c-0.346,0.318-0.565,0.529-0.658,0.633c-0.092,0.104-0.167,0.206-0.225,0.305H414.713L414.713,21.646z"/>
	<path d="M415.471,21.193l1.095-0.113c0.03,0.248,0.124,0.443,0.276,0.588c0.154,0.145,0.331,0.217,0.531,0.217
		c0.229,0,0.424-0.093,0.582-0.279c0.159-0.186,0.238-0.467,0.238-0.842c0-0.352-0.078-0.615-0.236-0.791
		c-0.157-0.176-0.362-0.264-0.615-0.264c-0.313,0-0.598,0.139-0.848,0.417l-0.891-0.128l0.563-2.98h2.902v1.027h-2.07l-0.172,0.973
		c0.245-0.123,0.495-0.184,0.75-0.184c0.487,0,0.899,0.177,1.238,0.531c0.339,0.354,0.508,0.814,0.508,1.378
		c0,0.472-0.137,0.893-0.41,1.262c-0.372,0.506-0.889,0.759-1.551,0.759c-0.528,0-0.959-0.143-1.293-0.427
		C415.735,22.055,415.536,21.673,415.471,21.193z"/>
	<path d="M419.912,18.354c0-0.513,0.113-0.893,0.338-1.141c0.226-0.248,0.531-0.371,0.916-0.371c0.398,0,0.711,0.123,0.936,0.369
		c0.227,0.246,0.339,0.627,0.339,1.143c0,0.513-0.112,0.893-0.339,1.141c-0.225,0.248-0.529,0.371-0.916,0.371
		c-0.397,0-0.71-0.123-0.936-0.369C420.025,19.25,419.912,18.87,419.912,18.354z M420.768,18.346c0,0.373,0.043,0.623,0.13,0.75
		c0.064,0.094,0.154,0.141,0.27,0.141c0.117,0,0.209-0.047,0.273-0.141c0.084-0.127,0.125-0.377,0.125-0.75
		c0-0.373-0.041-0.621-0.125-0.746c-0.064-0.096-0.156-0.145-0.273-0.145c-0.114,0-0.204,0.047-0.27,0.141
		C420.811,17.724,420.768,17.974,420.768,18.346z M422.002,22.885h-0.813l3.051-6.042h0.789L422.002,22.885z M423.775,21.381
		c0-0.513,0.112-0.893,0.338-1.141c0.226-0.247,0.533-0.371,0.924-0.371c0.394,0,0.703,0.124,0.928,0.371
		c0.227,0.248,0.338,0.628,0.338,1.141c0,0.516-0.111,0.896-0.338,1.145c-0.225,0.248-0.53,0.371-0.916,0.371
		c-0.397,0-0.71-0.123-0.936-0.371C423.889,22.277,423.775,21.896,423.775,21.381z M424.631,21.377c0,0.373,0.043,0.621,0.129,0.746
		c0.065,0.098,0.155,0.145,0.271,0.145c0.117,0,0.207-0.047,0.27-0.141c0.086-0.127,0.129-0.377,0.129-0.75
		c0-0.372-0.041-0.622-0.125-0.75c-0.063-0.094-0.155-0.141-0.272-0.141s-0.207,0.047-0.271,0.141
		C424.674,20.755,424.631,21.005,424.631,21.377z"/>
	<path d="M429.35,21.139v-1.098h2.156v1.098H429.35z"/>
	<path d="M435.982,16.917c0.555,0,0.987,0.198,1.301,0.594c0.373,0.469,0.559,1.246,0.559,2.332c0,1.083-0.188,1.862-0.563,2.335
		c-0.311,0.391-0.742,0.586-1.297,0.586c-0.558,0-1.007-0.214-1.349-0.643c-0.341-0.428-0.512-1.191-0.512-2.291
		c0-1.078,0.188-1.854,0.563-2.328C434.996,17.112,435.428,16.917,435.982,16.917z M435.982,17.827
		c-0.134,0-0.251,0.042-0.355,0.127c-0.104,0.084-0.185,0.236-0.242,0.455c-0.075,0.284-0.113,0.762-0.113,1.434
		c0,0.671,0.034,1.134,0.103,1.384c0.068,0.252,0.153,0.42,0.256,0.502c0.104,0.084,0.221,0.125,0.354,0.125
		c0.133,0,0.252-0.041,0.354-0.127c0.104-0.084,0.187-0.235,0.242-0.455c0.076-0.28,0.113-0.758,0.113-1.429
		c0-0.672-0.033-1.133-0.103-1.385c-0.066-0.251-0.151-0.419-0.256-0.504C436.233,17.869,436.115,17.827,435.982,17.827z"/>
	<path d="M438.584,18.354c0-0.513,0.113-0.893,0.338-1.141c0.227-0.248,0.531-0.371,0.916-0.371c0.398,0,0.711,0.123,0.937,0.369
		s0.338,0.627,0.338,1.143c0,0.513-0.112,0.893-0.338,1.141s-0.53,0.371-0.916,0.371c-0.398,0-0.71-0.123-0.937-0.369
		C438.697,19.25,438.584,18.87,438.584,18.354z M439.439,18.346c0,0.373,0.043,0.623,0.129,0.75c0.064,0.094,0.154,0.141,0.27,0.141
		c0.117,0,0.209-0.047,0.273-0.141c0.084-0.127,0.125-0.377,0.125-0.75c0-0.373-0.041-0.621-0.125-0.746
		c-0.064-0.096-0.156-0.145-0.273-0.145c-0.114,0-0.204,0.047-0.27,0.141C439.482,17.724,439.439,17.974,439.439,18.346z
		 M440.674,22.885h-0.813l3.051-6.042h0.789L440.674,22.885z M442.447,21.381c0-0.513,0.112-0.893,0.338-1.141
		c0.226-0.247,0.533-0.371,0.924-0.371c0.395,0,0.703,0.124,0.928,0.371c0.227,0.248,0.338,0.628,0.338,1.141
		c0,0.516-0.111,0.896-0.338,1.145c-0.225,0.248-0.529,0.371-0.916,0.371c-0.397,0-0.71-0.123-0.936-0.371
		C442.561,22.277,442.447,21.896,442.447,21.381z M443.303,21.377c0,0.373,0.043,0.621,0.129,0.746
		c0.065,0.098,0.155,0.145,0.271,0.145c0.117,0,0.207-0.047,0.27-0.141c0.086-0.127,0.129-0.377,0.129-0.75
		c0-0.372-0.041-0.622-0.125-0.75c-0.063-0.094-0.155-0.141-0.272-0.141s-0.207,0.047-0.271,0.141
		C443.346,20.755,443.303,21.005,443.303,21.377z"/>
</g>
<g>
	<path d="M319.355,21.193l1.094-0.113c0.031,0.248,0.124,0.443,0.277,0.588s0.33,0.217,0.53,0.217c0.229,0,0.425-0.093,0.582-0.279
		c0.159-0.186,0.238-0.467,0.238-0.842c0-0.352-0.078-0.615-0.236-0.791c-0.157-0.176-0.362-0.264-0.614-0.264
		c-0.314,0-0.599,0.139-0.849,0.417l-0.891-0.128l0.563-2.98h2.902v1.027h-2.07l-0.172,0.973c0.245-0.123,0.495-0.184,0.75-0.184
		c0.487,0,0.899,0.177,1.238,0.531c0.339,0.354,0.508,0.814,0.508,1.378c0,0.472-0.138,0.893-0.41,1.262
		c-0.372,0.506-0.889,0.759-1.551,0.759c-0.528,0-0.959-0.143-1.293-0.427C319.62,22.055,319.421,21.673,319.355,21.193z"/>
	<path d="M325.645,16.917c0.556,0,0.988,0.198,1.301,0.594c0.373,0.469,0.56,1.246,0.56,2.332c0,1.083-0.188,1.862-0.563,2.335
		c-0.31,0.391-0.741,0.586-1.297,0.586c-0.557,0-1.006-0.214-1.348-0.643c-0.341-0.428-0.512-1.191-0.512-2.291
		c0-1.078,0.188-1.854,0.563-2.328C324.658,17.112,325.09,16.917,325.645,16.917z M325.645,17.827c-0.133,0-0.25,0.042-0.354,0.127
		c-0.104,0.084-0.185,0.236-0.242,0.455c-0.075,0.284-0.112,0.762-0.112,1.434c0,0.671,0.033,1.134,0.102,1.384
		c0.068,0.252,0.152,0.42,0.256,0.502c0.104,0.084,0.221,0.125,0.354,0.125s0.252-0.041,0.355-0.127
		c0.104-0.084,0.186-0.235,0.242-0.455c0.076-0.28,0.113-0.758,0.113-1.429c0-0.672-0.033-1.133-0.103-1.385
		c-0.067-0.251-0.151-0.419-0.256-0.504C325.896,17.869,325.777,17.827,325.645,17.827z"/>
	<path d="M328.246,18.354c0-0.513,0.113-0.893,0.338-1.141c0.227-0.248,0.531-0.371,0.916-0.371c0.398,0,0.711,0.123,0.936,0.369
		c0.227,0.246,0.338,0.627,0.338,1.143c0,0.513-0.111,0.893-0.338,1.141c-0.225,0.248-0.529,0.371-0.916,0.371
		c-0.397,0-0.709-0.123-0.936-0.369C328.359,19.25,328.246,18.87,328.246,18.354z M329.102,18.346c0,0.373,0.043,0.623,0.129,0.75
		c0.065,0.094,0.155,0.141,0.271,0.141c0.117,0,0.209-0.047,0.272-0.141c0.084-0.127,0.125-0.377,0.125-0.75
		c0-0.373-0.041-0.621-0.125-0.746c-0.063-0.096-0.155-0.145-0.272-0.145c-0.114,0-0.204,0.047-0.271,0.141
		C329.145,17.724,329.102,17.974,329.102,18.346z M330.336,22.885h-0.813l3.051-6.042h0.789L330.336,22.885z M332.109,21.381
		c0-0.513,0.113-0.893,0.338-1.141c0.226-0.247,0.533-0.371,0.924-0.371c0.395,0,0.703,0.124,0.928,0.371
		c0.227,0.248,0.338,0.628,0.338,1.141c0,0.516-0.111,0.896-0.338,1.145c-0.225,0.248-0.529,0.371-0.916,0.371
		c-0.398,0-0.71-0.123-0.936-0.371C332.223,22.277,332.109,21.896,332.109,21.381z M332.965,21.377c0,0.373,0.043,0.621,0.129,0.746
		c0.065,0.098,0.155,0.145,0.27,0.145c0.117,0,0.207-0.047,0.271-0.141c0.086-0.127,0.13-0.377,0.13-0.75
		c0-0.372-0.041-0.622-0.125-0.75c-0.064-0.094-0.156-0.141-0.273-0.141s-0.207,0.047-0.271,0.141
		C333.008,20.755,332.965,21.005,332.965,21.377z"/>
	<path d="M337.684,21.139v-1.098h2.156v1.098H337.684z"/>
	<path d="M346.168,21.646v1.02h-3.848c0.041-0.385,0.166-0.75,0.375-1.096s0.619-0.803,1.234-1.373
		c0.494-0.461,0.799-0.773,0.909-0.938c0.151-0.227,0.228-0.451,0.228-0.672c0-0.245-0.065-0.433-0.197-0.564
		c-0.131-0.131-0.313-0.197-0.545-0.197c-0.229,0-0.411,0.069-0.547,0.207c-0.135,0.138-0.213,0.367-0.234,0.688l-1.094-0.109
		c0.064-0.604,0.27-1.038,0.613-1.301c0.343-0.263,0.772-0.395,1.289-0.395c0.564,0,1.01,0.152,1.332,0.457s0.483,0.684,0.483,1.137
		c0,0.258-0.046,0.503-0.14,0.736c-0.092,0.233-0.237,0.478-0.438,0.731c-0.133,0.17-0.372,0.414-0.719,0.73
		c-0.347,0.318-0.565,0.529-0.658,0.633c-0.092,0.104-0.167,0.206-0.226,0.305H346.168L346.168,21.646z"/>
	<path d="M350.629,18.342l-1.063,0.117c-0.025-0.219-0.094-0.38-0.203-0.484s-0.252-0.156-0.426-0.156
		c-0.231,0-0.429,0.104-0.588,0.313c-0.16,0.209-0.262,0.642-0.304,1.301c0.272-0.323,0.613-0.484,1.021-0.484
		c0.459,0,0.852,0.174,1.178,0.523c0.326,0.348,0.49,0.799,0.49,1.351c0,0.586-0.172,1.057-0.517,1.409
		c-0.344,0.354-0.784,0.531-1.323,0.531c-0.578,0-1.054-0.225-1.427-0.674c-0.372-0.449-0.559-1.186-0.559-2.208
		c0-1.049,0.194-1.806,0.582-2.27c0.389-0.463,0.893-0.695,1.512-0.695c0.437,0,0.795,0.122,1.08,0.365
		C350.368,17.525,350.551,17.879,350.629,18.342z M348.141,20.736c0,0.356,0.082,0.633,0.246,0.826s0.352,0.291,0.563,0.291
		c0.202,0,0.372-0.08,0.508-0.238s0.203-0.42,0.203-0.781c0-0.372-0.072-0.645-0.22-0.818c-0.146-0.173-0.328-0.259-0.547-0.259
		c-0.211,0-0.389,0.083-0.535,0.248C348.214,20.17,348.141,20.414,348.141,20.736z"/>
	<path d="M351.367,18.354c0-0.513,0.113-0.893,0.338-1.141c0.227-0.248,0.531-0.371,0.916-0.371c0.398,0,0.711,0.123,0.936,0.369
		c0.227,0.246,0.338,0.627,0.338,1.143c0,0.513-0.111,0.893-0.338,1.141c-0.225,0.248-0.529,0.371-0.916,0.371
		c-0.397,0-0.709-0.123-0.936-0.369C351.48,19.25,351.367,18.87,351.367,18.354z M352.223,18.346c0,0.373,0.043,0.623,0.129,0.75
		c0.065,0.094,0.155,0.141,0.271,0.141c0.116,0,0.209-0.047,0.272-0.141c0.084-0.127,0.125-0.377,0.125-0.75
		c0-0.373-0.041-0.621-0.125-0.746c-0.063-0.096-0.156-0.145-0.272-0.145c-0.114,0-0.204,0.047-0.271,0.141
		C352.266,17.724,352.223,17.974,352.223,18.346z M353.457,22.885h-0.813l3.051-6.042h0.789L353.457,22.885z M355.23,21.381
		c0-0.513,0.112-0.893,0.338-1.141c0.226-0.247,0.533-0.371,0.924-0.371c0.395,0,0.703,0.124,0.928,0.371
		c0.227,0.248,0.338,0.628,0.338,1.141c0,0.516-0.111,0.896-0.338,1.145c-0.225,0.248-0.529,0.371-0.916,0.371
		c-0.398,0-0.71-0.123-0.936-0.371C355.344,22.277,355.23,21.896,355.23,21.381z M356.086,21.377c0,0.373,0.043,0.621,0.129,0.746
		c0.064,0.098,0.155,0.145,0.27,0.145c0.117,0,0.207-0.047,0.271-0.141c0.086-0.127,0.129-0.377,0.129-0.75
		c0-0.372-0.041-0.622-0.125-0.75c-0.063-0.094-0.155-0.141-0.272-0.141s-0.207,0.047-0.271,0.141
		C356.129,20.755,356.086,21.005,356.086,21.377z"/>
</g>
</svg>
