<svg width="252" height="288" viewBox="0 0 252 288" fill="none" xmlns="http://www.w3.org/2000/svg">
<g filter="url(#filter0_d_1447_1349)">
<rect x="11.5" y="12" width="224" height="260" rx="8" fill="white"/>
<rect x="12" y="12.5" width="223" height="259" rx="7.5" stroke="#E5E5E5"/>
</g>
<path d="M73.1298 85.3132C68.3301 86.1934 65.2758 90.8144 66.1485 95.6555L84.4744 190.716C85.347 195.557 89.9285 198.638 94.7281 197.758L171.74 182.575C176.54 181.694 179.594 177.073 178.722 172.232L160.396 77.1714C159.523 73.2106 156.251 70.3499 152.324 70.1299C151.669 70.1299 150.797 70.1299 150.142 70.3499L73.1298 85.3132Z" fill="#D5D6DB"/>
<path d="M98.3923 91.9311C93.6043 91.9311 98.3923 91.9311 81.9698 95.2321V186.723C81.9698 191.559 85.8872 195.516 90.6752 195.516H163.824C168.612 195.516 172.821 191.559 172.821 186.723L177.729 89.9964C177.729 85.8196 174.9 82.5221 171.2 81.423C171.2 81.423 171.2 81.423 170.982 81.423C170.329 81.2031 169.676 81.2031 169.023 81.2031L98.3923 91.9311Z" fill="#B7B7B7"/>
<path d="M93.9464 76.793C89.1584 76.793 85.241 80.75 85.241 85.5863V182.313C85.241 187.149 89.1584 191.106 93.9464 191.106H172.295C177.083 191.106 181 187.149 181 182.313V85.5863C181 81.4095 178.171 78.112 174.471 77.0128C174.471 77.0128 174.471 77.0128 174.253 77.0128C173.6 76.793 172.948 76.793 172.295 76.793H93.9464Z" fill="#F0F6F9"/>
<path d="M109.505 95.686H146.013C147.839 95.686 149.056 94.8342 149.056 93.5564C149.056 92.2786 147.839 91.4268 146.013 91.4268H109.505C107.68 91.4268 106.463 92.2786 106.463 93.5564C106.463 94.8342 107.68 95.686 109.505 95.686Z" fill="#84B78C"/>
<path d="M109.04 114.166H135.156C136.462 114.166 137.333 113.286 137.333 111.967C137.333 110.648 136.462 109.769 135.156 109.769H109.04C107.735 109.769 106.864 110.648 106.864 111.967C106.864 113.286 107.735 114.166 109.04 114.166Z" fill="#B7B7B7"/>
<path d="M126.451 131.752H135.156C136.462 131.752 137.333 130.872 137.333 129.553C137.333 128.234 136.462 127.355 135.156 127.355H126.451C125.145 127.355 124.275 128.234 124.275 129.553C124.275 130.872 125.145 131.752 126.451 131.752Z" fill="#B7B7B7"/>
<path d="M109.041 131.752H117.746C119.052 131.752 119.922 130.872 119.922 129.553C119.922 128.234 119.052 127.355 117.746 127.355H109.041C107.735 127.355 106.864 128.234 106.864 129.553C106.864 130.872 107.735 131.752 109.041 131.752Z" fill="#B7B7B7"/>
<path d="M143.862 158.132H169.978C171.284 158.132 172.155 157.252 172.155 155.933C172.155 154.614 171.284 153.735 169.978 153.735H143.862C142.556 153.735 141.686 154.614 141.686 155.933C141.686 157.252 142.556 158.132 143.862 158.132Z" fill="#B7B7B7"/>
<path d="M109.04 158.132H135.156C136.462 158.132 137.333 157.252 137.333 155.933C137.333 154.614 136.462 153.735 135.156 153.735H109.04C107.735 153.735 106.864 154.614 106.864 155.933C106.864 157.252 107.735 158.132 109.04 158.132Z" fill="#B7B7B7"/>
<path d="M109.04 122.959H135.156C136.462 122.959 137.333 122.079 137.333 120.76C137.333 119.441 136.462 118.562 135.156 118.562H109.04C107.735 118.562 106.864 119.441 106.864 120.76C106.864 122.079 107.735 122.959 109.04 122.959Z" fill="#B7B7B7"/>
<path d="M126.451 149.339H169.978C171.284 149.339 172.155 148.46 172.155 147.141C172.155 145.822 171.284 144.942 169.978 144.942H126.451C125.146 144.942 124.275 145.822 124.275 147.141C124.275 148.46 125.146 149.339 126.451 149.339Z" fill="#B7B7B7"/>
<path d="M109.041 149.339H117.746C119.052 149.339 119.922 148.46 119.922 147.141C119.922 145.822 119.052 144.942 117.746 144.942H109.041C107.735 144.942 106.864 145.822 106.864 147.141C106.864 148.46 107.735 149.339 109.041 149.339Z" fill="#B7B7B7"/>
<path d="M126.451 105.372H135.156C136.462 105.372 137.333 104.492 137.333 103.173C137.333 101.854 136.462 100.975 135.156 100.975H126.451C125.145 100.975 124.275 101.854 124.275 103.173C124.275 104.492 125.145 105.372 126.451 105.372Z" fill="#B7B7B7"/>
<path d="M109.041 105.372H117.746C119.052 105.372 119.922 104.492 119.922 103.173C119.922 101.854 119.052 100.975 117.746 100.975H109.041C107.735 100.975 106.864 101.854 106.864 103.173C106.864 104.492 107.735 105.372 109.041 105.372Z" fill="#B7B7B7"/>
<path d="M109.04 140.545H135.156C136.462 140.545 137.333 139.665 137.333 138.346C137.333 137.027 136.462 136.148 135.156 136.148H109.04C107.735 136.148 106.864 137.027 106.864 138.346C106.864 139.665 107.735 140.545 109.04 140.545Z" fill="#B7B7B7"/>
<path d="M121.807 78.9916V122.958C121.807 129.114 117.019 133.95 110.925 133.95C104.831 133.95 100.043 129.114 100.043 122.958V87.785C100.043 86.466 101.131 85.5866 102.219 85.5866C103.308 85.5866 104.396 86.466 104.396 87.785V122.958C104.396 126.476 107.225 129.553 110.925 129.553C114.625 129.553 117.454 126.476 117.454 122.958V78.9916C117.454 78.1123 117.236 77.4528 117.019 76.7933C116.148 74.1553 113.754 72.3967 110.925 72.3967H102.219C99.3902 72.3967 96.9963 74.1553 96.1257 76.7933H93.5141C92.8612 76.7933 92.2083 76.7933 91.5554 77.0131C92.426 71.957 96.7786 68 102.219 68H110.925C116.148 68 120.501 71.7372 121.589 76.7933C121.807 77.4528 121.807 78.3321 121.807 78.9916Z" fill="#64798A"/>
<circle cx="203.5" cy="45.5" r="21.5" fill="white" stroke="#DFDCD0" stroke-width="2"/>
<circle cx="194.95" cy="45.8991" r="3.68723" fill="#E9540D"/>
<circle cx="203.84" cy="45.8991" r="3.68723" fill="#E9540D"/>
<circle cx="212.731" cy="45.8991" r="3.68723" fill="#E9540D"/>
<defs>
<filter id="filter0_d_1447_1349" x="0.0780914" y="0.578091" width="251.195" height="287.195" filterUnits="userSpaceOnUse" color-interpolation-filters="sRGB">
<feFlood flood-opacity="0" result="BackgroundImageFix"/>
<feColorMatrix in="SourceAlpha" type="matrix" values="0 0 0 0 0 0 0 0 0 0 0 0 0 0 0 0 0 0 127 0" result="hardAlpha"/>
<feOffset dx="2.1756" dy="2.1756"/>
<feGaussianBlur stdDeviation="6.79876"/>
<feColorMatrix type="matrix" values="0 0 0 0 0 0 0 0 0 0 0 0 0 0 0 0 0 0 0.05 0"/>
<feBlend mode="normal" in2="BackgroundImageFix" result="effect1_dropShadow_1447_1349"/>
<feBlend mode="normal" in="SourceGraphic" in2="effect1_dropShadow_1447_1349" result="shape"/>
</filter>
</defs>
</svg>
