<svg width="44" height="47" viewBox="0 0 44 47" fill="none" xmlns="http://www.w3.org/2000/svg">
    <rect x=".924" y=".522" width="42.462" height="46" rx="5" fill="#DDD"/>
    <path d="M22.155 9.639h10.69c.873 0 1.075.202 1.075 1.076v12.639c0 .807-.202 1.008-1.076 1.008H11.465c-.806 0-1.008-.201-1.008-1.008v-12.64c0-.806.202-1.008 1.008-1.008 3.564-.067 7.127-.067 10.69-.067zm-7.328 4.437h2.487c.337 0 .471-.134.471-.47v-1.95c0-.269-.067-.47-.403-.47h-4.908c-.336 0-.47.134-.47.47v1.882c0 .404.134.538.537.538h2.286zm7.395-2.89h-2.487c-.337 0-.47.134-.47.47v1.95c0 .268.133.403.402.403h4.975c.27 0 .404-.135.404-.403v-1.883c0-.403-.135-.538-.538-.538-.74.067-1.546 0-2.286 0zm7.26 2.89h2.488c.337 0 .471-.134.471-.403v-2.017c0-.336-.134-.404-.47-.404h-4.908c-.336 0-.47.135-.47.471v1.95c0 .336.134.47.47.47.806-.067 1.613-.067 2.42-.067zm-14.655 4.37h2.487c.337 0 .471-.134.471-.47v-1.95c0-.336-.134-.47-.47-.47h-4.841c-.336 0-.47.134-.47.47v1.882c0 .336.134.47.47.47.74.068 1.546.068 2.353.068zm7.328-2.824h-2.42c-.337 0-.47.068-.47.471v2.017c0 .269.133.403.402.403h4.975c.27 0 .404-.134.404-.403v-2.017c0-.336-.135-.47-.47-.47h-2.421zm7.328 0h-2.42c-.336 0-.47.135-.47.471v1.883c0 .336.134.47.47.47h4.84c.336 0 .47-.134.47-.47v-1.95c0-.336-.134-.47-.47-.47-.807.066-1.613.066-2.42.066zm-14.656 7.194h2.487c.337 0 .471-.134.404-.403v-1.95c0-.336-.135-.47-.47-.47h-4.909c-.336 0-.47.134-.47.47v1.882c0 .404.134.538.538.538.874-.067 1.68-.067 2.42-.067zm7.328 0h2.487c.337 0 .471-.134.404-.403v-2.017c0-.336-.135-.404-.47-.404h-4.909c-.336 0-.47.135-.47.471v1.882c0 .404.134.471.538.471h2.42zm7.328 0h2.42c.336 0 .47-.134.47-.47v-1.95c0-.336-.134-.47-.47-.47h-4.84c-.336 0-.47.134-.47.47v1.882c0 .336.134.47.47.47.806.068 1.613.068 2.42.068zM14.087 38.212c0-.202.068-.404.202-.538.336-.605.605-1.278.941-1.883.202-.336.202-.605 0-.94a17.427 17.427 0 0 1-.94-1.95c-.27-.538-.135-1.009.268-1.21.47-.202.874 0 1.143.537.134.336.336.605.47.941.135.27.27.27.404 0 .134-.336.336-.672.538-1.008.269-.47.672-.672 1.075-.404.404.202.538.673.337 1.143l-1.009 2.017c-.134.27-.134.538 0 .874.336.673.74 1.412 1.009 2.084.336.673-.135 1.278-.807 1.143-.336-.067-.47-.201-.605-.47-.202-.337-.336-.673-.538-1.076-.135-.269-.269-.269-.336 0-.202.403-.404.807-.605 1.143-.202.336-.538.47-.941.336-.471-.134-.606-.403-.606-.74zM27.399 39.018h-.874c-.47 0-.74-.336-.74-.806 0-.404.27-.74.74-.74h1.344c.538 0 .807-.269.874-.672 0-.404-.269-.673-.806-.74-1.278-.134-2.085-1.076-2.085-2.42.068-1.143 1.009-2.017 2.219-2.017h1.479c.47 0 .74.336.74.807 0 .403-.27.74-.74.74h-1.277c-.471 0-.807.268-.874.672 0 .403.269.672.806.74 1.278.134 2.085 1.075 2.085 2.42-.068 1.142-1.009 2.016-2.219 2.016h-.672zM21.483 34.716v2.218c0 .404.134.538.537.47h1.547c.538 0 .874.27.874.807 0 .471-.336.74-.807.74h-2.756c-.538 0-.807-.269-.807-.874V32.43c0-.538.269-.874.74-.874.47 0 .739.336.739.874-.067.806-.067 1.546-.067 2.286z" fill="#B38E5D"/>
    <path d="M34.794 43.187H9.516c-2.219 0-3.967-1.816-3.967-3.967V7.824c0-2.151 1.816-3.967 3.967-3.967h25.278c2.219 0 3.967 1.816 3.967 3.967V39.22a3.931 3.931 0 0 1-3.967 3.967zM9.516 5.202c-1.412 0-2.622 1.21-2.622 2.622V39.22a2.625 2.625 0 0 0 2.622 2.622h25.278a2.625 2.625 0 0 0 2.622-2.622V7.824a2.625 2.625 0 0 0-2.622-2.622H9.516z" fill="#B38E5D"/>
    <path d="M38.088 28.329H6.222v1.344h31.866V28.33z" fill="#B38E5D"/>
</svg>
