<svg width="39" height="40" viewBox="0 0 39 40" fill="none" xmlns="http://www.w3.org/2000/svg">
<path d="M36.8835 0H9.12258C8.79891 0 8.53664 0.262344 8.53664 0.585938C8.53664 0.909531 8.79891 1.17188 9.12258 1.17188H36.8835C37.1247 1.17188 37.3209 1.36813 37.3209 1.6093V11.2697H35.9928V3.08594C35.9928 2.76234 35.7306 2.5 35.4069 2.5H3.08594C2.76227 2.5 2.5 2.76234 2.5 3.08594V28.873C2.5 29.1966 2.76227 29.4589 3.08594 29.4589H7.23008V30.787H1.6093C1.36813 30.787 1.17188 30.5908 1.17188 30.3496V1.6093C1.17188 1.36813 1.36813 1.17188 1.6093 1.17188H6.77883C7.1025 1.17188 7.36477 0.909531 7.36477 0.585938C7.36477 0.262344 7.1025 0 6.77883 0H1.6093C0.721953 0 0 0.721953 0 1.6093V30.3496C0 31.237 0.721875 31.9589 1.6093 31.9589H22.6598C22.901 31.9589 23.0973 32.1552 23.0973 32.3963V38.3907C23.0973 39.278 23.8191 40 24.7066 40H29.2706C29.5942 40 29.8565 39.7377 29.8565 39.4141C29.8565 39.0905 29.5942 38.8281 29.2706 38.8281H24.7066C24.4654 38.8281 24.2691 38.6319 24.2691 38.3907V32.3963C24.2691 31.509 23.5473 30.787 22.6598 30.787H16.5463V29.4589H22.6598C24.2795 29.4589 25.5973 30.7766 25.5973 32.3963V36.9141C25.5973 37.2377 25.8595 37.5 26.1832 37.5H35.4068C35.7305 37.5 35.9927 37.2377 35.9927 36.9141V20.5859H37.3209V38.3907C37.3209 38.6319 37.1246 38.8281 36.8834 38.8281H30.833C30.5093 38.8281 30.247 39.0905 30.247 39.4141C30.247 39.7377 30.5093 40 30.833 40H36.8834C37.7708 40 38.4927 39.278 38.4927 38.3907V1.6093C38.4927 0.721953 37.7709 0 36.8835 0V0ZM34.8209 32.8844H32.4121C32.1321 32.8844 31.9043 32.6566 31.9043 32.3766V25.7045C31.9043 25.4245 32.1321 25.1966 32.4121 25.1966H34.8209V32.8844ZM32.1715 3.67188V4.33242C32.1715 4.89852 31.7109 5.35898 31.1449 5.35898H28.816C28.2499 5.35898 27.7894 4.89844 27.7894 4.33242V3.67188H32.1715ZM23.9445 3.82812V6.88125C23.9445 7.53211 23.415 8.06164 22.7641 8.06164C22.1133 8.06164 21.5838 7.53211 21.5838 6.88125V3.82812H23.9445ZM7.11867 6.27187H13.1748V13.3889H7.11867V6.27187ZM13.1748 3.67188V5.1H7.11859V3.67188H13.1748ZM13.3889 21.6608V25.3732H6.27196V21.6608H13.3889ZM5.10008 25.3731H3.67195V21.6607H5.10008V25.3731ZM15.3745 30.787H8.40195V29.4589H15.3745V30.787ZM26.7691 36.3281V32.3963C26.7691 30.1305 24.9257 28.287 22.6598 28.287H21.0093V19.8951H28.1912V20.0961C28.1912 20.4197 28.4534 20.682 28.7771 20.682C29.1008 20.682 29.3631 20.4197 29.3631 20.0961V18.4346C29.3631 18.111 29.1008 17.8487 28.7771 17.8487C28.4534 17.8487 28.1912 18.111 28.1912 18.4346V18.7232H20.4234C20.0998 18.7232 19.8374 18.9855 19.8374 19.3091V28.287H3.67188V26.545H13.5146C14.0915 26.545 14.5608 26.0757 14.5608 25.4988V21.535C14.5608 20.9581 14.0915 20.4888 13.5146 20.4888H3.67188V19.0327H14.4045V19.1749C14.4045 19.4985 14.6668 19.7609 14.9905 19.7609C15.3141 19.7609 15.5764 19.4985 15.5764 19.1749V17.6941C15.5764 17.3705 15.3141 17.1081 14.9905 17.1081C14.6668 17.1081 14.4045 17.3705 14.4045 17.6941V17.8609H3.67188V3.67188H5.94672V13.5146C5.94672 14.0915 6.41602 14.5608 6.99289 14.5608H13.3005C13.8773 14.5608 14.3466 14.0915 14.3466 13.5146V3.67188H17.4815V13.3889H17.3392C17.0156 13.3889 16.7533 13.6513 16.7533 13.9748C16.7533 14.2984 17.0156 14.5608 17.3392 14.5608H18.8202C19.1438 14.5608 19.4061 14.2984 19.4061 13.9748C19.4061 13.6513 19.1438 13.3889 18.8202 13.3889H18.6534V3.67188H20.4118V6.88125C20.4118 8.17828 21.467 9.23352 22.7641 9.23352C24.0611 9.23352 25.1163 8.17828 25.1163 6.88125V3.67188H26.6176V4.33242C26.6176 5.54469 27.6038 6.53086 28.8161 6.53086H31.145C32.3573 6.53086 33.3434 5.54461 33.3434 4.33242V3.67188H34.8209V24.0248H32.4122C31.4859 24.0248 30.7325 24.7784 30.7325 25.7045V32.3766C30.7325 33.3028 31.4859 34.0563 32.4122 34.0563H34.8209V36.3281H26.7691ZM35.9927 19.4141V12.4416H37.3209V19.4141H35.9927Z" fill="#DDC9A3"/>
<path d="M32.2766 12.3239C32.2766 11.1717 31.3393 10.2344 30.1871 10.2344C29.035 10.2344 28.0977 11.1717 28.0977 12.3239C28.0977 13.476 29.035 14.4134 30.1871 14.4134C31.3393 14.4134 32.2766 13.476 32.2766 12.3239ZM30.1871 13.2415C29.6811 13.2415 29.2695 12.8298 29.2695 12.3239C29.2695 11.8179 29.6812 11.4062 30.1871 11.4062C30.6931 11.4062 31.1048 11.8179 31.1048 12.3239C31.1048 12.8298 30.6931 13.2415 30.1871 13.2415Z" fill="#DDC9A3"/>
</svg>
