<svg width="23" height="23" viewBox="0 0 23 23" fill="none" xmlns="http://www.w3.org/2000/svg">
    <path fill="#222" d="M9.964 7.512h3.373v9.192H9.964z"/>
    <rect x=".062" y="11.282" width="16.364" height="16.364" rx="2" transform="rotate(-45 .062 11.282)" fill="#FFB900"/>
    <path d="M11.636 13.041a.632.632 0 0 1-.629-.57l-.47-4.793v-1.48a1 1 0 0 1 1-1h.191a1 1 0 0 1 1 1v1.48l-.463 4.792a.632.632 0 0 1-.629.571zm-.012 4.325a1 1 0 0 1-1-1v-.026a1 1 0 0 1 1-1h.025a1 1 0 0 1 1 1v.026a1 1 0 0 1-1 1h-.025z" fill="#000"/>
</svg>
