<svg width="17" height="17" viewBox="0 0 17 17" fill="none" xmlns="http://www.w3.org/2000/svg">
    <rect x="1.459" y="1.098" width="15" height="15" rx="1.5" fill="#fff" stroke="#B38E5D"/>
    <path d="m12.702 10.354-3.191 3.19c-.004.01-.013.014-.017.018a.752.752 0 0 1-.42.212c-.013 0-.026.005-.04.005-.025.004-.051.004-.077.004l-.074-.004c-.013 0-.026-.005-.039-.005a.739.739 0 0 1-.42-.212l-.017-.017-3.192-3.191a.757.757 0 0 1-.22-.537.757.757 0 0 1 1.294-.537l1.919 1.918V4.17c0-.415.342-.758.757-.758.208 0 .399.087.537.221.139.139.221.325.221.537v7.028l1.918-1.918a.763.763 0 0 1 1.074 0 .775.775 0 0 1-.013 1.074z" fill="#B38E5D"/>
</svg>
