<svg width="54" height="54" viewBox="0 0 54 54" fill="none" xmlns="http://www.w3.org/2000/svg">
<path fill-rule="evenodd" clip-rule="evenodd" d="M26.8077 1.1084C41.2386 1.1084 52.9372 12.8069 52.9372 27.2378C52.9372 41.6687 41.2386 53.3673 26.8077 53.3673C12.3768 53.3673 0.678223 41.6687 0.678223 27.2378C0.678223 12.8069 12.3768 1.1084 26.8077 1.1084Z" fill="#FFFFFD" stroke="#D4D4BD"/>
<path d="M12.7978 15.366C11.5875 15.5879 10.8173 16.7532 11.0373 17.974L15.6587 41.9459C15.8787 43.1667 17.034 43.9436 18.2444 43.7216L37.6649 39.8928C38.8753 39.6708 39.6455 38.5055 39.4254 37.2847L34.8041 13.3128C34.584 12.314 33.7588 11.5926 32.7685 11.5371C32.6035 11.5371 32.3834 11.5371 32.2184 11.5926L12.7978 15.366Z" fill="#D5D6DB"/>
<path d="M19.1687 17.0344C17.9613 17.0344 19.1687 17.0344 15.0273 17.8668V40.9385C15.0273 42.1581 16.0152 43.1559 17.2226 43.1559H35.669C36.8764 43.1559 37.9378 42.1581 37.9378 40.9385L39.1753 16.5465C39.1753 15.4933 38.4618 14.6617 37.5288 14.3845C37.5288 14.3845 37.5288 14.3845 37.474 14.3845C37.3093 14.3291 37.1447 14.3291 36.98 14.3291L19.1687 17.0344Z" fill="#B7B7B7"/>
<path d="M18.0473 13.2173C16.8399 13.2173 15.8521 14.2151 15.8521 15.4347V39.8267C15.8521 41.0463 16.8399 42.0441 18.0473 42.0441H37.8047C39.0121 42.0441 40 41.0463 40 39.8267V15.4347C40 14.3814 39.2865 13.5499 38.3535 13.2727C38.3535 13.2727 38.3535 13.2727 38.2987 13.2727C38.134 13.2173 37.9694 13.2173 37.8047 13.2173H18.0473Z" fill="#F0F6F9"/>
<path d="M21.9713 17.9813H31.1776C31.6379 17.9813 31.9448 17.7665 31.9448 17.4443C31.9448 17.122 31.6379 16.9072 31.1776 16.9072H21.9713C21.5109 16.9072 21.2041 17.122 21.2041 17.4443C21.2041 17.7665 21.5109 17.9813 21.9713 17.9813Z" fill="#84B78C"/>
<path d="M21.8532 22.6414H28.439C28.7683 22.6414 28.9878 22.4197 28.9878 22.0871C28.9878 21.7545 28.7683 21.5327 28.439 21.5327H21.8532C21.5239 21.5327 21.3044 21.7545 21.3044 22.0871C21.3044 22.4197 21.5239 22.6414 21.8532 22.6414Z" fill="#B7B7B7"/>
<path d="M26.2437 27.076H28.439C28.7683 27.076 28.9878 26.8543 28.9878 26.5216C28.9878 26.189 28.7683 25.9673 28.439 25.9673H26.2437C25.9144 25.9673 25.6949 26.189 25.6949 26.5216C25.6949 26.8543 25.9144 27.076 26.2437 27.076Z" fill="#B7B7B7"/>
<path d="M21.8541 27.076H24.0493C24.3786 27.076 24.5981 26.8543 24.5981 26.5216C24.5981 26.189 24.3786 25.9673 24.0493 25.9673H21.8541C21.5248 25.9673 21.3052 26.189 21.3052 26.5216C21.3052 26.8543 21.5248 27.076 21.8541 27.076Z" fill="#B7B7B7"/>
<path d="M30.6349 33.7288H37.2207C37.55 33.7288 37.7695 33.5071 37.7695 33.1745C37.7695 32.8419 37.55 32.6201 37.2207 32.6201H30.6349C30.3056 32.6201 30.0861 32.8419 30.0861 33.1745C30.0861 33.5071 30.3056 33.7288 30.6349 33.7288Z" fill="#B7B7B7"/>
<path d="M21.8532 33.7288H28.439C28.7683 33.7288 28.9878 33.5071 28.9878 33.1745C28.9878 32.8419 28.7683 32.6201 28.439 32.6201H21.8532C21.5239 32.6201 21.3044 32.8419 21.3044 33.1745C21.3044 33.5071 21.5239 33.7288 21.8532 33.7288Z" fill="#B7B7B7"/>
<path d="M21.8532 24.8587H28.439C28.7683 24.8587 28.9878 24.637 28.9878 24.3044C28.9878 23.9717 28.7683 23.75 28.439 23.75H21.8532C21.5239 23.75 21.3044 23.9717 21.3044 24.3044C21.3044 24.637 21.5239 24.8587 21.8532 24.8587Z" fill="#B7B7B7"/>
<path d="M26.2444 31.5111H37.2207C37.55 31.5111 37.7695 31.2893 37.7695 30.9567C37.7695 30.6241 37.55 30.4023 37.2207 30.4023H26.2444C25.9151 30.4023 25.6956 30.6241 25.6956 30.9567C25.6956 31.2893 25.9151 31.5111 26.2444 31.5111Z" fill="#B7B7B7"/>
<path d="M21.8541 31.5111H24.0493C24.3786 31.5111 24.5981 31.2893 24.5981 30.9567C24.5981 30.6241 24.3786 30.4023 24.0493 30.4023H21.8541C21.5248 30.4023 21.3052 30.6241 21.3052 30.9567C21.3052 31.2893 21.5248 31.5111 21.8541 31.5111Z" fill="#B7B7B7"/>
<path d="M26.2437 20.4237H28.439C28.7683 20.4237 28.9878 20.2019 28.9878 19.8693C28.9878 19.5367 28.7683 19.3149 28.439 19.3149H26.2437C25.9144 19.3149 25.6949 19.5367 25.6949 19.8693C25.6949 20.2019 25.9144 20.4237 26.2437 20.4237Z" fill="#B7B7B7"/>
<path d="M21.8541 20.4237H24.0493C24.3786 20.4237 24.5981 20.2019 24.5981 19.8693C24.5981 19.5367 24.3786 19.3149 24.0493 19.3149H21.8541C21.5248 19.3149 21.3052 19.5367 21.3052 19.8693C21.3052 20.2019 21.5248 20.4237 21.8541 20.4237Z" fill="#B7B7B7"/>
<path d="M21.8532 29.2933H28.439C28.7683 29.2933 28.9878 29.0715 28.9878 28.7389C28.9878 28.4063 28.7683 28.1846 28.439 28.1846H21.8532C21.5239 28.1846 21.3044 28.4063 21.3044 28.7389C21.3044 29.0715 21.5239 29.2933 21.8532 29.2933Z" fill="#B7B7B7"/>
<path d="M25.0729 13.7718V24.859C25.0729 26.4113 23.8655 27.6309 22.3288 27.6309C20.7921 27.6309 19.5847 26.4113 19.5847 24.859V15.9893C19.5847 15.6566 19.8591 15.4349 20.1335 15.4349C20.4079 15.4349 20.6824 15.6566 20.6824 15.9893V24.859C20.6824 25.746 21.3958 26.5221 22.3288 26.5221C23.2618 26.5221 23.9753 25.746 23.9753 24.859V13.7718C23.9753 13.5501 23.9204 13.3838 23.8655 13.2174C23.646 12.5522 23.0423 12.1087 22.3288 12.1087H20.1335C19.4201 12.1087 18.8164 12.5522 18.5969 13.2174H17.9383C17.7736 13.2174 17.609 13.2174 17.4443 13.2729C17.6639 11.9979 18.7615 11 20.1335 11H22.3288C23.646 11 24.7436 11.9424 25.018 13.2174C25.0729 13.3838 25.0729 13.6055 25.0729 13.7718Z" fill="#64798A"/>
</svg>
