<svg width="24" height="24" viewBox="0 0 24 24" fill="none" xmlns="http://www.w3.org/2000/svg">
    <g filter="url(#fixc9dvhxa)">
        <rect x="1" width="20" height="20" rx="4" fill="#EAF5F9"/>
        <rect x="1.5" y=".5" width="19" height="19" rx="3.5" stroke="#41ABD9"/>
    </g>
    <g clip-path="url(#o9vagy0kub)">
        <path d="M5.339 6.332h10.975v-.89a.628.628 0 0 0-.625-.626h-2.837a.785.785 0 0 0 .706.442c.452 0 .452.687 0 .687a1.472 1.472 0 0 1-1.43-1.13h-4.74a.785.785 0 0 0 .707.443c.451 0 .451.687 0 .687a1.472 1.472 0 0 1-1.43-1.13h-.701a.628.628 0 0 0-.625.626v.89zM6.47 8.888c-.452 0-.452-.686 0-.686h.898c.452 0 .452.686 0 .686h-.898zm0 4.007c-.452 0-.452-.687 0-.687h.898c.452 0 .452.687 0 .687h-.898zm7.813 0c-.452 0-.452-.687 0-.687h.898c.452 0 .452.687 0 .687h-.898zm-2.605 0c-.452 0-.452-.687 0-.687h.899c.452 0 .452.687 0 .687h-.899zm-2.604 0c-.452 0-.452-.687 0-.687h.899c.451 0 .451.687 0 .687h-.899zm-2.604-1.336c-.452 0-.452-.687 0-.687h.898c.452 0 .452.687 0 .687h-.898zm7.813 0c-.452 0-.452-.687 0-.687h.898c.452 0 .452.687 0 .687h-.898zm-2.605 0c-.452 0-.452-.687 0-.687h.899c.452 0 .452.687 0 .687h-.899zm-2.604 0c-.452 0-.452-.687 0-.687h.899c.451 0 .451.687 0 .687h-.899zm-2.604-1.335c-.452 0-.452-.687 0-.687h.898c.452 0 .452.687 0 .687h-.898zm7.813 0c-.452 0-.452-.687 0-.687h.898c.452 0 .452.687 0 .687h-.898zm-2.605 0c-.452 0-.452-.687 0-.687h.899c.452 0 .452.687 0 .687h-.899zm-2.604 0c-.452 0-.452-.687 0-.687h.899c.451 0 .451.687 0 .687h-.899zm5.209-1.336c-.452 0-.452-.686 0-.686h.898c.452 0 .452.686 0 .686h-.898zm-2.605 0c-.452 0-.452-.686 0-.686h.899c.452 0 .452.686 0 .686h-.899zm-2.604 0c-.452 0-.452-.686 0-.686h.899c.451 0 .451.686 0 .686h-.899zm-2.411-4.76a1.472 1.472 0 0 1 2.861 0h2.602a1.472 1.472 0 0 1 2.862 0h.7c.722 0 1.311.59 1.311 1.314v9.662c0 .723-.59 1.313-1.311 1.313H4.312c-.723 0-1.312-.59-1.312-1.313v-.683c0-.19.154-.343.343-.343h1.309V5.44c0-.723.59-1.312 1.311-1.312h.7zm2.137 0a.785.785 0 0 0-1.412 0H8.8zm5.463 0a.785.785 0 0 0-1.412 0h1.412zm-8.926 9.95h9.382c.19 0 .343.153.343.343v.683c0 .343.282.626.625.626a.628.628 0 0 0 .625-.626V7.018H5.338v7.06zM4.311 15.73h10.225c-.101-.187-.16-.4-.16-.626v-.34H3.687v.34c0 .343.282.626.625.626z" fill="#41ABD9"/>
        <path fill="#EAF4F9" d="M6 7h10v7H6z"/>
        <rect x="7" y="8" width="2" height="2" rx=".2" fill="#41ABD9"/>
        <rect x="7" y="11" width="2" height="2" rx=".2" fill="#41ABD9"/>
        <rect x="10" y="8" width="2" height="2" rx=".2" fill="#41ABD9"/>
        <rect x="10" y="11" width="2" height="2" rx=".2" fill="#41ABD9"/>
        <rect x="13" y="8" width="2" height="2" rx=".2" fill="#41ABD9"/>
        <rect x="13" y="11" width="2" height="2" rx=".2" fill="#41ABD9"/>
    </g>
    <defs>
        <clipPath id="o9vagy0kub">
            <path fill="#fff" transform="translate(3 3)" d="M0 0h14v13.417H0z"/>
        </clipPath>
        <filter id="fixc9dvhxa" x="0" y="0" width="24" height="24" filterUnits="userSpaceOnUse" color-interpolation-filters="sRGB">
            <feFlood flood-opacity="0" result="BackgroundImageFix"/>
            <feColorMatrix in="SourceAlpha" values="0 0 0 0 0 0 0 0 0 0 0 0 0 0 0 0 0 0 127 0" result="hardAlpha"/>
            <feOffset dx="1" dy="2"/>
            <feGaussianBlur stdDeviation="1"/>
            <feComposite in2="hardAlpha" operator="out"/>
            <feColorMatrix values="0 0 0 0 0.552941 0 0 0 0 0.816628 0 0 0 0 0.87451 0 0 0 0.35 0"/>
            <feBlend in2="BackgroundImageFix" result="effect1_dropShadow_12957_88388"/>
            <feBlend in="SourceGraphic" in2="effect1_dropShadow_12957_88388" result="shape"/>
        </filter>
    </defs>
</svg>
