<svg width="252" height="288" viewBox="0 0 252 288" fill="none" xmlns="http://www.w3.org/2000/svg">
<g filter="url(#filter0_d_1447_1348)">
<rect x="11.5" y="11.4209" width="224" height="260" rx="8" fill="white"/>
<rect x="12" y="11.9209" width="223" height="259" rx="7.5" stroke="#E5E5E5"/>
</g>
<path d="M72.1298 84.3132C67.3301 85.1934 64.2758 89.8144 65.1485 94.6555L83.4744 189.716C84.347 194.557 88.9285 197.638 93.7281 196.758L170.74 181.575C175.54 180.694 178.594 176.073 177.722 171.232L159.396 76.1714C158.523 72.2106 155.251 69.3499 151.324 69.1299C150.669 69.1299 149.797 69.1299 149.142 69.3499L72.1298 84.3132Z" fill="#D5D6DB"/>
<path d="M97.3923 90.9311C92.6043 90.9311 97.3923 90.9311 80.9698 94.2321V185.723C80.9698 190.559 84.8872 194.516 89.6752 194.516H162.824C167.612 194.516 171.821 190.559 171.821 185.723L176.729 88.9964C176.729 84.8196 173.9 81.5221 170.2 80.423C170.2 80.423 170.2 80.423 169.982 80.423C169.329 80.2031 168.676 80.2031 168.023 80.2031L97.3923 90.9311Z" fill="#B7B7B7"/>
<path d="M92.9464 75.793C88.1584 75.793 84.241 79.75 84.241 84.5863V181.313C84.241 186.149 88.1584 190.106 92.9464 190.106H171.295C176.083 190.106 180 186.149 180 181.313V84.5863C180 80.4095 177.171 77.112 173.471 76.0128C173.471 76.0128 173.471 76.0128 173.253 76.0128C172.6 75.793 171.948 75.793 171.295 75.793H92.9464Z" fill="#F0F6F9"/>
<path d="M108.505 94.686H145.013C146.839 94.686 148.056 93.8342 148.056 92.5564C148.056 91.2786 146.839 90.4268 145.013 90.4268H108.505C106.68 90.4268 105.463 91.2786 105.463 92.5564C105.463 93.8342 106.68 94.686 108.505 94.686Z" fill="#84B78C"/>
<path d="M108.04 113.166H134.156C135.462 113.166 136.333 112.286 136.333 110.967C136.333 109.648 135.462 108.769 134.156 108.769H108.04C106.735 108.769 105.864 109.648 105.864 110.967C105.864 112.286 106.735 113.166 108.04 113.166Z" fill="#B7B7B7"/>
<path d="M125.451 130.752H134.156C135.462 130.752 136.333 129.872 136.333 128.553C136.333 127.234 135.462 126.355 134.156 126.355H125.451C124.145 126.355 123.275 127.234 123.275 128.553C123.275 129.872 124.145 130.752 125.451 130.752Z" fill="#B7B7B7"/>
<path d="M108.041 130.752H116.746C118.052 130.752 118.922 129.872 118.922 128.553C118.922 127.234 118.052 126.355 116.746 126.355H108.041C106.735 126.355 105.864 127.234 105.864 128.553C105.864 129.872 106.735 130.752 108.041 130.752Z" fill="#B7B7B7"/>
<path d="M142.862 157.132H168.978C170.284 157.132 171.155 156.252 171.155 154.933C171.155 153.614 170.284 152.735 168.978 152.735H142.862C141.556 152.735 140.686 153.614 140.686 154.933C140.686 156.252 141.556 157.132 142.862 157.132Z" fill="#B7B7B7"/>
<path d="M108.04 157.132H134.156C135.462 157.132 136.333 156.252 136.333 154.933C136.333 153.614 135.462 152.735 134.156 152.735H108.04C106.735 152.735 105.864 153.614 105.864 154.933C105.864 156.252 106.735 157.132 108.04 157.132Z" fill="#B7B7B7"/>
<path d="M108.04 121.959H134.156C135.462 121.959 136.333 121.079 136.333 119.76C136.333 118.441 135.462 117.562 134.156 117.562H108.04C106.735 117.562 105.864 118.441 105.864 119.76C105.864 121.079 106.735 121.959 108.04 121.959Z" fill="#B7B7B7"/>
<path d="M125.451 148.339H168.978C170.284 148.339 171.155 147.46 171.155 146.141C171.155 144.822 170.284 143.942 168.978 143.942H125.451C124.146 143.942 123.275 144.822 123.275 146.141C123.275 147.46 124.146 148.339 125.451 148.339Z" fill="#B7B7B7"/>
<path d="M108.041 148.339H116.746C118.052 148.339 118.922 147.46 118.922 146.141C118.922 144.822 118.052 143.942 116.746 143.942H108.041C106.735 143.942 105.864 144.822 105.864 146.141C105.864 147.46 106.735 148.339 108.041 148.339Z" fill="#B7B7B7"/>
<path d="M125.451 104.372H134.156C135.462 104.372 136.333 103.492 136.333 102.173C136.333 100.854 135.462 99.9751 134.156 99.9751H125.451C124.145 99.9751 123.275 100.854 123.275 102.173C123.275 103.492 124.145 104.372 125.451 104.372Z" fill="#B7B7B7"/>
<path d="M108.041 104.372H116.746C118.052 104.372 118.922 103.492 118.922 102.173C118.922 100.854 118.052 99.9751 116.746 99.9751H108.041C106.735 99.9751 105.864 100.854 105.864 102.173C105.864 103.492 106.735 104.372 108.041 104.372Z" fill="#B7B7B7"/>
<path d="M108.04 139.545H134.156C135.462 139.545 136.333 138.665 136.333 137.346C136.333 136.027 135.462 135.148 134.156 135.148H108.04C106.735 135.148 105.864 136.027 105.864 137.346C105.864 138.665 106.735 139.545 108.04 139.545Z" fill="#B7B7B7"/>
<path d="M120.807 77.9916V121.958C120.807 128.114 116.019 132.95 109.925 132.95C103.831 132.95 99.0431 128.114 99.0431 121.958V86.785C99.0431 85.466 100.131 84.5866 101.219 84.5866C102.308 84.5866 103.396 85.466 103.396 86.785V121.958C103.396 125.476 106.225 128.553 109.925 128.553C113.625 128.553 116.454 125.476 116.454 121.958V77.9916C116.454 77.1123 116.236 76.4528 116.019 75.7933C115.148 73.1553 112.754 71.3967 109.925 71.3967H101.219C98.3902 71.3967 95.9963 73.1553 95.1257 75.7933H92.5141C91.8612 75.7933 91.2083 75.7933 90.5554 76.0131C91.426 70.957 95.7786 67 101.219 67H109.925C115.148 67 119.501 70.7372 120.589 75.7933C120.807 76.4528 120.807 77.3321 120.807 77.9916Z" fill="#64798A"/>
<circle cx="206.5" cy="44.5" r="21.5" fill="white" stroke="#D0D7DF" stroke-width="2"/>
<g clip-path="url(#clip0_1447_1348)">
<path d="M204.3 53.525C204.1 53.525 203.9 53.425 203.7 53.325L194.2 43.825C194.1 43.625 194 43.425 194 43.225C194 43.025 194.1 42.825 194.2 42.725L197.5 39.425C197.8 39.125 198.3 39.125 198.6 39.425L204.2 45.025L214 35.225C214.3 34.925 214.8 34.925 215.1 35.225L218.4 38.525C218.7 38.825 218.7 39.325 218.4 39.625L204.8 53.225C204.7 53.425 204.5 53.525 204.3 53.525Z" fill="#0DAF00"/>
</g>
<defs>
<filter id="filter0_d_1447_1348" x="0.0780914" y="-0.00101018" width="251.195" height="287.195" filterUnits="userSpaceOnUse" color-interpolation-filters="sRGB">
<feFlood flood-opacity="0" result="BackgroundImageFix"/>
<feColorMatrix in="SourceAlpha" type="matrix" values="0 0 0 0 0 0 0 0 0 0 0 0 0 0 0 0 0 0 127 0" result="hardAlpha"/>
<feOffset dx="2.1756" dy="2.1756"/>
<feGaussianBlur stdDeviation="6.79876"/>
<feColorMatrix type="matrix" values="0 0 0 0 0 0 0 0 0 0 0 0 0 0 0 0 0 0 0.05 0"/>
<feBlend mode="normal" in2="BackgroundImageFix" result="effect1_dropShadow_1447_1348"/>
<feBlend mode="normal" in="SourceGraphic" in2="effect1_dropShadow_1447_1348" result="shape"/>
</filter>
<clipPath id="clip0_1447_1348">
<rect width="24.7" height="18.5" fill="white" transform="translate(193 36)"/>
</clipPath>
</defs>
</svg>
