<svg width="28" height="29" viewBox="0 0 28 29" fill="none" xmlns="http://www.w3.org/2000/svg">
    <g clip-path="url(#kkv17jv94a)">
        <path d="M21.05.5h.59c.458.197.655.59.59 1.115v.852c0 .263.065.328.327.328h2.164c.656 0 1.312.197 1.836.525.787.524 1.246 1.246 1.443 2.164v20.393c0 .066-.066.197-.066.262-.393 1.377-1.639 2.361-3.082 2.361H3.148C1.443 28.5 0 27.057 0 25.352V5.942c0-.393.066-.852.262-1.245.656-1.312 1.705-1.902 3.082-1.902h2.164c.197 0 .328-.065.262-.262v-.918c0-.46.132-.853.59-1.115h.59c.46.197.657.59.657 1.05v.786c0 .46 0 .46.459.46H20.13c.197 0 .262-.066.262-.263v-.984c0-.459.197-.852.656-1.049zm-7.017 11.148H2.23c-.46 0-.46 0-.46.459V25.22c.066.722.394 1.246.984 1.443.328.066.525.066.787.066h21.18c.525 0 .984-.197 1.312-.722.197-.328.197-.655.197-.983V12.04c0-.459 0-.459-.46-.459-3.868.066-7.803.066-11.737.066zm0-1.837H25.967c.197 0 .263-.065.263-.262V6.14c0-.918-.656-1.508-1.574-1.508h-2.099c-.262 0-.327.066-.327.328v1.64c0 .59-.394.983-.984.983-.525 0-.853-.393-.853-.984V4.96c0-.197-.065-.328-.327-.328H7.934c-.262 0-.327.066-.327.328v1.64c0 .59-.394.917-.984.917-.525 0-.853-.393-.853-.983v-1.64c0-.262-.065-.327-.327-.327H3.016c-.72.196-1.246.786-1.246 1.639v3.147c0 .46 0 .46.46.46h11.803z" fill="#235B4E"/>
    </g>
    <defs>
        <clipPath id="kkv17jv94a">
            <path fill="#fff" transform="translate(0 .5)" d="M0 0h28v28H0z"/>
        </clipPath>
    </defs>
</svg>
