<svg width="23" height="20" viewBox="0 0 23 20" fill="none" xmlns="http://www.w3.org/2000/svg">
    <path d="M10.189 1.43a1.667 1.667 0 0 1 2.887 0l9.26 16.037a1.667 1.667 0 0 1-1.444 2.5H2.374a1.667 1.667 0 0 1-1.444-2.5L10.189 1.43z" fill="#E7184A"/>
    <path d="M11.636 13.781a.658.658 0 0 1-.655-.593l-.49-4.994V6.611a1 1 0 0 1 1-1h.283a1 1 0 0 1 1 1v1.583l-.483 4.993a.658.658 0 0 1-.655.595zm-.055 4.506a1 1 0 0 1-1-1v-.11a1 1 0 0 1 1-1h.11a1 1 0 0 1 1 1v.11a1 1 0 0 1-1 1h-.11z" fill="#fff"/>
</svg>
