<svg width="115" height="130" viewBox="0 0 115 130" fill="none" xmlns="http://www.w3.org/2000/svg">
<path d="M7.12978 17.3132C2.33015 18.1934 -0.724172 22.8144 0.148489 27.6555L18.4744 122.716C19.347 127.557 23.9285 130.638 28.7281 129.758L105.74 114.575C110.54 113.694 113.594 109.073 112.722 104.232L94.3959 9.17143C93.5232 5.21056 90.2508 2.34993 86.3238 2.12988C85.6693 2.12988 84.7966 2.12988 84.1421 2.34993L7.12978 17.3132Z" fill="#D5D6DB"/>
<path d="M32.3923 23.9311C27.6043 23.9311 32.3923 23.9311 15.9698 27.2321V118.723C15.9698 123.559 19.8872 127.516 24.6752 127.516H97.8244C102.612 127.516 106.821 123.559 106.821 118.723L111.729 21.9964C111.729 17.8196 108.9 14.5221 105.2 13.423C105.2 13.423 105.2 13.423 104.982 13.423C104.329 13.2031 103.676 13.2031 103.023 13.2031L32.3923 23.9311Z" fill="#B7B7B7"/>
<path d="M27.9464 8.79297C23.1584 8.79297 19.241 12.75 19.241 17.5863V114.313C19.241 119.149 23.1584 123.106 27.9464 123.106H106.295C111.083 123.106 115 119.149 115 114.313V17.5863C115 13.4095 112.171 10.112 108.471 9.0128C108.471 9.0128 108.471 9.0128 108.253 9.0128C107.6 8.79297 106.948 8.79297 106.295 8.79297H27.9464Z" fill="#F0F6F9"/>
<path d="M43.5054 27.686H80.0133C81.8387 27.686 83.0557 26.8342 83.0557 25.5564C83.0557 24.2786 81.8387 23.4268 80.0133 23.4268H43.5054C41.68 23.4268 40.463 24.2786 40.463 25.5564C40.463 26.8342 41.68 27.686 43.5054 27.686Z" fill="#84B78C"/>
<path d="M43.0403 46.1657H69.1564C70.4622 46.1657 71.3328 45.2864 71.3328 43.9674C71.3328 42.6484 70.4622 41.769 69.1564 41.769H43.0403C41.7345 41.769 40.864 42.6484 40.864 43.9674C40.864 45.2864 41.7345 46.1657 43.0403 46.1657Z" fill="#B7B7B7"/>
<path d="M60.4511 63.7516H69.1564C70.4622 63.7516 71.3328 62.8723 71.3328 61.5533C71.3328 60.2343 70.4622 59.355 69.1564 59.355H60.4511C59.1453 59.355 58.2747 60.2343 58.2747 61.5533C58.2747 62.8723 59.1453 63.7516 60.4511 63.7516Z" fill="#B7B7B7"/>
<path d="M43.0407 63.7516H51.746C53.0518 63.7516 53.9224 62.8723 53.9224 61.5533C53.9224 60.2343 53.0518 59.355 51.746 59.355H43.0407C41.7348 59.355 40.8643 60.2343 40.8643 61.5533C40.8643 62.8723 41.7348 63.7516 43.0407 63.7516Z" fill="#B7B7B7"/>
<path d="M77.8621 90.1315H103.978C105.284 90.1315 106.155 89.2522 106.155 87.9332C106.155 86.6142 105.284 85.7349 103.978 85.7349H77.8621C76.5563 85.7349 75.6858 86.6142 75.6858 87.9332C75.6858 89.2522 76.5563 90.1315 77.8621 90.1315Z" fill="#B7B7B7"/>
<path d="M43.0403 90.1315H69.1564C70.4622 90.1315 71.3328 89.2522 71.3328 87.9332C71.3328 86.6142 70.4622 85.7349 69.1564 85.7349H43.0403C41.7345 85.7349 40.864 86.6142 40.864 87.9332C40.864 89.2522 41.7345 90.1315 43.0403 90.1315Z" fill="#B7B7B7"/>
<path d="M43.0403 54.9587H69.1564C70.4622 54.9587 71.3328 54.0793 71.3328 52.7603C71.3328 51.4413 70.4622 50.562 69.1564 50.562H43.0403C41.7345 50.562 40.864 51.4413 40.864 52.7603C40.864 54.0793 41.7345 54.9587 43.0403 54.9587Z" fill="#B7B7B7"/>
<path d="M60.4514 81.339H103.978C105.284 81.339 106.155 80.4597 106.155 79.1407C106.155 77.8217 105.284 76.9424 103.978 76.9424H60.4514C59.1456 76.9424 58.275 77.8217 58.275 79.1407C58.275 80.4597 59.1456 81.339 60.4514 81.339Z" fill="#B7B7B7"/>
<path d="M43.0407 81.339H51.746C53.0518 81.339 53.9224 80.4597 53.9224 79.1407C53.9224 77.8217 53.0518 76.9424 51.746 76.9424H43.0407C41.7348 76.9424 40.8643 77.8217 40.8643 79.1407C40.8643 80.4597 41.7348 81.339 43.0407 81.339Z" fill="#B7B7B7"/>
<path d="M60.4511 37.3718H69.1564C70.4622 37.3718 71.3328 36.4924 71.3328 35.1734C71.3328 33.8544 70.4622 32.9751 69.1564 32.9751H60.4511C59.1453 32.9751 58.2747 33.8544 58.2747 35.1734C58.2747 36.4924 59.1453 37.3718 60.4511 37.3718Z" fill="#B7B7B7"/>
<path d="M43.0407 37.3718H51.746C53.0518 37.3718 53.9224 36.4924 53.9224 35.1734C53.9224 33.8544 53.0518 32.9751 51.746 32.9751H43.0407C41.7348 32.9751 40.8643 33.8544 40.8643 35.1734C40.8643 36.4924 41.7348 37.3718 43.0407 37.3718Z" fill="#B7B7B7"/>
<path d="M43.0403 72.5446H69.1564C70.4622 72.5446 71.3328 71.6653 71.3328 70.3463C71.3328 69.0273 70.4622 68.1479 69.1564 68.1479H43.0403C41.7345 68.1479 40.864 69.0273 40.864 70.3463C40.864 71.6653 41.7345 72.5446 43.0403 72.5446Z" fill="#B7B7B7"/>
<path d="M55.8065 10.9916V54.9582C55.8065 61.1136 51.0186 65.9499 44.9248 65.9499C38.8311 65.9499 34.0431 61.1136 34.0431 54.9582V19.785C34.0431 18.466 35.1313 17.5866 36.2195 17.5866C37.3077 17.5866 38.3958 18.466 38.3958 19.785V54.9582C38.3958 58.4756 41.2251 61.5532 44.9248 61.5532C48.6246 61.5532 51.4539 58.4756 51.4539 54.9582V10.9916C51.4539 10.1123 51.2362 9.45282 51.0186 8.79332C50.1481 6.15532 47.7541 4.39666 44.9248 4.39666H36.2195C33.3902 4.39666 30.9963 6.15532 30.1257 8.79332H27.5141C26.8612 8.79332 26.2083 8.79332 25.5554 9.01315C26.426 3.95699 30.7786 0 36.2195 0H44.9248C50.1481 0 54.5007 3.73716 55.5889 8.79332C55.8065 9.45282 55.8065 10.3321 55.8065 10.9916Z" fill="#64798A"/>
</svg>
