<svg width="62" height="63" viewBox="0 0 62 63" fill="none" xmlns="http://www.w3.org/2000/svg">
<path d="M12.7978 23.366C11.5875 23.5879 10.8173 24.7532 11.0373 25.974L15.6587 49.9459C15.8787 51.1667 17.034 51.9436 18.2444 51.7216L37.6649 47.8928C38.8753 47.6708 39.6455 46.5055 39.4254 45.2847L34.8041 21.3128C34.584 20.314 33.7588 19.5926 32.7685 19.5371C32.6035 19.5371 32.3834 19.5371 32.2184 19.5926L12.7978 23.366Z" fill="#D5D6DB"/>
<path d="M19.1687 25.0344C17.9613 25.0344 19.1687 25.0344 15.0273 25.8668V48.9385C15.0273 50.1581 16.0152 51.1559 17.2226 51.1559H35.669C36.8764 51.1559 37.9378 50.1581 37.9378 48.9385L39.1753 24.5465C39.1753 23.4933 38.4618 22.6617 37.5288 22.3845C37.5288 22.3845 37.5288 22.3845 37.474 22.3845C37.3093 22.3291 37.1447 22.3291 36.98 22.3291L19.1687 25.0344Z" fill="#B7B7B7"/>
<path d="M18.0473 21.2173C16.8399 21.2173 15.8521 22.2151 15.8521 23.4347V47.8267C15.8521 49.0463 16.8399 50.0441 18.0473 50.0441H37.8047C39.0121 50.0441 40 49.0463 40 47.8267V23.4347C40 22.3814 39.2865 21.5499 38.3535 21.2727C38.3535 21.2727 38.3535 21.2727 38.2987 21.2727C38.134 21.2173 37.9694 21.2173 37.8047 21.2173H18.0473Z" fill="#F0F6F9"/>
<path d="M21.9713 25.9813H31.1776C31.6379 25.9813 31.9448 25.7665 31.9448 25.4443C31.9448 25.122 31.6379 24.9072 31.1776 24.9072H21.9713C21.5109 24.9072 21.2041 25.122 21.2041 25.4443C21.2041 25.7665 21.5109 25.9813 21.9713 25.9813Z" fill="#84B78C"/>
<path d="M21.8532 30.6414H28.439C28.7683 30.6414 28.9878 30.4197 28.9878 30.0871C28.9878 29.7545 28.7683 29.5327 28.439 29.5327H21.8532C21.5239 29.5327 21.3044 29.7545 21.3044 30.0871C21.3044 30.4197 21.5239 30.6414 21.8532 30.6414Z" fill="#B7B7B7"/>
<path d="M26.2437 35.076H28.439C28.7683 35.076 28.9878 34.8543 28.9878 34.5216C28.9878 34.189 28.7683 33.9673 28.439 33.9673H26.2437C25.9144 33.9673 25.6949 34.189 25.6949 34.5216C25.6949 34.8543 25.9144 35.076 26.2437 35.076Z" fill="#B7B7B7"/>
<path d="M21.8541 35.076H24.0493C24.3786 35.076 24.5981 34.8543 24.5981 34.5216C24.5981 34.189 24.3786 33.9673 24.0493 33.9673H21.8541C21.5248 33.9673 21.3052 34.189 21.3052 34.5216C21.3052 34.8543 21.5248 35.076 21.8541 35.076Z" fill="#B7B7B7"/>
<path d="M30.6349 41.7288H37.2207C37.55 41.7288 37.7695 41.5071 37.7695 41.1745C37.7695 40.8419 37.55 40.6201 37.2207 40.6201H30.6349C30.3056 40.6201 30.0861 40.8419 30.0861 41.1745C30.0861 41.5071 30.3056 41.7288 30.6349 41.7288Z" fill="#B7B7B7"/>
<path d="M21.8532 41.7288H28.439C28.7683 41.7288 28.9878 41.5071 28.9878 41.1745C28.9878 40.8419 28.7683 40.6201 28.439 40.6201H21.8532C21.5239 40.6201 21.3044 40.8419 21.3044 41.1745C21.3044 41.5071 21.5239 41.7288 21.8532 41.7288Z" fill="#B7B7B7"/>
<path d="M21.8532 32.8587H28.439C28.7683 32.8587 28.9878 32.637 28.9878 32.3044C28.9878 31.9717 28.7683 31.75 28.439 31.75H21.8532C21.5239 31.75 21.3044 31.9717 21.3044 32.3044C21.3044 32.637 21.5239 32.8587 21.8532 32.8587Z" fill="#B7B7B7"/>
<path d="M26.2444 39.5111H37.2207C37.55 39.5111 37.7695 39.2893 37.7695 38.9567C37.7695 38.6241 37.55 38.4023 37.2207 38.4023H26.2444C25.9151 38.4023 25.6956 38.6241 25.6956 38.9567C25.6956 39.2893 25.9151 39.5111 26.2444 39.5111Z" fill="#B7B7B7"/>
<path d="M21.8541 39.5111H24.0493C24.3786 39.5111 24.5981 39.2893 24.5981 38.9567C24.5981 38.6241 24.3786 38.4023 24.0493 38.4023H21.8541C21.5248 38.4023 21.3052 38.6241 21.3052 38.9567C21.3052 39.2893 21.5248 39.5111 21.8541 39.5111Z" fill="#B7B7B7"/>
<path d="M26.2437 28.4237H28.439C28.7683 28.4237 28.9878 28.2019 28.9878 27.8693C28.9878 27.5367 28.7683 27.3149 28.439 27.3149H26.2437C25.9144 27.3149 25.6949 27.5367 25.6949 27.8693C25.6949 28.2019 25.9144 28.4237 26.2437 28.4237Z" fill="#B7B7B7"/>
<path d="M21.8541 28.4237H24.0493C24.3786 28.4237 24.5981 28.2019 24.5981 27.8693C24.5981 27.5367 24.3786 27.3149 24.0493 27.3149H21.8541C21.5248 27.3149 21.3052 27.5367 21.3052 27.8693C21.3052 28.2019 21.5248 28.4237 21.8541 28.4237Z" fill="#B7B7B7"/>
<path d="M21.8532 37.2933H28.439C28.7683 37.2933 28.9878 37.0715 28.9878 36.7389C28.9878 36.4063 28.7683 36.1846 28.439 36.1846H21.8532C21.5239 36.1846 21.3044 36.4063 21.3044 36.7389C21.3044 37.0715 21.5239 37.2933 21.8532 37.2933Z" fill="#B7B7B7"/>
<path d="M25.0729 21.7718V32.859C25.0729 34.4113 23.8655 35.6309 22.3288 35.6309C20.7921 35.6309 19.5847 34.4113 19.5847 32.859V23.9893C19.5847 23.6566 19.8591 23.4349 20.1335 23.4349C20.4079 23.4349 20.6824 23.6566 20.6824 23.9893V32.859C20.6824 33.746 21.3958 34.5221 22.3288 34.5221C23.2618 34.5221 23.9753 33.746 23.9753 32.859V21.7718C23.9753 21.5501 23.9204 21.3838 23.8655 21.2174C23.646 20.5522 23.0423 20.1087 22.3288 20.1087H20.1335C19.4201 20.1087 18.8164 20.5522 18.5969 21.2174H17.9383C17.7736 21.2174 17.609 21.2174 17.4443 21.2729C17.6639 19.9979 18.7615 19 20.1335 19H22.3288C23.646 19 24.7436 19.9424 25.018 21.2174C25.0729 21.3838 25.0729 21.6055 25.0729 21.7718Z" fill="#64798A"/>
<path fill-rule="evenodd" clip-rule="evenodd" d="M27.1295 9.1084C41.5604 9.1084 53.259 20.8069 53.259 35.2378C53.259 49.6687 41.5604 61.3673 27.1295 61.3673C12.6986 61.3673 1 49.6687 1 35.2378C1 20.8069 12.6986 9.1084 27.1295 9.1084Z" stroke="#EEEDDF" stroke-width="2"/>
<path d="M48.5396 13.3374L42.1957 19.6813" stroke="#CD0000" stroke-width="1.56984" stroke-linecap="round"/>
<path d="M42.1963 13.3379L48.5402 19.6818" stroke="#CD0000" stroke-width="1.56984" stroke-linecap="round"/>
<circle cx="45.3682" cy="16.3311" r="7.11011" stroke="#CD0000" stroke-width="1.56984"/>
</svg>
