<svg width="38" height="38" viewBox="0 0 38 38" fill="none" xmlns="http://www.w3.org/2000/svg">
    <g filter="url(#foo7h4jvxa)" fill="#179894">
        <path d="M5.563 29.167h27.708a.73.73 0 0 0 .73-.73v-17.5a.729.729 0 0 0-.73-.729h-3.645V3.646a.73.73 0 0 0-.73-.73h-3.645v-.728A2.187 2.187 0 0 0 23.063 0h-7.291a2.187 2.187 0 0 0-2.188 2.188v.729H9.938a.73.73 0 0 0-.729.729v6.562H5.563a.729.729 0 0 0-.729.73v17.5a.73.73 0 0 0 .73.729zm24.063-17.5h2.916v16.041h-2.916V11.667zm-8.021 16.041H17.23v-5.104h4.375v5.104zm-6.563-25.52a.729.729 0 0 1 .73-.73h7.291a.73.73 0 0 1 .73.73v7.291a.729.729 0 0 1-.73.73h-7.291a.729.729 0 0 1-.73-.73V2.188zm-4.375 2.187h2.917v5.104a2.187 2.187 0 0 0 2.188 2.188h7.291a2.187 2.187 0 0 0 2.188-2.188V4.375h2.916v23.333h-5.104v-5.833a.73.73 0 0 0-.729-.73h-5.833a.729.729 0 0 0-.73.73v5.833h-5.104V4.375zm-4.375 7.292H9.21v16.041H6.292V11.667z"/>
        <path d="M17.23 6.562h1.457v1.459a.729.729 0 1 0 1.459 0V6.562h1.458a.73.73 0 0 0 0-1.458h-1.458V3.646a.73.73 0 1 0-1.459 0v1.458H17.23a.73.73 0 1 0 0 1.458zM14.313 15.312h1.458a.73.73 0 0 0 0-1.458h-1.458a.729.729 0 1 0 0 1.458zM16.5 18.23a.73.73 0 0 0-.729-.73h-1.458a.729.729 0 1 0 0 1.458h1.458a.73.73 0 0 0 .73-.729zM18.688 15.312h1.459a.73.73 0 0 0 0-1.458h-1.459a.729.729 0 1 0 0 1.458zM18.688 18.958h1.459a.73.73 0 0 0 0-1.458h-1.459a.729.729 0 1 0 0 1.458zM23.063 15.312h1.459a.73.73 0 0 0 0-1.458h-1.459a.729.729 0 1 0 0 1.458zM23.063 18.958h1.459a.73.73 0 0 0 0-1.458h-1.459a.729.729 0 1 0 0 1.458z"/>
    </g>
    <defs>
        <filter id="foo7h4jvxa" x=".834" y="0" width="37.167" height="37.166" filterUnits="userSpaceOnUse" color-interpolation-filters="sRGB">
            <feFlood flood-opacity="0" result="BackgroundImageFix"/>
            <feColorMatrix in="SourceAlpha" values="0 0 0 0 0 0 0 0 0 0 0 0 0 0 0 0 0 0 127 0" result="hardAlpha"/>
            <feOffset dy="4"/>
            <feGaussianBlur stdDeviation="2"/>
            <feComposite in2="hardAlpha" operator="out"/>
            <feColorMatrix values="0 0 0 0 0.533255 0 0 0 0 0.941667 0 0 0 0 0.928904 0 0 0 1 0"/>
            <feBlend in2="BackgroundImageFix" result="effect1_dropShadow_4759_3889"/>
            <feBlend in="SourceGraphic" in2="effect1_dropShadow_4759_3889" result="shape"/>
        </filter>
    </defs>
</svg>
