<svg width="23" height="23" viewBox="0 0 23 23" fill="none" xmlns="http://www.w3.org/2000/svg">
    <g filter="url(#i4k3tufxfa)">
        <rect x="1.896" y=".089" width="18" height="18" rx="4" fill="#EAF9F0"/>
        <rect x="2.396" y=".589" width="17" height="17" rx="3.5" stroke="#41abd9"/>
    </g>
    <path d="M10.151 13.481h-.078c-.235 0-.392-.157-.55-.314L6.23 9.873l-.157-.157a.615.615 0 0 1 0-.862c.314-.393.706-.706 1.02-1.02.235-.157.392-.235.627-.157.157 0 .314.157.392.235l1.883 1.883c.078.078.078.078.235 0l4.47-4.47a.758.758 0 0 1 1.098 0l.863.862c.079.078.235.235.235.392v.314c-.078.157-.156.314-.235.392l-5.882 5.882c-.236.157-.392.314-.628.314z" stroke="#41abd9" stroke-width="1.2"/>
    <defs>
        <filter id="i4k3tufxfa" x=".896" y=".089" width="22" height="22" filterUnits="userSpaceOnUse" color-interpolation-filters="sRGB">
            <feFlood flood-opacity="0" result="BackgroundImageFix"/>
            <feColorMatrix in="SourceAlpha" values="0 0 0 0 0 0 0 0 0 0 0 0 0 0 0 0 0 0 127 0" result="hardAlpha"/>
            <feOffset dx="0" dy="0"/>
            <feGaussianBlur stdDeviation="1"/>
            <feComposite in2="hardAlpha" operator="out"/>
            <feColorMatrix values="0 0 0 0 0 0 0 0 0 0.803922 0 0 0 0 0.435294 0 0 0 0.35 0"/>
            <feBlend in2="BackgroundImageFix" result="effect1_dropShadow_2631_14805"/>
            <feBlend in="SourceGraphic" in2="effect1_dropShadow_2631_14805" result="shape"/>
        </filter>
    </defs>
</svg>
