<svg width="45" height="45" viewBox="0 0 45 45" fill="none" xmlns="http://www.w3.org/2000/svg">
<circle cx="22.5" cy="22.5" r="21.5" fill="white" stroke="#D0D7DF" stroke-width="2"/>
<g clip-path="url(#clip0_1447_1334)">
<path d="M20.3 31.525C20.1 31.525 19.9 31.425 19.7 31.325L10.2 21.825C10.1 21.625 10 21.425 10 21.225C10 21.025 10.1 20.825 10.2 20.725L13.5 17.425C13.8 17.125 14.3 17.125 14.6 17.425L20.2 23.025L30 13.225C30.3 12.925 30.8 12.925 31.1 13.225L34.4 16.525C34.7 16.825 34.7 17.325 34.4 17.625L20.8 31.225C20.7 31.425 20.5 31.525 20.3 31.525Z" fill="#0DAF00"/>
</g>
<defs>
<clipPath id="clip0_1447_1334">
<rect width="24.7" height="18.5" fill="white" transform="translate(9 14)"/>
</clipPath>
</defs>
</svg>
