<svg width="40" height="40" viewBox="0 0 40 40" fill="none" xmlns="http://www.w3.org/2000/svg">
<path d="M19.9583 31.0211C20.1045 30.8759 20.1875 30.6744 20.1875 30.4688C20.1875 30.2634 20.1045 30.062 19.9583 29.9164C19.8134 29.7711 19.6122 29.6875 19.4063 29.6875C19.2009 29.6875 18.9991 29.7711 18.8539 29.9164C18.7086 30.062 18.625 30.2634 18.625 30.4688C18.625 30.6744 18.7083 30.8759 18.8539 31.0211C18.9991 31.1664 19.2009 31.25 19.4063 31.25C19.6116 31.25 19.8131 31.1664 19.9583 31.0211Z" fill="#DDC9A3"/>
<path d="M39.2188 2.65625H31.875C30.7126 2.65625 29.7385 3.48999 29.5593 4.63867L28.7714 9.6875H27.435V0.78125C27.435 0.349731 27.085 0 26.6538 0H16.6538C16.2222 0 15.8725 0.349731 15.8725 0.78125V4.6875H5C4.56848 4.6875 4.21875 5.03723 4.21875 5.46875V9.6875H0.78125C0.548096 9.6875 0.327148 9.79156 0.178833 9.97131C0.0305176 10.1511 -0.0299072 10.3876 0.0140381 10.6165L3.13904 26.8665C3.20984 27.2342 3.5318 27.5 3.90625 27.5H25.9912L25.6497 29.6875H22.5259C22.0947 29.6875 21.7447 30.0372 21.7447 30.4688C21.7447 30.9003 22.0947 31.25 22.5259 31.25H26.3187C26.7038 31.25 27.0313 30.9695 27.0905 30.5893L31.1032 4.87946C31.163 4.49677 31.4874 4.21875 31.875 4.21875H38.4375V5.78125H33.2126C32.8275 5.78125 32.5 6.06171 32.4408 6.44196L28.428 32.1518C28.3682 32.5345 28.0438 32.8125 27.6563 32.8125H2.34375C1.91284 32.8125 1.5625 32.4622 1.5625 32.0312C1.5625 31.6003 1.91284 31.25 2.34375 31.25H16.2759C16.7075 31.25 17.0572 30.9003 17.0572 30.4688C17.0572 30.0372 16.7075 29.6875 16.2759 29.6875H2.34375C1.05133 29.6875 0 30.7388 0 32.0312C0 33.3237 1.05133 34.375 2.34375 34.375H3.75122C3.35358 34.9533 3.12012 35.6528 3.12012 36.4062C3.12012 38.3878 4.73206 40 6.71387 40C8.69538 40 10.3076 38.3878 10.3076 36.4062C10.3076 35.6528 10.0742 34.9533 9.67621 34.375H18.761C18.3633 34.9533 18.1299 35.6528 18.1299 36.4062C18.1299 38.3878 19.7421 40 21.7236 40C23.7051 40 25.3174 38.3878 25.3174 36.4062C25.3174 35.6528 25.0839 34.9533 24.686 34.375H27.6563C28.819 34.375 29.7928 33.5413 29.9719 32.3926L33.8815 7.34375H39.2188C39.6503 7.34375 40 6.99402 40 6.5625V3.4375C40 3.00598 39.6503 2.65625 39.2188 2.65625ZM17.435 1.5625H25.8725V9.6875H19.2999V5.46875C19.2999 5.03723 18.9502 4.6875 18.5187 4.6875H17.435V1.5625ZM5.78125 6.25H17.7374V9.6875H5.78125V6.25ZM4.5517 25.9375L4.2511 24.375H9.67133C10.1025 24.375 10.4526 24.0253 10.4526 23.5938C10.4526 23.1622 10.1025 22.8125 9.67133 22.8125H3.9505L1.72699 11.25H28.5275L26.2351 25.9375H4.5517ZM8.74512 36.4062C8.74512 37.5262 7.83386 38.4375 6.71387 38.4375C5.59387 38.4375 4.68262 37.5262 4.68262 36.4062C4.68262 35.2863 5.59387 34.375 6.71387 34.375C7.83386 34.375 8.74512 35.2863 8.74512 36.4062ZM23.7549 36.4062C23.7549 37.5262 22.8439 38.4375 21.7236 38.4375C20.6036 38.4375 19.6924 37.5262 19.6924 36.4062C19.6924 35.2863 20.6036 34.375 21.7236 34.375C22.8439 34.375 23.7549 35.2863 23.7549 36.4062Z" fill="#DDC9A3"/>
<path d="M12.7891 22.8125C12.5837 22.8125 12.3823 22.8961 12.2367 23.0414C12.0914 23.187 12.0078 23.3875 12.0078 23.5938C12.0078 23.7991 12.0914 24.0009 12.2367 24.1461C12.3823 24.2914 12.5837 24.375 12.7891 24.375C12.9948 24.375 13.1962 24.2914 13.3414 24.1461C13.4867 24.0009 13.5703 23.7991 13.5703 23.5938C13.5703 23.3884 13.4867 23.1866 13.3414 23.0414C13.1962 22.8961 12.9954 22.8125 12.7891 22.8125Z" fill="#DDC9A3"/>
</svg>
