<svg width="24" height="24" viewBox="0 0 24 24" fill="none" xmlns="http://www.w3.org/2000/svg">
    <g clip-path="url(#e5kgz7rkoa)" fill="#0C7486">
        <path d="M21.84 0c.864.259 1.555.777 1.986 1.64a2.3 2.3 0 0 1 .26 1.036V21.41a2.69 2.69 0 0 1-2.677 2.676h-5.611c-.605 0-1.036-.345-1.036-.95 0-.517.431-.949.95-.949H21.236c.518-.086.863-.345.95-.95V2.935c0-.69-.346-1.036-1.037-1.036h-5.18c-.604 0-.95-.259-1.036-.69-.086-.518.087-.864.605-1.123C17.524 0 19.683 0 21.84 0zM8.633 0c.432.173.69.432.69.863 0 .605-.345.95-.949.95H2.676c-.431.173-.69.432-.777.777v18.302c0 .863.346 1.209 1.209 1.209h5.18c.604 0 1.036.431.95 1.036 0 .431-.432.863-.864.863H2.417c-1.036 0-1.985-.863-2.33-1.9 0-.086-.087-.258-.087-.345V2.245C.259 1.036 1.036.259 2.245 0h6.388z"/>
        <path d="M12.604 12.95H7.683c-.432 0-.863-.346-.95-.777-.086-.432.173-.864.605-1.036.086-.087.259-.087.345-.087h9.842c.604 0 .95.346.95.95 0 .518-.432.95-.95.95h-4.921zM11.395 8.029H7.769c-.432 0-.69-.173-.863-.518-.26-.345-.173-.69 0-1.036.172-.26.518-.432.863-.432h7.252c.604 0 1.036.432 1.036.95s-.432.95-1.036.95c-1.209.086-2.418.086-3.626.086zM9.841 17.87H7.769c-.777 0-1.209-.69-.95-1.294.173-.346.432-.605.864-.605h4.403c.431 0 .863.346.95.777a.895.895 0 0 1-.691 1.036c-.173 0-.26.087-.432.087H9.841z"/>
    </g>
    <defs>
        <clipPath id="e5kgz7rkoa">
            <path fill="#fff" d="M0 0h24v24H0z"/>
        </clipPath>
    </defs>
</svg>
