<svg width="40" height="35" viewBox="0 0 40 35" fill="none" xmlns="http://www.w3.org/2000/svg">
<path d="M18.934 28.3851H21.066C22.0309 28.3851 22.8162 27.5871 22.8162 26.6064V24.1014H25.2811C26.246 24.1014 27.0312 23.3034 27.0312 22.3227V20.1561C27.0312 19.1754 26.246 18.3774 25.2811 18.3774H22.8162V15.8724C22.8162 14.8917 22.0309 14.0938 21.066 14.0938H18.934C17.9691 14.0938 17.1838 14.8917 17.1838 15.8724V18.3774H14.7189C13.754 18.3774 12.9688 19.1754 12.9688 20.1561V22.3227C12.9688 23.3034 13.754 24.1014 14.7189 24.1014H17.1838V26.6064C17.1838 27.5871 17.9691 28.3851 18.934 28.3851ZM14.7189 22.5135C14.6173 22.5135 14.5312 22.426 14.5312 22.3227V20.1561C14.5312 20.0528 14.6173 19.9653 14.7189 19.9653H17.9651C18.3966 19.9653 18.7463 19.6099 18.7463 19.1714V15.8724C18.7463 15.7688 18.8324 15.6817 18.934 15.6817H21.066C21.1676 15.6817 21.2537 15.7691 21.2537 15.8724V19.1714C21.2537 19.6099 21.6034 19.9653 22.0349 19.9653H25.2811C25.383 19.9653 25.4687 20.0528 25.4687 20.1561V22.3227C25.4687 22.426 25.3827 22.5135 25.2811 22.5135H22.0349C21.6034 22.5135 21.2537 22.8689 21.2537 23.3074V26.6064C21.2537 26.7097 21.1676 26.7971 21.066 26.7971H18.934C18.8324 26.7971 18.7463 26.7097 18.7463 26.6064V23.3074C18.7463 22.8689 18.3966 22.5135 17.9651 22.5135H14.7189Z" fill="#DDC9A3"/>
<path d="M32.9609 9.33011H32.982C33.4135 9.33011 33.7632 8.97469 33.7632 8.53615C33.7632 8.09761 33.4135 7.74219 32.982 7.74219H32.9609C32.5294 7.74219 32.1797 8.09761 32.1797 8.53615C32.1797 8.97469 32.5294 9.33011 32.9609 9.33011Z" fill="#DDC9A3"/>
<path d="M37.6562 7.74112H35.2316C34.8001 7.74112 34.4504 8.09655 34.4504 8.53508C34.4504 8.97362 34.8001 9.32905 35.2316 9.32905H37.6562C38.0872 9.32905 38.4375 9.6854 38.4375 10.123V32.3539C38.4375 32.7918 38.0872 33.1479 37.6562 33.1479H2.34375C1.91284 33.1479 1.5625 32.7918 1.5625 32.3539V10.123C1.5625 9.68509 1.91284 9.32905 2.34375 9.32905H29.8438C30.2753 9.32905 30.625 8.97362 30.625 8.53508C30.625 8.09655 30.2753 7.74112 29.8438 7.74112H28.3984V3.77132C28.3984 1.69182 26.7337 0 24.6875 0H15.3125C13.2663 0 11.6016 1.69182 11.6016 3.77132V7.74112H2.34375C1.05133 7.74112 0 8.80956 0 10.123V32.3539C0 33.6674 1.05133 34.7358 2.34375 34.7358H37.6562C38.9487 34.7358 40 33.6674 40 32.3539V10.123C40 8.80956 38.9487 7.74112 37.6562 7.74112ZM24.1016 7.74112H15.8984V4.36679H24.1016V7.74112ZM13.1641 3.77132C13.1641 2.56735 14.1278 1.58792 15.3125 1.58792H24.6875C25.8722 1.58792 26.8359 2.56735 26.8359 3.77132V7.74112H25.6641V3.77132C25.6641 3.22423 25.2261 2.77886 24.6875 2.77886H15.3125C14.7739 2.77886 14.3359 3.22392 14.3359 3.77132V7.74112H13.1641V3.77132Z" fill="#DDC9A3"/>
<path d="M9.01172 30.043C8.5802 30.043 8.23047 30.3984 8.23047 30.8369C8.23047 31.2755 8.5802 31.6309 9.01172 31.6309H9.03278C9.46429 31.6309 9.81403 31.2755 9.81403 30.8369C9.81403 30.3984 9.46429 30.043 9.03278 30.043H9.01172Z" fill="#DDC9A3"/>
<path d="M6.76447 30.043H4.33984C3.90833 30.043 3.55859 30.3984 3.55859 30.8369C3.55859 31.2755 3.90833 31.6309 4.33984 31.6309H6.76447C7.19598 31.6309 7.54572 31.2755 7.54572 30.8369C7.54572 30.3984 7.19598 30.043 6.76447 30.043Z" fill="#DDC9A3"/>
<path d="M6.76447 26.9668H4.33984C3.90833 26.9668 3.55859 27.3222 3.55859 27.7608C3.55859 28.1993 3.90833 28.5547 4.33984 28.5547H6.76447C7.19598 28.5547 7.54572 28.1993 7.54572 27.7608C7.54572 27.3222 7.19598 26.9668 6.76447 26.9668Z" fill="#DDC9A3"/>
</svg>
