<svg width="135" height="33" viewBox="0 0 135 33" fill="none" xmlns="http://www.w3.org/2000/svg">
    <path d="M1.81 12.2h4.13c1.036 0 1.955.205 2.758.616.803.41 1.423.99 1.862 1.736.448.737.672 1.587.672 2.548 0 .961-.224 1.815-.672 2.562-.439.737-1.06 1.311-1.862 1.722-.803.41-1.722.616-2.758.616H1.81v-9.8zm4.046 8.582c.793 0 1.489-.154 2.086-.462a3.344 3.344 0 0 0 1.4-1.288c.327-.56.49-1.204.49-1.932s-.163-1.367-.49-1.918a3.317 3.317 0 0 0-1.4-1.302c-.597-.308-1.293-.462-2.086-.462H3.21v7.364h2.646zm14.03-2.45c0 .103-.01.238-.028.406h-6.02c.084.653.369 1.18.854 1.582.495.392 1.106.588 1.834.588.887 0 1.6-.299 2.142-.896l.742.868a3.24 3.24 0 0 1-1.26.896 4.31 4.31 0 0 1-1.666.308c-.784 0-1.48-.159-2.086-.476a3.539 3.539 0 0 1-1.414-1.358c-.326-.579-.49-1.232-.49-1.96 0-.719.159-1.367.476-1.946A3.473 3.473 0 0 1 14.3 15a3.784 3.784 0 0 1 1.918-.49c.71 0 1.34.163 1.89.49.56.317.994.765 1.302 1.344.318.579.476 1.241.476 1.988zm-3.668-2.688c-.644 0-1.185.196-1.624.588-.43.392-.681.905-.756 1.54h4.76c-.074-.625-.331-1.134-.77-1.526-.43-.401-.966-.602-1.61-.602zm7.663 6.44c-.607 0-1.19-.08-1.75-.238-.56-.168-1-.378-1.317-.63l.56-1.064c.327.233.724.42 1.19.56.467.14.939.21 1.415.21 1.175 0 1.764-.336 1.764-1.008a.653.653 0 0 0-.238-.532 1.44 1.44 0 0 0-.602-.28 10.58 10.58 0 0 0-1.008-.21 10.21 10.21 0 0 1-1.47-.322 2.26 2.26 0 0 1-.966-.616c-.271-.29-.407-.695-.407-1.218 0-.672.28-1.209.84-1.61.56-.41 1.312-.616 2.255-.616.494 0 .989.06 1.484.182.494.121.9.285 1.218.49l-.575 1.064c-.606-.392-1.32-.588-2.142-.588-.569 0-1.003.093-1.302.28-.298.187-.447.434-.447.742 0 .243.084.434.252.574.167.14.373.243.615.308.253.065.602.14 1.05.224.598.103 1.078.215 1.442.336.374.112.691.308.953.588.26.28.392.672.392 1.176 0 .672-.29 1.209-.869 1.61-.569.392-1.348.588-2.337.588zm8.12 0c-.757 0-1.433-.163-2.03-.49a3.62 3.62 0 0 1-1.387-1.344c-.336-.579-.504-1.232-.504-1.96s.168-1.377.504-1.946A3.49 3.49 0 0 1 29.97 15c.598-.327 1.274-.49 2.03-.49.672 0 1.27.135 1.792.406.532.27.943.663 1.232 1.176l-1.022.658a2.283 2.283 0 0 0-.868-.798 2.476 2.476 0 0 0-1.148-.266c-.485 0-.924.107-1.316.322a2.343 2.343 0 0 0-.91.924c-.215.392-.322.845-.322 1.358 0 .523.108.985.322 1.386.224.392.527.695.91.91.392.215.83.322 1.316.322.42 0 .803-.089 1.148-.266.346-.177.635-.443.868-.798l1.022.644c-.29.513-.7.91-1.232 1.19-.523.27-1.12.406-1.792.406zm7.465-7.574c1.027 0 1.81.252 2.352.756.55.504.826 1.255.826 2.254V22H41.37v-.98a2.162 2.162 0 0 1-.966.798c-.41.177-.9.266-1.47.266-.83 0-1.498-.2-2.002-.602-.494-.401-.742-.929-.742-1.582s.238-1.176.714-1.568c.476-.401 1.232-.602 2.268-.602H41.3v-.266c0-.579-.168-1.022-.504-1.33-.336-.308-.83-.462-1.484-.462a3.82 3.82 0 0 0-1.288.224 3.22 3.22 0 0 0-1.064.574l-.56-1.008c.383-.308.84-.541 1.372-.7a5.593 5.593 0 0 1 1.694-.252zm-.308 6.538c.514 0 .957-.112 1.33-.336a2 2 0 0 0 .812-.98v-1.036h-2.072c-1.138 0-1.708.383-1.708 1.148 0 .373.145.667.434.882.29.215.69.322 1.204.322zm7.261-5.222c.234-.43.58-.756 1.036-.98.458-.224 1.013-.336 1.666-.336v1.302a2.63 2.63 0 0 0-.308-.014c-.728 0-1.302.22-1.722.658-.41.43-.616 1.045-.616 1.848V22h-1.344v-7.42h1.288v1.246zm11.389-1.246v6.412c0 1.297-.322 2.254-.966 2.87-.645.625-1.606.938-2.884.938-.7 0-1.368-.098-2.002-.294-.635-.187-1.149-.457-1.54-.812l.644-1.036c.345.299.77.532 1.273.7.514.177 1.041.266 1.583.266.867 0 1.507-.205 1.918-.616.42-.41.63-1.036.63-1.876v-.588c-.318.383-.71.672-1.176.868-.458.187-.957.28-1.498.28a4.15 4.15 0 0 1-1.932-.448 3.463 3.463 0 0 1-1.344-1.274c-.327-.55-.49-1.176-.49-1.876s.163-1.32.49-1.862c.326-.55.774-.975 1.343-1.274a4.15 4.15 0 0 1 1.932-.448c.56 0 1.078.103 1.554.308.486.205.882.509 1.19.91V14.58h1.274zm-3.864 5.936c.485 0 .919-.103 1.301-.308.393-.205.696-.49.91-.854.224-.373.337-.793.337-1.26 0-.719-.238-1.297-.714-1.736-.477-.448-1.088-.672-1.834-.672-.757 0-1.373.224-1.849.672-.475.439-.713 1.017-.713 1.736 0 .467.107.887.322 1.26.224.364.527.649.91.854.392.205.835.308 1.33.308zm9.134-6.006c1.026 0 1.81.252 2.352.756.55.504.826 1.255.826 2.254V22h-1.274v-.98a2.162 2.162 0 0 1-.966.798c-.411.177-.901.266-1.47.266-.831 0-1.498-.2-2.002-.602-.495-.401-.742-.929-.742-1.582s.238-1.176.714-1.568c.476-.401 1.232-.602 2.268-.602h2.128v-.266c0-.579-.168-1.022-.504-1.33-.336-.308-.831-.462-1.484-.462-.44 0-.868.075-1.288.224a3.22 3.22 0 0 0-1.064.574l-.56-1.008a3.97 3.97 0 0 1 1.372-.7 5.593 5.593 0 0 1 1.694-.252zm-.308 6.538c.513 0 .956-.112 1.33-.336a2 2 0 0 0 .812-.98v-1.036H62.84c-1.14 0-1.708.383-1.708 1.148 0 .373.144.667.434.882.289.215.69.322 1.204.322zm7.26-5.222c.234-.43.58-.756 1.037-.98.457-.224 1.012-.336 1.666-.336v1.302a2.632 2.632 0 0 0-.308-.014c-.728 0-1.302.22-1.722.658-.41.43-.616 1.045-.616 1.848V22h-1.344v-7.42h1.288v1.246zM82.18 14.51c.718 0 1.362.159 1.932.476.569.317 1.012.76 1.33 1.33.326.57.49 1.227.49 1.974 0 .747-.164 1.41-.49 1.988a3.376 3.376 0 0 1-1.33 1.33c-.57.317-1.214.476-1.932.476a3.486 3.486 0 0 1-1.47-.308 3.058 3.058 0 0 1-1.12-.896v3.836h-1.344V14.58h1.288v1.176c.298-.41.676-.719 1.134-.924a3.513 3.513 0 0 1 1.512-.322zm-.112 6.398c.476 0 .9-.107 1.274-.322.382-.224.681-.532.896-.924.224-.401.336-.859.336-1.372 0-.513-.112-.966-.336-1.358a2.251 2.251 0 0 0-.896-.924 2.509 2.509 0 0 0-1.274-.322c-.467 0-.892.112-1.274.336a2.399 2.399 0 0 0-.896.91c-.215.392-.322.845-.322 1.358 0 .513.107.97.322 1.372.214.392.513.7.896.924.382.215.807.322 1.274.322zm9.655-6.398c.718 0 1.362.159 1.932.476.569.317 1.012.76 1.33 1.33.326.57.49 1.227.49 1.974 0 .747-.164 1.41-.49 1.988a3.376 3.376 0 0 1-1.33 1.33c-.57.317-1.214.476-1.932.476a3.486 3.486 0 0 1-1.47-.308 3.058 3.058 0 0 1-1.12-.896v3.836h-1.344V14.58h1.288v1.176c.298-.41.676-.719 1.134-.924a3.513 3.513 0 0 1 1.512-.322zm-.112 6.398c.476 0 .9-.107 1.274-.322a2.37 2.37 0 0 0 .896-.924c.224-.401.336-.859.336-1.372 0-.513-.112-.966-.336-1.358a2.252 2.252 0 0 0-.896-.924 2.51 2.51 0 0 0-1.274-.322c-.467 0-.892.112-1.274.336a2.398 2.398 0 0 0-.896.91c-.215.392-.322.845-.322 1.358 0 .513.107.97.322 1.372.214.392.513.7.896.924.382.215.807.322 1.274.322zm9.893.658a2.091 2.091 0 0 1-.728.392c-.29.084-.588.126-.896.126-.747 0-1.326-.2-1.736-.602-.411-.401-.616-.975-.616-1.722v-4.074h-1.26V14.58h1.26v-1.624h1.344v1.624h2.128v1.106h-2.128v4.018c0 .401.098.71.294.924.205.215.494.322.868.322.41 0 .76-.117 1.05-.35l.42.966zm6.357.434-2.142-2.842-2.17 2.842h-1.498l2.926-3.794-2.786-3.626h1.498l2.044 2.674 2.03-2.674h1.47l-2.8 3.626L109.386 22h-1.526zM134.34 20.621v3.542c0 .07-.01.136-.025.197a.761.761 0 0 1-.741.609h-14.473a.758.758 0 0 1-.751-.675c-.01-.046-.01-.086-.01-.136v-3.542a.758.758 0 0 1 1.29-.534.758.758 0 0 1 .221.534v2.836h12.983v-2.836c0-.418.342-.756.755-.756.207 0 .398.086.534.222a.8.8 0 0 1 .217.54z" fill="#fff"/>
    <path d="m130.698 17.076-3.713 3.712c-.005.01-.015.015-.02.02a.877.877 0 0 1-.489.247c-.015 0-.03.006-.045.006a.562.562 0 0 1-.091.005l-.086-.005c-.015 0-.03-.006-.045-.006a.861.861 0 0 1-.489-.246l-.02-.02-3.713-3.713a.882.882 0 0 1-.257-.625c0-.227.086-.454.257-.625a.889.889 0 0 1 1.25 0l2.232 2.232V9.882c0-.484.397-.882.881-.882.242 0 .464.1.625.257a.872.872 0 0 1 .257.625v8.176l2.231-2.232a.889.889 0 0 1 1.25 0 .903.903 0 0 1-.015 1.25z" fill="#fff"/>
</svg>
