<svg width="12" height="12" viewBox="0 0 12 12" fill="none" xmlns="http://www.w3.org/2000/svg">
    <g clip-path="url(#tvhsnuzgva)" fill="#9D2449">
        <path d="M12 8.717v2.656a.606.606 0 0 1-.019.147.57.57 0 0 1-.555.457H.57a.569.569 0 0 1-.563-.506C0 11.437 0 11.407 0 11.369V8.713a.568.568 0 0 1 .967-.4.569.569 0 0 1 .166.4v2.127h9.737V8.713a.568.568 0 0 1 .968-.4.6.6 0 0 1 .162.404z"/>
        <path d="M9.268 6.057 6.484 8.84c-.004.008-.012.012-.015.015a.656.656 0 0 1-.367.186l-.034.003c-.023.004-.045.004-.068.004l-.064-.004c-.012 0-.023-.003-.034-.003a.644.644 0 0 1-.367-.186l-.015-.015-2.784-2.784a.66.66 0 0 1-.193-.469.66.66 0 0 1 1.13-.468l1.673 1.673V.661a.664.664 0 0 1 1.13-.468c.121.12.193.283.193.468v6.132L8.343 5.12a.666.666 0 0 1 .937 0c.245.26.245.68-.012.937z"/>
    </g>
    <defs>
        <clipPath id="tvhsnuzgva">
            <path fill="#fff" d="M0 0h12v11.977H0z"/>
        </clipPath>
    </defs>
</svg>
