<svg width="33" height="43" viewBox="0 0 33 43" fill="none" xmlns="http://www.w3.org/2000/svg">
<line x1="4.34521" y1="39.3438" x2="14.4832" y2="39.3438" stroke="#AFC7B3"/>
<line x1="18.8276" y1="39.3438" x2="28.9656" y2="39.3438" stroke="#AFC7B3"/>
<circle cx="2.89657" cy="39.8443" r="2.89657" fill="#577C5D"/>
<circle cx="16.4141" cy="39.8438" r="2.89657" fill="#AFC7B3"/>
<circle cx="29.9307" cy="39.8438" r="2.89657" fill="#AFC7B3"/>
<path d="M2.8598 4.51654C1.60772 4.74615 0.810942 5.95164 1.03859 7.21453L5.81926 32.013C6.04692 33.2759 7.24208 34.0796 8.49416 33.85L28.5844 29.8891C29.8364 29.6595 30.6332 28.454 30.4056 27.1911L25.6249 2.39259C25.3973 1.35932 24.5436 0.613068 23.5191 0.555664C23.3484 0.555664 23.1207 0.555664 22.95 0.613068L2.8598 4.51654Z" fill="#D5D6DB"/>
<path d="M9.45047 6.24295C8.20144 6.24295 9.45047 6.24295 5.16634 7.10407V30.9713C5.16634 32.2329 6.18827 33.2652 7.43731 33.2652H26.5198C27.7688 33.2652 28.8668 32.2329 28.8668 30.9713L30.147 5.73825C30.147 4.64864 29.4089 3.78842 28.4437 3.50168C28.4437 3.50168 28.4437 3.50168 28.387 3.50168C28.2167 3.44434 28.0463 3.44434 27.876 3.44434L9.45047 6.24295Z" fill="#B7B7B7"/>
<path d="M8.29033 2.29395C7.0413 2.29395 6.01936 3.32621 6.01936 4.58786V29.8209C6.01936 31.0825 7.0413 32.1148 8.29033 32.1148H28.729C29.9781 32.1148 31 31.0825 31 29.8209V4.58786C31 3.49825 30.2619 2.63803 29.2968 2.35129C29.2968 2.35129 29.2968 2.35129 29.24 2.35129C29.0697 2.29395 28.8994 2.29395 28.729 2.29395H8.29033Z" fill="#F0F6F9"/>
<path d="M12.3495 7.22244H21.8733C22.3495 7.22244 22.667 7.00022 22.667 6.66688C22.667 6.33355 22.3495 6.11133 21.8733 6.11133H12.3495C11.8733 6.11133 11.5559 6.33355 11.5559 6.66688C11.5559 7.00022 11.8733 7.22244 12.3495 7.22244Z" fill="#84B78C"/>
<path d="M12.2278 12.0434H19.0407C19.3813 12.0434 19.6084 11.814 19.6084 11.47C19.6084 11.1259 19.3813 10.8965 19.0407 10.8965H12.2278C11.8871 10.8965 11.66 11.1259 11.66 11.47C11.66 11.814 11.8871 12.0434 12.2278 12.0434Z" fill="#B7B7B7"/>
<path d="M16.7697 16.6308H19.0407C19.3813 16.6308 19.6084 16.4015 19.6084 16.0574C19.6084 15.7133 19.3813 15.4839 19.0407 15.4839H16.7697C16.429 15.4839 16.2019 15.7133 16.2019 16.0574C16.2019 16.4015 16.429 16.6308 16.7697 16.6308Z" fill="#B7B7B7"/>
<path d="M12.2277 16.6308H14.4987C14.8393 16.6308 15.0664 16.4015 15.0664 16.0574C15.0664 15.7133 14.8393 15.4839 14.4987 15.4839H12.2277C11.8871 15.4839 11.66 15.7133 11.66 16.0574C11.66 16.4015 11.8871 16.6308 12.2277 16.6308Z" fill="#B7B7B7"/>
<path d="M21.3117 23.5127H28.1246C28.4653 23.5127 28.6924 23.2833 28.6924 22.9392C28.6924 22.5951 28.4653 22.3657 28.1246 22.3657H21.3117C20.9711 22.3657 20.744 22.5951 20.744 22.9392C20.744 23.2833 20.9711 23.5127 21.3117 23.5127Z" fill="#B7B7B7"/>
<path d="M12.2278 23.5127H19.0407C19.3813 23.5127 19.6084 23.2833 19.6084 22.9392C19.6084 22.5951 19.3813 22.3657 19.0407 22.3657H12.2278C11.8871 22.3657 11.66 22.5951 11.66 22.9392C11.66 23.2833 11.8871 23.5127 12.2278 23.5127Z" fill="#B7B7B7"/>
<path d="M12.2278 14.3374H19.0407C19.3813 14.3374 19.6084 14.108 19.6084 13.7639C19.6084 13.4198 19.3813 13.1904 19.0407 13.1904H12.2278C11.8871 13.1904 11.66 13.4198 11.66 13.7639C11.66 14.108 11.8871 14.3374 12.2278 14.3374Z" fill="#B7B7B7"/>
<path d="M16.7698 21.2192H28.1246C28.4653 21.2192 28.6924 20.9898 28.6924 20.6457C28.6924 20.3017 28.4653 20.0723 28.1246 20.0723H16.7698C16.4292 20.0723 16.2021 20.3017 16.2021 20.6457C16.2021 20.9898 16.4292 21.2192 16.7698 21.2192Z" fill="#B7B7B7"/>
<path d="M12.2277 21.2192H14.4987C14.8393 21.2192 15.0664 20.9898 15.0664 20.6457C15.0664 20.3017 14.8393 20.0723 14.4987 20.0723H12.2277C11.8871 20.0723 11.66 20.3017 11.66 20.6457C11.66 20.9898 11.8871 21.2192 12.2277 21.2192Z" fill="#B7B7B7"/>
<path d="M16.7697 9.7495H19.0407C19.3813 9.7495 19.6084 9.52011 19.6084 9.17602C19.6084 8.83193 19.3813 8.60254 19.0407 8.60254H16.7697C16.429 8.60254 16.2019 8.83193 16.2019 9.17602C16.2019 9.52011 16.429 9.7495 16.7697 9.7495Z" fill="#B7B7B7"/>
<path d="M12.2277 9.7495H14.4987C14.8393 9.7495 15.0664 9.52011 15.0664 9.17602C15.0664 8.83193 14.8393 8.60254 14.4987 8.60254H12.2277C11.8871 8.60254 11.66 8.83193 11.66 9.17602C11.66 9.52011 11.8871 9.7495 12.2277 9.7495Z" fill="#B7B7B7"/>
<path d="M12.2278 18.9248H19.0407C19.3813 18.9248 19.6084 18.6954 19.6084 18.3513C19.6084 18.0072 19.3813 17.7778 19.0407 17.7778H12.2278C11.8871 17.7778 11.66 18.0072 11.66 18.3513C11.66 18.6954 11.8871 18.9248 12.2278 18.9248Z" fill="#B7B7B7"/>
<path d="M15.5586 2.86739V14.3369C15.5586 15.9427 14.3096 17.2043 12.7199 17.2043C11.1302 17.2043 9.88118 15.9427 9.88118 14.3369V5.1613C9.88118 4.81721 10.1651 4.58782 10.4489 4.58782C10.7328 4.58782 11.0167 4.81721 11.0167 5.1613V14.3369C11.0167 15.2545 11.7547 16.0574 12.7199 16.0574C13.6851 16.0574 14.4231 15.2545 14.4231 14.3369V2.86739C14.4231 2.638 14.3663 2.46596 14.3096 2.29391C14.0825 1.60574 13.458 1.14696 12.7199 1.14696H10.4489C9.71086 1.14696 9.08635 1.60574 8.85925 2.29391H8.17796C8.00764 2.29391 7.83731 2.29391 7.66699 2.35126C7.89409 1.03226 9.02957 0 10.4489 0H12.7199C14.0825 0 15.218 0.974912 15.5018 2.29391C15.5586 2.46596 15.5586 2.69535 15.5586 2.86739Z" fill="#64798A"/>
</svg>
