<svg width="23" height="23" viewBox="0 0 23 23" fill="none" xmlns="http://www.w3.org/2000/svg">
    <path d="M22.806 10.319v1.977c0 .33-.11.55-.11.88-.879 4.065-3.186 6.922-7.142 8.46-.88.33-1.758.55-2.747.66h-2.088c-1.648-.22-3.077-.66-4.505-1.538C2.148 18.34.06 13.505 1.049 9 2.368 3.286 7.642-.45 13.466.43c4.286.768 7.143 3.186 8.79 7.251.33.77.44 1.759.55 2.638zm-1.758.989c-.11-5.165-4.175-9.23-9.23-9.23-5.165 0-9.23 4.065-9.23 9.23 0 5.164 4.065 9.23 9.23 9.23 5.164 0 9.23-4.066 9.23-9.23z" fill="#9F2241"/>
    <path d="M10.939 13.835v-1.319c0-.22-.11-.33-.33-.33H7.862c-.44 0-.77-.33-.88-.769 0-.44.22-.769.55-.879H10.5c.33 0 .33 0 .33-.33V7.463c0-.44.33-.77.769-.88.44 0 .77.22.88.55v2.967c0 .22.109.33.329.33h2.747c.44 0 .769.33.879.769 0 .44-.22.769-.55.879h-2.966c-.33 0-.33 0-.33.33v2.746c0 .44-.22.66-.66.77-.329.11-.768 0-.988-.33-.11-.11-.11-.33-.11-.55.11-.22.11-.769.11-1.208z" fill="#9F2241"/>
</svg>
