<svg width="70" height="70" viewBox="0 0 70 70" fill="none" xmlns="http://www.w3.org/2000/svg">
    <g filter="url(#di5aqx8wfa)">
        <path d="M10 9.208A5.208 5.208 0 0 1 15.208 4h39.584A5.208 5.208 0 0 1 60 9.208v39.584A5.208 5.208 0 0 1 54.792 54H15.208A5.208 5.208 0 0 1 10 48.792V9.208z" fill="#F4F8FF"/>
    </g>
    <path d="M47.36 27.295v-6.373A4.928 4.928 0 0 0 42.437 16h-5.169a.547.547 0 0 0 0 1.094h5.169a3.832 3.832 0 0 1 3.828 3.828v5.797a4.03 4.03 0 0 0-1.313-.22h-.11v-3.135a2.117 2.117 0 0 0-2.114-2.115h-6.161c-.621 0-1.18.27-1.568.697a2.11 2.11 0 0 0-1.568-.697h-6.161a2.117 2.117 0 0 0-2.115 2.115v3.135h-.11c-.459 0-.9.078-1.312.22v-5.797a3.832 3.832 0 0 1 3.828-3.828h5.278a.547.547 0 1 0 0-1.094h-5.278a4.928 4.928 0 0 0-4.921 4.922v6.373A4.043 4.043 0 0 0 21 30.546v7c0 .302.245.547.547.547h1.094V40.5c0 .302.245.547.547.547h2.953a.547.547 0 0 0 .547-.547v-2.406h16.624V40.5c0 .302.245.547.547.547h2.953a.547.547 0 0 0 .547-.547v-2.406h1.094a.547.547 0 0 0 .547-.547v-7a4.043 4.043 0 0 0-1.64-3.251zm-11.813-3.931c0-.563.458-1.021 1.02-1.021h6.162c.563 0 1.021.458 1.021 1.02V26.5h-8.203v-3.135zm-9.297 0c0-.563.458-1.021 1.02-1.021h6.162c.563 0 1.021.458 1.021 1.02V26.5H26.25v-3.135zm-.656 16.588h-1.86v-1.859h1.86v1.86zm20.672 0h-1.86v-1.859h1.86v1.86zm1.64-5.578h-21.88a.547.547 0 0 0 0 1.094h21.88V37H22.094v-6.453a2.956 2.956 0 0 1 2.953-2.953h19.906a2.956 2.956 0 0 1 2.953 2.953v3.828z" fill="#179894"/>
    <path d="M34.387 16.16A.551.551 0 0 0 34 16a.551.551 0 0 0-.547.547.55.55 0 0 0 .547.547.551.551 0 0 0 .547-.547.55.55 0 0 0-.16-.387zM23.234 34.535a.551.551 0 0 0-.773 0 .551.551 0 0 0 .387.934.551.551 0 0 0 .547-.548.551.551 0 0 0-.16-.386z" fill="#5F8CDC"/>
    <defs>
        <filter id="di5aqx8wfa" x="0" y="0" width="70" height="70" filterUnits="userSpaceOnUse" color-interpolation-filters="sRGB">
            <feFlood flood-opacity="0" result="BackgroundImageFix"/>
            <feColorMatrix in="SourceAlpha" values="0 0 0 0 0 0 0 0 0 0 0 0 0 0 0 0 0 0 127 0" result="hardAlpha"/>
            <feOffset dy="6"/>
            <feGaussianBlur stdDeviation="5"/>
            <feComposite in2="hardAlpha" operator="out"/>
            <feColorMatrix values="0 0 0 0 0.169886 0 0 0 0 0.8125 0 0 0 0 0.792574 0 0 0 0.68 0"/>
            <feBlend in2="BackgroundImageFix" result="effect1_dropShadow_4759_4208"/>
            <feBlend in="SourceGraphic" in2="effect1_dropShadow_4759_4208" result="shape"/>
        </filter>
    </defs>
</svg>
