<svg width="41" height="40" viewBox="0 0 41 40" fill="none" xmlns="http://www.w3.org/2000/svg">
<path d="M26.9664 17.8372C27.0827 17.9533 27.2057 18.0601 27.3335 18.1591C27.9965 18.6726 28.8051 18.9517 29.6571 18.9517H36.8433C38.5863 18.9517 40.0042 17.5334 40.0042 15.7899V3.16174C40.0042 1.41833 38.5862 0 36.8433 0H35.2178C34.8941 0 34.6318 0.26241 34.6318 0.586086C34.6318 0.909762 34.8941 1.17217 35.2178 1.17217H36.8433C37.9399 1.17217 38.832 2.06466 38.832 3.16174V15.7899C38.832 16.887 37.9399 17.7795 36.8433 17.7795H30.2092C30.2084 17.7795 30.2077 17.7794 30.207 17.7794C29.4916 17.7794 28.9096 17.1975 28.9096 16.4821V13.8091C28.9096 12.0659 27.4914 10.6477 25.7483 10.6477H23.0753C22.36 10.6477 21.7779 10.0657 21.7779 9.35034C21.7779 9.34878 21.7776 9.34729 21.7776 9.34581V3.16182C21.7776 2.06474 22.6701 1.17225 23.7672 1.17225H32.889C33.2127 1.17225 33.4751 0.90984 33.4751 0.586164C33.4751 0.262488 33.2127 7.81578e-05 32.889 7.81578e-05H23.7672C22.0238 7.81578e-05 20.6055 1.41841 20.6055 3.16182V9.90025C20.6055 10.8829 20.976 11.8075 21.6492 12.5165C21.6728 12.5414 26.9664 17.8372 26.9664 17.8372ZM25.7483 11.8199C26.8451 11.8199 27.7374 12.7122 27.7374 13.8091V16.4821C27.7374 16.6619 27.7568 16.8373 27.7935 17.0063L22.5509 11.7639C22.7199 11.8006 22.8954 11.82 23.0752 11.82H25.7483V11.8199Z" fill="#DDC9A3"/>
<path d="M36.8427 20.5469H23.7672C22.0239 20.5469 20.6056 21.9651 20.6056 23.7085L20.6055 30.4467C20.6055 30.734 20.6382 31.0161 20.6999 31.2898C20.844 31.9302 21.1515 32.5221 21.6028 33.0146C21.641 33.0564 21.6798 33.0976 21.72 33.1379L26.9661 38.384C26.9958 38.4137 27.0265 38.442 27.057 38.4706C27.7645 39.1339 28.6824 39.4985 29.6569 39.4985H36.8426C38.586 39.4985 40.0042 38.0802 40.0042 36.3369V23.7085C40.0043 21.9651 38.586 20.5469 36.8427 20.5469ZM27.7933 37.5532L22.5506 32.3106C22.7198 32.3473 22.8952 32.3666 23.0752 32.3666H25.7481C26.8449 32.3666 27.7373 33.2589 27.7373 34.3558V37.0288C27.7372 37.2087 27.7566 37.3842 27.7933 37.5532ZM38.8321 36.3369C38.8321 37.4339 37.9396 38.3263 36.8427 38.3263H30.2098C30.2088 38.3263 30.2077 38.3262 30.2067 38.3262C29.4914 38.3262 28.9094 37.7442 28.9094 37.0288V34.3558C28.9094 32.6126 27.4912 31.1944 25.748 31.1944H23.0751C22.3608 31.1944 21.7795 30.614 21.7778 29.9001V23.7085C21.7778 22.6115 22.6702 21.719 23.7672 21.719H36.8426C37.9396 21.719 38.832 22.6115 38.832 23.7085V36.3369H38.8321Z" fill="#DDC9A3"/>
<path d="M16.2372 0H3.16205C1.41864 0 0.000312579 1.41833 0.000312579 3.16174L0 9.89993C0 10.3444 0.0757223 10.7774 0.22115 11.1841C0.402133 11.6908 0.69205 12.1559 1.07738 12.5521C1.08989 12.565 1.10176 12.5783 1.1145 12.5911L6.3606 17.8372C7.04554 18.5215 7.94514 18.9122 8.90687 18.948C8.95493 18.9499 10.0372 18.9517 10.0372 18.9517C10.361 18.9517 10.6233 18.6893 10.6233 18.3656C10.6233 18.0419 10.361 17.7795 10.0372 17.7795H9.60345C9.60267 17.7795 9.60197 17.7794 9.60118 17.7794C8.88585 17.7794 8.30382 17.1975 8.30382 16.4821V13.8091C8.30382 12.0659 6.88565 10.6477 5.14248 10.6477H2.46961C1.7563 10.6477 1.17585 10.069 1.17248 9.35636V3.16182C1.17248 2.06474 2.06498 1.17225 3.16205 1.17225H16.2372C17.3343 1.17225 18.2268 2.06474 18.2268 3.16182V15.79C18.2268 16.8871 17.3343 17.7796 16.2372 17.7796H12.3801C12.0563 17.7796 11.794 18.042 11.794 18.3657C11.794 18.6894 12.0563 18.9518 12.3801 18.9518H16.2372C17.9807 18.9518 19.399 17.5334 19.399 15.79V3.16182C19.399 1.41833 17.9807 0 16.2372 0ZM5.14255 11.8199C6.23939 11.8199 7.13173 12.7122 7.13173 13.8091V16.4821C7.13173 16.6617 7.15111 16.8369 7.18768 17.0057L1.94502 11.7638C2.11413 11.8006 2.28964 11.8199 2.46953 11.8199H5.14255Z" fill="#DDC9A3"/>
<path d="M13.1659 11.04L16.1068 5.83276C16.359 5.38617 16.4222 4.86806 16.2848 4.37396C16.1473 3.87977 15.8257 3.4688 15.379 3.21655C14.457 2.69595 13.2835 3.02252 12.7628 3.94424L11.2421 6.63695L10.7807 6.0418C10.132 5.2051 8.92346 5.05225 8.08676 5.70078C7.24991 6.34946 7.0969 7.55804 7.74558 8.3949L9.97638 11.2723C10.3375 11.7379 10.9047 12.016 11.4938 12.016C11.54 12.016 11.5863 12.0143 11.6334 12.0109C12.2763 11.964 12.8491 11.6011 13.1659 11.04ZM11.5489 10.8418C11.2996 10.8598 11.0547 10.7499 10.9028 10.554L8.67206 7.67667C8.41934 7.35065 8.47897 6.87983 8.80491 6.62718C8.94096 6.52169 9.10233 6.47066 9.26237 6.47066C9.48586 6.47066 9.70709 6.57014 9.85432 6.76003L10.8557 8.05176C10.9759 8.20688 11.166 8.29175 11.3615 8.27721C11.5572 8.26299 11.7328 8.15179 11.8292 7.98089L13.7834 4.52071C13.9862 4.16164 14.4433 4.03434 14.8026 4.23728C14.9766 4.33551 15.1018 4.49563 15.1554 4.6881C15.209 4.88057 15.1843 5.08242 15.086 5.25637L12.1452 10.4636C12.0219 10.6822 11.7986 10.8236 11.5489 10.8418Z" fill="#DDC9A3"/>
<path d="M36.9043 4.3354C36.1341 3.56521 34.8809 3.56536 34.1109 4.3354L33.3582 5.08817L32.6054 4.3354C31.8353 3.56536 30.5821 3.56521 29.812 4.3354C29.0418 5.10552 29.0418 6.35865 29.812 7.12884L30.5647 7.88153L29.812 8.6343C29.0418 9.40442 29.0418 10.6576 29.812 11.4277C30.1971 11.8128 30.7028 12.0054 31.2087 12.0054C31.7145 12.0054 32.2203 11.8128 32.6053 11.4277L33.3582 10.675L34.1109 11.4277C34.8811 12.1979 36.1343 12.1979 36.9043 11.4277C37.6744 10.6576 37.6744 9.4045 36.9043 8.6343L36.1515 7.88153L36.9043 7.12884C37.6744 6.35865 37.6744 5.1056 36.9043 4.3354ZM36.0753 6.29996L34.9083 7.46713C34.6794 7.69602 34.6794 8.06713 34.9083 8.29594L36.0754 9.46311C36.3886 9.77623 36.3886 10.2857 36.0754 10.5989C35.7625 10.9118 35.253 10.912 34.9398 10.5989L33.7727 9.43169C33.6627 9.32174 33.5137 9.26001 33.3582 9.26001C33.2027 9.26001 33.0537 9.32174 32.9437 9.43169L31.7764 10.5989C31.4635 10.912 30.954 10.9121 30.6408 10.5989C30.3276 10.2857 30.3276 9.77623 30.6408 9.46311L31.808 8.29594C32.0369 8.06705 32.0369 7.69594 31.808 7.46713L30.6408 6.29996C30.3276 5.98684 30.3276 5.47733 30.6408 5.1642C30.954 4.851 31.4634 4.85116 31.7765 5.1642L32.9437 6.33138C33.0536 6.44133 33.2027 6.50306 33.3582 6.50306C33.5137 6.50306 33.6626 6.44133 33.7727 6.33138L34.9398 5.1642C35.253 4.851 35.7625 4.85116 36.0754 5.1642C36.3885 5.47733 36.3885 5.98684 36.0753 6.29996Z" fill="#DDC9A3"/>
<path d="M36.463 24.1758H27.4416C27.1178 24.1758 26.8555 24.4382 26.8555 24.7619C26.8555 25.0856 27.1178 25.348 27.4416 25.348H36.463C36.7867 25.348 37.0491 25.0856 37.0491 24.7619C37.0491 24.4382 36.7867 24.1758 36.463 24.1758Z" fill="#DDC9A3"/>
<path d="M33.4614 27.1133H27.4416C27.1178 27.1133 26.8555 27.3757 26.8555 27.6994C26.8555 28.023 27.1178 28.2855 27.4416 28.2855H33.4614C33.7852 28.2855 34.0475 28.023 34.0475 27.6994C34.0475 27.3757 33.7852 27.1133 33.4614 27.1133Z" fill="#DDC9A3"/>
</svg>
