<svg width="17" height="17" viewBox="0 0 17 17" fill="none" xmlns="http://www.w3.org/2000/svg">
    <rect x="1.459" y="1.098" width="15" height="15" rx="1.5" fill="#D9D9D9" stroke="#9D2449"/>
    <path d="M11.969 11.978a.354.354 0 0 1-.256-.106L5.685 5.844a.373.373 0 0 1 0-.52.373.373 0 0 1 .52 0l6.028 6.027a.373.373 0 0 1 0 .521.457.457 0 0 1-.264.106z" fill="#9D2449" stroke="#9D2449" stroke-width="1.027" stroke-miterlimit="10"/>
    <path d="M5.94 11.978a.354.354 0 0 1-.255-.106.373.373 0 0 1 0-.52l6.028-6.029a.373.373 0 0 1 .52 0 .373.373 0 0 1 0 .52l-6.028 6.03a.458.458 0 0 1-.265.105z" fill="#9D2449" stroke="#9D2449" stroke-width="1.027" stroke-miterlimit="10"/>
</svg>
