<svg width="44" height="47" viewBox="0 0 44 47" fill="none" xmlns="http://www.w3.org/2000/svg">
<rect x="0.672852" y="0.928314" width="42.4623" height="46" rx="5" fill="#DDDDDD"/>
<path d="M34.5431 43.5929H9.26487C7.0463 43.5929 5.29834 41.7777 5.29834 39.6264V8.23029C5.29834 6.07896 7.11353 4.26376 9.26487 4.26376H34.5431C36.7617 4.26376 38.5096 6.07896 38.5096 8.23029V39.6264C38.5096 41.845 36.7617 43.5929 34.5431 43.5929ZM9.26487 5.60835C7.85305 5.60835 6.64293 6.81848 6.64293 8.23029V39.6264C6.64293 41.0382 7.78583 42.2483 9.26487 42.2483H34.5431C35.9549 42.2483 37.165 41.1054 37.165 39.6264V8.23029C37.165 6.81848 36.0221 5.60835 34.5431 5.60835H9.26487Z" fill="#B38E5D"/>
<path d="M37.8374 28.7353H5.9707V30.0798H37.8374V28.7353Z" fill="#B38E5D"/>
<path d="M20.0217 15.8272C20.0217 17.3735 20.0217 18.9198 20.0217 20.4661C20.0217 21.2056 19.7528 21.4745 19.0133 21.4745C16.4585 21.4745 13.9038 21.4745 11.2819 21.4745C10.5424 21.4745 10.2734 21.2056 10.2734 20.4661C10.2734 17.3735 10.2734 14.281 10.2734 11.1212C10.2734 10.3816 10.5424 10.1127 11.2819 10.1127C13.8366 10.1127 16.4585 10.1127 19.0133 10.1127C19.7528 10.1127 20.0217 10.3816 20.0217 11.1212C20.0217 12.7347 20.0217 14.281 20.0217 15.8272ZM18.341 15.8945C18.341 14.7516 18.341 13.5414 18.341 12.3985C18.341 11.9952 18.2065 11.8607 17.8031 11.8607C16.0552 11.8607 14.3072 11.8607 12.492 11.8607C12.0886 11.8607 11.9542 11.9952 11.9542 12.3985C11.9542 14.6843 11.9542 16.9701 11.9542 19.3232C11.9542 19.7265 12.0886 19.861 12.492 19.861C14.24 19.861 15.9879 19.861 17.7359 19.861C18.2065 19.861 18.341 19.6593 18.341 19.2559C18.341 18.113 18.341 16.9701 18.341 15.8945Z" fill="#B38E5D"/>
<path d="M20.4249 23.0208C23.383 23.0208 29.2992 23.0208 32.2573 23.0208C32.3917 23.0208 32.5262 23.0208 32.7279 23.0208C33.2657 23.0208 33.6018 23.3569 33.6018 23.8948C33.6018 24.3654 33.2657 24.7015 32.7951 24.7015C26.61 24.7015 17.3996 24.7015 11.2145 24.7015C10.6766 24.7015 10.4077 24.3654 10.4077 23.8275C10.4077 23.3569 10.7439 23.0208 11.2817 23.0208C14.2398 23.0208 17.3323 23.0208 20.4249 23.0208Z" fill="#B38E5D"/>
<path d="M28.8959 15.0205C26.8118 15.0205 24.6605 15.0205 22.5763 15.0205C21.9041 15.0205 21.5007 14.5499 21.6351 13.9448C21.7696 13.4742 22.1057 13.2726 22.5763 13.2726C24.2571 13.2726 25.9378 13.2726 27.6185 13.2726C30.1733 13.2726 30.0388 13.2726 32.5935 13.2726C33.1986 13.2726 33.5347 13.5415 33.602 14.0793C33.602 14.6171 33.2658 14.9533 32.6607 14.9533C30.4422 15.0205 30.98 15.0205 28.8959 15.0205Z" fill="#B38E5D"/>
<path d="M28.8959 21.4745C26.8118 21.4745 24.6605 21.4745 22.5763 21.4745C21.9041 21.4745 21.5007 21.0039 21.6351 20.3988C21.7696 19.9282 22.1057 19.7265 22.5763 19.7265C24.2571 19.7265 25.9378 19.7265 27.6185 19.7265C30.1733 19.7265 29.9716 19.7265 32.5263 19.7265C33.1314 19.7265 33.4675 19.9954 33.5347 20.5333C33.5347 21.0711 33.1986 21.4073 32.5935 21.4073C30.4422 21.4745 30.98 21.4745 28.8959 21.4745Z" fill="#B38E5D"/>
<path d="M25.6689 10.1128C26.6773 10.1128 31.5178 10.1128 32.5263 10.1128C33.1313 10.1128 33.4675 10.4489 33.4675 10.9867C33.4675 11.5246 33.1313 11.7935 32.5263 11.7935C30.4421 11.7935 24.5932 11.7935 22.5091 11.7935C21.904 11.7935 21.5679 11.4573 21.5679 10.9867C21.5679 10.4489 21.904 10.1128 22.4419 10.1128C23.5175 10.1128 24.5932 10.1128 25.6689 10.1128Z" fill="#B38E5D"/>
<path d="M25.6689 16.5667C26.6773 16.5667 31.5178 16.5667 32.5263 16.5667C33.1313 16.5667 33.4675 16.9029 33.4675 17.4407C33.4675 17.9786 33.1313 18.2475 32.5263 18.2475C30.4421 18.2475 24.5932 18.2475 22.5091 18.2475C21.904 18.2475 21.5679 17.9113 21.5679 17.4407C21.5679 16.9029 21.904 16.5667 22.4419 16.5667C23.5175 16.5667 24.5932 16.5667 25.6689 16.5667Z" fill="#B38E5D"/>
<path d="M19.6855 35.7271C19.6855 34.7859 19.6855 33.8447 19.6855 32.9035C19.6855 32.2984 19.9545 32.0295 20.5595 32.0295C22.442 32.0295 24.0555 33.643 24.1899 35.5254C24.2571 37.3406 23.047 38.9541 21.2991 39.2903C21.0974 39.3575 20.8957 39.3575 20.694 39.3575C20.0217 39.3575 19.7528 39.0886 19.7528 38.4835C19.6855 37.6095 19.6855 36.6683 19.6855 35.7271ZM21.2318 35.6599C21.2318 36.1977 21.2318 36.7356 21.2318 37.2734C21.2318 37.6095 21.3663 37.6768 21.6352 37.4751C22.3075 37.0717 22.6436 36.3994 22.6436 35.6599C22.6436 34.9204 22.3075 34.3153 21.6352 33.8447C21.3663 33.7102 21.2991 33.7102 21.2991 34.0464C21.2318 34.6515 21.2318 35.1221 21.2318 35.6599Z" fill="#B38E5D"/>
<path d="M13.8364 35.7271C13.8364 34.7859 13.8364 33.8447 13.8364 32.9707C13.8364 32.3656 14.1053 32.0967 14.7104 32.0967C15.181 32.0967 15.6516 32.0967 16.1222 32.0967C17.3324 32.0967 18.2736 33.1051 18.2736 34.3153C18.2736 35.5254 17.3324 36.4666 16.1222 36.5338C15.9878 36.5338 15.9205 36.5338 15.7861 36.5338C15.4499 36.5338 15.3155 36.6683 15.3155 37.0045C15.3155 37.5423 15.3155 38.0801 15.3155 38.618C15.3155 39.1558 15.0466 39.4247 14.5759 39.4247C14.1053 39.4247 13.8364 39.1558 13.8364 38.618V38.5507C13.8364 37.5423 13.8364 36.6011 13.8364 35.7271ZM15.3827 34.248C15.3827 34.517 15.2482 34.9876 15.8533 34.9203C16.3911 34.9203 16.7273 34.6514 16.7273 34.248C16.7273 33.8447 16.3911 33.5758 15.8533 33.5758C15.2482 33.5085 15.3827 33.9119 15.3827 34.248Z" fill="#B38E5D"/>
<path d="M25.5347 35.7271C25.5347 34.7859 25.5347 33.9119 25.5347 32.9707C25.5347 32.2984 25.8036 32.0295 26.4759 32.0295C27.3499 32.0295 28.2238 32.0295 29.0978 32.0295C29.7029 32.0295 30.039 32.2984 29.9718 32.8363C29.9718 33.3069 29.6357 33.5758 29.0978 33.5758C28.56 33.5758 28.0222 33.5758 27.4843 33.5758C27.1482 33.5758 27.0137 33.7102 27.0809 33.9792C27.0809 34.0464 27.0809 34.1808 27.0809 34.2481C27.0809 34.9204 27.0809 34.9204 27.7532 34.9204C28.2238 34.9204 28.56 35.2565 28.56 35.6599C28.56 36.1305 28.2911 36.3994 27.7532 36.3994C27.0809 36.4666 27.0809 36.4666 27.0809 37.1389C27.0809 37.6095 27.0809 38.0802 27.0809 38.5508C27.0809 39.0214 26.7448 39.3575 26.3414 39.3575C25.8708 39.3575 25.6019 39.0886 25.6019 38.5508C25.5347 37.6768 25.5347 36.6683 25.5347 35.7271Z" fill="#B38E5D"/>
</svg>
