<svg width="70" height="70" viewBox="0 0 70 70" fill="none" xmlns="http://www.w3.org/2000/svg">
<g filter="url(#filter0_d_5945_15981)">
<path d="M10 9.20833C10 6.33185 12.3319 4 15.2083 4H54.7917C57.6681 4 60 6.33185 60 9.20833V48.7917C60 51.6681 57.6681 54 54.7917 54H15.2083C12.3319 54 10 51.6681 10 48.7917V9.20833Z" fill="#F4F8FF"/>
</g>
<path d="M47.0736 16C47.3742 16.0557 47.6648 16.1557 47.936 16.2968C48.2844 16.4937 48.5727 16.7817 48.77 17.13C48.9673 17.4782 49.0661 17.8735 49.056 18.2736C49.056 23.1269 49.056 27.9803 49.056 32.8336C49.0613 33.1348 49.0058 33.4341 48.8928 33.7134C48.7798 33.9927 48.6116 34.2463 48.3983 34.4591C48.185 34.6719 47.9309 34.8395 47.6514 34.9518C47.3718 35.0641 47.0724 35.1189 46.7712 35.1128C44.4136 35.1128 42.0504 35.1128 39.6928 35.1128C39.1328 35.1128 38.5728 35.1128 38.0128 35.1128C37.8896 35.1128 37.8448 35.1408 37.8448 35.2752C37.8448 36.2384 37.8448 37.196 37.8448 38.1592C37.8421 38.1909 37.8421 38.2227 37.8448 38.2544C37.8896 38.7696 37.9568 38.8144 38.4608 38.8144C39.4072 38.8144 40.3536 38.8144 41.3 38.8144C41.5116 38.8183 41.7176 38.8837 41.8927 39.0025C42.0679 39.1214 42.2048 39.2886 42.2866 39.4838C42.3685 39.679 42.3919 39.8938 42.3539 40.1021C42.316 40.3103 42.2183 40.503 42.0728 40.6568C41.9642 40.7709 41.8327 40.8607 41.687 40.9206C41.5413 40.9804 41.3846 41.0088 41.2272 41.004H28.84C28.675 41.0528 28.501 41.0629 28.3315 41.0336C28.162 41.0043 28.0015 40.9364 27.8625 40.835C27.7235 40.7337 27.6097 40.6017 27.5299 40.4493C27.4501 40.2969 27.4066 40.1281 27.4025 39.9561C27.3985 39.7841 27.4342 39.6135 27.5068 39.4575C27.5793 39.3016 27.6869 39.1644 27.821 39.0567C27.9552 38.949 28.1123 38.8736 28.2803 38.8365C28.4483 38.7993 28.6225 38.8013 28.7896 38.8424C29.8144 38.8424 30.8392 38.8424 31.8696 38.8424C31.9325 38.8505 31.9961 38.8342 32.0472 38.7966C32.0983 38.7591 32.133 38.7032 32.144 38.6408C32.2014 38.4596 32.2316 38.2709 32.2336 38.0808C32.2336 37.1624 32.2336 36.2384 32.2336 35.32C32.2336 35.1464 32.1776 35.1184 32.0208 35.1184C29.1312 35.1184 26.2379 35.1184 23.3408 35.1184C22.8438 35.1396 22.354 34.9948 21.9484 34.7069C21.5428 34.4189 21.2446 34.0042 21.1008 33.528C21.0616 33.388 21.0336 33.248 21 33.1136V17.9936C21.0145 17.9651 21.0258 17.935 21.0336 17.904C21.0844 17.6104 21.1933 17.3299 21.3539 17.079C21.5145 16.828 21.7236 16.6116 21.9688 16.4424C22.2828 16.2362 22.6352 16.0952 23.0048 16.028L47.0736 16ZM36.0696 27.5584L36.176 27.3512L38.5168 22.8096C38.5952 22.6584 38.6736 22.5352 38.864 22.5408C39.0544 22.5464 39.1272 22.6752 39.1944 22.8264L40.8072 26.416C40.8238 26.4696 40.8586 26.5158 40.9057 26.5465C40.9527 26.5771 41.009 26.5904 41.0648 26.584C43.456 26.584 45.8472 26.584 48.2384 26.584C48.412 26.584 48.4568 26.5448 48.4568 26.3712C48.4568 24.3832 48.4568 22.4008 48.4568 20.4128C48.4568 20.2392 48.4176 20.1888 48.2328 20.1888H21.8512C21.672 20.1888 21.6272 20.228 21.6272 20.4128C21.6272 23.8437 21.6272 27.2803 21.6272 30.7224C21.6272 30.9016 21.672 30.9464 21.8512 30.9464H48.2104C48.4176 30.9464 48.4568 30.8904 48.4568 30.7C48.4568 29.6136 48.4568 28.5272 48.4568 27.4464C48.4568 27.2616 48.4176 27.2056 48.2216 27.2056C45.752 27.2056 43.2824 27.2056 40.8128 27.2056C40.7161 27.2155 40.6189 27.192 40.5374 27.1391C40.4559 27.0861 40.395 27.0068 40.3648 26.9144C39.9 25.8616 39.424 24.82 38.9536 23.7728C38.92 23.7 38.9088 23.6104 38.8192 23.56L38.5616 24.0584L36.3776 28.3032C36.3539 28.3715 36.3091 28.4305 36.2498 28.4718C36.1904 28.5131 36.1195 28.5344 36.0472 28.5328C35.8792 28.5328 35.8008 28.4264 35.728 28.2864L32.9672 22.8208C32.9336 22.7536 32.8944 22.692 32.8496 22.608L32.7488 22.7592C32.1328 23.756 31.5168 24.7528 30.9064 25.7608C30.8616 25.851 30.7905 25.9254 30.7025 25.9744C30.6146 26.0234 30.5138 26.0446 30.4136 26.0352C28.7336 26.0352 27.02 26.0352 25.3176 26.0352H24.3096C24.2268 26.0368 24.1467 26.0061 24.086 25.9497C24.0254 25.8932 23.9891 25.8155 23.9848 25.7328C23.9898 25.6502 24.0241 25.572 24.0816 25.5125C24.1391 25.4529 24.216 25.4159 24.2984 25.408H30.2008C30.2666 25.414 30.3326 25.3995 30.3898 25.3664C30.447 25.3333 30.4925 25.2832 30.52 25.2232C30.8896 24.6072 31.2704 23.9968 31.64 23.3864C31.9592 22.8656 32.2784 22.3392 32.6032 21.8184C32.6293 21.7666 32.6694 21.723 32.7188 21.6926C32.7682 21.6621 32.8251 21.646 32.8832 21.646C32.9412 21.646 32.9982 21.6621 33.0476 21.6926C33.097 21.723 33.137 21.7666 33.1632 21.8184C33.1632 21.8632 33.208 21.9136 33.236 21.9584C34.1395 23.7392 35.0429 25.52 35.9464 27.3008C35.98 27.3904 36.0136 27.4576 36.0696 27.5584ZM35.0504 19.5616H48.2552C48.412 19.5616 48.4568 19.5224 48.4512 19.3656C48.4512 18.9792 48.4512 18.5928 48.4512 18.212C48.4519 17.9187 48.3698 17.6311 48.2143 17.3824C48.0587 17.1337 47.8361 16.9341 47.572 16.8064C47.2947 16.6731 46.989 16.6097 46.6816 16.6216H23.4304C23.3632 16.6216 23.3016 16.6216 23.2344 16.6216C23.0178 16.6237 22.8037 16.6692 22.6049 16.7552C22.4061 16.8413 22.2265 16.9663 22.0767 17.1229C21.927 17.2794 21.8101 17.4644 21.7328 17.6668C21.6556 17.8692 21.6197 18.0851 21.6272 18.3016C21.6272 18.6488 21.6272 18.996 21.6272 19.3376C21.6272 19.528 21.6664 19.5784 21.8568 19.5784L35.0504 19.5616ZM35.0504 31.5624H21.924C21.8718 31.5652 21.8194 31.5652 21.7672 31.5624C21.6552 31.5624 21.6272 31.6016 21.6272 31.708C21.6272 32.1056 21.6272 32.5032 21.6272 32.9008C21.6267 33.2376 21.7391 33.5649 21.9464 33.8304C22.119 34.0527 22.3436 34.2292 22.6004 34.3444C22.8572 34.4596 23.1384 34.51 23.4192 34.4912H46.6536C46.758 34.4969 46.8627 34.4969 46.9672 34.4912C47.319 34.4669 47.6527 34.3259 47.9154 34.0906C48.1782 33.8553 48.3549 33.5391 48.4176 33.192C48.496 32.7384 48.4176 32.2792 48.4568 31.82C48.4568 31.624 48.412 31.5736 48.2104 31.5736C43.82 31.5624 39.4296 31.5624 35.0392 31.5624H35.0504ZM35.0504 38.8424C35.7728 38.8424 36.5008 38.8424 37.2232 38.8424C37.3576 38.8424 37.3912 38.8144 37.3408 38.6856C37.2764 38.4657 37.248 38.2369 37.2568 38.008C37.2568 37.112 37.2568 36.216 37.2568 35.32C37.2568 35.1688 37.2176 35.124 37.0608 35.124C35.728 35.124 34.3952 35.124 33.0624 35.124C32.9056 35.124 32.8664 35.1688 32.8664 35.32C32.8664 36.216 32.8664 37.112 32.8664 38.008C32.8751 38.2369 32.8468 38.4657 32.7824 38.6856C32.732 38.8144 32.7824 38.848 32.9 38.8424C33.5944 38.8424 34.3056 38.8424 35.0224 38.8424H35.0504ZM35.0504 40.4104H41.1096C41.1768 40.4104 41.244 40.4104 41.3056 40.4104C41.4211 40.4035 41.5299 40.3537 41.6107 40.2709C41.6914 40.188 41.7384 40.078 41.7424 39.9624C41.7491 39.8468 41.7118 39.7329 41.6381 39.6436C41.5643 39.5543 41.4596 39.4961 41.3448 39.4808C41.2665 39.4753 41.1879 39.4753 41.1096 39.4808H28.728C28.6233 39.4918 28.5256 39.5384 28.4512 39.6128C28.3768 39.6872 28.3302 39.7849 28.3192 39.8896C28.28 40.192 28.504 40.416 28.8792 40.416L35.0504 40.4104Z" fill="#179894" stroke="#179894" stroke-width="0.3"/>
<defs>
<filter id="filter0_d_5945_15981" x="0" y="0" width="70" height="70" filterUnits="userSpaceOnUse" color-interpolation-filters="sRGB">
<feFlood flood-opacity="0" result="BackgroundImageFix"/>
<feColorMatrix in="SourceAlpha" type="matrix" values="0 0 0 0 0 0 0 0 0 0 0 0 0 0 0 0 0 0 127 0" result="hardAlpha"/>
<feOffset dy="6"/>
<feGaussianBlur stdDeviation="5"/>
<feComposite in2="hardAlpha" operator="out"/>
<feColorMatrix type="matrix" values="0 0 0 0 0.169886 0 0 0 0 0.8125 0 0 0 0 0.792574 0 0 0 0.68 0"/>
<feBlend mode="normal" in2="BackgroundImageFix" result="effect1_dropShadow_5945_15981"/>
<feBlend mode="normal" in="SourceGraphic" in2="effect1_dropShadow_5945_15981" result="shape"/>
</filter>
</defs>
</svg>
