<svg width="118" height="117" viewBox="0 0 118 117" fill="none" xmlns="http://www.w3.org/2000/svg">
    <g clip-path="url(#09c7xv9pfa)" fill="#98989A">
        <path d="M38.2.9c20.6 0 37.4 16.8 37.4 37.4 0 20.6-16.8 37.3-37.4 37.3C17.6 75.6.8 58.8.8 38.2.8 17.6 17.6.9 38.2.9zm0-.9C17.1 0 0 17.1 0 38.2s17.1 38.2 38.2 38.2 38.2-17.1 38.2-38.2S59.3 0 38.2 0z"/>
        <path d="m65.817 64.707-.707.708L83.566 83.87l.707-.707-18.456-18.456zM37.2 49.7v-.4c0-2.8.2-6.1 5-10.6 4.6-4.3 4.9-7.1 4.9-10 0-4.6-2.5-8.7-8.5-8.7-5.3 0-8.7 2.4-9.5 8.7H28c.4-3.7 2.1-9.8 10.6-9.8 6.7 0 9.7 4.5 9.7 9.8 0 4.4-1.4 7-5.6 11.1-3.2 3.1-4.4 5.6-4.4 9.5v.4h-1.1zm0 11.8v-6.2h1.1v6.2h-1.1z"/>
        <path d="M87.7 82.5c1.3 0 2.4.5 3.3 1.4l23.8 23.8c1.8 1.8 1.8 4.8 0 6.6-.9.9-2.1 1.4-3.3 1.4-1.2 0-2.4-.5-3.3-1.4L84.4 90.5c-1.8-1.8-1.8-4.8 0-6.6.8-.9 2-1.4 3.3-1.4zm0-1c-1.5 0-2.9.6-4 1.7-2.2 2.2-2.2 5.8 0 8.1l23.8 23.8c1.1 1.1 2.6 1.7 4 1.7s2.9-.6 4-1.7c2.2-2.2 2.2-5.8 0-8.1L91.7 83.2c-1.1-1.1-2.6-1.7-4-1.7z"/>
    </g>
    <defs>
        <clipPath id="09c7xv9pfa">
            <path fill="#fff" d="M0 0h117.1v116.7H0z"/>
        </clipPath>
    </defs>
</svg>
