<svg width="25" height="28" viewBox="0 0 25 28" fill="none" xmlns="http://www.w3.org/2000/svg">
    <path d="M10.692 19.816a5.77 5.77 0 0 0 4.108-1.703 5.824 5.824 0 0 0 0-8.222 5.769 5.769 0 0 0-4.108-1.704c-1.552 0-3.01.605-4.108 1.704A5.779 5.779 0 0 0 4.883 14c0 1.554.604 3.014 1.701 4.112a5.769 5.769 0 0 0 4.108 1.703zm-3.528-9.345a4.955 4.955 0 0 1 3.528-1.463c1.333 0 2.586.52 3.528 1.463a5.003 5.003 0 0 1 0 7.062 4.955 4.955 0 0 1-3.528 1.463 4.955 4.955 0 0 1-3.528-1.463 4.963 4.963 0 0 1-1.462-3.531c0-1.334.52-2.588 1.462-3.532z" fill="#DDC9A3"/>
    <path d="M9.361 15.33v1.598c0 .512.416.928.927.928h.805a.929.929 0 0 0 .927-.928V15.33h1.598a.929.929 0 0 0 .927-.928v-.805a.929.929 0 0 0-.927-.928H12.02v-1.6a.929.929 0 0 0-.927-.927h-.805a.929.929 0 0 0-.927.928v1.599H7.763a.929.929 0 0 0-.927.928v.805c0 .512.416.928.927.928h1.598zM7.656 14.4v-.805c0-.06.048-.108.107-.108h2.008a.41.41 0 0 0 .41-.41v-2.01c0-.059.048-.107.107-.107h.805c.06 0 .107.048.107.108v2.009c0 .227.184.41.41.41h2.008c.06 0 .108.049.108.108v.805c0 .06-.049.108-.108.108H11.61a.41.41 0 0 0-.41.41v2.01c0 .059-.048.107-.107.107h-.805a.108.108 0 0 1-.107-.108V14.92a.41.41 0 0 0-.41-.41H7.763a.108.108 0 0 1-.107-.108z" fill="#DDC9A3"/>
    <path d="M24.332 7.48a1.14 1.14 0 0 0-.598-.642l-.666-.305a1.148 1.148 0 0 0-1.52.567l-.822 1.803V3.71a2.303 2.303 0 0 0-2.3-2.302H14.55v-.086C14.55.593 13.957 0 13.229 0H7.497c-.728 0-1.32.593-1.32 1.322v.086H2.3A2.303 2.303 0 0 0 0 3.709V25.7A2.303 2.303 0 0 0 2.3 28h16.127c1.268 0 2.3-1.032 2.3-2.302v-9.507L24.3 8.36c.127-.28.138-.591.031-.878zm-1.74-.23c.046 0 .092.01.136.03l.666.304c.164.075.236.27.161.434l-.36.788-1.26-.577.36-.788a.328.328 0 0 1 .297-.191zm.032 2.81-1.261-.577.231-.508 1.261.577-.231.507zm-6.51 14.262-1.26-.576 6.168-13.517 1.261.576-6.17 13.517zm-1.471.229 1 .458-1.583 2.145.583-2.603zm1.96.539c.108-.146.2-.303.275-.468l1.137-2.49v2.797a.446.446 0 0 1-.442.445l-1.186.008.216-.293zM6.996 1.322c0-.277.225-.502.501-.502h5.732c.276 0 .501.225.501.502v1.052a.502.502 0 0 1-.501.502H7.497a.502.502 0 0 1-.5-.502V1.322zM.82 25.699V3.709c0-.674.452-1.244 1.069-1.423v19.06a.41.41 0 1 0 .82 0V2.228h3.468v.146c0 .73.592 1.322 1.32 1.322h5.732c.728 0 1.32-.593 1.32-1.322v-.146h3.466v3.255a.41.41 0 1 0 .82 0V2.285a1.484 1.484 0 0 1 1.072 1.425v6.988l-1.073 2.35V7.123a.41.41 0 1 0-.82 0v7.72l-3.888 8.521a2.625 2.625 0 0 0-.172.514l-.341 1.522-10.456.067h-.003a.443.443 0 0 1-.445-.445v-2.035a.41.41 0 1 0-.82 0v2.034c0 .34.133.659.373.898.24.237.555.368.891.368h.01l10.266-.066-.218.959H2.3c-.816 0-1.48-.665-1.48-1.482zm19.087 0c0 .816-.664 1.48-1.48 1.48H15.06l.719-.973 1.8-.011a1.268 1.268 0 0 0 1.255-1.266v-4.592l1.073-2.35V25.7z" fill="#DDC9A3"/>
</svg>
