<svg width="23" height="23" viewBox="0 0 23 23" fill="none" xmlns="http://www.w3.org/2000/svg">
    <g filter="url(#vpaxu5ybva)">
        <rect x="1.896" y=".089" width="18" height="18" rx="4" fill="#F9F7EA"/>
        <rect x="2.396" y=".589" width="17" height="17" rx="3.5" stroke="#B38E5D"/>
    </g>
    <path d="m12.881 14.089-2.01-2.76-2.078 2.76H5.896l3.527-4.534L6.016 5.09h2.981l1.942 2.626 1.993-2.626h2.828l-3.407 4.4 3.543 4.6h-3.015z" fill="#F9F7EA"/>
    <path fill-rule="evenodd" clip-rule="evenodd" d="M5.478 4.823a.6.6 0 0 1 .538-.334h2.98a.6.6 0 0 1 .483.243l1.466 1.982 1.51-1.988a.6.6 0 0 1 .477-.237h2.828a.6.6 0 0 1 .475.967L13.11 9.49l3.26 4.234a.6.6 0 0 1-.475.966h-3.015a.6.6 0 0 1-.485-.247l-1.533-2.105-1.591 2.113a.6.6 0 0 1-.48.239H5.896a.6.6 0 0 1-.473-.969l3.242-4.168-3.126-4.1a.6.6 0 0 1-.061-.63zm1.75.866L9.9 9.19a.6.6 0 0 1-.004.733l-2.773 3.565h1.37l1.899-2.521a.6.6 0 0 1 .964.007l1.83 2.514h1.49l-2.798-3.634a.6.6 0 0 1 0-.734l2.659-3.432H13.23l-1.813 2.389a.6.6 0 0 1-.96-.006L8.694 5.689H7.228z" fill="#B38E5D"/>
    <defs>
        <filter id="vpaxu5ybva" x=".896" y=".089" width="22" height="22" filterUnits="userSpaceOnUse" color-interpolation-filters="sRGB">
            <feFlood flood-opacity="0" result="BackgroundImageFix"/>
            <feColorMatrix in="SourceAlpha" values="0 0 0 0 0 0 0 0 0 0 0 0 0 0 0 0 0 0 127 0" result="hardAlpha"/>
            <feOffset dx="1" dy="2"/>
            <feGaussianBlur stdDeviation="1"/>
            <feComposite in2="hardAlpha" operator="out"/>
            <feColorMatrix values="0 0 0 0 0.701961 0 0 0 0 0.556863 0 0 0 0 0.364706 0 0 0 0.35 0"/>
            <feBlend in2="BackgroundImageFix" result="effect1_dropShadow_2631_14812"/>
            <feBlend in="SourceGraphic" in2="effect1_dropShadow_2631_14812" result="shape"/>
        </filter>
    </defs>
</svg>
