<svg width="29" height="29" viewBox="0 0 24 25" fill="none" xmlns="http://www.w3.org/2000/svg">
<path fill-rule="evenodd" clip-rule="evenodd" d="M5.61 6.39093C5.12951 6.39093 4.74 6.78167 4.74 7.26366V19.4818C4.74 19.9638 5.12951 20.3546 5.61 20.3546H17.79C18.2705 20.3546 18.66 19.9638 18.66 19.4818V7.26366C18.66 6.78167 18.2705 6.39093 17.79 6.39093H5.61ZM3 7.26366C3 5.81768 4.16854 4.64548 5.61 4.64548H17.79C19.2315 4.64548 20.4 5.81768 20.4 7.26366V19.4818C20.4 20.9278 19.2315 22.1 17.79 22.1H5.61C4.16854 22.1 3 20.9278 3 19.4818V7.26366Z" fill="#9F2241"/>
<path fill-rule="evenodd" clip-rule="evenodd" d="M15.18 2.90002C15.6605 2.90002 16.05 3.29076 16.05 3.77275V7.26366C16.05 7.74565 15.6605 8.13639 15.18 8.13639C14.6995 8.13639 14.31 7.74565 14.31 7.26366V3.77275C14.31 3.29076 14.6995 2.90002 15.18 2.90002Z" fill="#9F2241"/>
<path fill-rule="evenodd" clip-rule="evenodd" d="M8.22 2.90002C8.70049 2.90002 9.09 3.29076 9.09 3.77275V7.26366C9.09 7.74565 8.70049 8.13639 8.22 8.13639C7.73951 8.13639 7.35 7.74565 7.35 7.26366V3.77275C7.35 3.29076 7.73951 2.90002 8.22 2.90002Z" fill="#9F2241"/>
<path fill-rule="evenodd" clip-rule="evenodd" d="M3 10.7546C3 10.2726 3.38951 9.88184 3.87 9.88184H19.53C20.0105 9.88184 20.4 10.2726 20.4 10.7546C20.4 11.2366 20.0105 11.6273 19.53 11.6273H3.87C3.38951 11.6273 3 11.2366 3 10.7546Z" fill="#9F2241"/>
</svg>
