<svg width="17" height="20" viewBox="0 0 17 20" fill="none" xmlns="http://www.w3.org/2000/svg">
    <g clip-path="url(#mr6bin6sba)">
        <path d="M13.992 8.105c-.465.01-.92.123-1.325.329-.406.205-.75.497-1.003.85-.257.352-.416.754-.465 1.172-.049.42.015.842.186 1.234.17.392.443.74.794 1.016a3 3 0 0 0 1.221.567V14.4c.014.894-.34 1.76-.99 2.432-.652.672-1.555 1.1-2.535 1.2a4.296 4.296 0 0 1-1.606-.165 4.026 4.026 0 0 1-1.395-.74 3.588 3.588 0 0 1-.948-1.187 3.275 3.275 0 0 1-.338-1.433v-3.5h1.035a.474.474 0 0 0 .325-.12.405.405 0 0 0 .104-.134.37.37 0 0 0 .036-.161v-.14a4.781 4.781 0 0 0 1.994-1.635 4.158 4.158 0 0 0 .748-2.34v-5.25a.64.64 0 0 0-.2-.435.683.683 0 0 0-.22-.131.734.734 0 0 0-.26-.044H8.108V.168a.146.146 0 0 0-.044-.107.161.161 0 0 0-.11-.04H6.925a.17.17 0 0 0-.118.04.14.14 0 0 0-.035.05.129.129 0 0 0-.01.057v2.313a.593.593 0 0 0 .15.41.708.708 0 0 0 .404.227c.099.014.199.01.295-.015a.705.705 0 0 0 .44-.335.53.53 0 0 0 .056-.26v-.67h.377v4.625a3.017 3.017 0 0 1-.524 1.675c-.34.505-.826.915-1.405 1.187H3.274A3.407 3.407 0 0 1 1.87 8.14a3.01 3.01 0 0 1-.517-1.676V1.837h.384v.617c.003.147.06.29.162.405a.75.75 0 0 0 .4.232c.098.015.198.01.294-.015a.705.705 0 0 0 .26-.126.626.626 0 0 0 .177-.214.568.568 0 0 0 .06-.262V.168A.154.154 0 0 0 2.987.03a.161.161 0 0 0-.06-.01H1.914a.179.179 0 0 0-.125.034.148.148 0 0 0-.04.052.135.135 0 0 0-.012.062v.476H.68A.734.734 0 0 0 .42.69.682.682 0 0 0 .2.82a.61.61 0 0 0-.148.2.561.561 0 0 0-.052.234v5.229c.002.827.258 1.637.74 2.34a4.84 4.84 0 0 0 1.965 1.642v.154c.002.11.052.216.14.294a.49.49 0 0 0 .326.121h1.064v3.352c-.016 1.24.492 2.438 1.42 3.348.928.91 2.205 1.463 3.57 1.546a5.768 5.768 0 0 0 2.094-.291 5.379 5.379 0 0 0 1.8-1.016c.517-.446.93-.982 1.212-1.577a4.401 4.401 0 0 0 .43-1.883v-1.226a2.916 2.916 0 0 0 1.728-1.057c.41-.534.587-1.189.495-1.835a2.563 2.563 0 0 0-.995-1.661 3.08 3.08 0 0 0-1.968-.622l-.03-.007zm.081 3.64a1.199 1.199 0 0 1-.79-.302.987.987 0 0 1-.333-.717c0-.27.118-.53.329-.72.21-.191.496-.299.794-.299.298 0 .585.106.798.295a.998.998 0 0 1 .325.724.911.911 0 0 1-.08.392.994.994 0 0 1-.245.332c-.212.19-.5.296-.798.295z" fill="#DDC9A3"/>
    </g>
    <defs>
        <clipPath id="mr6bin6sba">
            <path fill="#fff" d="M0 0h17v19.286H0z"/>
        </clipPath>
    </defs>
</svg>
