<svg width="43" height="47" viewBox="0 0 43 47" fill="none" xmlns="http://www.w3.org/2000/svg">
    <rect x=".214" y=".522" width="42.462" height="46" rx="5" fill="#DDD"/>
    <path d="M30.991 16.631c.134 5.244-4.303 9.614-9.546 9.614-5.177 0-9.547-4.303-9.547-9.547 0-5.244 4.303-9.546 9.547-9.614 5.243 0 9.613 4.37 9.546 9.547zm-9.546 8c4.504-.067 8.067-3.63 8-8.067-.067-4.37-3.429-7.933-8-7.933-4.505.067-7.934 3.563-7.934 8 0 4.706 3.765 8 7.934 8zM17.008 34.312c-.538.337-.74 1.009-1.412 1.009-.672 0-.874-.672-1.344-.941-.135.067-.068.268-.068.336v3.294c0 .672-.268.941-.806.941-.47 0-.74-.336-.74-.941v-5.513c0-.403.067-.74.47-.874.404-.134.673 0 1.01.27.403.402.873.806 1.277 1.276.201.202.336.202.537 0 .404-.47.874-.874 1.278-1.277.269-.269.605-.403.941-.269.336.135.47.47.47.807v5.647c0 .605-.268.874-.739.874-.47 0-.807-.336-.807-.874V34.85c-.067-.134-.067-.269-.067-.538zM19.966 35.254v-2.757c0-.605.27-.874.874-.874h1.48c1.21 0 2.15 1.009 2.15 2.286 0 1.21-.94 2.151-2.15 2.218h-.337c-.269 0-.403.135-.403.404v1.613c0 .538-.27.874-.807.874-.47 0-.74-.336-.74-.874v-.067c-.067-.941-.067-1.882-.067-2.823zm1.95-2.085c-.538-.067-.403.337-.403.673s-.135.74.47.74c.538 0 .874-.27.874-.673 0-.47-.403-.74-.941-.74zM30.252 35.32v2.757c0 .538-.27.874-.74.874s-.74-.336-.74-.874v-1.613c0-.337-.134-.47-.47-.47H26.69c-.538 0-.807-.27-.807-.808v-2.823c0-.47.269-.807.74-.807.47 0 .739.269.806.807v1.613c0 .336.067.47.47.47.942 0 .942.068.942-.94v-1.21c0-.538.269-.807.74-.807.47 0 .739.336.739.806-.067 1.143-.067 2.085-.067 3.026z" fill="#B38E5D"/>
    <path d="M18.487 16.631v-2.756c0-.74.538-1.076 1.21-.74l5.647 2.824c.336.134.47.403.47.74 0 .335-.201.604-.537.739L19.63 20.26c-.673.337-1.21 0-1.21-.806.067-.942.067-1.883.067-2.824zm1.546 0v1.277c0 .27.134.336.336.202.874-.403 1.748-.874 2.622-1.277.269-.135.269-.202 0-.336-.874-.404-1.748-.874-2.622-1.278-.269-.134-.336 0-.336.27v1.142z" fill="#B38E5D"/>
    <path d="M34.084 43.187H8.806c-2.219 0-3.967-1.816-3.967-3.967V7.824c0-2.151 1.816-3.967 3.967-3.967h25.278c2.219 0 3.967 1.816 3.967 3.967V39.22a3.931 3.931 0 0 1-3.967 3.967zM8.806 5.202c-1.412 0-2.622 1.21-2.622 2.622V39.22a2.625 2.625 0 0 0 2.622 2.622h25.278a2.625 2.625 0 0 0 2.622-2.622V7.824a2.625 2.625 0 0 0-2.622-2.622H8.806z" fill="#B38E5D"/>
    <path d="M37.378 28.329H5.511v1.345h31.867v-1.345z" fill="#B38E5D"/>
</svg>
