<svg width="40" height="41" viewBox="0 0 40 41" fill="none" xmlns="http://www.w3.org/2000/svg">
<path d="M19.9746 31.5528C21.4533 31.5528 22.6562 30.3498 22.6562 28.8711C22.6562 27.3924 21.4533 26.1895 19.9746 26.1895C18.4959 26.1895 17.293 27.3924 17.293 28.8711C17.293 30.3498 18.4959 31.5528 19.9746 31.5528ZM19.9746 27.3613C20.8071 27.3613 21.4844 28.0386 21.4844 28.8711C21.4844 29.7036 20.8071 30.3809 19.9746 30.3809C19.1421 30.3809 18.4648 29.7036 18.4648 28.8711C18.4648 28.0386 19.1421 27.3613 19.9746 27.3613Z" fill="#DDC9A3"/>
<path d="M37.9841 37.0802H36.0916L36.6756 36.5181C37.5852 35.6426 37.9227 34.3481 37.5564 33.1399L35.5392 26.4868C34.9144 24.4259 33.2066 22.9268 31.0821 22.5743L30.2716 22.4398C29.8225 21.9181 29.1577 21.5872 28.4169 21.5872H25.1647C24.6886 21.4615 24.3429 21.0557 24.2974 20.5608L24.1878 19.3711C25.6415 18.2816 26.8114 16.6375 27.0312 14.5046H27.2776C28.25 14.5046 29.041 13.7135 29.041 12.7411V11.4363C29.041 10.7426 28.6383 10.1412 28.0544 9.85342C28.0542 9.57217 28.054 9.10022 28.054 8.30858C28.054 7.98491 27.7917 7.72264 27.4681 7.72264C27.1444 7.72264 26.8821 7.98491 26.8821 8.30858C26.8821 8.94967 26.8822 9.3817 26.8824 9.67295H26.4477C26.123 9.67295 25.8294 9.43225 25.8294 9.07991V7.90569C25.8294 6.88647 25.0003 6.05733 23.9811 6.05733C23.8875 6.06397 23.2719 6.01319 22.486 6.27983C22.3814 6.30702 21.4116 6.71116 20.0392 6.71116C18.6715 6.71116 17.6935 6.30608 17.5923 6.27983C16.7661 5.99952 16.1313 6.06741 15.9727 6.05733C14.9535 6.05733 14.1243 6.88647 14.1243 7.90569V9.07991C14.1243 9.426 13.826 9.67295 13.5058 9.67295H13.0705V5.3703C13.0705 4.4057 13.9234 3.61179 14.9537 3.77226C15.7758 3.90054 16.507 3.37078 16.5918 2.54125C16.7607 2.29898 17.0374 2.15258 17.3379 2.1525L23.9238 2.15234C25.5578 2.15234 26.8817 3.47421 26.8817 5.10905C26.8817 5.31265 26.8819 5.41452 26.8821 5.46546C26.8834 5.9678 27.266 6.10054 27.4682 6.10054C27.7919 6.10054 28.0542 5.83827 28.0542 5.5146C28.0542 5.51077 28.0542 5.50702 28.0541 5.50319C28.0539 5.48734 28.0536 5.41741 28.0536 5.10905C28.0536 2.82718 26.206 0.980313 23.9238 0.980469L17.3378 0.980625C16.5625 0.980703 15.8566 1.40687 15.4954 2.09281C15.4177 2.24062 15.429 2.37304 15.4281 2.38172C15.4281 2.56578 15.3117 2.64195 15.1343 2.61437C13.4167 2.34633 11.8987 3.66515 11.8987 5.37023V9.85358C11.3151 10.1414 10.9128 10.7426 10.9128 11.4361V12.7409C10.9128 13.7133 11.7038 14.5043 12.6761 14.5043H12.9231C13.0543 15.7573 13.5261 16.937 14.3039 17.945C14.7154 18.4784 15.2077 18.9596 15.7654 19.377L15.6563 20.5606C15.6108 21.0555 15.2651 21.4613 14.789 21.5869H11.5367C10.7959 21.5869 10.1311 21.9179 9.68201 22.4396L8.87162 22.5741C6.74725 22.9265 5.03929 24.4257 4.41437 26.4866L2.39718 33.1399C2.03093 34.3481 2.36843 35.6426 3.27804 36.5181L3.86202 37.0802H1.95015C0.874842 37.0802 0 37.955 0 39.0303C0 40.1056 0.874842 40.9805 1.95015 40.9805H37.9841C39.0594 40.9805 39.9341 40.1056 39.9341 39.0303C39.9341 37.955 39.0594 37.0802 37.9841 37.0802ZM27.0678 10.8447H27.2776C27.6022 10.8447 27.8691 11.1086 27.8691 11.4362V12.7411C27.8691 13.0673 27.6038 13.3326 27.2777 13.3326H27.067L27.0678 10.8447ZM12.6761 13.3326C12.3499 13.3326 12.0846 13.0673 12.0846 12.7411V11.4362C12.0846 11.109 12.3511 10.8447 12.6761 10.8447H12.8858L12.8866 13.3327H12.6761V13.3326ZM30.8903 23.7303C32.5716 24.0093 33.9232 25.1957 34.4177 26.8267L36.4349 33.4798C36.6728 34.2645 36.4536 35.1052 35.8628 35.6738L34.4017 37.0802H33.1292C33.2479 36.7605 33.31 36.4192 33.31 36.0695C33.31 35.3998 32.7651 34.8549 32.0954 34.8549H30.8635V24.0337C30.8635 23.9283 30.8567 23.8245 30.8438 23.7226L30.8903 23.7303ZM32.0955 36.0269C32.1191 36.0269 32.1382 36.046 32.1382 36.0695C32.1382 36.4363 32.0237 36.7876 31.8121 37.0803H8.14155C7.92991 36.7876 7.81545 36.4363 7.81545 36.0695C7.81545 36.046 7.8346 36.0269 7.85811 36.0269H32.0955ZM14.0586 13.9119L14.0577 10.7594C14.7654 10.5344 15.2961 9.88405 15.2961 9.07975V7.90553C15.2961 7.53257 15.5997 7.22905 15.9726 7.22905C16.1443 7.23905 16.602 7.18108 17.2157 7.38944C17.3272 7.41819 18.4496 7.8828 20.0392 7.8828C21.6003 7.8828 22.7862 7.40874 22.8626 7.38944C23.4433 7.19233 23.8933 7.23499 23.9811 7.22905C24.354 7.22905 24.6575 7.53257 24.6575 7.90553V9.07975C24.6575 9.88522 25.1901 10.534 25.896 10.7591L25.895 13.912C25.8481 15.9968 24.7369 17.3783 23.8125 18.1704C22.6964 19.1268 21.2274 19.7301 19.9768 19.7461C17.5152 19.7154 14.1397 17.5164 14.0586 13.9119ZM23.4107 21.5872H16.543C16.6951 21.3104 16.7928 20.9993 16.8232 20.6683L16.8775 20.0792C17.8591 20.5968 18.8567 20.9055 19.9704 20.918H19.9835C20.9335 20.9074 22.0317 20.6188 23.0756 20.0722L23.1305 20.6683C23.1609 20.9993 23.2586 21.3103 23.4107 21.5872ZM3.51874 33.4798L5.53585 26.8267C6.03038 25.1957 7.38202 24.0093 9.06334 23.7303L9.10975 23.7225C9.09678 23.8244 9.09006 23.9282 9.09006 24.0336V27.6292C9.09006 27.9528 9.35233 28.2151 9.676 28.2151C9.99967 28.2151 10.2619 27.9528 10.2619 27.6292V24.0336C10.2619 23.3307 10.8337 22.7589 11.5366 22.7589H28.4168C29.1197 22.7589 29.6916 23.3307 29.6916 24.0336V34.8549H10.2619V30.4009C10.2619 30.0772 9.99967 29.8149 9.676 29.8149C9.35233 29.8149 9.09006 30.0772 9.09006 30.4009V34.8549H7.85803C7.18835 34.8549 6.6435 35.3998 6.6435 36.0695C6.6435 36.4192 6.70553 36.7605 6.82429 37.0802H5.55187L4.09077 35.6738C3.49999 35.1052 3.28078 34.2645 3.51874 33.4798ZM37.9841 39.8086H1.95015C1.52101 39.8086 1.17187 39.4595 1.17187 39.0303C1.17187 38.6013 1.52101 38.2521 1.95015 38.2521H37.9841C38.4131 38.2521 38.7623 38.6013 38.7623 39.0303C38.7623 39.4595 38.4131 39.8086 37.9841 39.8086Z" fill="#DDC9A3"/>
</svg>
