<svg width="23" height="20" viewBox="0 0 23 20" fill="none" xmlns="http://www.w3.org/2000/svg">
    <g clip-path="url(#dpwi5k94xa)" fill="#DDC9A3">
        <path d="M19.462 4.978H3.588a.776.776 0 1 0 0 1.552h15.874a.776.776 0 1 0 0-1.552zM19.462 9.085H3.588a.776.776 0 0 0 0 1.551h15.874a.776.776 0 1 0 0-1.551z"/>
        <path d="M1.789 0C.81 0 0 .81 0 1.789v13.289c0 .978.81 1.789 1.789 1.789h6.125l3.115 2.395a.766.766 0 0 0 .942 0l3.322-2.555a.768.768 0 1 0-.943-1.214L11.5 17.69l-2.852-2.196a.768.768 0 0 0-.471-.16H1.789c-.155 0-.256-.1-.256-.255V1.788c0-.154.101-.255.256-.255H21.21c.155 0 .256.101.256.256v13.289c0 .155-.101.255-.256.255h-1.789a.768.768 0 0 0-.55 1.313.77.77 0 0 0 .55.22h1.79c.977 0 1.788-.81 1.788-1.788V1.788C23 .812 22.19 0 21.211 0H1.79zm15.333 15.333a.767.767 0 1 0 0 1.533.767.767 0 0 0 0-1.533z"/>
    </g>
    <defs>
        <clipPath id="dpwi5k94xa">
            <path fill="#fff" d="M0 0h23v19.424H0z"/>
        </clipPath>
    </defs>
</svg>
