<svg width="30" height="25" viewBox="0 0 30 25" fill="none" xmlns="http://www.w3.org/2000/svg">
    <g clip-path="url(#cp0ult0rqa)" fill="#ADB5BF">
        <path d="M25.385 6.407H4.68c-.558 0-1.012.447-1.012.998 0 .552.454.999 1.012.999h20.705c.559 0 1.012-.447 1.012-.999 0-.551-.453-.998-1.012-.998zM25.385 11.693H4.68c-.558 0-1.012.447-1.012.998 0 .552.454.999 1.012.999h20.705c.559 0 1.012-.447 1.012-.999 0-.551-.453-.998-1.012-.998z"/>
        <path d="M2.333 0C1.058 0 0 1.044 0 2.302v17.104c0 1.259 1.058 2.303 2.333 2.303h7.99l4.063 3.083a1.008 1.008 0 0 0 1.228 0l4.334-3.29a.98.98 0 0 0 .177-1.388 1.011 1.011 0 0 0-1.407-.174l-3.72 2.827-3.718-2.826a1.01 1.01 0 0 0-.614-.206H2.332c-.201 0-.333-.13-.333-.329V2.302c0-.199.132-.329.333-.329h25.334c.201 0 .333.13.333.33v17.103c0 .2-.131.329-.333.329h-2.334a1.009 1.009 0 0 0-.716.284.978.978 0 0 0 0 1.405c.19.185.448.288.716.285h2.334c1.275 0 2.333-1.044 2.333-2.303V2.302C30 1.044 28.942 0 27.667 0H2.333zm20 19.735c-.552 0-1 .442-1 .987 0 .545.448.986 1 .986.553 0 1-.441 1-.986a.993.993 0 0 0-1-.987z"/>
    </g>
    <defs>
        <clipPath id="cp0ult0rqa">
            <path fill="#fff" d="M0 0h30v25H0z"/>
        </clipPath>
    </defs>
</svg>
