<svg width="37" height="37" viewBox="0 0 37 37" fill="none" xmlns="http://www.w3.org/2000/svg">
    <g clip-path="url(#tgag5ycvpa)" fill="#98989A">
        <path d="M12.07.285c6.51 0 11.817 5.327 11.817 11.858 0 6.531-5.308 11.826-11.817 11.826S.253 18.643.253 12.111C.253 5.581 5.561.285 12.07.285zm0-.285C5.403 0 0 5.422 0 12.111c0 6.69 5.403 12.112 12.07 12.112 6.667 0 12.07-5.422 12.07-12.112S18.737 0 12.07 0z"/>
        <path d="m20.797 20.516-.224.224 5.831 5.851.224-.224-5.831-5.851zM11.754 15.757v-.126c0-.888.064-1.934 1.58-3.361 1.454-1.364 1.548-2.251 1.548-3.17 0-1.46-.79-2.759-2.685-2.759-1.675 0-2.75.76-3.002 2.758h-.348c.127-1.173.664-3.107 3.35-3.107 2.117 0 3.065 1.427 3.065 3.107 0 1.395-.443 2.22-1.77 3.52-1.01.982-1.39 1.775-1.39 3.012v.126h-.348zm0 3.742v-1.966h.348v1.966h-.348z"/>
        <path d="M27.71 26.157c.412 0 .76.158 1.043.444l7.52 7.546c.57.57.57 1.522 0 2.092a1.484 1.484 0 0 1-1.042.444c-.38 0-.759-.158-1.043-.444l-7.52-7.546a1.496 1.496 0 0 1 0-2.092 1.38 1.38 0 0 1 1.043-.444zm0-.317c-.473 0-.916.19-1.263.539-.695.697-.695 1.839 0 2.568l7.52 7.546c.348.349.822.539 1.264.539.442 0 .916-.19 1.264-.54.695-.697.695-1.838 0-2.567l-7.52-7.546a1.824 1.824 0 0 0-1.264-.54z"/>
    </g>
    <defs>
        <clipPath id="tgag5ycvpa">
            <path fill="#fff" d="M0 0h37v37H0z"/>
        </clipPath>
    </defs>
</svg>
