<svg width="20" height="20" viewBox="0 0 20 20" fill="none" xmlns="http://www.w3.org/2000/svg">
    <path d="m8.7 1.273.02.02.016.016.112.112a.032.032 0 0 0 .027.026c0 .007.004.012.008.017a.03.03 0 0 0 .017.01c0 .002.002.004.003.005a.008.008 0 0 0 .006.003l.023.023c.083.096.173.186.268.27.065.075.121.16.207.216l.018.018c.02.052.073.07.107.107.147.154.299.303.45.454l.026.06c-.004.032-.007.063.014.09a.382.382 0 0 1-.093.131c-.066.065-.129.133-.193.2a.286.286 0 0 0-.092.09.174.174 0 0 0-.071.076.376.376 0 0 0-.142.136l-.151.152-.071.077a.038.038 0 0 0-.026.03L9.18 3.61c-.1.098-.2.195-.297.295a.21.21 0 0 1-.179.07.753.753 0 0 0-.338.05c-.326.119-.551.356-.743.634-.024.036-.012.06.008.09.309.482.286.994-.068 1.45-.035.046-.029.069.008.106.59.591 1.178 1.184 1.765 1.778.06.062.09.065.154 0 .364-.373.734-.742 1.103-1.113.082-.082.177-.107.25-.04.074.065.114.046.164-.02a.611.611 0 0 1 .064-.064c.323-.323.45-.714.397-1.166-.072-.619.011-1.215.26-1.788.026-.057.07-.11.066-.178l.022-.013a.256.256 0 0 0 .055-.114.177.177 0 0 0 .046-.078c.07-.091.14-.182.192-.285l.01-.019a.02.02 0 0 0 .014-.009.02.02 0 0 0 .003-.016l.22-.25a.281.281 0 0 0 .097-.105l-.004-.004.005.003a.032.032 0 0 0 .03-.024l.016-.013a3.347 3.347 0 0 1 2.04-.895c.191-.014.284.126.196.296-.252.487-.51.97-.758 1.458-.405.8.051 1.776.92 1.978.599.14 1.248-.165 1.554-.737.23-.43.451-.863.677-1.294.02-.04.041-.082.064-.121.086-.15.248-.154.34-.004.165.273.288.571.363.883a3.38 3.38 0 0 1-2.56 4.131c-.374.082-.751.083-1.13.037-.364-.043-.698.035-.985.275h.001c-.094.036-.143.125-.217.184-.061.049-.053.084.01.12.02.037.033.078.039.12-.012.088-.077.143-.126.209-.046.047-.106.08-.138.14l-.43.429c-.06.057-.114.119-.175.173-.047.042-.048.07-.002.115.227.223.45.45.675.676l.057.055c.02.036.05.063.089.076.1.141.234.252.355.374 1.794 1.808 3.589 3.616 5.385 5.422.11.11.217.219.295.354l.09.246.005.062a.229.229 0 0 0 .007.109v.075l-.004.054-.057.238a.034.034 0 0 0-.014.015.036.036 0 0 0-.003.021c-.076.16-.197.283-.32.405-.276.274-.544.556-.824.825a.922.922 0 0 1-1.289-.013c-.149-.146-.296-.297-.444-.446-2.08-2.095-4.162-4.19-6.242-6.287-.059-.06-.085-.035-.128.008a1251.007 1251.007 0 0 1-1.9 1.915c-.094.089-.184.094-.283.014-.025-.02-.041-.043-.076-.013-.367.33-.57.73-.52 1.237.024.23.046.461.024.693-.015.159-.04.316-.062.475h.002c-.065.201-.113.41-.198.606-.471 1.09-1.286 1.757-2.438 2.01-.134.03-.27.048-.405.054-.185.01-.273-.131-.188-.296.252-.486.513-.967.757-1.458a1.389 1.389 0 0 0-.98-1.992c-.583-.114-1.213.212-1.51.782-.235.45-.471.9-.704 1.352-.042.082-.095.145-.192.144-.093 0-.143-.063-.186-.138a3.39 3.39 0 0 1 .368-3.882c.683-.784 1.546-1.173 2.581-1.17.139 0 .278.02.416.033.484.049.876-.128 1.197-.486.023-.024.034-.04.006-.075-.099-.124-.092-.193.021-.308L7.77 9.812c.047-.046.053-.07.003-.12a329.69 329.69 0 0 1-1.768-1.779c-.054-.056-.083-.057-.144-.006-.393.33-.962.356-1.396.064-.061-.041-.09-.036-.14.015-.347.36-.71.706-1.052 1.071-.051.055-.112.1-.16.16h.003a.022.022 0 0 0-.02.02l.002-.002-.023.02a.04.04 0 0 0-.032.033l-.019.024.002-.003a.02.02 0 0 0-.02.02v-.001a.054.054 0 0 0-.037.037h.002a.02.02 0 0 0-.02.02l.002-.002-.024.02-.013.013c-.133.124-.263.25-.384.385-.034.028-.08.044-.098.091a.605.605 0 0 0-.122.123l-.025.024-.012.012a.049.049 0 0 0-.031.045c-.148.14-.298.277-.429.433v.001c-.041.027-.085.052-.11.098-.006 0-.009.002-.009.008a.06.06 0 0 0-.04.045l.003-.002a.02.02 0 0 0-.016.005.02.02 0 0 0-.005.016v-.004c-.055.025-.08.078-.111.125h-.002c-.135.107-.252.234-.37.36-.127.135-.231.151-.358.014-.766-.832-.973-1.797-.65-2.878.14-.468.41-.857.755-1.2.433-.43.86-.865 1.293-1.297.044-.044.042-.07.01-.12a1.184 1.184 0 0 1 .072-1.434c.04-.05.033-.071-.007-.11-.11-.105-.215-.214-.322-.323-.092-.093-.095-.196-.003-.289.436-.438.871-.876 1.307-1.312.084-.084.189-.085.274-.001.113.11.225.222.334.336.037.04.059.04.102.004.43-.35.96-.378 1.425-.076.047.03.08.034.127 0 .29-.21.53-.454.63-.812a.69.69 0 0 0 .026-.254c-.007-.08.023-.14.078-.195C6.596.886 6.943.537 7.29.188c.101-.102.165-.11.291-.043l.024.023.026.027a.046.046 0 0 0 .034.034l.039.039a.05.05 0 0 0 .034.034l.074.076.016.017.02.02a.015.015 0 0 0 .005.011.015.015 0 0 0 .012.005l.044.043a.04.04 0 0 0 .029.03l.02.02a.044.044 0 0 0 .033.034.009.009 0 0 0 .01.008l.02.02.018.018.02.021c.021.033.048.06.08.082l.016.016c.032.043.07.08.111.112a.034.034 0 0 0 .028.026.03.03 0 0 0 .008.017c.004.005.01.008.017.01a.009.009 0 0 0 .008.007l.023.023c.02.033.048.06.08.082l.017.016.001.002a.038.038 0 0 0 .03.028l.026.028a.045.045 0 0 0 .034.034l.001.001a.034.034 0 0 0 .027.027l.018.019a.034.034 0 0 0 .026.027l.074.076.017.015zm-6.612 8.43.018-.02a.03.03 0 0 0 .018-.007.03.03 0 0 0 .008-.018l.026-.028.022-.025.004-.001.003-.004.001-.004v-.004c.018.002.037.002.042-.023.115-.102.224-.212.326-.328.036-.014.042-.055.067-.078a.071.071 0 0 0 .016-.01l1.446-1.452c.047-.047.013-.066-.014-.093l-1.507-1.52c-.046-.047-.07-.042-.113.002-.443.45-.89.897-1.334 1.346a2.5 2.5 0 0 0-.74 1.66c-.01.177-.005.353.034.526l.002.019.015.073a.052.052 0 0 0 .012.051.9.9 0 0 1 .005.022c.008.096.047.184.08.273.019.075.032.152.092.209a.076.076 0 0 0 .025.055c.044.122.119.225.197.327.021.05.05.096.086.138.014.016.036.037.053.025.054-.041.137-.057.14-.147l.022-.011a.034.034 0 0 0 .03-.027c.106-.09.197-.195.292-.296a.084.084 0 0 0 .045-.047c.157-.128.294-.275.429-.426l.106-.11.02-.02a.033.033 0 0 0 .026-.028zm6.138-6.03a.12.12 0 0 0 .086-.04c-.082.002-.057-.088-.112-.108-.008-.016-.018-.03-.039-.03a1.416 1.416 0 0 0-.267-.264c-.003-.036-.026-.054-.06-.06v-.002c-.104-.129-.23-.238-.345-.356a3.574 3.574 0 0 0-.474-.467c-.065-.108-.164-.185-.253-.27a.048.048 0 0 0-.05-.037c-.066-.075-.129-.154-.218-.217-.127.403-.381.697-.707.935-.057.043-.047.064-.004.108.498.499.995 1 1.491 1.501.047.048.07.046.108-.008l.844-.685zm2.516 3.682-.068.064-4.652 4.684c-.113.114-.112.113-.002.223.557.56 1.114 1.122 1.669 1.684.06.062.09.067.155.002 1.272-1.284 2.545-2.568 3.82-3.849.293-.295.586-.592.881-.885.045-.045.049-.073 0-.115-.052-.046-.1-.098-.149-.146l-1.593-1.604c-.019-.02-.039-.038-.06-.058zm-8.16-3.422c.032-.004.045-.026.062-.043.313-.314.624-.63.938-.943.048-.048.062-.08.002-.128a.928.928 0 0 1-.134-.136c-.043-.053-.071-.05-.12-.001-.263.27-.53.534-.795.803-.065.066-.183.126-.179.204.005.083.122.14.188.211a.426.426 0 0 0 .038.033z" fill="#DDC9A3"/>
    <path d="M7.662.23A.045.045 0 0 1 7.63.194a.032.032 0 0 1 .033.034zM7.99.557a.043.043 0 0 1-.033-.034.032.032 0 0 1 .033.034zM8.875 1.447a.032.032 0 0 1-.027-.025c.016.001.028.006.027.025zM8.293.862a.034.034 0 0 1-.027-.026c.016.001.028.006.027.026zM12.484 2.8a.033.033 0 0 1-.03.025c-.005-.026.012-.024.03-.024zM8.446 1.016 8.43 1l.016.016zM8.347.918 8.324.895a.022.022 0 0 1 .023.023zM8.7 1.274l-.016-.016.016.016zM8.153.723 8.137.707l.016.016zM8.93 1.504l-.024-.024a.022.022 0 0 1 .023.024zM8.06.626l-.02-.02a.018.018 0 0 1 .02.02zM8.038.603 8.02.586c.012-.001.018.005.018.017zM8.02.587 8 .567c.013 0 .02.006.02.02zM7.864.43a.015.015 0 0 1-.016-.016l.016.016zM7.829.395 7.813.38l.016.016zM11.793 3.715l.004-.024.018.01-.022.014zM7.04 1.809c.017.001.024.012.025.028a.033.033 0 0 1-.026-.028zM8.02 2.8c.012 0 .018.006.018.019L8.02 2.8zM8.04 2.82c.012 0 .017.006.017.018L8.04 2.82zM8.055 2.84c.013-.001.018.005.018.018a.82.82 0 0 1-.018-.018z" fill="#DDC9A3"/>
    <path d="M8.004 2.785c.013 0 .018.005.018.018l-.018-.018zM7.164 1.938c.007.003.023-.002.015.015l-.015-.016zM2.954 9.383l-.024.02.024-.02zM8.855 1.968a.022.022 0 0 1-.023-.027l.023.027zM3.098 9.234l-.024.02.024-.02zM12.121 3.205l.016-.025v.008a.022.022 0 0 1-.002.008.021.021 0 0 1-.014.01zM7.293 2.066c.01 0 .017.003.01.014a.371.371 0 0 0-.01-.014zM7.133 1.898l.022.028a.03.03 0 0 1-.022-.028zM7.052 12.353c-.095 0-.152-.036-.185-.105-.039-.085-.018-.161.047-.225.177-.18.355-.358.533-.537l3.134-3.155c.096-.096.207-.102.288-.018.075.076.066.188-.023.283l-.032.033a6381.23 6381.23 0 0 0-3.596 3.62c-.05.052-.101.108-.166.104zM11.7 9.236c.003.056-.027.1-.068.14l-2.594 2.612c-.353.356-.71.707-1.058 1.068-.097.102-.223.103-.295.033-.083-.08-.073-.196.027-.298a4585.365 4585.365 0 0 1 3.636-3.66c.058-.058.118-.104.207-.083a.18.18 0 0 1 .145.188z" fill="#DDC9A3"/>
</svg>
