
<svg width="224" height="45" viewBox="0 0 224 45" fill="none" xmlns="http://www.w3.org/2000/svg">
    <mask id="dixtm8h9cb" style="mask-type:alpha" maskUnits="userSpaceOnUse" x="0" y="0" width="224" height="45">
        <path d="M0 8a8 8 0 0 1 8-8h195.257a7.998 7.998 0 0 1 7.59 5.474L224 45H0V8z" fill="url(#n0776y47ga)"/>
    </mask>
    <g mask="url(#dixtm8h9cb)">
        <g filter="url(#kcauw2ok3c)">
            <path d="M25 8a8 8 0 0 1 8-8h269.121a8 8 0 0 1 7.524 5.28L324 45H25V8z" fill="url(#e0wtk45zvd)"/>
        </g>
        <path d="M25 40h306.674v5H25v-5z" fill="#BC955C"/>
    </g>
    <defs>
        <linearGradient id="n0776y47ga" x1="239.42" y1="-31.997" x2="8.215" y2="-9.292" gradientUnits="userSpaceOnUse">
            <stop stop-color="#0C7486"/>
            <stop offset="1" stop-color="#065462"/>
        </linearGradient>
        <linearGradient id="e0wtk45zvd" x1="300.689" y1="-18.998" x2="136.94" y2="4.581" gradientUnits="userSpaceOnUse">
            <stop stop-color="#0C7486"/>
            <stop offset="1" stop-color="#065462"/>
        </linearGradient>
        <filter id="kcauw2ok3c" x="21" y="-6" width="311" height="57" filterUnits="userSpaceOnUse" color-interpolation-filters="sRGB">
            <feFlood flood-opacity="0" result="BackgroundImageFix"/>
            <feColorMatrix in="SourceAlpha" values="0 0 0 0 0 0 0 0 0 0 0 0 0 0 0 0 0 0 127 0" result="hardAlpha"/>
            <feOffset dx="2"/>
            <feGaussianBlur stdDeviation="3"/>
            <feComposite in2="hardAlpha" operator="out"/>
            <feColorMatrix values="0 0 0 0 0 0 0 0 0 0 0 0 0 0 0 0 0 0 0.12 0"/>
            <feBlend in2="BackgroundImageFix" result="effect1_dropShadow_13115_91733"/>
            <feBlend in="SourceGraphic" in2="effect1_dropShadow_13115_91733" result="shape"/>
        </filter>
    </defs>
</svg>
