<svg width="147" height="46" viewBox="0 0 147 46" fill="none" xmlns="http://www.w3.org/2000/svg">
    <path d="M0 8.632a8 8 0 0 1 8-8h124.3a8 8 0 0 1 7.877 6.6l6.823 38.4H0v-37z" fill="url(#t9e42pkvja)"/>
    <path d="M19.833 26.448a5.77 5.77 0 0 0 4.108-1.702 5.825 5.825 0 0 0 0-8.223 5.769 5.769 0 0 0-4.108-1.703c-1.552 0-3.01.605-4.108 1.703a5.778 5.778 0 0 0-1.702 4.111c0 1.553.605 3.013 1.702 4.112a5.769 5.769 0 0 0 4.108 1.703zm-3.528-9.345a4.955 4.955 0 0 1 3.528-1.463c1.333 0 2.586.52 3.528 1.463a5.003 5.003 0 0 1 0 7.063 4.955 4.955 0 0 1-3.528 1.462 4.955 4.955 0 0 1-3.528-1.462 4.964 4.964 0 0 1-1.462-3.532c0-1.334.52-2.588 1.462-3.531z" fill="#DDC9A3"/>
    <path d="M18.502 21.962v1.599c0 .511.416.928.927.928h.804a.929.929 0 0 0 .928-.928v-1.6h1.598a.929.929 0 0 0 .927-.928v-.805a.929.929 0 0 0-.927-.928H21.16v-1.599a.929.929 0 0 0-.928-.928h-.804a.929.929 0 0 0-.927.928v1.6h-1.598a.929.929 0 0 0-.927.927v.805c0 .512.415.929.927.929h1.598zm-1.706-.929v-.805c0-.06.049-.108.108-.108h2.007a.41.41 0 0 0 .41-.41v-2.009c0-.06.049-.108.108-.108h.804c.06 0 .108.049.108.108v2.01c0 .226.184.41.41.41h2.008c.059 0 .107.048.107.107v.805c0 .06-.048.108-.107.108H20.75a.41.41 0 0 0-.41.41v2.01c0 .06-.048.108-.108.108h-.804a.108.108 0 0 1-.108-.108v-2.01a.41.41 0 0 0-.41-.41h-2.007a.108.108 0 0 1-.108-.108z" fill="#DDC9A3"/>
    <path d="M33.473 14.113a1.14 1.14 0 0 0-.598-.643l-.666-.304a1.148 1.148 0 0 0-1.52.567l-.822 1.802v-5.193a2.303 2.303 0 0 0-2.3-2.302H23.69v-.086c0-.729-.592-1.322-1.32-1.322h-5.732c-.728 0-1.32.593-1.32 1.322v.086H11.44a2.303 2.303 0 0 0-2.3 2.302V32.33a2.303 2.303 0 0 0 2.3 2.301h16.127c1.268 0 2.3-1.032 2.3-2.301v-9.508l3.575-7.832c.127-.279.138-.59.031-.878zm-1.74-.23c.045 0 .091.009.135.029l.666.304c.165.075.237.27.162.434l-.36.788-1.26-.576.359-.788a.327.327 0 0 1 .298-.192zm.031 2.809-1.26-.577.23-.507 1.262.576-.232.508zm-6.51 14.262-1.26-.576 6.169-13.517 1.26.577-6.168 13.516zm-1.47.23 1 .457-1.583 2.145.582-2.603zm1.96.538c.108-.146.2-.303.275-.467l1.137-2.49v2.796a.446.446 0 0 1-.442.446l-1.186.007.216-.292zM16.137 7.954c0-.276.225-.501.501-.501h5.732c.276 0 .5.225.5.501v1.053a.502.502 0 0 1-.5.501h-5.732a.502.502 0 0 1-.501-.501V7.954zM9.96 32.331V10.34c0-.673.453-1.244 1.07-1.422v19.06a.41.41 0 1 0 .82 0V8.86h3.467v.146c0 .729.593 1.322 1.321 1.322h5.732c.728 0 1.32-.593 1.32-1.322V8.86h3.465v3.254a.41.41 0 1 0 .82 0V8.918a1.484 1.484 0 0 1 1.072 1.424v6.989l-1.072 2.35v-5.926a.41.41 0 1 0-.82 0v7.721l-3.888 8.52a2.623 2.623 0 0 0-.173.514l-.34 1.522-10.457.067h-.003a.442.442 0 0 1-.445-.445v-2.035a.41.41 0 1 0-.82 0v2.034c0 .34.133.659.374.898.239.238.555.368.891.368h.009l10.267-.066-.218.96H11.44c-.816 0-1.48-.665-1.48-1.482zm19.087 0c0 .817-.664 1.481-1.48 1.481h-3.366l.718-.973 1.8-.012a1.268 1.268 0 0 0 1.256-1.266V26.97l1.072-2.35v7.712z" fill="#DDC9A3"/>
    <path d="M0 40.632h146.141l.859 5H0v-5z" fill="#BC955C"/>
    <path d="M46.289 26.792c-1.547 0-2.752-.432-3.616-1.296-.864-.874-1.296-2.122-1.296-3.744v-6.32h2.08v6.24c0 2.198.95 3.296 2.848 3.296 1.888 0 2.832-1.098 2.832-3.296v-6.24h2.048v6.32c0 1.622-.432 2.87-1.296 3.744-.854.864-2.054 1.296-3.6 1.296zm12.465-8.8c1.077 0 1.941.315 2.592.944.65.63.976 1.563.976 2.8v4.896h-2v-4.64c0-.746-.176-1.306-.528-1.68-.352-.384-.854-.576-1.504-.576-.736 0-1.318.224-1.744.672-.427.438-.64 1.072-.64 1.904v4.32h-2v-8.544h1.904v1.104c.33-.394.746-.693 1.248-.896.501-.202 1.066-.304 1.696-.304zm6.105.096h2v8.544h-2v-8.544zm1.008-1.408c-.363 0-.667-.112-.912-.336a1.149 1.149 0 0 1-.368-.864c0-.341.123-.624.368-.848.245-.234.55-.352.912-.352s.666.112.912.336c.245.214.368.486.368.816 0 .352-.123.651-.368.896-.235.235-.539.352-.912.352zm11.985-1.92v11.872h-1.92v-1.104c-.33.406-.742.71-1.232.912a4.074 4.074 0 0 1-1.6.304c-.822 0-1.563-.181-2.224-.544a3.937 3.937 0 0 1-1.536-1.536c-.374-.672-.56-1.44-.56-2.304 0-.864.186-1.626.56-2.288a3.938 3.938 0 0 1 1.536-1.536c.661-.362 1.402-.544 2.224-.544.565 0 1.083.096 1.552.288.47.192.87.48 1.2.864V14.76h2zM73.34 25.032c.48 0 .912-.106 1.296-.32.384-.224.688-.538.912-.944.224-.405.336-.874.336-1.408 0-.533-.112-1.002-.336-1.408a2.316 2.316 0 0 0-.912-.928 2.524 2.524 0 0 0-1.296-.336c-.48 0-.912.112-1.296.336a2.316 2.316 0 0 0-.912.928c-.224.406-.336.875-.336 1.408 0 .534.112 1.003.336 1.408.224.406.528.72.912.944.384.214.816.32 1.296.32zm10.392-7.04c1.259 0 2.219.304 2.88.912.672.598 1.008 1.504 1.008 2.72v5.008h-1.888v-1.04c-.245.374-.597.662-1.056.864-.448.192-.992.288-1.632.288-.64 0-1.2-.106-1.68-.32-.48-.224-.853-.528-1.12-.912a2.387 2.387 0 0 1-.384-1.328c0-.768.283-1.381.848-1.84.576-.469 1.478-.704 2.704-.704h2.208v-.128c0-.597-.181-1.056-.544-1.376-.352-.32-.88-.48-1.584-.48-.48 0-.954.075-1.424.224-.458.15-.848.358-1.168.624l-.784-1.456c.448-.341.987-.602 1.616-.784a7.191 7.191 0 0 1 2-.272zm-.272 7.296c.502 0 .944-.112 1.328-.336a1.9 1.9 0 0 0 .832-.992v-.992h-2.064c-1.152 0-1.728.379-1.728 1.136 0 .363.144.651.432.864.288.214.688.32 1.2.32zM98.633 14.76v11.872h-1.92v-1.104c-.33.406-.741.71-1.232.912a4.073 4.073 0 0 1-1.6.304c-.821 0-1.563-.181-2.224-.544a3.938 3.938 0 0 1-1.536-1.536c-.373-.672-.56-1.44-.56-2.304 0-.864.187-1.626.56-2.288a3.94 3.94 0 0 1 1.536-1.536c.662-.362 1.403-.544 2.224-.544.566 0 1.083.096 1.552.288.47.192.87.48 1.2.864V14.76h2zm-4.512 10.272c.48 0 .912-.106 1.296-.32.384-.224.688-.538.912-.944.224-.405.336-.874.336-1.408 0-.533-.112-1.002-.336-1.408a2.316 2.316 0 0 0-.912-.928 2.524 2.524 0 0 0-1.296-.336c-.48 0-.912.112-1.296.336a2.316 2.316 0 0 0-.912.928c-.224.406-.336.875-.336 1.408 0 .534.112 1.003.336 1.408.224.406.528.72.912.944.384.214.816.32 1.296.32zm15.161-2.624c0 .139-.011.336-.032.592h-6.704c.117.63.421 1.131.912 1.504.501.363 1.12.544 1.856.544.938 0 1.712-.309 2.32-.928l1.072 1.232c-.384.459-.87.806-1.456 1.04-.587.235-1.248.352-1.984.352-.939 0-1.766-.186-2.48-.56a4.097 4.097 0 0 1-1.664-1.552c-.384-.672-.576-1.429-.576-2.272 0-.832.186-1.578.56-2.24a4.07 4.07 0 0 1 1.584-1.568c.672-.373 1.429-.56 2.272-.56.832 0 1.573.187 2.224.56.661.363 1.173.88 1.536 1.552.373.662.56 1.43.56 2.304zm-4.32-2.816c-.64 0-1.184.192-1.632.576-.438.374-.704.875-.8 1.504h4.848c-.086-.618-.347-1.12-.784-1.504-.438-.384-.982-.576-1.632-.576zm8.881 7.152c-.694 0-1.371-.09-2.032-.272-.662-.181-1.19-.41-1.584-.688l.768-1.52a5.11 5.11 0 0 0 1.376.624c.544.15 1.077.224 1.6.224 1.194 0 1.792-.314 1.792-.944 0-.298-.155-.506-.464-.624-.299-.117-.784-.229-1.456-.336-.704-.106-1.28-.229-1.728-.368a2.727 2.727 0 0 1-1.152-.72c-.32-.352-.48-.837-.48-1.456 0-.81.336-1.456 1.008-1.936.682-.49 1.6-.736 2.752-.736.586 0 1.173.07 1.76.208.586.128 1.066.304 1.44.528l-.768 1.52c-.726-.426-1.542-.64-2.448-.64-.587 0-1.035.091-1.344.272-.299.171-.448.4-.448.688 0 .32.16.55.48.688.33.128.837.251 1.52.368.682.107 1.242.23 1.68.368.437.139.81.374 1.12.704.32.331.48.8.48 1.408 0 .8-.347 1.44-1.04 1.92-.694.48-1.638.72-2.832.72z" fill="#fff"/>
    <defs>
        <linearGradient id="t9e42pkvja" x1="135.54" y1="-18.366" x2="53.774" y2="-12.578" gradientUnits="userSpaceOnUse">
            <stop stop-color="#0C7486"/>
            <stop offset="1" stop-color="#065462"/>
        </linearGradient>
    </defs>
</svg>
