<svg width="248" height="36" viewBox="0 0 248 36" fill="none" xmlns="http://www.w3.org/2000/svg">
<g filter="url(#filter0_d_2729_15080)">
<path d="M4 14C4 9.58172 7.58172 6 12 6H221.952C224.912 6 227.63 7.63472 229.018 10.2495L239.5 30H4V14Z" fill="url(#paint0_linear_2729_15080)"/>
</g>
<path d="M4 30L239.449 30L240.5 32L4 32V30Z" fill="#BC955C"/>
<path d="M31.7251 25.5197C26.5017 25.5197 21.2234 25.5197 16 25.5197C16 22.9355 16 20.3513 16 17.7672C16.11 17.6022 16.2749 17.4922 16.4948 17.4922C17.4845 17.4922 18.4192 17.4922 19.4089 17.4922C19.6838 17.4922 19.6838 17.4922 19.6838 17.2173C19.6838 15.073 19.6838 12.8737 19.6838 10.7294C19.6289 10.3995 19.7388 10.2895 20.1237 10.2895C22.7079 10.2895 25.2921 10.2895 27.8763 10.2895C28.2612 10.2895 28.3711 10.3995 28.3711 10.7843C28.3711 12.9287 28.3711 15.128 28.3711 17.2723C28.3711 17.5472 28.3711 17.5472 28.5911 17.5472C29.5808 17.5472 30.5155 17.5472 31.5052 17.5472C31.8351 17.5472 32 17.7122 32 18.0421C32 20.4063 32 22.7706 32 25.1348C32 25.2998 31.945 25.4647 31.7251 25.5197ZM20.3986 17.9321C20.3986 18.5919 20.3986 19.1967 20.3986 19.8565C20.3986 21.451 20.3986 22.9905 20.3986 24.585C20.3986 24.805 20.3986 24.805 20.6186 24.805C20.9485 24.805 21.2784 24.805 21.5533 24.805C21.7732 24.805 21.7732 24.805 21.7732 24.585C21.7732 23.7053 21.7732 22.8806 21.7732 22.0008C21.7732 21.6709 21.9381 21.506 22.268 21.506C23.4227 21.506 24.5773 21.506 25.677 21.506C26.0069 21.506 26.1718 21.6709 26.1718 22.0008C26.1718 22.8806 26.1718 23.7053 26.1718 24.585C26.1718 24.75 26.2268 24.805 26.3918 24.805C26.7216 24.805 27.0515 24.805 27.3265 24.805C27.6014 24.805 27.6014 24.805 27.6014 24.53C27.6014 20.1314 27.6014 15.7328 27.6014 11.3342C27.6014 11.0592 27.6014 11.0592 27.3265 11.0592C25.1271 11.0592 22.8729 11.0592 20.6735 11.0592C20.3986 11.0592 20.3986 11.0592 20.3986 11.3342C20.3986 13.5335 20.3986 15.7328 20.3986 17.9321ZM16.7698 21.561C16.7698 22.5507 16.7698 23.5953 16.7698 24.585C16.7698 24.75 16.8247 24.805 16.9897 24.805C17.8144 24.805 18.5842 24.805 19.4089 24.805C19.6289 24.805 19.6289 24.805 19.6289 24.585C19.6289 22.5507 19.6289 20.5713 19.6289 18.5369C19.6289 18.317 19.6289 18.317 19.4089 18.317C18.5842 18.317 17.8144 18.317 16.9897 18.317C16.7698 18.317 16.7698 18.317 16.7698 18.5369C16.7698 19.5266 16.7698 20.5163 16.7698 21.561ZM31.2302 21.561C31.2302 20.5713 31.2302 19.5266 31.2302 18.5369C31.2302 18.372 31.1753 18.317 31.0103 18.317C30.1856 18.317 29.3608 18.317 28.5361 18.317C28.3711 18.317 28.3162 18.372 28.3162 18.5369C28.3162 20.5713 28.3162 22.5507 28.3162 24.585C28.3162 24.805 28.3162 24.805 28.5361 24.805C29.3608 24.805 30.1306 24.805 30.9553 24.805C31.2302 24.805 31.2302 24.805 31.2302 24.585C31.2302 23.5403 31.2302 22.5507 31.2302 21.561ZM23.9725 22.2757C23.5876 22.2757 23.1478 22.2757 22.7629 22.2757C22.5979 22.2757 22.543 22.3307 22.543 22.4957C22.543 23.2105 22.543 23.9252 22.543 24.585C22.543 24.75 22.5979 24.805 22.7629 24.805C23.5876 24.805 24.4124 24.805 25.1821 24.805C25.3471 24.805 25.4021 24.75 25.4021 24.585C25.4021 23.8702 25.4021 23.1555 25.4021 22.4957C25.4021 22.3307 25.3471 22.2757 25.1821 22.2757C24.7973 22.2757 24.4124 22.2757 23.9725 22.2757Z" fill="#E4D5BE"/>
<path d="M23.9719 16.8325C23.752 16.8325 23.532 16.8325 23.3121 16.8325C22.9822 16.8325 22.8722 16.7225 22.8722 16.3926C22.8722 16.1177 22.8722 15.8428 22.8722 15.5679C22.8722 15.4579 22.8172 15.4029 22.7073 15.4029C22.4324 15.4029 22.1575 15.4029 21.8825 15.4029C21.5526 15.4029 21.3877 15.238 21.3877 14.9081C21.3877 14.4682 21.3877 14.0833 21.3877 13.6435C21.3877 13.3136 21.5526 13.2036 21.8276 13.2036C22.1025 13.2036 22.3774 13.2036 22.6523 13.2036C22.7623 13.2036 22.8172 13.1486 22.8172 13.0386C22.8172 12.7637 22.8172 12.4338 22.8172 12.1589C22.8172 11.884 22.9822 11.774 23.2021 11.7191C23.697 11.7191 24.1368 11.7191 24.6317 11.7191C24.9066 11.7191 25.0166 11.884 25.0166 12.1589C25.0166 12.4338 25.0166 12.7087 25.0166 12.9837C25.0166 13.1486 25.0715 13.2036 25.2365 13.2036C25.5114 13.2036 25.7863 13.2036 26.0612 13.2036C26.3361 13.2036 26.5011 13.3685 26.5011 13.6435C26.5011 14.0833 26.5011 14.5232 26.5011 14.963C26.5011 15.238 26.3361 15.4029 26.0612 15.4029C25.7863 15.4029 25.5114 15.4029 25.2365 15.4029C25.1265 15.4029 25.0715 15.4579 25.0715 15.5679C25.0715 15.8428 25.0715 16.1177 25.0715 16.3926C25.0715 16.7225 24.9616 16.8325 24.6317 16.8325C24.4117 16.8325 24.1918 16.8325 23.9719 16.8325ZM22.8172 14.6331C22.9272 14.6331 23.0922 14.6331 23.2021 14.6331C23.477 14.6331 23.642 14.7981 23.642 15.073C23.642 15.238 23.642 15.4579 23.642 15.6228C23.642 16.1177 23.587 16.0627 24.0819 16.0627C24.2468 16.0627 24.3018 16.0077 24.3018 15.8428C24.3018 15.5679 24.3018 15.2929 24.3018 15.018C24.3018 14.7431 24.4667 14.5782 24.7416 14.5782C24.9066 14.5782 25.0715 14.5782 25.2915 14.5782C25.8413 14.5782 25.7863 14.6881 25.7863 14.0833C25.7863 13.9734 25.7313 13.9184 25.6214 13.9184C25.3465 13.9184 25.1265 13.9184 24.8516 13.9184C24.5217 13.9184 24.3568 13.7534 24.3568 13.4235C24.3568 13.1486 24.3568 12.9287 24.3568 12.6538C24.3568 12.4888 24.3018 12.4338 24.1368 12.4338C24.0819 12.4338 24.0269 12.4338 23.9169 12.4338C23.642 12.4338 23.642 12.4338 23.642 12.7087C23.642 12.9837 23.642 13.2036 23.642 13.4785C23.642 13.7534 23.477 13.9184 23.2021 13.9184C23.0372 13.9184 22.8722 13.9184 22.7073 13.9184C22.1025 13.9184 22.2124 13.8084 22.2124 14.4132C22.2124 14.5232 22.2674 14.5782 22.3774 14.5782C22.5423 14.6331 22.6523 14.6331 22.8172 14.6331Z" fill="#E4D5BE"/>
<path d="M48.2888 24.0326C46.7954 24.0326 45.6328 23.606 44.8008 22.7526C43.9688 21.8993 43.5528 20.6726 43.5528 19.0726V12.7046H45.1528V19.0086C45.1528 21.4086 46.2034 22.6086 48.3048 22.6086C49.3288 22.6086 50.1128 22.3153 50.6568 21.7286C51.2008 21.1313 51.4728 20.2246 51.4728 19.0086V12.7046H53.0248V19.0726C53.0248 20.6833 52.6088 21.9153 51.7768 22.7686C50.9448 23.6113 49.7821 24.0326 48.2888 24.0326ZM60.609 15.3446C61.6863 15.3446 62.5397 15.6593 63.169 16.2886C63.809 16.9073 64.129 17.8193 64.129 19.0246V23.9046H62.593V19.2006C62.593 18.3793 62.3957 17.7606 62.001 17.3446C61.6063 16.9286 61.041 16.7206 60.305 16.7206C59.473 16.7206 58.817 16.966 58.337 17.4566C57.857 17.9366 57.617 18.63 57.617 19.5366V23.9046H56.081V15.4246H57.553V16.7046C57.8623 16.2673 58.2783 15.9313 58.801 15.6966C59.3343 15.462 59.937 15.3446 60.609 15.3446ZM66.9716 15.4246H68.5076V23.9046H66.9716V15.4246ZM67.7396 13.7926C67.441 13.7926 67.1903 13.6966 66.9876 13.5046C66.7956 13.3126 66.6996 13.078 66.6996 12.8006C66.6996 12.5233 66.7956 12.2886 66.9876 12.0966C67.1903 11.894 67.441 11.7926 67.7396 11.7926C68.0383 11.7926 68.2836 11.8886 68.4756 12.0806C68.6783 12.262 68.7796 12.4913 68.7796 12.7686C68.7796 13.0566 68.6783 13.302 68.4756 13.5046C68.2836 13.6966 68.0383 13.7926 67.7396 13.7926ZM79.4404 12.0326V23.9046H77.9684V22.5606C77.627 23.03 77.195 23.3873 76.6724 23.6326C76.1497 23.878 75.5737 24.0006 74.9444 24.0006C74.123 24.0006 73.387 23.8193 72.7364 23.4566C72.0857 23.094 71.5737 22.5873 71.2004 21.9366C70.8377 21.2753 70.6564 20.518 70.6564 19.6646C70.6564 18.8113 70.8377 18.0593 71.2004 17.4086C71.5737 16.758 72.0857 16.2513 72.7364 15.8886C73.387 15.526 74.123 15.3446 74.9444 15.3446C75.5524 15.3446 76.1124 15.462 76.6244 15.6966C77.1364 15.9206 77.563 16.2566 77.9044 16.7046V12.0326H79.4404ZM75.0724 22.6566C75.6057 22.6566 76.091 22.534 76.5284 22.2886C76.9657 22.0326 77.307 21.6806 77.5524 21.2326C77.7977 20.774 77.9204 20.2513 77.9204 19.6646C77.9204 19.078 77.7977 18.5606 77.5524 18.1126C77.307 17.654 76.9657 17.302 76.5284 17.0566C76.091 16.8113 75.6057 16.6886 75.0724 16.6886C74.5284 16.6886 74.0377 16.8113 73.6004 17.0566C73.1737 17.302 72.8324 17.654 72.5764 18.1126C72.331 18.5606 72.2084 19.078 72.2084 19.6646C72.2084 20.2513 72.331 20.774 72.5764 21.2326C72.8324 21.6806 73.1737 22.0326 73.6004 22.2886C74.0377 22.534 74.5284 22.6566 75.0724 22.6566ZM85.4346 15.3446C86.608 15.3446 87.504 15.6326 88.1226 16.2086C88.752 16.7846 89.0666 17.6433 89.0666 18.7846V23.9046H87.6106V22.7846C87.3546 23.1793 86.9866 23.4833 86.5066 23.6966C86.0373 23.8993 85.4773 24.0006 84.8266 24.0006C83.8773 24.0006 83.1146 23.7713 82.5386 23.3126C81.9733 22.854 81.6906 22.2513 81.6906 21.5046C81.6906 20.758 81.9626 20.1606 82.5066 19.7126C83.0506 19.254 83.9146 19.0246 85.0986 19.0246H87.5306V18.7206C87.5306 18.0593 87.3386 17.5526 86.9546 17.2006C86.5706 16.8486 86.0053 16.6726 85.2586 16.6726C84.7573 16.6726 84.2666 16.758 83.7866 16.9286C83.3066 17.0886 82.9013 17.3073 82.5706 17.5846L81.9306 16.4326C82.368 16.0806 82.8906 15.814 83.4986 15.6326C84.1066 15.4406 84.752 15.3446 85.4346 15.3446ZM85.0826 22.8166C85.6693 22.8166 86.176 22.6886 86.6026 22.4326C87.0293 22.166 87.3386 21.7926 87.5306 21.3126V20.1286H85.1626C83.8613 20.1286 83.2106 20.566 83.2106 21.4406C83.2106 21.8673 83.376 22.2033 83.7066 22.4486C84.0373 22.694 84.496 22.8166 85.0826 22.8166ZM99.956 12.0326V23.9046H98.484V22.5606C98.1427 23.03 97.7107 23.3873 97.188 23.6326C96.6653 23.878 96.0893 24.0006 95.46 24.0006C94.6387 24.0006 93.9027 23.8193 93.252 23.4566C92.6013 23.094 92.0893 22.5873 91.716 21.9366C91.3533 21.2753 91.172 20.518 91.172 19.6646C91.172 18.8113 91.3533 18.0593 91.716 17.4086C92.0893 16.758 92.6013 16.2513 93.252 15.8886C93.9027 15.526 94.6387 15.3446 95.46 15.3446C96.068 15.3446 96.628 15.462 97.14 15.6966C97.652 15.9206 98.0787 16.2566 98.42 16.7046V12.0326H99.956ZM95.588 22.6566C96.1213 22.6566 96.6067 22.534 97.044 22.2886C97.4813 22.0326 97.8227 21.6806 98.068 21.2326C98.3133 20.774 98.436 20.2513 98.436 19.6646C98.436 19.078 98.3133 18.5606 98.068 18.1126C97.8227 17.654 97.4813 17.302 97.044 17.0566C96.6067 16.8113 96.1213 16.6886 95.588 16.6886C95.044 16.6886 94.5533 16.8113 94.116 17.0566C93.6893 17.302 93.348 17.654 93.092 18.1126C92.8467 18.5606 92.724 19.078 92.724 19.6646C92.724 20.2513 92.8467 20.774 93.092 21.2326C93.348 21.6806 93.6893 22.0326 94.116 22.2886C94.5533 22.534 95.044 22.6566 95.588 22.6566ZM110.526 19.7126C110.526 19.83 110.516 19.9846 110.494 20.1766H103.614C103.71 20.9233 104.036 21.526 104.59 21.9846C105.156 22.4326 105.854 22.6566 106.686 22.6566C107.7 22.6566 108.516 22.3153 109.134 21.6326L109.982 22.6246C109.598 23.0726 109.118 23.414 108.542 23.6486C107.977 23.8833 107.342 24.0006 106.638 24.0006C105.742 24.0006 104.948 23.8193 104.254 23.4566C103.561 23.0833 103.022 22.566 102.638 21.9046C102.265 21.2433 102.078 20.4966 102.078 19.6646C102.078 18.8433 102.26 18.102 102.622 17.4406C102.996 16.7793 103.502 16.2673 104.142 15.9046C104.793 15.5313 105.524 15.3446 106.334 15.3446C107.145 15.3446 107.865 15.5313 108.494 15.9046C109.134 16.2673 109.63 16.7793 109.982 17.4406C110.345 18.102 110.526 18.8593 110.526 19.7126ZM106.334 16.6406C105.598 16.6406 104.98 16.8646 104.478 17.3126C103.988 17.7606 103.7 18.3473 103.614 19.0726H109.054C108.969 18.358 108.676 17.7766 108.174 17.3286C107.684 16.87 107.07 16.6406 106.334 16.6406ZM115.091 24.0006C114.398 24.0006 113.731 23.91 113.091 23.7286C112.451 23.5366 111.95 23.2966 111.587 23.0086L112.227 21.7926C112.6 22.0593 113.054 22.2726 113.587 22.4326C114.12 22.5926 114.659 22.6726 115.203 22.6726C116.547 22.6726 117.219 22.2886 117.219 21.5206C117.219 21.2646 117.128 21.062 116.947 20.9126C116.766 20.7633 116.536 20.6566 116.259 20.5926C115.992 20.518 115.608 20.438 115.107 20.3526C114.424 20.246 113.864 20.1233 113.427 19.9846C113 19.846 112.632 19.6113 112.323 19.2806C112.014 18.95 111.859 18.486 111.859 17.8886C111.859 17.1206 112.179 16.5073 112.819 16.0486C113.459 15.5793 114.318 15.3446 115.395 15.3446C115.96 15.3446 116.526 15.414 117.091 15.5526C117.656 15.6913 118.12 15.878 118.483 16.1126L117.827 17.3286C117.134 16.8806 116.318 16.6566 115.379 16.6566C114.728 16.6566 114.232 16.7633 113.891 16.9766C113.55 17.19 113.379 17.4726 113.379 17.8246C113.379 18.102 113.475 18.3206 113.667 18.4806C113.859 18.6406 114.094 18.758 114.371 18.8326C114.659 18.9073 115.059 18.9926 115.571 19.0886C116.254 19.206 116.803 19.334 117.219 19.4726C117.646 19.6006 118.008 19.8246 118.307 20.1446C118.606 20.4646 118.755 20.9126 118.755 21.4886C118.755 22.2566 118.424 22.87 117.763 23.3286C117.112 23.7766 116.222 24.0006 115.091 24.0006ZM128.668 24.0006C127.804 24.0006 127.03 23.814 126.348 23.4406C125.676 23.0673 125.148 22.5553 124.764 21.9046C124.38 21.2433 124.188 20.4966 124.188 19.6646C124.188 18.8326 124.38 18.0913 124.764 17.4406C125.148 16.7793 125.676 16.2673 126.348 15.9046C127.03 15.5313 127.804 15.3446 128.668 15.3446C129.436 15.3446 130.118 15.4993 130.716 15.8086C131.324 16.118 131.793 16.566 132.124 17.1526L130.956 17.9046C130.689 17.4993 130.358 17.1953 129.964 16.9926C129.569 16.79 129.132 16.6886 128.652 16.6886C128.097 16.6886 127.596 16.8113 127.148 17.0566C126.71 17.302 126.364 17.654 126.108 18.1126C125.862 18.5606 125.74 19.078 125.74 19.6646C125.74 20.262 125.862 20.79 126.108 21.2486C126.364 21.6966 126.71 22.0433 127.148 22.2886C127.596 22.534 128.097 22.6566 128.652 22.6566C129.132 22.6566 129.569 22.5553 129.964 22.3526C130.358 22.15 130.689 21.846 130.956 21.4406L132.124 22.1766C131.793 22.7633 131.324 23.2166 130.716 23.5366C130.118 23.846 129.436 24.0006 128.668 24.0006ZM137.619 24.0006C136.777 24.0006 136.019 23.814 135.347 23.4406C134.675 23.0673 134.147 22.5553 133.763 21.9046C133.39 21.2433 133.203 20.4966 133.203 19.6646C133.203 18.8326 133.39 18.0913 133.763 17.4406C134.147 16.7793 134.675 16.2673 135.347 15.9046C136.019 15.5313 136.777 15.3446 137.619 15.3446C138.462 15.3446 139.214 15.5313 139.875 15.9046C140.547 16.2673 141.07 16.7793 141.443 17.4406C141.827 18.0913 142.019 18.8326 142.019 19.6646C142.019 20.4966 141.827 21.2433 141.443 21.9046C141.07 22.5553 140.547 23.0673 139.875 23.4406C139.214 23.814 138.462 24.0006 137.619 24.0006ZM137.619 22.6566C138.163 22.6566 138.649 22.534 139.075 22.2886C139.513 22.0326 139.854 21.6806 140.099 21.2326C140.345 20.774 140.467 20.2513 140.467 19.6646C140.467 19.078 140.345 18.5606 140.099 18.1126C139.854 17.654 139.513 17.302 139.075 17.0566C138.649 16.8113 138.163 16.6886 137.619 16.6886C137.075 16.6886 136.585 16.8113 136.147 17.0566C135.721 17.302 135.379 17.654 135.123 18.1126C134.878 18.5606 134.755 19.078 134.755 19.6646C134.755 20.2513 134.878 20.774 135.123 21.2326C135.379 21.6806 135.721 22.0326 136.147 22.2886C136.585 22.534 137.075 22.6566 137.619 22.6566ZM148.672 15.3446C149.749 15.3446 150.602 15.6593 151.232 16.2886C151.872 16.9073 152.192 17.8193 152.192 19.0246V23.9046H150.656V19.2006C150.656 18.3793 150.458 17.7606 150.064 17.3446C149.669 16.9286 149.104 16.7206 148.368 16.7206C147.536 16.7206 146.88 16.966 146.4 17.4566C145.92 17.9366 145.68 18.63 145.68 19.5366V23.9046H144.144V15.4246H145.616V16.7046C145.925 16.2673 146.341 15.9313 146.864 15.6966C147.397 15.462 148 15.3446 148.672 15.3446ZM158.138 13.2006C157.221 13.2006 156.762 13.6966 156.762 14.6886V15.4246H159.226V16.6886H156.794V23.9046H155.258V16.6886H153.818V15.4246H155.258V14.6726C155.258 13.83 155.503 13.1633 155.994 12.6726C156.485 12.182 157.173 11.9366 158.058 11.9366C158.399 11.9366 158.719 11.9793 159.018 12.0646C159.317 12.15 159.573 12.2726 159.786 12.4326L159.322 13.6006C158.97 13.334 158.575 13.2006 158.138 13.2006ZM161.962 15.4246H163.498V23.9046H161.962V15.4246ZM162.73 13.7926C162.431 13.7926 162.181 13.6966 161.978 13.5046C161.786 13.3126 161.69 13.078 161.69 12.8006C161.69 12.5233 161.786 12.2886 161.978 12.0966C162.181 11.894 162.431 11.7926 162.73 11.7926C163.029 11.7926 163.274 11.8886 163.466 12.0806C163.669 12.262 163.77 12.4913 163.77 12.7686C163.77 13.0566 163.669 13.302 163.466 13.5046C163.274 13.6966 163.029 13.7926 162.73 13.7926ZM167.897 16.8486C168.163 16.358 168.558 15.9846 169.081 15.7286C169.603 15.4726 170.238 15.3446 170.985 15.3446V16.8326C170.899 16.822 170.782 16.8166 170.633 16.8166C169.801 16.8166 169.145 17.0673 168.665 17.5686C168.195 18.0593 167.961 18.7633 167.961 19.6806V23.9046H166.425V15.4246H167.897V16.8486ZM183.486 15.3446C184.553 15.3446 185.395 15.654 186.014 16.2726C186.643 16.8913 186.958 17.8086 186.958 19.0246V23.9046H185.422V19.2006C185.422 18.3793 185.23 17.7606 184.846 17.3446C184.473 16.9286 183.934 16.7206 183.23 16.7206C182.451 16.7206 181.833 16.966 181.374 17.4566C180.915 17.9366 180.686 18.63 180.686 19.5366V23.9046H179.15V19.2006C179.15 18.3793 178.958 17.7606 178.574 17.3446C178.201 16.9286 177.662 16.7206 176.958 16.7206C176.179 16.7206 175.561 16.966 175.102 17.4566C174.643 17.9366 174.414 18.63 174.414 19.5366V23.9046H172.878V15.4246H174.35V16.6886C174.659 16.2513 175.065 15.9206 175.566 15.6966C176.067 15.462 176.638 15.3446 177.278 15.3446C177.939 15.3446 178.526 15.478 179.038 15.7446C179.55 16.0113 179.945 16.4006 180.222 16.9126C180.542 16.422 180.985 16.038 181.55 15.7606C182.126 15.4833 182.771 15.3446 183.486 15.3446ZM192.872 15.3446C194.045 15.3446 194.941 15.6326 195.56 16.2086C196.189 16.7846 196.504 17.6433 196.504 18.7846V23.9046H195.048V22.7846C194.792 23.1793 194.424 23.4833 193.944 23.6966C193.475 23.8993 192.915 24.0006 192.264 24.0006C191.315 24.0006 190.552 23.7713 189.976 23.3126C189.411 22.854 189.128 22.2513 189.128 21.5046C189.128 20.758 189.4 20.1606 189.944 19.7126C190.488 19.254 191.352 19.0246 192.536 19.0246H194.968V18.7206C194.968 18.0593 194.776 17.5526 194.392 17.2006C194.008 16.8486 193.443 16.6726 192.696 16.6726C192.195 16.6726 191.704 16.758 191.224 16.9286C190.744 17.0886 190.339 17.3073 190.008 17.5846L189.368 16.4326C189.805 16.0806 190.328 15.814 190.936 15.6326C191.544 15.4406 192.189 15.3446 192.872 15.3446ZM192.52 22.8166C193.107 22.8166 193.613 22.6886 194.04 22.4326C194.467 22.166 194.776 21.7926 194.968 21.3126V20.1286H192.6C191.299 20.1286 190.648 20.566 190.648 21.4406C190.648 21.8673 190.813 22.2033 191.144 22.4486C191.475 22.694 191.933 22.8166 192.52 22.8166ZM207.394 12.0326V23.9046H205.922V22.5606C205.58 23.03 205.148 23.3873 204.626 23.6326C204.103 23.878 203.527 24.0006 202.898 24.0006C202.076 24.0006 201.34 23.8193 200.69 23.4566C200.039 23.094 199.527 22.5873 199.154 21.9366C198.791 21.2753 198.61 20.518 198.61 19.6646C198.61 18.8113 198.791 18.0593 199.154 17.4086C199.527 16.758 200.039 16.2513 200.69 15.8886C201.34 15.526 202.076 15.3446 202.898 15.3446C203.506 15.3446 204.066 15.462 204.578 15.6966C205.09 15.9206 205.516 16.2566 205.858 16.7046V12.0326H207.394ZM203.026 22.6566C203.559 22.6566 204.044 22.534 204.482 22.2886C204.919 22.0326 205.26 21.6806 205.506 21.2326C205.751 20.774 205.874 20.2513 205.874 19.6646C205.874 19.078 205.751 18.5606 205.506 18.1126C205.26 17.654 204.919 17.302 204.482 17.0566C204.044 16.8113 203.559 16.6886 203.026 16.6886C202.482 16.6886 201.991 16.8113 201.554 17.0566C201.127 17.302 200.786 17.654 200.53 18.1126C200.284 18.5606 200.162 19.078 200.162 19.6646C200.162 20.2513 200.284 20.774 200.53 21.2326C200.786 21.6806 201.127 22.0326 201.554 22.2886C201.991 22.534 202.482 22.6566 203.026 22.6566ZM213.388 15.3446C214.561 15.3446 215.457 15.6326 216.076 16.2086C216.705 16.7846 217.02 17.6433 217.02 18.7846V23.9046H215.564V22.7846C215.308 23.1793 214.94 23.4833 214.46 23.6966C213.99 23.8993 213.43 24.0006 212.78 24.0006C211.83 24.0006 211.068 23.7713 210.492 23.3126C209.926 22.854 209.644 22.2513 209.644 21.5046C209.644 20.758 209.916 20.1606 210.46 19.7126C211.004 19.254 211.868 19.0246 213.052 19.0246H215.484V18.7206C215.484 18.0593 215.292 17.5526 214.908 17.2006C214.524 16.8486 213.958 16.6726 213.212 16.6726C212.71 16.6726 212.22 16.758 211.74 16.9286C211.26 17.0886 210.854 17.3073 210.524 17.5846L209.884 16.4326C210.321 16.0806 210.844 15.814 211.452 15.6326C212.06 15.4406 212.705 15.3446 213.388 15.3446ZM213.036 22.8166C213.622 22.8166 214.129 22.6886 214.556 22.4326C214.982 22.166 215.292 21.7926 215.484 21.3126V20.1286H213.116C211.814 20.1286 211.164 20.566 211.164 21.4406C211.164 21.8673 211.329 22.2033 211.66 22.4486C211.99 22.694 212.449 22.8166 213.036 22.8166ZM222.294 24.0006C221.601 24.0006 220.934 23.91 220.294 23.7286C219.654 23.5366 219.153 23.2966 218.79 23.0086L219.43 21.7926C219.804 22.0593 220.257 22.2726 220.79 22.4326C221.324 22.5926 221.862 22.6726 222.406 22.6726C223.75 22.6726 224.422 22.2886 224.422 21.5206C224.422 21.2646 224.332 21.062 224.15 20.9126C223.969 20.7633 223.74 20.6566 223.462 20.5926C223.196 20.518 222.812 20.438 222.31 20.3526C221.628 20.246 221.068 20.1233 220.63 19.9846C220.204 19.846 219.836 19.6113 219.526 19.2806C219.217 18.95 219.062 18.486 219.062 17.8886C219.062 17.1206 219.382 16.5073 220.022 16.0486C220.662 15.5793 221.521 15.3446 222.598 15.3446C223.164 15.3446 223.729 15.414 224.294 15.5526C224.86 15.6913 225.324 15.878 225.686 16.1126L225.03 17.3286C224.337 16.8806 223.521 16.6566 222.582 16.6566C221.932 16.6566 221.436 16.7633 221.094 16.9766C220.753 17.19 220.582 17.4726 220.582 17.8246C220.582 18.102 220.678 18.3206 220.87 18.4806C221.062 18.6406 221.297 18.758 221.574 18.8326C221.862 18.9073 222.262 18.9926 222.774 19.0886C223.457 19.206 224.006 19.334 224.422 19.4726C224.849 19.6006 225.212 19.8246 225.51 20.1446C225.809 20.4646 225.958 20.9126 225.958 21.4886C225.958 22.2566 225.628 22.87 224.966 23.3286C224.316 23.7766 223.425 24.0006 222.294 24.0006Z" fill="white"/>
<defs>
<filter id="filter0_d_2729_15080" x="0" y="0" width="247.5" height="36" filterUnits="userSpaceOnUse" color-interpolation-filters="sRGB">
<feFlood flood-opacity="0" result="BackgroundImageFix"/>
<feColorMatrix in="SourceAlpha" type="matrix" values="0 0 0 0 0 0 0 0 0 0 0 0 0 0 0 0 0 0 127 0" result="hardAlpha"/>
<feOffset dx="2"/>
<feGaussianBlur stdDeviation="3"/>
<feComposite in2="hardAlpha" operator="out"/>
<feColorMatrix type="matrix" values="0 0 0 0 0 0 0 0 0 0 0 0 0 0 0 0 0 0 0.12 0"/>
<feBlend mode="normal" in2="BackgroundImageFix" result="effect1_dropShadow_2729_15080"/>
<feBlend mode="normal" in="SourceGraphic" in2="effect1_dropShadow_2729_15080" result="shape"/>
</filter>
<linearGradient id="paint0_linear_2729_15080" x1="192.096" y1="-5.49" x2="81.0351" y2="12.6966" gradientUnits="userSpaceOnUse">
<stop stop-color="#0C7486"/>
<stop offset="1" stop-color="#065462"/>
</linearGradient>
</defs>
</svg>
