<svg width="530" height="47" viewBox="0 0 530 47" fill="none" xmlns="http://www.w3.org/2000/svg">
<path d="M0.5 10C0.5 4.75329 4.75329 0.5 10 0.5H513.146L529.294 46.5H0.5V10Z" fill="url(#paint0_linear_6507_25401)" stroke="#ADB5BF"/>
<path d="M0 41H527.004L529 46H0V41Z" fill="#BC955C"/>
<path d="M27.0834 31.8903C27.1866 31.7878 27.2452 31.6456 27.2452 31.5005C27.2452 31.3556 27.1866 31.2134 27.0834 31.1107C26.9811 31.0082 26.8392 30.9492 26.6939 30.9492C26.5489 30.9492 26.4066 31.0082 26.3041 31.1107C26.2016 31.2134 26.1426 31.3556 26.1426 31.5005C26.1426 31.6456 26.2014 31.7878 26.3041 31.8903C26.4066 31.9928 26.5489 32.0518 26.6939 32.0518C26.8388 32.0518 26.9809 31.9928 27.0834 31.8903Z" fill="#DDC9A3"/>
<path d="M22.0259 26.0977C21.881 26.0977 21.7388 26.1567 21.6361 26.2592C21.5336 26.3619 21.4746 26.5034 21.4746 26.6489C21.4746 26.7939 21.5336 26.9362 21.6361 27.0387C21.7388 27.1412 21.881 27.2002 22.0259 27.2002C22.171 27.2002 22.3132 27.1412 22.4157 27.0387C22.5182 26.9362 22.5772 26.7939 22.5772 26.6489C22.5772 26.504 22.5182 26.3617 22.4157 26.2592C22.3132 26.1567 22.1715 26.0977 22.0259 26.0977Z" fill="#DDC9A3"/>
<defs>
<linearGradient id="paint0_linear_6507_25401" x1="265" y1="0" x2="374.578" y2="0" gradientUnits="userSpaceOnUse">
<stop stop-color="#075563"/>
<stop offset="1" stop-color="#0D7586"/>
</linearGradient>
</defs>
</svg>
