<svg width="260" height="36" viewBox="0 0 260 36" fill="none" xmlns="http://www.w3.org/2000/svg">
<g filter="url(#filter0_d_2729_15072)">
<path d="M4 14C4 9.58172 7.58172 6 12 6H233.951C236.911 6 239.63 7.63472 241.018 10.2495L251.5 30H4V14Z" fill="url(#paint0_linear_2729_15072)"/>
</g>
<path d="M4 30L251.449 30L252.5 32L4 32V30Z" fill="#BC955C"/>
<path d="M31.7251 25.5197C26.5017 25.5197 21.2234 25.5197 16 25.5197C16 22.9355 16 20.3513 16 17.7672C16.11 17.6022 16.2749 17.4922 16.4948 17.4922C17.4845 17.4922 18.4192 17.4922 19.4089 17.4922C19.6838 17.4922 19.6838 17.4922 19.6838 17.2173C19.6838 15.073 19.6838 12.8737 19.6838 10.7294C19.6289 10.3995 19.7388 10.2895 20.1237 10.2895C22.7079 10.2895 25.2921 10.2895 27.8763 10.2895C28.2612 10.2895 28.3711 10.3995 28.3711 10.7843C28.3711 12.9287 28.3711 15.128 28.3711 17.2723C28.3711 17.5472 28.3711 17.5472 28.5911 17.5472C29.5808 17.5472 30.5155 17.5472 31.5052 17.5472C31.8351 17.5472 32 17.7122 32 18.0421C32 20.4063 32 22.7706 32 25.1348C32 25.2998 31.945 25.4647 31.7251 25.5197ZM20.3986 17.9321C20.3986 18.5919 20.3986 19.1967 20.3986 19.8565C20.3986 21.451 20.3986 22.9905 20.3986 24.585C20.3986 24.805 20.3986 24.805 20.6186 24.805C20.9485 24.805 21.2784 24.805 21.5533 24.805C21.7732 24.805 21.7732 24.805 21.7732 24.585C21.7732 23.7053 21.7732 22.8806 21.7732 22.0008C21.7732 21.6709 21.9381 21.506 22.268 21.506C23.4227 21.506 24.5773 21.506 25.677 21.506C26.0069 21.506 26.1718 21.6709 26.1718 22.0008C26.1718 22.8806 26.1718 23.7053 26.1718 24.585C26.1718 24.75 26.2268 24.805 26.3918 24.805C26.7216 24.805 27.0515 24.805 27.3265 24.805C27.6014 24.805 27.6014 24.805 27.6014 24.53C27.6014 20.1314 27.6014 15.7328 27.6014 11.3342C27.6014 11.0592 27.6014 11.0592 27.3265 11.0592C25.1271 11.0592 22.8729 11.0592 20.6735 11.0592C20.3986 11.0592 20.3986 11.0592 20.3986 11.3342C20.3986 13.5335 20.3986 15.7328 20.3986 17.9321ZM16.7698 21.561C16.7698 22.5507 16.7698 23.5953 16.7698 24.585C16.7698 24.75 16.8247 24.805 16.9897 24.805C17.8144 24.805 18.5842 24.805 19.4089 24.805C19.6289 24.805 19.6289 24.805 19.6289 24.585C19.6289 22.5507 19.6289 20.5713 19.6289 18.5369C19.6289 18.317 19.6289 18.317 19.4089 18.317C18.5842 18.317 17.8144 18.317 16.9897 18.317C16.7698 18.317 16.7698 18.317 16.7698 18.5369C16.7698 19.5266 16.7698 20.5163 16.7698 21.561ZM31.2302 21.561C31.2302 20.5713 31.2302 19.5266 31.2302 18.5369C31.2302 18.372 31.1753 18.317 31.0103 18.317C30.1856 18.317 29.3608 18.317 28.5361 18.317C28.3711 18.317 28.3162 18.372 28.3162 18.5369C28.3162 20.5713 28.3162 22.5507 28.3162 24.585C28.3162 24.805 28.3162 24.805 28.5361 24.805C29.3608 24.805 30.1306 24.805 30.9553 24.805C31.2302 24.805 31.2302 24.805 31.2302 24.585C31.2302 23.5403 31.2302 22.5507 31.2302 21.561ZM23.9725 22.2757C23.5876 22.2757 23.1478 22.2757 22.7629 22.2757C22.5979 22.2757 22.543 22.3307 22.543 22.4957C22.543 23.2105 22.543 23.9252 22.543 24.585C22.543 24.75 22.5979 24.805 22.7629 24.805C23.5876 24.805 24.4124 24.805 25.1821 24.805C25.3471 24.805 25.4021 24.75 25.4021 24.585C25.4021 23.8702 25.4021 23.1555 25.4021 22.4957C25.4021 22.3307 25.3471 22.2757 25.1821 22.2757C24.7973 22.2757 24.4124 22.2757 23.9725 22.2757Z" fill="#E4D5BE"/>
<path d="M23.9719 16.8325C23.752 16.8325 23.532 16.8325 23.3121 16.8325C22.9822 16.8325 22.8722 16.7225 22.8722 16.3926C22.8722 16.1177 22.8722 15.8428 22.8722 15.5679C22.8722 15.4579 22.8172 15.4029 22.7073 15.4029C22.4324 15.4029 22.1575 15.4029 21.8825 15.4029C21.5526 15.4029 21.3877 15.238 21.3877 14.9081C21.3877 14.4682 21.3877 14.0833 21.3877 13.6435C21.3877 13.3136 21.5526 13.2036 21.8276 13.2036C22.1025 13.2036 22.3774 13.2036 22.6523 13.2036C22.7623 13.2036 22.8172 13.1486 22.8172 13.0386C22.8172 12.7637 22.8172 12.4338 22.8172 12.1589C22.8172 11.884 22.9822 11.774 23.2021 11.7191C23.697 11.7191 24.1368 11.7191 24.6317 11.7191C24.9066 11.7191 25.0166 11.884 25.0166 12.1589C25.0166 12.4338 25.0166 12.7087 25.0166 12.9837C25.0166 13.1486 25.0715 13.2036 25.2365 13.2036C25.5114 13.2036 25.7863 13.2036 26.0612 13.2036C26.3361 13.2036 26.5011 13.3685 26.5011 13.6435C26.5011 14.0833 26.5011 14.5232 26.5011 14.963C26.5011 15.238 26.3361 15.4029 26.0612 15.4029C25.7863 15.4029 25.5114 15.4029 25.2365 15.4029C25.1265 15.4029 25.0715 15.4579 25.0715 15.5679C25.0715 15.8428 25.0715 16.1177 25.0715 16.3926C25.0715 16.7225 24.9616 16.8325 24.6317 16.8325C24.4117 16.8325 24.1918 16.8325 23.9719 16.8325ZM22.8172 14.6331C22.9272 14.6331 23.0922 14.6331 23.2021 14.6331C23.477 14.6331 23.642 14.7981 23.642 15.073C23.642 15.238 23.642 15.4579 23.642 15.6228C23.642 16.1177 23.587 16.0627 24.0819 16.0627C24.2468 16.0627 24.3018 16.0077 24.3018 15.8428C24.3018 15.5679 24.3018 15.2929 24.3018 15.018C24.3018 14.7431 24.4667 14.5782 24.7416 14.5782C24.9066 14.5782 25.0715 14.5782 25.2915 14.5782C25.8413 14.5782 25.7863 14.6881 25.7863 14.0833C25.7863 13.9734 25.7313 13.9184 25.6214 13.9184C25.3465 13.9184 25.1265 13.9184 24.8516 13.9184C24.5217 13.9184 24.3568 13.7534 24.3568 13.4235C24.3568 13.1486 24.3568 12.9287 24.3568 12.6538C24.3568 12.4888 24.3018 12.4338 24.1368 12.4338C24.0819 12.4338 24.0269 12.4338 23.9169 12.4338C23.642 12.4338 23.642 12.4338 23.642 12.7087C23.642 12.9837 23.642 13.2036 23.642 13.4785C23.642 13.7534 23.477 13.9184 23.2021 13.9184C23.0372 13.9184 22.8722 13.9184 22.7073 13.9184C22.1025 13.9184 22.2124 13.8084 22.2124 14.4132C22.2124 14.5232 22.2674 14.5782 22.3774 14.5782C22.5423 14.6331 22.6523 14.6331 22.8172 14.6331Z" fill="#E4D5BE"/>
<path d="M48.2888 24.0326C46.7954 24.0326 45.6328 23.606 44.8008 22.7526C43.9688 21.8993 43.5528 20.6726 43.5528 19.0726V12.7046H45.1528V19.0086C45.1528 21.4086 46.2034 22.6086 48.3048 22.6086C49.3288 22.6086 50.1128 22.3153 50.6568 21.7286C51.2008 21.1313 51.4728 20.2246 51.4728 19.0086V12.7046H53.0248V19.0726C53.0248 20.6833 52.6088 21.9153 51.7768 22.7686C50.9448 23.6113 49.7821 24.0326 48.2888 24.0326ZM60.609 15.3446C61.6863 15.3446 62.5397 15.6593 63.169 16.2886C63.809 16.9073 64.129 17.8193 64.129 19.0246V23.9046H62.593V19.2006C62.593 18.3793 62.3957 17.7606 62.001 17.3446C61.6063 16.9286 61.041 16.7206 60.305 16.7206C59.473 16.7206 58.817 16.966 58.337 17.4566C57.857 17.9366 57.617 18.63 57.617 19.5366V23.9046H56.081V15.4246H57.553V16.7046C57.8623 16.2673 58.2783 15.9313 58.801 15.6966C59.3343 15.462 59.937 15.3446 60.609 15.3446ZM66.9716 15.4246H68.5076V23.9046H66.9716V15.4246ZM67.7396 13.7926C67.441 13.7926 67.1903 13.6966 66.9876 13.5046C66.7956 13.3126 66.6996 13.078 66.6996 12.8006C66.6996 12.5233 66.7956 12.2886 66.9876 12.0966C67.1903 11.894 67.441 11.7926 67.7396 11.7926C68.0383 11.7926 68.2836 11.8886 68.4756 12.0806C68.6783 12.262 68.7796 12.4913 68.7796 12.7686C68.7796 13.0566 68.6783 13.302 68.4756 13.5046C68.2836 13.6966 68.0383 13.7926 67.7396 13.7926ZM79.4404 12.0326V23.9046H77.9684V22.5606C77.627 23.03 77.195 23.3873 76.6724 23.6326C76.1497 23.878 75.5737 24.0006 74.9444 24.0006C74.123 24.0006 73.387 23.8193 72.7364 23.4566C72.0857 23.094 71.5737 22.5873 71.2004 21.9366C70.8377 21.2753 70.6564 20.518 70.6564 19.6646C70.6564 18.8113 70.8377 18.0593 71.2004 17.4086C71.5737 16.758 72.0857 16.2513 72.7364 15.8886C73.387 15.526 74.123 15.3446 74.9444 15.3446C75.5524 15.3446 76.1124 15.462 76.6244 15.6966C77.1364 15.9206 77.563 16.2566 77.9044 16.7046V12.0326H79.4404ZM75.0724 22.6566C75.6057 22.6566 76.091 22.534 76.5284 22.2886C76.9657 22.0326 77.307 21.6806 77.5524 21.2326C77.7977 20.774 77.9204 20.2513 77.9204 19.6646C77.9204 19.078 77.7977 18.5606 77.5524 18.1126C77.307 17.654 76.9657 17.302 76.5284 17.0566C76.091 16.8113 75.6057 16.6886 75.0724 16.6886C74.5284 16.6886 74.0377 16.8113 73.6004 17.0566C73.1737 17.302 72.8324 17.654 72.5764 18.1126C72.331 18.5606 72.2084 19.078 72.2084 19.6646C72.2084 20.2513 72.331 20.774 72.5764 21.2326C72.8324 21.6806 73.1737 22.0326 73.6004 22.2886C74.0377 22.534 74.5284 22.6566 75.0724 22.6566ZM85.4346 15.3446C86.608 15.3446 87.504 15.6326 88.1226 16.2086C88.752 16.7846 89.0666 17.6433 89.0666 18.7846V23.9046H87.6106V22.7846C87.3546 23.1793 86.9866 23.4833 86.5066 23.6966C86.0373 23.8993 85.4773 24.0006 84.8266 24.0006C83.8773 24.0006 83.1146 23.7713 82.5386 23.3126C81.9733 22.854 81.6906 22.2513 81.6906 21.5046C81.6906 20.758 81.9626 20.1606 82.5066 19.7126C83.0506 19.254 83.9146 19.0246 85.0986 19.0246H87.5306V18.7206C87.5306 18.0593 87.3386 17.5526 86.9546 17.2006C86.5706 16.8486 86.0053 16.6726 85.2586 16.6726C84.7573 16.6726 84.2666 16.758 83.7866 16.9286C83.3066 17.0886 82.9013 17.3073 82.5706 17.5846L81.9306 16.4326C82.368 16.0806 82.8906 15.814 83.4986 15.6326C84.1066 15.4406 84.752 15.3446 85.4346 15.3446ZM85.0826 22.8166C85.6693 22.8166 86.176 22.6886 86.6026 22.4326C87.0293 22.166 87.3386 21.7926 87.5306 21.3126V20.1286H85.1626C83.8613 20.1286 83.2106 20.566 83.2106 21.4406C83.2106 21.8673 83.376 22.2033 83.7066 22.4486C84.0373 22.694 84.496 22.8166 85.0826 22.8166ZM99.956 12.0326V23.9046H98.484V22.5606C98.1427 23.03 97.7107 23.3873 97.188 23.6326C96.6653 23.878 96.0893 24.0006 95.46 24.0006C94.6387 24.0006 93.9027 23.8193 93.252 23.4566C92.6013 23.094 92.0893 22.5873 91.716 21.9366C91.3533 21.2753 91.172 20.518 91.172 19.6646C91.172 18.8113 91.3533 18.0593 91.716 17.4086C92.0893 16.758 92.6013 16.2513 93.252 15.8886C93.9027 15.526 94.6387 15.3446 95.46 15.3446C96.068 15.3446 96.628 15.462 97.14 15.6966C97.652 15.9206 98.0787 16.2566 98.42 16.7046V12.0326H99.956ZM95.588 22.6566C96.1213 22.6566 96.6067 22.534 97.044 22.2886C97.4813 22.0326 97.8227 21.6806 98.068 21.2326C98.3133 20.774 98.436 20.2513 98.436 19.6646C98.436 19.078 98.3133 18.5606 98.068 18.1126C97.8227 17.654 97.4813 17.302 97.044 17.0566C96.6067 16.8113 96.1213 16.6886 95.588 16.6886C95.044 16.6886 94.5533 16.8113 94.116 17.0566C93.6893 17.302 93.348 17.654 93.092 18.1126C92.8467 18.5606 92.724 19.078 92.724 19.6646C92.724 20.2513 92.8467 20.774 93.092 21.2326C93.348 21.6806 93.6893 22.0326 94.116 22.2886C94.5533 22.534 95.044 22.6566 95.588 22.6566ZM110.526 19.7126C110.526 19.83 110.516 19.9846 110.494 20.1766H103.614C103.71 20.9233 104.036 21.526 104.59 21.9846C105.156 22.4326 105.854 22.6566 106.686 22.6566C107.7 22.6566 108.516 22.3153 109.134 21.6326L109.982 22.6246C109.598 23.0726 109.118 23.414 108.542 23.6486C107.977 23.8833 107.342 24.0006 106.638 24.0006C105.742 24.0006 104.948 23.8193 104.254 23.4566C103.561 23.0833 103.022 22.566 102.638 21.9046C102.265 21.2433 102.078 20.4966 102.078 19.6646C102.078 18.8433 102.26 18.102 102.622 17.4406C102.996 16.7793 103.502 16.2673 104.142 15.9046C104.793 15.5313 105.524 15.3446 106.334 15.3446C107.145 15.3446 107.865 15.5313 108.494 15.9046C109.134 16.2673 109.63 16.7793 109.982 17.4406C110.345 18.102 110.526 18.8593 110.526 19.7126ZM106.334 16.6406C105.598 16.6406 104.98 16.8646 104.478 17.3126C103.988 17.7606 103.7 18.3473 103.614 19.0726H109.054C108.969 18.358 108.676 17.7766 108.174 17.3286C107.684 16.87 107.07 16.6406 106.334 16.6406ZM115.091 24.0006C114.398 24.0006 113.731 23.91 113.091 23.7286C112.451 23.5366 111.95 23.2966 111.587 23.0086L112.227 21.7926C112.6 22.0593 113.054 22.2726 113.587 22.4326C114.12 22.5926 114.659 22.6726 115.203 22.6726C116.547 22.6726 117.219 22.2886 117.219 21.5206C117.219 21.2646 117.128 21.062 116.947 20.9126C116.766 20.7633 116.536 20.6566 116.259 20.5926C115.992 20.518 115.608 20.438 115.107 20.3526C114.424 20.246 113.864 20.1233 113.427 19.9846C113 19.846 112.632 19.6113 112.323 19.2806C112.014 18.95 111.859 18.486 111.859 17.8886C111.859 17.1206 112.179 16.5073 112.819 16.0486C113.459 15.5793 114.318 15.3446 115.395 15.3446C115.96 15.3446 116.526 15.414 117.091 15.5526C117.656 15.6913 118.12 15.878 118.483 16.1126L117.827 17.3286C117.134 16.8806 116.318 16.6566 115.379 16.6566C114.728 16.6566 114.232 16.7633 113.891 16.9766C113.55 17.19 113.379 17.4726 113.379 17.8246C113.379 18.102 113.475 18.3206 113.667 18.4806C113.859 18.6406 114.094 18.758 114.371 18.8326C114.659 18.9073 115.059 18.9926 115.571 19.0886C116.254 19.206 116.803 19.334 117.219 19.4726C117.646 19.6006 118.008 19.8246 118.307 20.1446C118.606 20.4646 118.755 20.9126 118.755 21.4886C118.755 22.2566 118.424 22.87 117.763 23.3286C117.112 23.7766 116.222 24.0006 115.091 24.0006ZM129.468 15.3446C130.289 15.3446 131.025 15.526 131.676 15.8886C132.326 16.2513 132.833 16.758 133.196 17.4086C133.569 18.0593 133.756 18.8113 133.756 19.6646C133.756 20.518 133.569 21.2753 133.196 21.9366C132.833 22.5873 132.326 23.094 131.676 23.4566C131.025 23.8193 130.289 24.0006 129.468 24.0006C128.86 24.0006 128.3 23.8833 127.788 23.6486C127.286 23.414 126.86 23.0726 126.508 22.6246V27.0086H124.972V15.4246H126.444V16.7686C126.785 16.2993 127.217 15.9473 127.74 15.7126C128.262 15.4673 128.838 15.3446 129.468 15.3446ZM129.34 22.6566C129.884 22.6566 130.369 22.534 130.796 22.2886C131.233 22.0326 131.574 21.6806 131.82 21.2326C132.076 20.774 132.204 20.2513 132.204 19.6646C132.204 19.078 132.076 18.5606 131.82 18.1126C131.574 17.654 131.233 17.302 130.796 17.0566C130.369 16.8113 129.884 16.6886 129.34 16.6886C128.806 16.6886 128.321 16.8166 127.884 17.0726C127.457 17.318 127.116 17.6646 126.86 18.1126C126.614 18.5606 126.492 19.078 126.492 19.6646C126.492 20.2513 126.614 20.774 126.86 21.2326C127.105 21.6806 127.446 22.0326 127.884 22.2886C128.321 22.534 128.806 22.6566 129.34 22.6566ZM139.51 24.0006C138.667 24.0006 137.91 23.814 137.238 23.4406C136.566 23.0673 136.038 22.5553 135.654 21.9046C135.281 21.2433 135.094 20.4966 135.094 19.6646C135.094 18.8326 135.281 18.0913 135.654 17.4406C136.038 16.7793 136.566 16.2673 137.238 15.9046C137.91 15.5313 138.667 15.3446 139.51 15.3446C140.353 15.3446 141.105 15.5313 141.766 15.9046C142.438 16.2673 142.961 16.7793 143.334 17.4406C143.718 18.0913 143.91 18.8326 143.91 19.6646C143.91 20.4966 143.718 21.2433 143.334 21.9046C142.961 22.5553 142.438 23.0673 141.766 23.4406C141.105 23.814 140.353 24.0006 139.51 24.0006ZM139.51 22.6566C140.054 22.6566 140.539 22.534 140.966 22.2886C141.403 22.0326 141.745 21.6806 141.99 21.2326C142.235 20.774 142.358 20.2513 142.358 19.6646C142.358 19.078 142.235 18.5606 141.99 18.1126C141.745 17.654 141.403 17.302 140.966 17.0566C140.539 16.8113 140.054 16.6886 139.51 16.6886C138.966 16.6886 138.475 16.8113 138.038 17.0566C137.611 17.302 137.27 17.654 137.014 18.1126C136.769 18.5606 136.646 19.078 136.646 19.6646C136.646 20.2513 136.769 20.774 137.014 21.2326C137.27 21.6806 137.611 22.0326 138.038 22.2886C138.475 22.534 138.966 22.6566 139.51 22.6566ZM147.506 16.8486C147.773 16.358 148.167 15.9846 148.69 15.7286C149.213 15.4726 149.847 15.3446 150.594 15.3446V16.8326C150.509 16.822 150.391 16.8166 150.242 16.8166C149.41 16.8166 148.754 17.0673 148.274 17.5686C147.805 18.0593 147.57 18.7633 147.57 19.6806V23.9046H146.034V15.4246H147.506V16.8486ZM160.59 24.0006C159.726 24.0006 158.952 23.814 158.27 23.4406C157.598 23.0673 157.07 22.5553 156.686 21.9046C156.302 21.2433 156.11 20.4966 156.11 19.6646C156.11 18.8326 156.302 18.0913 156.686 17.4406C157.07 16.7793 157.598 16.2673 158.27 15.9046C158.952 15.5313 159.726 15.3446 160.59 15.3446C161.358 15.3446 162.04 15.4993 162.638 15.8086C163.246 16.118 163.715 16.566 164.046 17.1526L162.878 17.9046C162.611 17.4993 162.28 17.1953 161.886 16.9926C161.491 16.79 161.054 16.6886 160.574 16.6886C160.019 16.6886 159.518 16.8113 159.07 17.0566C158.632 17.302 158.286 17.654 158.03 18.1126C157.784 18.5606 157.662 19.078 157.662 19.6646C157.662 20.262 157.784 20.79 158.03 21.2486C158.286 21.6966 158.632 22.0433 159.07 22.2886C159.518 22.534 160.019 22.6566 160.574 22.6566C161.054 22.6566 161.491 22.5553 161.886 22.3526C162.28 22.15 162.611 21.846 162.878 21.4406L164.046 22.1766C163.715 22.7633 163.246 23.2166 162.638 23.5366C162.04 23.846 161.358 24.0006 160.59 24.0006ZM169.541 24.0006C168.698 24.0006 167.941 23.814 167.269 23.4406C166.597 23.0673 166.069 22.5553 165.685 21.9046C165.312 21.2433 165.125 20.4966 165.125 19.6646C165.125 18.8326 165.312 18.0913 165.685 17.4406C166.069 16.7793 166.597 16.2673 167.269 15.9046C167.941 15.5313 168.698 15.3446 169.541 15.3446C170.384 15.3446 171.136 15.5313 171.797 15.9046C172.469 16.2673 172.992 16.7793 173.365 17.4406C173.749 18.0913 173.941 18.8326 173.941 19.6646C173.941 20.4966 173.749 21.2433 173.365 21.9046C172.992 22.5553 172.469 23.0673 171.797 23.4406C171.136 23.814 170.384 24.0006 169.541 24.0006ZM169.541 22.6566C170.085 22.6566 170.57 22.534 170.997 22.2886C171.434 22.0326 171.776 21.6806 172.021 21.2326C172.266 20.774 172.389 20.2513 172.389 19.6646C172.389 19.078 172.266 18.5606 172.021 18.1126C171.776 17.654 171.434 17.302 170.997 17.0566C170.57 16.8113 170.085 16.6886 169.541 16.6886C168.997 16.6886 168.506 16.8113 168.069 17.0566C167.642 17.302 167.301 17.654 167.045 18.1126C166.8 18.5606 166.677 19.078 166.677 19.6646C166.677 20.2513 166.8 20.774 167.045 21.2326C167.301 21.6806 167.642 22.0326 168.069 22.2886C168.506 22.534 168.997 22.6566 169.541 22.6566ZM180.593 15.3446C181.671 15.3446 182.524 15.6593 183.153 16.2886C183.793 16.9073 184.113 17.8193 184.113 19.0246V23.9046H182.577V19.2006C182.577 18.3793 182.38 17.7606 181.985 17.3446C181.591 16.9286 181.025 16.7206 180.289 16.7206C179.457 16.7206 178.801 16.966 178.321 17.4566C177.841 17.9366 177.601 18.63 177.601 19.5366V23.9046H176.065V15.4246H177.537V16.7046C177.847 16.2673 178.263 15.9313 178.785 15.6966C179.319 15.462 179.921 15.3446 180.593 15.3446ZM190.06 13.2006C189.143 13.2006 188.684 13.6966 188.684 14.6886V15.4246H191.148V16.6886H188.716V23.9046H187.18V16.6886H185.74V15.4246H187.18V14.6726C187.18 13.83 187.425 13.1633 187.916 12.6726C188.407 12.182 189.095 11.9366 189.98 11.9366C190.321 11.9366 190.641 11.9793 190.94 12.0646C191.239 12.15 191.495 12.2726 191.708 12.4326L191.244 13.6006C190.892 13.334 190.497 13.2006 190.06 13.2006ZM193.884 15.4246H195.42V23.9046H193.884V15.4246ZM194.652 13.7926C194.353 13.7926 194.103 13.6966 193.9 13.5046C193.708 13.3126 193.612 13.078 193.612 12.8006C193.612 12.5233 193.708 12.2886 193.9 12.0966C194.103 11.894 194.353 11.7926 194.652 11.7926C194.951 11.7926 195.196 11.8886 195.388 12.0806C195.591 12.262 195.692 12.4913 195.692 12.7686C195.692 13.0566 195.591 13.302 195.388 13.5046C195.196 13.6966 194.951 13.7926 194.652 13.7926ZM199.819 16.8486C200.085 16.358 200.48 15.9846 201.003 15.7286C201.525 15.4726 202.16 15.3446 202.907 15.3446V16.8326C202.821 16.822 202.704 16.8166 202.555 16.8166C201.723 16.8166 201.067 17.0673 200.587 17.5686C200.117 18.0593 199.883 18.7633 199.883 19.6806V23.9046H198.347V15.4246H199.819V16.8486ZM215.408 15.3446C216.474 15.3446 217.317 15.654 217.936 16.2726C218.565 16.8913 218.88 17.8086 218.88 19.0246V23.9046H217.344V19.2006C217.344 18.3793 217.152 17.7606 216.768 17.3446C216.394 16.9286 215.856 16.7206 215.152 16.7206C214.373 16.7206 213.754 16.966 213.296 17.4566C212.837 17.9366 212.608 18.63 212.608 19.5366V23.9046H211.072V19.2006C211.072 18.3793 210.88 17.7606 210.496 17.3446C210.122 16.9286 209.584 16.7206 208.88 16.7206C208.101 16.7206 207.482 16.966 207.024 17.4566C206.565 17.9366 206.336 18.63 206.336 19.5366V23.9046H204.8V15.4246H206.272V16.6886C206.581 16.2513 206.986 15.9206 207.488 15.6966C207.989 15.462 208.56 15.3446 209.2 15.3446C209.861 15.3446 210.448 15.478 210.96 15.7446C211.472 16.0113 211.866 16.4006 212.144 16.9126C212.464 16.422 212.906 16.038 213.472 15.7606C214.048 15.4833 214.693 15.3446 215.408 15.3446ZM224.794 15.3446C225.967 15.3446 226.863 15.6326 227.482 16.2086C228.111 16.7846 228.426 17.6433 228.426 18.7846V23.9046H226.97V22.7846C226.714 23.1793 226.346 23.4833 225.866 23.6966C225.397 23.8993 224.837 24.0006 224.186 24.0006C223.237 24.0006 222.474 23.7713 221.898 23.3126C221.333 22.854 221.05 22.2513 221.05 21.5046C221.05 20.758 221.322 20.1606 221.866 19.7126C222.41 19.254 223.274 19.0246 224.458 19.0246H226.89V18.7206C226.89 18.0593 226.698 17.5526 226.314 17.2006C225.93 16.8486 225.365 16.6726 224.618 16.6726C224.117 16.6726 223.626 16.758 223.146 16.9286C222.666 17.0886 222.261 17.3073 221.93 17.5846L221.29 16.4326C221.727 16.0806 222.25 15.814 222.858 15.6326C223.466 15.4406 224.111 15.3446 224.794 15.3446ZM224.442 22.8166C225.029 22.8166 225.535 22.6886 225.962 22.4326C226.389 22.166 226.698 21.7926 226.89 21.3126V20.1286H224.522C223.221 20.1286 222.57 20.566 222.57 21.4406C222.57 21.8673 222.735 22.2033 223.066 22.4486C223.397 22.694 223.855 22.8166 224.442 22.8166ZM232.741 16.8486C233.007 16.358 233.402 15.9846 233.924 15.7286C234.447 15.4726 235.082 15.3446 235.829 15.3446V16.8326C235.743 16.822 235.626 16.8166 235.477 16.8166C234.645 16.8166 233.989 17.0673 233.509 17.5686C233.039 18.0593 232.805 18.7633 232.805 19.6806V23.9046H231.269V15.4246H232.741V16.8486Z" fill="white"/>
<defs>
<filter id="filter0_d_2729_15072" x="0" y="0" width="259.5" height="36" filterUnits="userSpaceOnUse" color-interpolation-filters="sRGB">
<feFlood flood-opacity="0" result="BackgroundImageFix"/>
<feColorMatrix in="SourceAlpha" type="matrix" values="0 0 0 0 0 0 0 0 0 0 0 0 0 0 0 0 0 0 127 0" result="hardAlpha"/>
<feOffset dx="2"/>
<feGaussianBlur stdDeviation="3"/>
<feComposite in2="hardAlpha" operator="out"/>
<feColorMatrix type="matrix" values="0 0 0 0 0 0 0 0 0 0 0 0 0 0 0 0 0 0 0.12 0"/>
<feBlend mode="normal" in2="BackgroundImageFix" result="effect1_dropShadow_2729_15072"/>
<feBlend mode="normal" in="SourceGraphic" in2="effect1_dropShadow_2729_15072" result="shape"/>
</filter>
<linearGradient id="paint0_linear_2729_15072" x1="192.096" y1="-5.49002" x2="81.0351" y2="12.6966" gradientUnits="userSpaceOnUse">
<stop stop-color="#0C7486"/>
<stop offset="1" stop-color="#065462"/>
</linearGradient>
</defs>
</svg>
