<svg width="208" height="57" viewBox="0 0 208 57" fill="none" xmlns="http://www.w3.org/2000/svg">
<g filter="url(#filter0_d_4908_5841)">
<path d="M4 14C4 9.58172 7.58172 6 12 6H177.475C180.803 6 183.784 8.06029 184.96 11.1736L200 51H4V14Z" fill="url(#paint0_linear_4908_5841)"/>
</g>
<mask id="mask0_4908_5841" style="mask-type:alpha" maskUnits="userSpaceOnUse" x="4" y="6" width="196" height="45">
<path d="M4 14C4 9.58172 7.58172 6 12 6H177.475C180.803 6 183.784 8.06029 184.96 11.1736L200 51H4V14Z" fill="url(#paint1_linear_4908_5841)"/>
</mask>
<g mask="url(#mask0_4908_5841)">
</g>
<g clip-path="url(#clip0_4908_5841)">
<path d="M30.9917 25.8254C30.5272 25.8366 30.0724 25.9595 29.6667 26.1833C29.261 26.4072 28.9167 26.7252 28.6635 27.11C28.4069 27.4921 28.2476 27.9298 28.1991 28.3858C28.1505 28.8418 28.2143 29.3026 28.3848 29.729C28.5554 30.1554 28.8277 30.5349 29.1786 30.8351C29.5296 31.1352 29.9487 31.3472 30.4004 31.4531V32.6794C30.4141 33.6532 30.0609 34.5972 29.4094 35.3283C28.7579 36.0593 27.8546 36.5253 26.8748 36.6356C26.3326 36.6863 25.7857 36.6249 25.269 36.4551C24.7522 36.2854 24.277 36.0112 23.8736 35.6499C23.4702 35.2886 23.1475 34.8482 22.9261 34.3569C22.7047 33.8655 22.5895 33.334 22.5878 32.7962V28.986H23.6226C23.6831 28.9875 23.7432 28.9767 23.7992 28.954C23.8552 28.9314 23.9058 28.8975 23.9478 28.8546C23.9923 28.8134 24.0278 28.7637 24.0519 28.7084C24.0761 28.6532 24.0885 28.5936 24.0883 28.5334V28.3801C24.9074 27.9814 25.5979 27.3652 26.0822 26.6007C26.5666 25.8361 26.8256 24.9535 26.8304 24.0516V18.3363C26.8243 18.1595 26.7534 17.9909 26.6309 17.8619C26.5674 17.8005 26.4923 17.7521 26.4099 17.7195C26.3274 17.6869 26.2392 17.6708 26.1504 17.6721H25.1083V17.183C25.1092 17.1399 25.0933 17.0981 25.0639 17.0662C25.0495 17.0517 25.0323 17.0403 25.0132 17.0328C24.9941 17.0253 24.9736 17.0217 24.9531 17.0224H23.9256C23.904 17.0214 23.8824 17.0248 23.8622 17.0325C23.842 17.0402 23.8236 17.052 23.8083 17.0671C23.793 17.0823 23.7811 17.1004 23.7733 17.1204C23.7655 17.1403 23.762 17.1617 23.763 17.183V19.7013C23.7579 19.8628 23.8107 20.021 23.9122 20.1478C24.0136 20.2747 24.1571 20.3621 24.3174 20.3947C24.4155 20.4107 24.516 20.4053 24.6118 20.3788C24.7076 20.3524 24.7963 20.3055 24.8717 20.2414C24.9486 20.1802 25.01 20.1022 25.0511 20.0135C25.0922 19.9249 25.1117 19.8279 25.1083 19.7305V19.0005H25.4852V24.037C25.4826 24.681 25.3014 25.312 24.9613 25.8614C24.6212 26.4109 24.1352 26.8578 23.5561 27.1538H20.2743C19.694 26.86 19.2078 26.4127 18.87 25.8619C18.5318 25.3118 18.3528 24.6806 18.3526 24.037V19.0005H18.737V19.6721C18.7403 19.8326 18.7972 19.9875 18.8988 20.1128C19.0003 20.2382 19.1409 20.327 19.2987 20.3655C19.3968 20.3815 19.4973 20.3761 19.5931 20.3496C19.6888 20.3231 19.7776 20.2762 19.853 20.2122C19.9284 20.1481 19.9886 20.0685 20.0295 19.979C20.0704 19.8895 20.0909 19.7922 20.0896 19.694V17.183C20.0878 17.1391 20.0693 17.0974 20.0378 17.0662C20.0235 17.0517 20.0062 17.0403 19.9871 17.0328C19.968 17.0253 19.9475 17.0217 19.927 17.0224H18.9143C18.892 17.0196 18.8693 17.0214 18.8476 17.0277C18.826 17.0339 18.8059 17.0446 18.7887 17.0589C18.7715 17.0747 18.758 17.094 18.7491 17.1154C18.7401 17.1368 18.736 17.1599 18.737 17.183V17.7013H17.68C17.5911 17.7003 17.5028 17.7168 17.4203 17.7497C17.3379 17.7827 17.2628 17.8314 17.1996 17.8932C17.1364 17.955 17.0862 18.0286 17.0519 18.1096C17.0176 18.1907 17 18.2777 17 18.3655V24.0589C17.0016 24.9595 17.2575 25.8417 17.7391 26.6064C18.2176 27.368 18.8973 27.9863 19.7052 28.3947V28.5626C19.7072 28.6833 19.7571 28.7984 19.8442 28.883C19.9313 28.9677 20.0486 29.0152 20.1709 29.0151H21.2352V32.6648C21.219 34.0146 21.7271 35.3192 22.6551 36.3103C23.5831 37.3015 24.8605 37.9037 26.2244 37.9933C26.9372 38.0288 27.65 37.921 28.3194 37.6764C28.9889 37.4318 29.601 37.0554 30.1187 36.5701C30.6364 36.0848 31.0488 35.5006 31.3311 34.8532C31.6133 34.2057 31.7593 33.5084 31.7604 32.8035V31.4677C32.4613 31.3099 33.0775 30.8998 33.4886 30.3175C33.8998 29.7352 34.0765 29.0225 33.9841 28.3184C33.8918 27.6144 33.5371 26.9697 32.9892 26.51C32.4414 26.0504 31.7398 25.8089 31.0213 25.8327L30.9917 25.8254ZM31.073 29.7889C30.7763 29.7851 30.4927 29.667 30.2829 29.4597C30.073 29.2525 29.9534 28.9725 29.9496 28.6794C29.9496 28.3851 30.0679 28.1029 30.2786 27.8949C30.4893 27.6868 30.7751 27.5699 31.073 27.5699C31.3713 27.5702 31.6577 27.6855 31.8713 27.8911C32.0788 28.1024 32.1954 28.385 32.1965 28.6794C32.1992 28.8257 32.1718 28.971 32.1159 29.1065C32.06 29.242 31.9767 29.3649 31.8713 29.4677C31.6586 29.6746 31.3716 29.7901 31.073 29.7889V29.7889Z" fill="#DDC9A3"/>
</g>
<path d="M4 46H198.129L200 51H4V46Z" fill="#BC955C"/>
<path d="M53.904 30.256V32H45.504V20.8H53.68V22.544H47.584V25.456H52.992V27.168H47.584V30.256H53.904ZM64.3046 23.456V35.104H62.3046V30.96C61.6326 31.728 60.7206 32.112 59.5686 32.112C58.7366 32.112 57.99 31.9307 57.3286 31.568C56.678 31.2053 56.166 30.6933 55.7926 30.032C55.43 29.3707 55.2486 28.6027 55.2486 27.728C55.2486 26.864 55.4353 26.1013 55.8086 25.44C56.182 24.7787 56.694 24.2667 57.3446 23.904C57.9953 23.5413 58.7366 23.36 59.5686 23.36C60.1553 23.36 60.6886 23.4613 61.1686 23.664C61.6593 23.8667 62.07 24.1707 62.4006 24.576V23.456H64.3046ZM59.7926 30.4C60.5286 30.4 61.1366 30.1547 61.6166 29.664C62.0966 29.1733 62.3366 28.528 62.3366 27.728C62.3366 26.928 62.0966 26.2827 61.6166 25.792C61.1366 25.3013 60.5286 25.056 59.7926 25.056C59.0566 25.056 58.4486 25.3013 57.9686 25.792C57.4993 26.2827 57.2646 26.928 57.2646 27.728C57.2646 28.528 57.4993 29.1733 57.9686 29.664C58.4486 30.1547 59.0566 30.4 59.7926 30.4ZM75.1934 23.456V32H73.2894V30.912C72.9694 31.296 72.5694 31.5947 72.0894 31.808C71.6094 32.0107 71.092 32.112 70.5374 32.112C69.396 32.112 68.4947 31.7973 67.8334 31.168C67.1827 30.528 66.8574 29.584 66.8574 28.336V23.456H68.8574V28.064C68.8574 28.832 69.028 29.408 69.3694 29.792C69.7214 30.1653 70.2174 30.352 70.8574 30.352C71.572 30.352 72.1374 30.1333 72.5534 29.696C72.98 29.248 73.1934 28.608 73.1934 27.776V23.456H75.1934ZM77.812 23.456H79.812V32H77.812V23.456ZM78.82 22.048C78.4573 22.048 78.1533 21.936 77.908 21.712C77.6627 21.4773 77.54 21.1893 77.54 20.848C77.54 20.5067 77.6627 20.224 77.908 20C78.1533 19.7653 78.4573 19.648 78.82 19.648C79.1827 19.648 79.4867 19.76 79.732 19.984C79.9773 20.1973 80.1 20.4693 80.1 20.8C80.1 21.152 79.9773 21.4507 79.732 21.696C79.4973 21.9307 79.1933 22.048 78.82 22.048ZM87.173 23.36C88.005 23.36 88.7463 23.5413 89.397 23.904C90.0583 24.2667 90.5757 24.7787 90.949 25.44C91.3223 26.1013 91.509 26.864 91.509 27.728C91.509 28.592 91.3223 29.36 90.949 30.032C90.5757 30.6933 90.0583 31.2053 89.397 31.568C88.7463 31.9307 88.005 32.112 87.173 32.112C86.021 32.112 85.109 31.728 84.437 30.96V35.104H82.437V23.456H84.341V24.576C84.6717 24.1707 85.077 23.8667 85.557 23.664C86.0477 23.4613 86.5863 23.36 87.173 23.36ZM86.949 30.4C87.685 30.4 88.2877 30.1547 88.757 29.664C89.237 29.1733 89.477 28.528 89.477 27.728C89.477 26.928 89.237 26.2827 88.757 25.792C88.2877 25.3013 87.685 25.056 86.949 25.056C86.469 25.056 86.037 25.168 85.653 25.392C85.269 25.6053 84.965 25.9147 84.741 26.32C84.517 26.7253 84.405 27.1947 84.405 27.728C84.405 28.2613 84.517 28.7307 84.741 29.136C84.965 29.5413 85.269 29.856 85.653 30.08C86.037 30.2933 86.469 30.4 86.949 30.4ZM96.5604 23.36C97.819 23.36 98.779 23.664 99.4404 24.272C100.112 24.8693 100.448 25.776 100.448 26.992V32H98.5604V30.96C98.315 31.3333 97.963 31.6213 97.5044 31.824C97.0564 32.016 96.5124 32.112 95.8724 32.112C95.2324 32.112 94.6724 32.0053 94.1924 31.792C93.7124 31.568 93.339 31.264 93.0724 30.88C92.8164 30.4853 92.6884 30.0427 92.6884 29.552C92.6884 28.784 92.971 28.1707 93.5364 27.712C94.1124 27.2427 95.0137 27.008 96.2404 27.008H98.4484V26.88C98.4484 26.2827 98.267 25.824 97.9044 25.504C97.5524 25.184 97.0244 25.024 96.3204 25.024C95.8404 25.024 95.3657 25.0987 94.8964 25.248C94.4377 25.3973 94.0484 25.6053 93.7284 25.872L92.9444 24.416C93.3924 24.0747 93.931 23.8133 94.5604 23.632C95.1897 23.4507 95.8564 23.36 96.5604 23.36ZM96.2884 30.656C96.7897 30.656 97.2324 30.544 97.6164 30.32C98.011 30.0853 98.2884 29.7547 98.4484 29.328V28.336H96.3844C95.2324 28.336 94.6564 28.7147 94.6564 29.472C94.6564 29.8347 94.8004 30.1227 95.0884 30.336C95.3764 30.5493 95.7764 30.656 96.2884 30.656ZM113.799 23.36C114.876 23.36 115.73 23.6747 116.359 24.304C116.988 24.9227 117.303 25.856 117.303 27.104V32H115.303V27.36C115.303 26.6133 115.138 26.0533 114.807 25.68C114.476 25.296 114.002 25.104 113.383 25.104C112.711 25.104 112.172 25.328 111.767 25.776C111.362 26.2133 111.159 26.8427 111.159 27.664V32H109.159V27.36C109.159 26.6133 108.994 26.0533 108.663 25.68C108.332 25.296 107.858 25.104 107.239 25.104C106.556 25.104 106.012 25.3227 105.607 25.76C105.212 26.1973 105.015 26.832 105.015 27.664V32H103.015V23.456H104.919V24.544C105.239 24.16 105.639 23.8667 106.119 23.664C106.599 23.4613 107.132 23.36 107.719 23.36C108.359 23.36 108.924 23.4827 109.415 23.728C109.916 23.9627 110.311 24.3147 110.599 24.784C110.951 24.336 111.404 23.9893 111.959 23.744C112.514 23.488 113.127 23.36 113.799 23.36ZM119.859 23.456H121.859V32H119.859V23.456ZM120.867 22.048C120.504 22.048 120.2 21.936 119.955 21.712C119.71 21.4773 119.587 21.1893 119.587 20.848C119.587 20.5067 119.71 20.224 119.955 20C120.2 19.7653 120.504 19.648 120.867 19.648C121.23 19.648 121.534 19.76 121.779 19.984C122.024 20.1973 122.147 20.4693 122.147 20.8C122.147 21.152 122.024 21.4507 121.779 21.696C121.544 21.9307 121.24 22.048 120.867 22.048ZM132.516 27.776C132.516 27.9147 132.505 28.112 132.484 28.368H125.78C125.897 28.9973 126.201 29.4987 126.692 29.872C127.193 30.2347 127.812 30.416 128.548 30.416C129.487 30.416 130.26 30.1067 130.868 29.488L131.94 30.72C131.556 31.1787 131.071 31.5253 130.484 31.76C129.897 31.9947 129.236 32.112 128.5 32.112C127.561 32.112 126.735 31.9253 126.02 31.552C125.305 31.1787 124.751 30.6613 124.356 30C123.972 29.328 123.78 28.5707 123.78 27.728C123.78 26.896 123.967 26.1493 124.34 25.488C124.724 24.816 125.252 24.2933 125.924 23.92C126.596 23.5467 127.353 23.36 128.196 23.36C129.028 23.36 129.769 23.5467 130.42 23.92C131.081 24.2827 131.593 24.8 131.956 25.472C132.329 26.1333 132.516 26.9013 132.516 27.776ZM128.196 24.96C127.556 24.96 127.012 25.152 126.564 25.536C126.127 25.9093 125.86 26.4107 125.764 27.04H130.612C130.527 26.4213 130.265 25.92 129.828 25.536C129.391 25.152 128.847 24.96 128.196 24.96ZM139.285 23.36C140.362 23.36 141.226 23.6747 141.877 24.304C142.528 24.9333 142.853 25.8667 142.853 27.104V32H140.853V27.36C140.853 26.6133 140.677 26.0533 140.325 25.68C139.973 25.296 139.472 25.104 138.821 25.104C138.085 25.104 137.504 25.328 137.077 25.776C136.65 26.2133 136.437 26.848 136.437 27.68V32H134.437V23.456H136.341V24.56C136.672 24.1653 137.088 23.8667 137.589 23.664C138.09 23.4613 138.656 23.36 139.285 23.36ZM150.526 31.536C150.291 31.728 150.003 31.872 149.662 31.968C149.331 32.064 148.979 32.112 148.606 32.112C147.667 32.112 146.942 31.8667 146.43 31.376C145.918 30.8853 145.662 30.1707 145.662 29.232V25.12H144.254V23.52H145.662V21.568H147.662V23.52H149.95V25.12H147.662V29.184C147.662 29.6 147.763 29.92 147.966 30.144C148.169 30.3573 148.462 30.464 148.846 30.464C149.294 30.464 149.667 30.3467 149.966 30.112L150.526 31.536ZM155.73 32.112C154.866 32.112 154.087 31.9253 153.394 31.552C152.701 31.1787 152.157 30.6613 151.762 30C151.378 29.328 151.186 28.5707 151.186 27.728C151.186 26.8853 151.378 26.1333 151.762 25.472C152.157 24.8107 152.701 24.2933 153.394 23.92C154.087 23.5467 154.866 23.36 155.73 23.36C156.605 23.36 157.389 23.5467 158.082 23.92C158.775 24.2933 159.314 24.8107 159.698 25.472C160.093 26.1333 160.29 26.8853 160.29 27.728C160.29 28.5707 160.093 29.328 159.698 30C159.314 30.6613 158.775 31.1787 158.082 31.552C157.389 31.9253 156.605 32.112 155.73 32.112ZM155.73 30.4C156.466 30.4 157.074 30.1547 157.554 29.664C158.034 29.1733 158.274 28.528 158.274 27.728C158.274 26.928 158.034 26.2827 157.554 25.792C157.074 25.3013 156.466 25.056 155.73 25.056C154.994 25.056 154.386 25.3013 153.906 25.792C153.437 26.2827 153.202 26.928 153.202 27.728C153.202 28.528 153.437 29.1733 153.906 29.664C154.386 30.1547 154.994 30.4 155.73 30.4Z" fill="white"/>
<defs>
<filter id="filter0_d_4908_5841" x="0" y="0" width="208" height="57" filterUnits="userSpaceOnUse" color-interpolation-filters="sRGB">
<feFlood flood-opacity="0" result="BackgroundImageFix"/>
<feColorMatrix in="SourceAlpha" type="matrix" values="0 0 0 0 0 0 0 0 0 0 0 0 0 0 0 0 0 0 127 0" result="hardAlpha"/>
<feOffset dx="2"/>
<feGaussianBlur stdDeviation="3"/>
<feComposite in2="hardAlpha" operator="out"/>
<feColorMatrix type="matrix" values="0 0 0 0 0 0 0 0 0 0 0 0 0 0 0 0 0 0 0.12 0"/>
<feBlend mode="normal" in2="BackgroundImageFix" result="effect1_dropShadow_4908_5841"/>
<feBlend mode="normal" in="SourceGraphic" in2="effect1_dropShadow_4908_5841" result="shape"/>
</filter>
<linearGradient id="paint0_linear_4908_5841" x1="175.642" y1="-13" x2="4.85303" y2="12.6985" gradientUnits="userSpaceOnUse">
<stop stop-color="#0C7486"/>
<stop offset="1" stop-color="#065462"/>
</linearGradient>
<linearGradient id="paint1_linear_4908_5841" x1="217.5" y1="-26.0001" x2="-44.1749" y2="3.16401" gradientUnits="userSpaceOnUse">
<stop stop-color="#0C7486"/>
<stop offset="1" stop-color="#065462"/>
</linearGradient>
<clipPath id="clip0_4908_5841">
<rect width="17" height="21" fill="white" transform="translate(17 17.0005)"/>
</clipPath>
</defs>
</svg>
