
<svg width="208" height="57" viewBox="0 0 208 57" fill="none" xmlns="http://www.w3.org/2000/svg">

<g filter="url(#filter0_d_4908_5838)">
<path d="M4 14C4 9.58172 7.58172 6 12 6H177.475C180.803 6 183.784 8.06029 184.96 11.1736L200 51H4V14Z" fill="url(#paint0_linear_4908_5838)"/>
</g>
<mask id="mask0_4908_5838" style="mask-type:alpha" maskUnits="userSpaceOnUse" x="4" y="6" width="196" height="45">
<path d="M4 14C4 9.58172 7.58172 6 12 6H177.475C180.803 6 183.784 8.06029 184.96 11.1736L200 51H4V14Z" fill="url(#paint1_linear_4908_5838)"/>
</mask>
<g mask="url(#mask0_4908_5838)">
<path d="M36.485 34.5625H12.5146C12.4014 34.5625 12.2929 34.5139 12.2129 34.4274C12.1328 34.341 12.0879 34.2237 12.0879 34.1014V24.6698C12.0909 23.0453 12.6901 21.4883 13.7539 20.3404C14.8177 19.1925 16.2594 18.5474 17.7628 18.5464H18.5821C18.6952 18.5464 18.8038 18.595 18.8838 18.6814C18.9638 18.7679 19.0088 18.8852 19.0088 19.0075C19.0088 19.1297 18.9638 19.247 18.8838 19.3335C18.8038 19.4199 18.6952 19.4685 18.5821 19.4685H17.7628C16.4857 19.4692 15.2609 20.0172 14.3571 20.9922C13.4532 21.9672 12.9441 23.2897 12.9413 24.6698V33.6404H36.0584V24.6698C36.0569 23.2908 35.5493 21.9688 34.6469 20.9937C33.7445 20.0186 32.5211 19.4701 31.2449 19.4685H30.3668C30.2536 19.4685 30.1451 19.4199 30.0651 19.3335C29.985 19.247 29.9401 19.1297 29.9401 19.0075C29.9401 18.8852 29.985 18.7679 30.0651 18.6814C30.1451 18.595 30.2536 18.5464 30.3668 18.5464H31.2449C32.7472 18.5487 34.1873 19.1946 35.2496 20.3424C36.3119 21.4903 36.9096 23.0465 36.9117 24.6698V34.1014C36.9117 34.2237 36.8668 34.341 36.7868 34.4274C36.7067 34.5139 36.5982 34.5625 36.485 34.5625Z" fill="#DDC9A3"/>
<path d="M25.5281 31.5581C25.4667 31.5581 25.406 31.5438 25.3501 31.5161C25.2943 31.4885 25.2447 31.4481 25.2046 31.3978C25.1646 31.3475 25.135 31.2885 25.118 31.2247C25.101 31.1609 25.0969 31.0939 25.1061 31.0283L27.2301 17.3921C27.2392 17.3268 27.2612 17.2643 27.2947 17.209C27.3281 17.1537 27.3721 17.1068 27.4238 17.0714C27.4755 17.0361 27.5336 17.0132 27.5941 17.0042C27.6547 16.9953 27.7164 17.0005 27.7749 17.0196L30.7549 17.9901C30.8143 18.0095 30.869 18.0425 30.9153 18.087C30.9616 18.1316 30.9984 18.1864 31.0231 18.2479C31.0478 18.3093 31.0598 18.3758 31.0583 18.4428C31.0568 18.5097 31.0418 18.5755 31.0143 18.6356L29.8299 21.2037L30.5168 22.0369C30.5777 22.1112 30.6148 22.2049 30.6224 22.3038C30.6301 22.4027 30.6081 22.5017 30.5595 22.586L25.8908 31.3395C25.8525 31.4063 25.7992 31.4615 25.7357 31.4997C25.6722 31.5379 25.6007 31.558 25.5281 31.5581ZM28.0007 18.056L25.8644 30.0126L29.6681 22.396L29.0012 21.5869C28.9445 21.5181 28.9081 21.4326 28.8968 21.3413C28.8855 21.25 28.8997 21.1571 28.9377 21.0746L30.0249 18.7168L28.0007 18.056Z" fill="#DDC9A3"/>
<path d="M23.4819 31.5581C23.5433 31.5581 23.604 31.5438 23.6599 31.5161C23.7157 31.4885 23.7653 31.4481 23.8054 31.3978C23.8455 31.3475 23.875 31.2885 23.892 31.2247C23.909 31.1609 23.9131 31.0939 23.9039 31.0283L21.78 17.3921C21.7708 17.3268 21.7488 17.2643 21.7154 17.209C21.6819 17.1537 21.6379 17.1068 21.5862 17.0714C21.5345 17.0361 21.4764 17.0132 21.4159 17.0042C21.3553 16.9953 21.2936 17.0005 21.2351 17.0196L18.2551 17.9901C18.1957 18.0095 18.141 18.0425 18.0947 18.087C18.0484 18.1316 18.0116 18.1864 17.9869 18.2479C17.9622 18.3093 17.9502 18.3758 17.9517 18.4428C17.9532 18.5097 17.9682 18.5755 17.9957 18.6356L19.1801 21.2037L18.4932 22.0369C18.4323 22.1112 18.3953 22.2049 18.3876 22.3038C18.3799 22.4027 18.402 22.5017 18.4505 22.586L23.1192 31.3395C23.1575 31.4063 23.2109 31.4615 23.2743 31.4997C23.3378 31.5379 23.4093 31.558 23.4819 31.5581ZM21.0094 18.056L23.1456 30.0126L19.3419 22.396L20.0088 21.5869C20.0655 21.5181 20.1019 21.4326 20.1132 21.3413C20.1246 21.25 20.1103 21.1571 20.0724 21.0746L18.9851 18.7168L21.0094 18.056Z" fill="#DDC9A3"/>
<path d="M24.5088 21.6742C23.5863 21.6735 22.6645 21.6131 21.7486 21.4935C21.6918 21.4878 21.6366 21.47 21.5863 21.4409C21.536 21.4118 21.4916 21.3722 21.4558 21.3242C21.4199 21.2763 21.3933 21.2211 21.3775 21.1619C21.3617 21.1027 21.3571 21.0406 21.3639 20.9794C21.3707 20.9182 21.3887 20.8591 21.417 20.8056C21.4453 20.7521 21.4833 20.7052 21.5286 20.6678C21.5739 20.6304 21.6257 20.6032 21.681 20.5878C21.7362 20.5725 21.7937 20.5692 21.8502 20.5782C23.594 20.81 25.3576 20.81 27.1014 20.5782C27.2126 20.5652 27.3241 20.6 27.4119 20.6749C27.4996 20.7499 27.5566 20.8591 27.5706 20.979C27.5846 21.0989 27.5544 21.22 27.4866 21.3161C27.4188 21.4122 27.3188 21.4758 27.2081 21.493C26.3127 21.6144 25.4112 21.6749 24.5088 21.6742V21.6742Z" fill="#DDC9A3"/>
<path d="M33.1002 23.8081C32.9891 23.8081 32.8824 23.7614 32.8028 23.6778C32.7231 23.5942 32.6767 23.4803 32.6735 23.3604C32.5937 20.3579 31.5372 19.4132 31.527 19.404C31.4388 19.3283 31.3817 19.2183 31.3678 19.0976C31.3539 18.9769 31.3844 18.8551 31.4528 18.7585C31.5206 18.6626 31.6207 18.5995 31.7314 18.583C31.842 18.5664 31.9543 18.5976 32.0437 18.67C32.1 18.7161 33.4334 19.8351 33.5269 23.3336C33.5301 23.4558 33.4883 23.5743 33.4107 23.6632C33.3331 23.752 33.226 23.804 33.113 23.8076L33.1002 23.8081Z" fill="#DDC9A3"/>
<path d="M33.1024 26.5304C32.7688 26.5305 32.4426 26.4237 32.1652 26.2235C31.8878 26.0233 31.6715 25.7387 31.5438 25.4056C31.4161 25.0726 31.3826 24.7061 31.4476 24.3526C31.5127 23.999 31.6733 23.6742 31.9092 23.4192C32.145 23.1643 32.4456 22.9907 32.7728 22.9203C33.1 22.8499 33.4391 22.886 33.7474 23.0239C34.0556 23.1619 34.319 23.3955 34.5044 23.6952C34.6897 23.995 34.7887 24.3474 34.7887 24.7078C34.7882 25.191 34.6104 25.6542 34.2943 25.9959C33.9782 26.3376 33.5495 26.5298 33.1024 26.5304V26.5304ZM33.1024 23.8074C32.9376 23.8073 32.7764 23.86 32.6393 23.9589C32.5022 24.0578 32.3954 24.1984 32.3322 24.3629C32.2691 24.5275 32.2525 24.7085 32.2846 24.8832C32.3167 25.0579 32.3961 25.2184 32.5126 25.3444C32.6291 25.4704 32.7776 25.5562 32.9393 25.591C33.1009 25.6257 33.2685 25.6079 33.4208 25.5398C33.5731 25.4717 33.7032 25.3563 33.7948 25.2082C33.8864 25.0601 33.9353 24.886 33.9353 24.7078C33.9351 24.4692 33.8473 24.2404 33.6911 24.0716C33.535 23.9028 33.3233 23.8077 33.1024 23.8074V23.8074Z" fill="#DDC9A3"/>
<path d="M15.5758 23.8081C15.4677 23.8084 15.3635 23.7643 15.2843 23.6848C15.2051 23.6053 15.1568 23.4963 15.1491 23.3798C14.9165 19.8411 16.721 18.7101 16.7978 18.6635C16.8964 18.6034 17.013 18.5881 17.122 18.6209C17.2311 18.6537 17.3236 18.732 17.3792 18.8385C17.4348 18.945 17.449 19.071 17.4186 19.1888C17.3882 19.3067 17.3158 19.4066 17.2172 19.4667C17.1524 19.5082 15.8092 20.4041 15.9999 23.3148C16.0079 23.4367 15.9707 23.5571 15.8965 23.6495C15.8223 23.7418 15.7172 23.7985 15.6044 23.8072L15.5758 23.8081Z" fill="#DDC9A3"/>
<path d="M14.7103 27.5001C14.6443 27.5004 14.5791 27.4842 14.5198 27.4526C14.4606 27.4211 14.4089 27.3752 14.3689 27.3184C14.1606 27.0229 14.0072 26.6866 13.9171 26.3281C13.719 25.6297 13.784 24.8752 14.0979 24.2284C14.4118 23.5815 14.9493 23.0947 15.5935 22.8737C15.8991 22.7809 16.2187 22.7548 16.5337 22.7969C16.8488 22.839 17.1529 22.9485 17.4283 23.119C17.911 23.4204 18.297 23.8737 18.5349 24.4185C18.7728 24.9632 18.8512 25.5734 18.7595 26.1676C18.741 26.2882 18.6788 26.396 18.5868 26.4671C18.4947 26.5382 18.3803 26.5669 18.2686 26.5468C18.157 26.5268 18.0573 26.4596 17.9915 26.3601C17.9257 26.2607 17.8991 26.137 17.9177 26.0164C17.9803 25.6093 17.9271 25.1912 17.7652 24.8174C17.6032 24.4437 17.3401 24.1318 17.0106 23.9231C16.8329 23.8123 16.6366 23.7408 16.433 23.7128C16.2295 23.6849 16.0229 23.7011 15.8252 23.7604C15.3977 23.9149 15.0437 24.2453 14.8402 24.68C14.6367 25.1147 14.6 25.6186 14.738 26.0823C14.7998 26.3277 14.905 26.5579 15.0478 26.7601C15.0958 26.8284 15.1253 26.9099 15.1328 26.9953C15.1403 27.0807 15.1257 27.1668 15.0904 27.2437C15.0552 27.3206 15.0007 27.3853 14.9333 27.4306C14.8658 27.4759 14.788 27.5 14.7086 27.5001H14.7103Z" fill="#DDC9A3"/>
<path d="M18.3442 26.5538C18.3276 26.5538 18.3105 26.5538 18.2935 26.551L17.8126 26.4897C17.7569 26.4825 17.7031 26.4636 17.6542 26.434C17.6053 26.4044 17.5623 26.3646 17.5276 26.317C17.4929 26.2694 17.4672 26.2149 17.452 26.1566C17.4368 26.0983 17.4324 26.0374 17.439 25.9772C17.4456 25.917 17.4631 25.8589 17.4906 25.806C17.518 25.7532 17.5547 25.7067 17.5988 25.6692C17.6877 25.5935 17.8008 25.5591 17.9133 25.5735L18.3942 25.6353C18.5021 25.6492 18.6012 25.7071 18.671 25.7972C18.7408 25.8873 18.7761 26.0029 18.7697 26.1202C18.7633 26.2375 18.7158 26.3477 18.6367 26.4284C18.5576 26.5091 18.453 26.5541 18.3442 26.5542V26.5538Z" fill="#DDC9A3"/>
<path d="M14.71 27.5044C14.6098 27.5045 14.5128 27.4666 14.4359 27.3972C14.359 27.3278 14.3071 27.2314 14.2894 27.1248C14.2717 27.0183 14.2893 26.9084 14.339 26.8144C14.3888 26.7204 14.4675 26.6484 14.5615 26.6108L15.0735 26.4066C15.1261 26.3854 15.1819 26.3756 15.238 26.3777C15.294 26.3799 15.3491 26.3939 15.4001 26.4191C15.4511 26.4442 15.4971 26.48 15.5353 26.5243C15.5735 26.5687 15.6033 26.6207 15.6229 26.6775C15.6425 26.7342 15.6516 26.7946 15.6496 26.8552C15.6476 26.9157 15.6346 26.9752 15.6113 27.0304C15.588 27.0855 15.5549 27.1351 15.5139 27.1764C15.4729 27.2177 15.4247 27.2499 15.3722 27.2711L14.8602 27.4758C14.8121 27.495 14.7612 27.5047 14.71 27.5044V27.5044Z" fill="#DDC9A3"/>
<rect x="4" y="46" width="346" height="5" fill="#BC955C"/>
</g>
<path d="M53.904 30.256V32H45.504V20.8H53.68V22.544H47.584V25.456H52.992V27.168H47.584V30.256H53.904ZM58.5926 32.112C57.8993 32.112 57.222 32.0213 56.5606 31.84C55.8993 31.6587 55.3713 31.4293 54.9766 31.152L55.7446 29.632C56.1286 29.888 56.5873 30.096 57.1206 30.256C57.6646 30.4053 58.198 30.48 58.7206 30.48C59.9153 30.48 60.5126 30.1653 60.5126 29.536C60.5126 29.2373 60.358 29.0293 60.0486 28.912C59.75 28.7947 59.2646 28.6827 58.5926 28.576C57.8886 28.4693 57.3126 28.3467 56.8646 28.208C56.4273 28.0693 56.0433 27.8293 55.7126 27.488C55.3926 27.136 55.2326 26.6507 55.2326 26.032C55.2326 25.2213 55.5686 24.576 56.2406 24.096C56.9233 23.6053 57.8406 23.36 58.9926 23.36C59.5793 23.36 60.166 23.4293 60.7526 23.568C61.3393 23.696 61.8193 23.872 62.1926 24.096L61.4246 25.616C60.6993 25.1893 59.8833 24.976 58.9766 24.976C58.39 24.976 57.942 25.0667 57.6326 25.248C57.334 25.4187 57.1846 25.648 57.1846 25.936C57.1846 26.256 57.3446 26.4853 57.6646 26.624C57.9953 26.752 58.502 26.8747 59.1846 26.992C59.8673 27.0987 60.4273 27.2213 60.8646 27.36C61.302 27.4987 61.6753 27.7333 61.9846 28.064C62.3046 28.3947 62.4646 28.864 62.4646 29.472C62.4646 30.272 62.118 30.912 61.4246 31.392C60.7313 31.872 59.7873 32.112 58.5926 32.112ZM68.923 23.36C69.755 23.36 70.4963 23.5413 71.147 23.904C71.8083 24.2667 72.3257 24.7787 72.699 25.44C73.0723 26.1013 73.259 26.864 73.259 27.728C73.259 28.592 73.0723 29.36 72.699 30.032C72.3257 30.6933 71.8083 31.2053 71.147 31.568C70.4963 31.9307 69.755 32.112 68.923 32.112C67.771 32.112 66.859 31.728 66.187 30.96V35.104H64.187V23.456H66.091V24.576C66.4217 24.1707 66.827 23.8667 67.307 23.664C67.7977 23.4613 68.3363 23.36 68.923 23.36ZM68.699 30.4C69.435 30.4 70.0377 30.1547 70.507 29.664C70.987 29.1733 71.227 28.528 71.227 27.728C71.227 26.928 70.987 26.2827 70.507 25.792C70.0377 25.3013 69.435 25.056 68.699 25.056C68.219 25.056 67.787 25.168 67.403 25.392C67.019 25.6053 66.715 25.9147 66.491 26.32C66.267 26.7253 66.155 27.1947 66.155 27.728C66.155 28.2613 66.267 28.7307 66.491 29.136C66.715 29.5413 67.019 29.856 67.403 30.08C67.787 30.2933 68.219 30.4 68.699 30.4ZM83.1878 27.776C83.1878 27.9147 83.1771 28.112 83.1558 28.368H76.4518C76.5691 28.9973 76.8731 29.4987 77.3638 29.872C77.8651 30.2347 78.4838 30.416 79.2198 30.416C80.1584 30.416 80.9318 30.1067 81.5398 29.488L82.6118 30.72C82.2278 31.1787 81.7424 31.5253 81.1558 31.76C80.5691 31.9947 79.9078 32.112 79.1718 32.112C78.2331 32.112 77.4064 31.9253 76.6918 31.552C75.9771 31.1787 75.4224 30.6613 75.0278 30C74.6438 29.328 74.4518 28.5707 74.4518 27.728C74.4518 26.896 74.6384 26.1493 75.0118 25.488C75.3958 24.816 75.9238 24.2933 76.5958 23.92C77.2678 23.5467 78.0251 23.36 78.8678 23.36C79.6998 23.36 80.4411 23.5467 81.0918 23.92C81.7531 24.2827 82.2651 24.8 82.6278 25.472C83.0011 26.1333 83.1878 26.9013 83.1878 27.776ZM78.8678 24.96C78.2278 24.96 77.6838 25.152 77.2358 25.536C76.7984 25.9093 76.5318 26.4107 76.4358 27.04H81.2838C81.1984 26.4213 80.9371 25.92 80.4998 25.536C80.0624 25.152 79.5184 24.96 78.8678 24.96ZM89.0289 32.112C88.1435 32.112 87.3489 31.9253 86.6449 31.552C85.9409 31.1787 85.3915 30.6613 84.9969 30C84.6022 29.328 84.4049 28.5707 84.4049 27.728C84.4049 26.8853 84.6022 26.1333 84.9969 25.472C85.3915 24.8107 85.9355 24.2933 86.6289 23.92C87.3329 23.5467 88.1329 23.36 89.0289 23.36C89.8715 23.36 90.6075 23.5307 91.2369 23.872C91.8769 24.2133 92.3569 24.704 92.6769 25.344L91.1409 26.24C90.8955 25.8453 90.5862 25.552 90.2129 25.36C89.8502 25.1573 89.4502 25.056 89.0129 25.056C88.2662 25.056 87.6475 25.3013 87.1569 25.792C86.6662 26.272 86.4209 26.9173 86.4209 27.728C86.4209 28.5387 86.6609 29.1893 87.1409 29.68C87.6315 30.16 88.2555 30.4 89.0129 30.4C89.4502 30.4 89.8502 30.304 90.2129 30.112C90.5862 29.9093 90.8955 29.6107 91.1409 29.216L92.6769 30.112C92.3462 30.752 91.8609 31.248 91.2209 31.6C90.5915 31.9413 89.8609 32.112 89.0289 32.112ZM94.4058 23.456H96.4058V32H94.4058V23.456ZM95.4138 22.048C95.0511 22.048 94.7471 21.936 94.5018 21.712C94.2564 21.4773 94.1338 21.1893 94.1338 20.848C94.1338 20.5067 94.2564 20.224 94.5018 20C94.7471 19.7653 95.0511 19.648 95.4138 19.648C95.7764 19.648 96.0804 19.76 96.3258 19.984C96.5711 20.1973 96.6938 20.4693 96.6938 20.8C96.6938 21.152 96.5711 21.4507 96.3258 21.696C96.0911 21.9307 95.7871 22.048 95.4138 22.048ZM102.295 23.36C103.553 23.36 104.513 23.664 105.175 24.272C105.847 24.8693 106.183 25.776 106.183 26.992V32H104.295V30.96C104.049 31.3333 103.697 31.6213 103.239 31.824C102.791 32.016 102.247 32.112 101.607 32.112C100.967 32.112 100.407 32.0053 99.9268 31.792C99.4468 31.568 99.0734 31.264 98.8068 30.88C98.5508 30.4853 98.4228 30.0427 98.4228 29.552C98.4228 28.784 98.7054 28.1707 99.2708 27.712C99.8468 27.2427 100.748 27.008 101.975 27.008H104.183V26.88C104.183 26.2827 104.001 25.824 103.639 25.504C103.287 25.184 102.759 25.024 102.055 25.024C101.575 25.024 101.1 25.0987 100.631 25.248C100.172 25.3973 99.7828 25.6053 99.4628 25.872L98.6788 24.416C99.1268 24.0747 99.6654 23.8133 100.295 23.632C100.924 23.4507 101.591 23.36 102.295 23.36ZM102.023 30.656C102.524 30.656 102.967 30.544 103.351 30.32C103.745 30.0853 104.023 29.7547 104.183 29.328V28.336H102.119C100.967 28.336 100.391 28.7147 100.391 29.472C100.391 29.8347 100.535 30.1227 100.823 30.336C101.111 30.5493 101.511 30.656 102.023 30.656ZM108.75 20.128H110.75V32H108.75V20.128ZM113.375 23.456H115.375V32H113.375V23.456ZM114.383 22.048C114.02 22.048 113.716 21.936 113.471 21.712C113.225 21.4773 113.103 21.1893 113.103 20.848C113.103 20.5067 113.225 20.224 113.471 20C113.716 19.7653 114.02 19.648 114.383 19.648C114.745 19.648 115.049 19.76 115.295 19.984C115.54 20.1973 115.663 20.4693 115.663 20.8C115.663 21.152 115.54 21.4507 115.295 21.696C115.06 21.9307 114.756 22.048 114.383 22.048ZM126.368 20.128V32H124.448V30.896C124.117 31.3013 123.706 31.6053 123.216 31.808C122.736 32.0107 122.202 32.112 121.616 32.112C120.794 32.112 120.053 31.9307 119.392 31.568C118.741 31.2053 118.229 30.6933 117.856 30.032C117.482 29.36 117.296 28.592 117.296 27.728C117.296 26.864 117.482 26.1013 117.856 25.44C118.229 24.7787 118.741 24.2667 119.392 23.904C120.053 23.5413 120.794 23.36 121.616 23.36C122.181 23.36 122.698 23.456 123.168 23.648C123.637 23.84 124.037 24.128 124.368 24.512V20.128H126.368ZM121.856 30.4C122.336 30.4 122.768 30.2933 123.152 30.08C123.536 29.856 123.84 29.5413 124.064 29.136C124.288 28.7307 124.4 28.2613 124.4 27.728C124.4 27.1947 124.288 26.7253 124.064 26.32C123.84 25.9147 123.536 25.6053 123.152 25.392C122.768 25.168 122.336 25.056 121.856 25.056C121.376 25.056 120.944 25.168 120.56 25.392C120.176 25.6053 119.872 25.9147 119.648 26.32C119.424 26.7253 119.312 27.1947 119.312 27.728C119.312 28.2613 119.424 28.7307 119.648 29.136C119.872 29.5413 120.176 29.856 120.56 30.08C120.944 30.2933 121.376 30.4 121.856 30.4ZM132.248 23.36C133.507 23.36 134.467 23.664 135.128 24.272C135.8 24.8693 136.136 25.776 136.136 26.992V32H134.248V30.96C134.003 31.3333 133.651 31.6213 133.192 31.824C132.744 32.016 132.2 32.112 131.56 32.112C130.92 32.112 130.36 32.0053 129.88 31.792C129.4 31.568 129.027 31.264 128.76 30.88C128.504 30.4853 128.376 30.0427 128.376 29.552C128.376 28.784 128.659 28.1707 129.224 27.712C129.8 27.2427 130.701 27.008 131.928 27.008H134.136V26.88C134.136 26.2827 133.955 25.824 133.592 25.504C133.24 25.184 132.712 25.024 132.008 25.024C131.528 25.024 131.053 25.0987 130.584 25.248C130.125 25.3973 129.736 25.6053 129.416 25.872L128.632 24.416C129.08 24.0747 129.619 23.8133 130.248 23.632C130.877 23.4507 131.544 23.36 132.248 23.36ZM131.976 30.656C132.477 30.656 132.92 30.544 133.304 30.32C133.699 30.0853 133.976 29.7547 134.136 29.328V28.336H132.072C130.92 28.336 130.344 28.7147 130.344 29.472C130.344 29.8347 130.488 30.1227 130.776 30.336C131.064 30.5493 131.464 30.656 131.976 30.656ZM147.149 20.128V32H145.229V30.896C144.898 31.3013 144.487 31.6053 143.997 31.808C143.517 32.0107 142.983 32.112 142.397 32.112C141.575 32.112 140.834 31.9307 140.173 31.568C139.522 31.2053 139.01 30.6933 138.637 30.032C138.263 29.36 138.077 28.592 138.077 27.728C138.077 26.864 138.263 26.1013 138.637 25.44C139.01 24.7787 139.522 24.2667 140.173 23.904C140.834 23.5413 141.575 23.36 142.397 23.36C142.962 23.36 143.479 23.456 143.949 23.648C144.418 23.84 144.818 24.128 145.149 24.512V20.128H147.149ZM142.637 30.4C143.117 30.4 143.549 30.2933 143.933 30.08C144.317 29.856 144.621 29.5413 144.845 29.136C145.069 28.7307 145.181 28.2613 145.181 27.728C145.181 27.1947 145.069 26.7253 144.845 26.32C144.621 25.9147 144.317 25.6053 143.933 25.392C143.549 25.168 143.117 25.056 142.637 25.056C142.157 25.056 141.725 25.168 141.341 25.392C140.957 25.6053 140.653 25.9147 140.429 26.32C140.205 26.7253 140.093 27.1947 140.093 27.728C140.093 28.2613 140.205 28.7307 140.429 29.136C140.653 29.5413 140.957 29.856 141.341 30.08C141.725 30.2933 142.157 30.4 142.637 30.4ZM157.797 27.776C157.797 27.9147 157.786 28.112 157.765 28.368H151.061C151.178 28.9973 151.482 29.4987 151.973 29.872C152.474 30.2347 153.093 30.416 153.829 30.416C154.768 30.416 155.541 30.1067 156.149 29.488L157.221 30.72C156.837 31.1787 156.352 31.5253 155.765 31.76C155.178 31.9947 154.517 32.112 153.781 32.112C152.842 32.112 152.016 31.9253 151.301 31.552C150.586 31.1787 150.032 30.6613 149.637 30C149.253 29.328 149.061 28.5707 149.061 27.728C149.061 26.896 149.248 26.1493 149.621 25.488C150.005 24.816 150.533 24.2933 151.205 23.92C151.877 23.5467 152.634 23.36 153.477 23.36C154.309 23.36 155.05 23.5467 155.701 23.92C156.362 24.2827 156.874 24.8 157.237 25.472C157.61 26.1333 157.797 26.9013 157.797 27.776ZM153.477 24.96C152.837 24.96 152.293 25.152 151.845 25.536C151.408 25.9093 151.141 26.4107 151.045 27.04H155.893C155.808 26.4213 155.546 25.92 155.109 25.536C154.672 25.152 154.128 24.96 153.477 24.96ZM162.358 32.112C161.665 32.112 160.988 32.0213 160.326 31.84C159.665 31.6587 159.137 31.4293 158.742 31.152L159.51 29.632C159.894 29.888 160.353 30.096 160.886 30.256C161.43 30.4053 161.964 30.48 162.486 30.48C163.681 30.48 164.278 30.1653 164.278 29.536C164.278 29.2373 164.124 29.0293 163.814 28.912C163.516 28.7947 163.03 28.6827 162.358 28.576C161.654 28.4693 161.078 28.3467 160.63 28.208C160.193 28.0693 159.809 27.8293 159.478 27.488C159.158 27.136 158.998 26.6507 158.998 26.032C158.998 25.2213 159.334 24.576 160.006 24.096C160.689 23.6053 161.606 23.36 162.758 23.36C163.345 23.36 163.932 23.4293 164.518 23.568C165.105 23.696 165.585 23.872 165.958 24.096L165.19 25.616C164.465 25.1893 163.649 24.976 162.742 24.976C162.156 24.976 161.708 25.0667 161.398 25.248C161.1 25.4187 160.95 25.648 160.95 25.936C160.95 26.256 161.11 26.4853 161.43 26.624C161.761 26.752 162.268 26.8747 162.95 26.992C163.633 27.0987 164.193 27.2213 164.63 27.36C165.068 27.4987 165.441 27.7333 165.75 28.064C166.07 28.3947 166.23 28.864 166.23 29.472C166.23 30.272 165.884 30.912 165.19 31.392C164.497 31.872 163.553 32.112 162.358 32.112Z" fill="white"/>
<defs>
<filter id="filter0_d_4908_5838" x="0" y="0" width="208" height="57" filterUnits="userSpaceOnUse" color-interpolation-filters="sRGB">
<feFlood flood-opacity="0" result="BackgroundImageFix"/>
<feColorMatrix in="SourceAlpha" type="matrix" values="0 0 0 0 0 0 0 0 0 0 0 0 0 0 0 0 0 0 127 0" result="hardAlpha"/>
<feOffset dx="2"/>
<feGaussianBlur stdDeviation="3"/>
<feComposite in2="hardAlpha" operator="out"/>
<feColorMatrix type="matrix" values="0 0 0 0 0 0 0 0 0 0 0 0 0 0 0 0 0 0 0.12 0"/>
<feBlend mode="normal" in2="BackgroundImageFix" result="effect1_dropShadow_4908_5838"/>
<feBlend mode="normal" in="SourceGraphic" in2="effect1_dropShadow_4908_5838" result="shape"/>
</filter>
<linearGradient id="paint0_linear_4908_5838" x1="175.642" y1="-13" x2="4.85303" y2="12.6985" gradientUnits="userSpaceOnUse">
<stop stop-color="#0C7486"/>
<stop offset="1" stop-color="#065462"/>
</linearGradient>
<linearGradient id="paint1_linear_4908_5838" x1="217.5" y1="-26.0001" x2="-44.1749" y2="3.16401" gradientUnits="userSpaceOnUse">
<stop stop-color="#0C7486"/>
<stop offset="1" stop-color="#065462"/>
</linearGradient>
</defs>
</svg>
