<svg width="208" height="57" viewBox="0 0 208 57" fill="none" xmlns="http://www.w3.org/2000/svg">
<g filter="url(#filter0_d_4908_5839)">
<path d="M4 14C4 9.58172 7.58172 6 12 6H177.475C180.803 6 183.784 8.06029 184.96 11.1736L200 51H4V14Z" fill="url(#paint0_linear_4908_5839)"/>
</g>
<mask id="mask0_4908_5839" style="mask-type:alpha" maskUnits="userSpaceOnUse" x="4" y="6" width="196" height="45">
<path d="M4 14C4 9.58172 7.58172 6 12 6H177.475C180.803 6 183.784 8.06029 184.96 11.1736L200 51H4V14Z" fill="url(#paint1_linear_4908_5839)"/>
</mask>
<g mask="url(#mask0_4908_5839)">
<path d="M37.2293 20.5912H30.5543V18.3057H31.1163C31.5412 18.3057 31.887 17.96 31.887 17.535V16.7707C31.887 16.3457 31.5412 16 31.1163 16H22.1833C21.9729 16 21.8025 16.1705 21.8025 16.3809C21.8025 16.5912 21.9729 16.7617 22.1833 16.7617H31.1163C31.1213 16.7617 31.1253 16.7658 31.1253 16.7707V17.535C31.1253 17.54 31.1213 17.544 31.1163 17.544H18.8837C18.8787 17.544 18.8747 17.5399 18.8747 17.535V16.7707C18.8747 16.7657 18.8787 16.7617 18.8837 16.7617H20.3532C20.5636 16.7617 20.7341 16.5912 20.7341 16.3809C20.7341 16.1705 20.5636 16 20.3532 16H18.8837C18.4588 16 18.113 16.3458 18.113 16.7707V17.535C18.113 17.96 18.4588 18.3057 18.8837 18.3057H19.4457V20.5912H12.7707C12.3458 20.5912 12 20.9369 12 21.3619V22.1262C12 22.5512 12.3458 22.897 12.7707 22.897H13.0098V33.2594C13.0098 33.8752 13.5108 34.3763 14.1267 34.3763H31.2482C31.4586 34.3763 31.6291 34.2057 31.6291 33.9954C31.6291 33.7851 31.4586 33.6145 31.2482 33.6145H30.5543V22.897H36.2284V33.2594C36.2284 33.4552 36.0691 33.6145 35.8733 33.6145H33.1448C32.9344 33.6145 32.7639 33.7851 32.7639 33.9954C32.7639 34.2057 32.9344 34.3763 33.1448 34.3763H35.8733C36.4892 34.3763 36.9902 33.8752 36.9902 33.2594V22.897H37.2293C37.6542 22.897 38 22.5512 38 22.1262V21.3619C38 20.9369 37.6542 20.5912 37.2293 20.5912V20.5912ZM12.7617 22.1262V21.3619C12.7617 21.3569 12.7657 21.3529 12.7707 21.3529H19.4457V22.1352H12.7707C12.7657 22.1352 12.7617 22.1312 12.7617 22.1262V22.1262ZM13.7716 33.2593V22.8969H19.4457V33.6145H14.1267C13.9309 33.6145 13.7716 33.4552 13.7716 33.2593V33.2593ZM22.2176 31.4037C22.0073 31.4037 21.8368 31.5742 21.8368 31.7845V33.6145H20.2074V18.3057H29.7926V33.6145H28.1632V28.0476C28.1632 27.5267 27.7394 27.1029 27.2185 27.1029H22.7816C22.2606 27.1029 21.8368 27.5267 21.8368 28.0476V29.8591C21.8368 30.0695 22.0073 30.24 22.2177 30.24C22.4281 30.24 22.5986 30.0695 22.5986 29.8591V28.0476C22.5986 27.9467 22.6807 27.8646 22.7816 27.8646H24.6191V33.6145H22.5985V31.7846C22.5985 31.5742 22.428 31.4037 22.2176 31.4037V31.4037ZM25.3809 33.6145V27.8646H27.2185C27.3194 27.8646 27.4015 27.9467 27.4015 28.0476V33.6145H25.3809ZM37.2383 22.1262C37.2383 22.1312 37.2343 22.1352 37.2293 22.1352H30.5543V21.3529H37.2293C37.2343 21.3529 37.2383 21.3569 37.2383 21.3619V22.1262Z" fill="#DDC9A3"/>
<path d="M32.3483 26.3409H34.4343C34.8536 26.3409 35.1947 25.9998 35.1947 25.5805V24.7955C35.1947 24.3763 34.8536 24.0352 34.4343 24.0352H32.3483C31.929 24.0352 31.5879 24.3763 31.5879 24.7955V25.5805C31.5879 25.9998 31.929 26.3409 32.3483 26.3409ZM34.433 24.7955L34.4346 25.5792L32.3496 25.5805L32.3483 24.7969L34.433 24.7955Z" fill="#DDC9A3"/>
<path d="M35.1947 28.6485V27.8634C35.1947 27.4442 34.8536 27.103 34.4343 27.103H32.3483C31.929 27.103 31.5879 27.4441 31.5879 27.8634V28.6485C31.5879 29.0677 31.929 29.4088 32.3483 29.4088H34.4343C34.8536 29.4088 35.1947 29.0678 35.1947 28.6485ZM32.3483 27.8648L34.433 27.8635L34.4346 28.6471L32.3496 28.6485L32.3483 27.8648Z" fill="#DDC9A3"/>
<path d="M17.6511 24.0352H15.565C15.1458 24.0352 14.8047 24.3763 14.8047 24.7955V25.5805C14.8047 25.9998 15.1458 26.3409 15.565 26.3409H17.6511C18.0704 26.3409 18.4115 25.9998 18.4115 25.5805V24.7955C18.4115 24.3763 18.0704 24.0352 17.6511 24.0352V24.0352ZM15.5664 25.5792L15.565 24.7969L17.6498 24.7956L17.6511 25.5792H15.5664Z" fill="#DDC9A3"/>
<path d="M17.6511 27.103H15.565C15.1458 27.103 14.8047 27.4441 14.8047 27.8634V28.6485C14.8047 29.0677 15.1458 29.4088 15.565 29.4088H17.6511C18.0704 29.4088 18.4115 29.0677 18.4115 28.6485V27.8634C18.4115 27.4441 18.0704 27.103 17.6511 27.103V27.103ZM15.5664 28.647L15.565 27.8647L17.6498 27.8634L17.6511 28.647H15.5664Z" fill="#DDC9A3"/>
<path d="M23.4685 22.39H23.8733V22.7948C23.8733 23.2416 24.2368 23.6051 24.6837 23.6051H25.3151C25.7619 23.6051 26.1254 23.2416 26.1254 22.7948V22.39H26.5302C26.977 22.39 27.3405 22.0265 27.3405 21.5797V20.9483C27.3405 20.5015 26.977 20.138 26.5302 20.138H26.1254V19.7332C26.1254 19.2863 25.7619 18.9229 25.3151 18.9229H24.6837C24.2368 18.9229 23.8733 19.2863 23.8733 19.7332V20.138H23.4685C23.0217 20.138 22.6582 20.5015 22.6582 20.9483V21.5797C22.6582 22.0265 23.0217 22.39 23.4685 22.39V22.39ZM23.4199 20.9483C23.4199 20.9215 23.4418 20.8997 23.4685 20.8997H24.2542C24.4646 20.8997 24.6351 20.7292 24.6351 20.5189V19.7332C24.6351 19.7064 24.6569 19.6846 24.6837 19.6846H25.3151C25.3418 19.6846 25.3637 19.7064 25.3637 19.7332V20.5189C25.3637 20.7292 25.5341 20.8997 25.7445 20.8997H26.5302C26.557 20.8997 26.5788 20.9215 26.5788 20.9483V21.5797C26.5788 21.6065 26.557 21.6283 26.5302 21.6283H25.7445C25.5341 21.6283 25.3637 21.7988 25.3637 22.0092V22.7949C25.3637 22.8216 25.3418 22.8435 25.3151 22.8435H24.6837C24.6569 22.8435 24.6351 22.8217 24.6351 22.7949V22.0091C24.6351 21.7988 24.4646 21.6283 24.2542 21.6283H23.4685C23.4418 21.6283 23.4199 21.6065 23.4199 21.5797V20.9483Z" fill="#DDC9A3"/>
<path d="M22.6087 26.4454H27.3896C27.8157 26.4454 28.1624 26.0987 28.1624 25.6726V24.9329C28.1624 24.5068 27.8157 24.1602 27.3896 24.1602H22.6087C22.1826 24.1602 21.8359 24.5068 21.8359 24.9329V25.6725C21.8359 26.0987 22.1826 26.4454 22.6087 26.4454V26.4454ZM22.5977 24.9329C22.5977 24.9269 22.6026 24.9219 22.6087 24.9219H27.3896C27.3957 24.9219 27.4006 24.9269 27.4006 24.9329V25.6725C27.4006 25.6787 27.3957 25.6836 27.3896 25.6836H22.6087C22.6026 25.6836 22.5977 25.6786 22.5977 25.6725V24.9329Z" fill="#DDC9A3"/>
<rect x="4" y="46" width="346" height="5" fill="#BC955C"/>
</g>
<path d="M50.688 32.16C49.5573 32.16 48.5333 31.9147 47.616 31.424C46.7093 30.9227 45.9947 30.2347 45.472 29.36C44.96 28.4853 44.704 27.4987 44.704 26.4C44.704 25.3013 44.9653 24.3147 45.488 23.44C46.0107 22.5653 46.7253 21.8827 47.632 21.392C48.5493 20.8907 49.5733 20.64 50.704 20.64C51.6213 20.64 52.4587 20.8 53.216 21.12C53.9733 21.44 54.6133 21.904 55.136 22.512L53.792 23.776C52.9813 22.9013 51.984 22.464 50.8 22.464C50.032 22.464 49.344 22.6347 48.736 22.976C48.128 23.3067 47.6533 23.7707 47.312 24.368C46.9707 24.9653 46.8 25.6427 46.8 26.4C46.8 27.1573 46.9707 27.8347 47.312 28.432C47.6533 29.0293 48.128 29.4987 48.736 29.84C49.344 30.1707 50.032 30.336 50.8 30.336C51.984 30.336 52.9813 29.8933 53.792 29.008L55.136 30.288C54.6133 30.896 53.968 31.36 53.2 31.68C52.4427 32 51.6053 32.16 50.688 32.16ZM60.4645 32.112C59.6005 32.112 58.8218 31.9253 58.1285 31.552C57.4352 31.1787 56.8912 30.6613 56.4965 30C56.1125 29.328 55.9205 28.5707 55.9205 27.728C55.9205 26.8853 56.1125 26.1333 56.4965 25.472C56.8912 24.8107 57.4352 24.2933 58.1285 23.92C58.8218 23.5467 59.6005 23.36 60.4645 23.36C61.3392 23.36 62.1232 23.5467 62.8165 23.92C63.5098 24.2933 64.0485 24.8107 64.4325 25.472C64.8272 26.1333 65.0245 26.8853 65.0245 27.728C65.0245 28.5707 64.8272 29.328 64.4325 30C64.0485 30.6613 63.5098 31.1787 62.8165 31.552C62.1232 31.9253 61.3392 32.112 60.4645 32.112ZM60.4645 30.4C61.2005 30.4 61.8085 30.1547 62.2885 29.664C62.7685 29.1733 63.0085 28.528 63.0085 27.728C63.0085 26.928 62.7685 26.2827 62.2885 25.792C61.8085 25.3013 61.2005 25.056 60.4645 25.056C59.7285 25.056 59.1205 25.3013 58.6405 25.792C58.1712 26.2827 57.9365 26.928 57.9365 27.728C57.9365 28.528 58.1712 29.1733 58.6405 29.664C59.1205 30.1547 59.7285 30.4 60.4645 30.4ZM71.785 23.36C72.8623 23.36 73.7263 23.6747 74.377 24.304C75.0277 24.9333 75.353 25.8667 75.353 27.104V32H73.353V27.36C73.353 26.6133 73.177 26.0533 72.825 25.68C72.473 25.296 71.9717 25.104 71.321 25.104C70.585 25.104 70.0037 25.328 69.577 25.776C69.1503 26.2133 68.937 26.848 68.937 27.68V32H66.937V23.456H68.841V24.56C69.1717 24.1653 69.5877 23.8667 70.089 23.664C70.5903 23.4613 71.1557 23.36 71.785 23.36ZM80.5301 32.112C79.8368 32.112 79.1595 32.0213 78.4981 31.84C77.8368 31.6587 77.3088 31.4293 76.9141 31.152L77.6821 29.632C78.0661 29.888 78.5248 30.096 79.0581 30.256C79.6021 30.4053 80.1355 30.48 80.6581 30.48C81.8528 30.48 82.4501 30.1653 82.4501 29.536C82.4501 29.2373 82.2955 29.0293 81.9861 28.912C81.6875 28.7947 81.2021 28.6827 80.5301 28.576C79.8261 28.4693 79.2501 28.3467 78.8021 28.208C78.3648 28.0693 77.9808 27.8293 77.6501 27.488C77.3301 27.136 77.1701 26.6507 77.1701 26.032C77.1701 25.2213 77.5061 24.576 78.1781 24.096C78.8608 23.6053 79.7781 23.36 80.9301 23.36C81.5168 23.36 82.1035 23.4293 82.6901 23.568C83.2768 23.696 83.7568 23.872 84.1301 24.096L83.3621 25.616C82.6368 25.1893 81.8208 24.976 80.9141 24.976C80.3275 24.976 79.8795 25.0667 79.5701 25.248C79.2715 25.4187 79.1221 25.648 79.1221 25.936C79.1221 26.256 79.2821 26.4853 79.6021 26.624C79.9328 26.752 80.4395 26.8747 81.1221 26.992C81.8048 27.0987 82.3648 27.2213 82.8021 27.36C83.2395 27.4987 83.6128 27.7333 83.9221 28.064C84.2421 28.3947 84.4021 28.864 84.4021 29.472C84.4021 30.272 84.0555 30.912 83.3621 31.392C82.6688 31.872 81.7248 32.112 80.5301 32.112ZM94.3965 23.456V32H92.4925V30.912C92.1725 31.296 91.7725 31.5947 91.2925 31.808C90.8125 32.0107 90.2952 32.112 89.7405 32.112C88.5992 32.112 87.6978 31.7973 87.0365 31.168C86.3858 30.528 86.0605 29.584 86.0605 28.336V23.456H88.0605V28.064C88.0605 28.832 88.2312 29.408 88.5725 29.792C88.9245 30.1653 89.4205 30.352 90.0605 30.352C90.7752 30.352 91.3405 30.1333 91.7565 29.696C92.1832 29.248 92.3965 28.608 92.3965 27.776V23.456H94.3965ZM97.0151 20.128H99.0151V32H97.0151V20.128ZM107.198 31.536C106.963 31.728 106.675 31.872 106.334 31.968C106.003 32.064 105.651 32.112 105.278 32.112C104.339 32.112 103.614 31.8667 103.102 31.376C102.59 30.8853 102.334 30.1707 102.334 29.232V25.12H100.926V23.52H102.334V21.568H104.334V23.52H106.622V25.12H104.334V29.184C104.334 29.6 104.435 29.92 104.638 30.144C104.841 30.3573 105.134 30.464 105.518 30.464C105.966 30.464 106.339 30.3467 106.638 30.112L107.198 31.536ZM112.402 32.112C111.538 32.112 110.759 31.9253 110.066 31.552C109.373 31.1787 108.829 30.6613 108.434 30C108.05 29.328 107.858 28.5707 107.858 27.728C107.858 26.8853 108.05 26.1333 108.434 25.472C108.829 24.8107 109.373 24.2933 110.066 23.92C110.759 23.5467 111.538 23.36 112.402 23.36C113.277 23.36 114.061 23.5467 114.754 23.92C115.447 24.2933 115.986 24.8107 116.37 25.472C116.765 26.1333 116.962 26.8853 116.962 27.728C116.962 28.5707 116.765 29.328 116.37 30C115.986 30.6613 115.447 31.1787 114.754 31.552C114.061 31.9253 113.277 32.112 112.402 32.112ZM112.402 30.4C113.138 30.4 113.746 30.1547 114.226 29.664C114.706 29.1733 114.946 28.528 114.946 27.728C114.946 26.928 114.706 26.2827 114.226 25.792C113.746 25.3013 113.138 25.056 112.402 25.056C111.666 25.056 111.058 25.3013 110.578 25.792C110.109 26.2827 109.874 26.928 109.874 27.728C109.874 28.528 110.109 29.1733 110.578 29.664C111.058 30.1547 111.666 30.4 112.402 30.4ZM120.779 24.704C121.355 23.808 122.368 23.36 123.819 23.36V25.264C123.648 25.232 123.493 25.216 123.355 25.216C122.576 25.216 121.968 25.4453 121.531 25.904C121.093 26.352 120.875 27.0027 120.875 27.856V32H118.875V23.456H120.779V24.704ZM125.515 23.456H127.515V32H125.515V23.456ZM126.523 22.048C126.16 22.048 125.856 21.936 125.611 21.712C125.366 21.4773 125.243 21.1893 125.243 20.848C125.243 20.5067 125.366 20.224 125.611 20C125.856 19.7653 126.16 19.648 126.523 19.648C126.886 19.648 127.19 19.76 127.435 19.984C127.68 20.1973 127.803 20.4693 127.803 20.8C127.803 21.152 127.68 21.4507 127.435 21.696C127.2 21.9307 126.896 22.048 126.523 22.048ZM133.98 32.112C133.116 32.112 132.337 31.9253 131.644 31.552C130.951 31.1787 130.407 30.6613 130.012 30C129.628 29.328 129.436 28.5707 129.436 27.728C129.436 26.8853 129.628 26.1333 130.012 25.472C130.407 24.8107 130.951 24.2933 131.644 23.92C132.337 23.5467 133.116 23.36 133.98 23.36C134.855 23.36 135.639 23.5467 136.332 23.92C137.025 24.2933 137.564 24.8107 137.948 25.472C138.343 26.1333 138.54 26.8853 138.54 27.728C138.54 28.5707 138.343 29.328 137.948 30C137.564 30.6613 137.025 31.1787 136.332 31.552C135.639 31.9253 134.855 32.112 133.98 32.112ZM133.98 30.4C134.716 30.4 135.324 30.1547 135.804 29.664C136.284 29.1733 136.524 28.528 136.524 27.728C136.524 26.928 136.284 26.2827 135.804 25.792C135.324 25.3013 134.716 25.056 133.98 25.056C133.244 25.056 132.636 25.3013 132.156 25.792C131.687 26.2827 131.452 26.928 131.452 27.728C131.452 28.528 131.687 29.1733 132.156 29.664C132.636 30.1547 133.244 30.4 133.98 30.4ZM143.093 32.112C142.399 32.112 141.722 32.0213 141.061 31.84C140.399 31.6587 139.871 31.4293 139.477 31.152L140.245 29.632C140.629 29.888 141.087 30.096 141.621 30.256C142.165 30.4053 142.698 30.48 143.221 30.48C144.415 30.48 145.013 30.1653 145.013 29.536C145.013 29.2373 144.858 29.0293 144.549 28.912C144.25 28.7947 143.765 28.6827 143.093 28.576C142.389 28.4693 141.813 28.3467 141.365 28.208C140.927 28.0693 140.543 27.8293 140.213 27.488C139.893 27.136 139.733 26.6507 139.733 26.032C139.733 25.2213 140.069 24.576 140.741 24.096C141.423 23.6053 142.341 23.36 143.493 23.36C144.079 23.36 144.666 23.4293 145.253 23.568C145.839 23.696 146.319 23.872 146.693 24.096L145.925 25.616C145.199 25.1893 144.383 24.976 143.477 24.976C142.89 24.976 142.442 25.0667 142.133 25.248C141.834 25.4187 141.685 25.648 141.685 25.936C141.685 26.256 141.845 26.4853 142.165 26.624C142.495 26.752 143.002 26.8747 143.685 26.992C144.367 27.0987 144.927 27.2213 145.365 27.36C145.802 27.4987 146.175 27.7333 146.485 28.064C146.805 28.3947 146.965 28.864 146.965 29.472C146.965 30.272 146.618 30.912 145.925 31.392C145.231 31.872 144.287 32.112 143.093 32.112Z" fill="white"/>
<defs>
<filter id="filter0_d_4908_5839" x="0" y="0" width="208" height="57" filterUnits="userSpaceOnUse" color-interpolation-filters="sRGB">
<feFlood flood-opacity="0" result="BackgroundImageFix"/>
<feColorMatrix in="SourceAlpha" type="matrix" values="0 0 0 0 0 0 0 0 0 0 0 0 0 0 0 0 0 0 127 0" result="hardAlpha"/>
<feOffset dx="2"/>
<feGaussianBlur stdDeviation="3"/>
<feComposite in2="hardAlpha" operator="out"/>
<feColorMatrix type="matrix" values="0 0 0 0 0 0 0 0 0 0 0 0 0 0 0 0 0 0 0.12 0"/>
<feBlend mode="normal" in2="BackgroundImageFix" result="effect1_dropShadow_4908_5839"/>
<feBlend mode="normal" in="SourceGraphic" in2="effect1_dropShadow_4908_5839" result="shape"/>
</filter>
<linearGradient id="paint0_linear_4908_5839" x1="175.642" y1="-13" x2="4.85303" y2="12.6985" gradientUnits="userSpaceOnUse">
<stop stop-color="#0C7486"/>
<stop offset="1" stop-color="#065462"/>
</linearGradient>
<linearGradient id="paint1_linear_4908_5839" x1="217.5" y1="-26.0001" x2="-44.1749" y2="3.16401" gradientUnits="userSpaceOnUse">
<stop stop-color="#0C7486"/>
<stop offset="1" stop-color="#065462"/>
</linearGradient>
</defs>
</svg>
