<svg width="394" height="57" viewBox="0 0 394 57" fill="none" xmlns="http://www.w3.org/2000/svg">
<g filter="url(#filter0_d_4908_5844)">
<path d="M4 14C4 9.58172 7.58172 6 12 6H348.834C351.377 6 353.769 7.20942 355.276 9.2578L386 51H4V14Z" fill="url(#paint0_linear_4908_5844)"/>
</g>
<mask id="mask0_4908_5844" style="mask-type:alpha" maskUnits="userSpaceOnUse" x="4" y="6" width="382" height="45">
<path d="M4 14C4 9.58172 7.58172 6 12 6H348.834C351.377 6 353.769 7.20942 355.276 9.2578L386 51H4V14Z" fill="url(#paint1_linear_4908_5844)"/>
</mask>
<g mask="url(#mask0_4908_5844)">
<path d="M23.8544 31.8134C25.4074 31.8134 26.8676 31.2086 27.9658 30.1104C30.2328 27.8434 30.2328 24.1547 27.9658 21.8877C26.8676 20.7895 25.4075 20.1847 23.8544 20.1847C22.3014 20.1847 20.8412 20.7895 19.743 21.8877C18.6448 22.9859 18.04 24.446 18.04 25.9991C18.04 27.5522 18.6448 29.0123 19.743 30.1104C20.8412 31.2086 22.3014 31.8134 23.8544 31.8134ZM20.3231 22.4677C21.2663 21.5245 22.5205 21.005 23.8544 21.005C25.1884 21.005 26.4425 21.5245 27.3857 22.4677C29.3329 24.4149 29.3329 27.5832 27.3857 29.5304C26.4425 30.4737 25.1883 30.9931 23.8544 30.9931C22.5204 30.9931 21.2663 30.4737 20.3231 29.5304C19.3798 28.5872 18.8604 27.333 18.8604 25.9991C18.8604 24.6651 19.3798 23.411 20.3231 22.4677Z" fill="#DDC9A3"/>
<path d="M22.5228 27.3294V28.9285C22.5228 29.4402 22.9392 29.8566 23.451 29.8566H24.2561C24.7679 29.8566 25.1843 29.4403 25.1843 28.9285V27.3294H26.7833C27.2951 27.3294 27.7115 26.9131 27.7115 26.4012V25.5961C27.7115 25.0844 27.2951 24.668 26.7833 24.668H25.1843V23.0689C25.1843 22.5571 24.7679 22.1407 24.2561 22.1407H23.451C22.9392 22.1407 22.5228 22.5571 22.5228 23.0689V24.668H20.9238C20.412 24.668 19.9956 25.0844 19.9956 25.5961V26.4012C19.9956 26.913 20.4119 27.3294 20.9238 27.3294H22.5228ZM20.8159 26.4012V25.5961C20.8159 25.5367 20.8643 25.4883 20.9238 25.4883H22.933C23.1596 25.4883 23.3431 25.3046 23.3431 25.0781V23.0689C23.3431 23.0095 23.3915 22.9611 23.451 22.9611H24.2561C24.3155 22.9611 24.3639 23.0094 24.3639 23.0689V25.0781C24.3639 25.3046 24.5475 25.4883 24.7741 25.4883H26.7833C26.8428 25.4883 26.8912 25.5367 26.8912 25.5961V26.4012C26.8912 26.4607 26.8428 26.5091 26.7833 26.5091H24.7741C24.5475 26.5091 24.3639 26.6927 24.3639 26.9192V28.9285C24.3639 28.9879 24.3155 29.0363 24.2561 29.0363H23.451C23.3915 29.0363 23.3431 28.988 23.3431 28.9285V26.9192C23.3431 26.6927 23.1596 26.5091 22.933 26.5091H20.9238C20.8643 26.5091 20.8159 26.4607 20.8159 26.4012Z" fill="#DDC9A3"/>
<path d="M37.5016 19.4807C37.3945 19.1935 37.1819 18.9651 36.9031 18.8378L36.2365 18.5333C35.6609 18.2704 34.9786 18.5248 34.7156 19.1004L33.8924 20.9025V15.7095C33.8924 14.4404 32.8599 13.4079 31.5908 13.4079H27.7105V13.322C27.7105 12.593 27.1175 12 26.3886 12H20.6522C19.9234 12 19.3303 12.593 19.3303 13.3219V13.4079H15.4501C14.1809 13.4079 13.1484 14.4404 13.1484 15.7095V37.6984C13.1484 38.9676 14.1809 40 15.4501 40H31.5908C32.86 40 33.8925 38.9675 33.8925 37.6984V28.1912L37.4703 20.3586C37.5976 20.0797 37.6087 19.7679 37.5016 19.4807ZM35.7601 19.2498C35.8055 19.2498 35.8517 19.2593 35.8956 19.2794L36.5622 19.5839C36.7264 19.6589 36.799 19.8536 36.724 20.0177L36.364 20.8059L35.1018 20.2294L35.4618 19.4412C35.5167 19.3209 35.6358 19.2498 35.7601 19.2498ZM35.7915 22.0592L34.5293 21.4827L34.761 20.9755L36.0232 21.552L35.7915 22.0592ZM29.2761 36.3217L28.0149 35.7456C28.0208 35.732 34.1885 22.2288 34.1885 22.2288L35.4507 22.8053C35.4507 22.8053 29.2826 36.3084 29.2761 36.3217ZM27.8037 36.551L28.8057 37.0087L27.2203 39.1537L27.8037 36.551ZM29.766 37.0895C29.766 37.0895 29.766 37.0895 29.766 37.0895C29.8736 36.9439 29.9662 36.7867 30.0413 36.6223L31.1787 34.1323V36.9289C31.1787 37.1729 30.9802 37.3728 30.7363 37.3744L29.5499 37.382L29.766 37.0895ZM20.1506 13.3219C20.1506 13.0453 20.3756 12.8203 20.6522 12.8203H26.3887C26.6653 12.8203 26.8903 13.0454 26.8903 13.3219V14.3744C26.8903 14.651 26.6653 14.876 26.3887 14.876H20.6522C20.3756 14.876 20.1506 14.651 20.1506 14.3744V13.3219ZM13.9688 37.6985V15.7095C13.9688 15.0353 14.4216 14.4648 15.039 14.2863V33.3464C15.039 33.5729 15.2226 33.7565 15.4492 33.7565C15.6758 33.7565 15.8594 33.5729 15.8594 33.3464L15.8594 14.2282H19.3303V14.3745C19.3303 15.1034 19.9234 15.6964 20.6522 15.6964H26.3887C27.1176 15.6964 27.7106 15.1034 27.7106 14.3745V14.2282H31.1787V17.4826C31.1787 17.7091 31.3623 17.8928 31.5889 17.8928C31.8154 17.8928 31.999 17.7091 31.999 17.4826V14.2854C32.618 14.4631 33.0722 15.0342 33.0722 15.7095V22.6984L31.999 25.0478V19.1232C31.999 18.8967 31.8154 18.713 31.5889 18.713C31.3623 18.713 31.1787 18.8967 31.1787 19.1232V26.8436L27.2868 35.364C27.2117 35.5286 27.1535 35.7015 27.1139 35.878L26.7729 37.3996L16.3078 37.4665C16.3068 37.4665 16.3058 37.4665 16.3048 37.4665C16.1864 37.4665 16.075 37.4207 15.9909 37.3371C15.9061 37.2528 15.8594 37.1406 15.8594 37.0211V34.9869C15.8594 34.7604 15.6758 34.5767 15.4493 34.5767C15.2227 34.5767 15.0391 34.7604 15.0391 34.9869V37.0211C15.0391 37.3608 15.1718 37.6797 15.4128 37.9191C15.6518 38.1564 15.9682 38.2869 16.3046 38.2869C16.3075 38.2869 16.3103 38.2869 16.3132 38.2869L26.5888 38.2211L26.3707 39.1797H15.4501C14.6333 39.1797 13.9688 38.5152 13.9688 37.6985ZM33.0721 37.6985C33.0721 38.5153 32.4076 39.1797 31.5908 39.1797H28.2212L28.9407 38.2062L30.7417 38.1947C31.435 38.1901 31.999 37.6222 31.999 36.9289V32.3365L33.0721 29.9871V37.6985Z" fill="#DDC9A3"/>
<rect x="4" y="46" width="382" height="5" fill="#BC955C"/>
</g>
<path d="M52.832 32L50.544 28.72C50.448 28.7307 50.304 28.736 50.112 28.736H47.584V32H45.504V20.8H50.112C51.0827 20.8 51.9253 20.96 52.64 21.28C53.3653 21.6 53.92 22.0587 54.304 22.656C54.688 23.2533 54.88 23.9627 54.88 24.784C54.88 25.6267 54.672 26.352 54.256 26.96C53.8507 27.568 53.264 28.0213 52.496 28.32L55.072 32H52.832ZM52.784 24.784C52.784 24.0693 52.5493 23.52 52.08 23.136C51.6107 22.752 50.9227 22.56 50.016 22.56H47.584V27.024H50.016C50.9227 27.024 51.6107 26.832 52.08 26.448C52.5493 26.0533 52.784 25.4987 52.784 24.784ZM65.0471 27.776C65.0471 27.9147 65.0365 28.112 65.0151 28.368H58.3111C58.4285 28.9973 58.7325 29.4987 59.2231 29.872C59.7245 30.2347 60.3431 30.416 61.0791 30.416C62.0178 30.416 62.7911 30.1067 63.3991 29.488L64.4711 30.72C64.0871 31.1787 63.6018 31.5253 63.0151 31.76C62.4285 31.9947 61.7671 32.112 61.0311 32.112C60.0925 32.112 59.2658 31.9253 58.5511 31.552C57.8365 31.1787 57.2818 30.6613 56.8871 30C56.5031 29.328 56.3111 28.5707 56.3111 27.728C56.3111 26.896 56.4978 26.1493 56.8711 25.488C57.2551 24.816 57.7831 24.2933 58.4551 23.92C59.1271 23.5467 59.8845 23.36 60.7271 23.36C61.5591 23.36 62.3005 23.5467 62.9511 23.92C63.6125 24.2827 64.1245 24.8 64.4871 25.472C64.8605 26.1333 65.0471 26.9013 65.0471 27.776ZM60.7271 24.96C60.0871 24.96 59.5431 25.152 59.0951 25.536C58.6578 25.9093 58.3911 26.4107 58.2951 27.04H63.1431C63.0578 26.4213 62.7965 25.92 62.3591 25.536C61.9218 25.152 61.3778 24.96 60.7271 24.96ZM75.3203 23.456V35.104H73.3203V30.96C72.6483 31.728 71.7363 32.112 70.5843 32.112C69.7523 32.112 69.0056 31.9307 68.3443 31.568C67.6936 31.2053 67.1816 30.6933 66.8083 30.032C66.4456 29.3707 66.2643 28.6027 66.2643 27.728C66.2643 26.864 66.4509 26.1013 66.8243 25.44C67.1976 24.7787 67.7096 24.2667 68.3603 23.904C69.0109 23.5413 69.7523 23.36 70.5843 23.36C71.1709 23.36 71.7043 23.4613 72.1843 23.664C72.6749 23.8667 73.0856 24.1707 73.4163 24.576V23.456H75.3203ZM70.8083 30.4C71.5443 30.4 72.1523 30.1547 72.6323 29.664C73.1123 29.1733 73.3523 28.528 73.3523 27.728C73.3523 26.928 73.1123 26.2827 72.6323 25.792C72.1523 25.3013 71.5443 25.056 70.8083 25.056C70.0723 25.056 69.4643 25.3013 68.9843 25.792C68.5149 26.2827 68.2803 26.928 68.2803 27.728C68.2803 28.528 68.5149 29.1733 68.9843 29.664C69.4643 30.1547 70.0723 30.4 70.8083 30.4ZM86.209 23.456V32H84.305V30.912C83.985 31.296 83.585 31.5947 83.105 31.808C82.625 32.0107 82.1077 32.112 81.553 32.112C80.4117 32.112 79.5103 31.7973 78.849 31.168C78.1983 30.528 77.873 29.584 77.873 28.336V23.456H79.873V28.064C79.873 28.832 80.0437 29.408 80.385 29.792C80.737 30.1653 81.233 30.352 81.873 30.352C82.5877 30.352 83.153 30.1333 83.569 29.696C83.9957 29.248 84.209 28.608 84.209 27.776V23.456H86.209ZM96.8596 27.776C96.8596 27.9147 96.849 28.112 96.8276 28.368H90.1236C90.241 28.9973 90.545 29.4987 91.0356 29.872C91.537 30.2347 92.1556 30.416 92.8916 30.416C93.8303 30.416 94.6036 30.1067 95.2116 29.488L96.2836 30.72C95.8996 31.1787 95.4143 31.5253 94.8276 31.76C94.241 31.9947 93.5796 32.112 92.8436 32.112C91.905 32.112 91.0783 31.9253 90.3636 31.552C89.649 31.1787 89.0943 30.6613 88.6996 30C88.3156 29.328 88.1236 28.5707 88.1236 27.728C88.1236 26.896 88.3103 26.1493 88.6836 25.488C89.0676 24.816 89.5956 24.2933 90.2676 23.92C90.9396 23.5467 91.697 23.36 92.5396 23.36C93.3716 23.36 94.113 23.5467 94.7636 23.92C95.425 24.2827 95.937 24.8 96.2996 25.472C96.673 26.1333 96.8596 26.9013 96.8596 27.776ZM92.5396 24.96C91.8996 24.96 91.3556 25.152 90.9076 25.536C90.4703 25.9093 90.2036 26.4107 90.1076 27.04H94.9556C94.8703 26.4213 94.609 25.92 94.1716 25.536C93.7343 25.152 93.1903 24.96 92.5396 24.96ZM100.685 24.704C101.261 23.808 102.274 23.36 103.725 23.36V25.264C103.554 25.232 103.399 25.216 103.261 25.216C102.482 25.216 101.874 25.4453 101.437 25.904C100.999 26.352 100.781 27.0027 100.781 27.856V32H98.7808V23.456H100.685V24.704ZM105.421 23.456H107.421V32H105.421V23.456ZM106.429 22.048C106.067 22.048 105.763 21.936 105.517 21.712C105.272 21.4773 105.149 21.1893 105.149 20.848C105.149 20.5067 105.272 20.224 105.517 20C105.763 19.7653 106.067 19.648 106.429 19.648C106.792 19.648 107.096 19.76 107.341 19.984C107.587 20.1973 107.709 20.4693 107.709 20.8C107.709 21.152 107.587 21.4507 107.341 21.696C107.107 21.9307 106.803 22.048 106.429 22.048ZM120.83 23.36C121.908 23.36 122.761 23.6747 123.39 24.304C124.02 24.9227 124.334 25.856 124.334 27.104V32H122.334V27.36C122.334 26.6133 122.169 26.0533 121.838 25.68C121.508 25.296 121.033 25.104 120.414 25.104C119.742 25.104 119.204 25.328 118.798 25.776C118.393 26.2133 118.19 26.8427 118.19 27.664V32H116.19V27.36C116.19 26.6133 116.025 26.0533 115.694 25.68C115.364 25.296 114.889 25.104 114.27 25.104C113.588 25.104 113.044 25.3227 112.638 25.76C112.244 26.1973 112.046 26.832 112.046 27.664V32H110.046V23.456H111.95V24.544C112.27 24.16 112.67 23.8667 113.15 23.664C113.63 23.4613 114.164 23.36 114.75 23.36C115.39 23.36 115.956 23.4827 116.446 23.728C116.948 23.9627 117.342 24.3147 117.63 24.784C117.982 24.336 118.436 23.9893 118.99 23.744C119.545 23.488 120.158 23.36 120.83 23.36ZM126.89 23.456H128.89V32H126.89V23.456ZM127.898 22.048C127.535 22.048 127.231 21.936 126.986 21.712C126.741 21.4773 126.618 21.1893 126.618 20.848C126.618 20.5067 126.741 20.224 126.986 20C127.231 19.7653 127.535 19.648 127.898 19.648C128.261 19.648 128.565 19.76 128.81 19.984C129.055 20.1973 129.178 20.4693 129.178 20.8C129.178 21.152 129.055 21.4507 128.81 21.696C128.575 21.9307 128.271 22.048 127.898 22.048ZM139.547 27.776C139.547 27.9147 139.536 28.112 139.515 28.368H132.811C132.928 28.9973 133.232 29.4987 133.723 29.872C134.224 30.2347 134.843 30.416 135.579 30.416C136.518 30.416 137.291 30.1067 137.899 29.488L138.971 30.72C138.587 31.1787 138.102 31.5253 137.515 31.76C136.928 31.9947 136.267 32.112 135.531 32.112C134.592 32.112 133.766 31.9253 133.051 31.552C132.336 31.1787 131.782 30.6613 131.387 30C131.003 29.328 130.811 28.5707 130.811 27.728C130.811 26.896 130.998 26.1493 131.371 25.488C131.755 24.816 132.283 24.2933 132.955 23.92C133.627 23.5467 134.384 23.36 135.227 23.36C136.059 23.36 136.8 23.5467 137.451 23.92C138.112 24.2827 138.624 24.8 138.987 25.472C139.36 26.1333 139.547 26.9013 139.547 27.776ZM135.227 24.96C134.587 24.96 134.043 25.152 133.595 25.536C133.158 25.9093 132.891 26.4107 132.795 27.04H137.643C137.558 26.4213 137.296 25.92 136.859 25.536C136.422 25.152 135.878 24.96 135.227 24.96ZM146.316 23.36C147.394 23.36 148.258 23.6747 148.908 24.304C149.559 24.9333 149.884 25.8667 149.884 27.104V32H147.884V27.36C147.884 26.6133 147.708 26.0533 147.356 25.68C147.004 25.296 146.503 25.104 145.852 25.104C145.116 25.104 144.535 25.328 144.108 25.776C143.682 26.2133 143.468 26.848 143.468 27.68V32H141.468V23.456H143.372V24.56C143.703 24.1653 144.119 23.8667 144.62 23.664C145.122 23.4613 145.687 23.36 146.316 23.36ZM157.557 31.536C157.323 31.728 157.035 31.872 156.693 31.968C156.363 32.064 156.011 32.112 155.637 32.112C154.699 32.112 153.973 31.8667 153.461 31.376C152.949 30.8853 152.693 30.1707 152.693 29.232V25.12H151.285V23.52H152.693V21.568H154.693V23.52H156.981V25.12H154.693V29.184C154.693 29.6 154.795 29.92 154.997 30.144C155.2 30.3573 155.493 30.464 155.877 30.464C156.325 30.464 156.699 30.3467 156.997 30.112L157.557 31.536ZM162.761 32.112C161.897 32.112 161.119 31.9253 160.425 31.552C159.732 31.1787 159.188 30.6613 158.793 30C158.409 29.328 158.217 28.5707 158.217 27.728C158.217 26.8853 158.409 26.1333 158.793 25.472C159.188 24.8107 159.732 24.2933 160.425 23.92C161.119 23.5467 161.897 23.36 162.761 23.36C163.636 23.36 164.42 23.5467 165.113 23.92C165.807 24.2933 166.345 24.8107 166.729 25.472C167.124 26.1333 167.321 26.8853 167.321 27.728C167.321 28.5707 167.124 29.328 166.729 30C166.345 30.6613 165.807 31.1787 165.113 31.552C164.42 31.9253 163.636 32.112 162.761 32.112ZM162.761 30.4C163.497 30.4 164.105 30.1547 164.585 29.664C165.065 29.1733 165.305 28.528 165.305 27.728C165.305 26.928 165.065 26.2827 164.585 25.792C164.105 25.3013 163.497 25.056 162.761 25.056C162.025 25.056 161.417 25.3013 160.937 25.792C160.468 26.2827 160.233 26.928 160.233 27.728C160.233 28.528 160.468 29.1733 160.937 29.664C161.417 30.1547 162.025 30.4 162.761 30.4ZM182.024 20.128V32H180.104V30.896C179.773 31.3013 179.362 31.6053 178.872 31.808C178.392 32.0107 177.858 32.112 177.272 32.112C176.45 32.112 175.709 31.9307 175.048 31.568C174.397 31.2053 173.885 30.6933 173.512 30.032C173.138 29.36 172.952 28.592 172.952 27.728C172.952 26.864 173.138 26.1013 173.512 25.44C173.885 24.7787 174.397 24.2667 175.048 23.904C175.709 23.5413 176.45 23.36 177.272 23.36C177.837 23.36 178.354 23.456 178.824 23.648C179.293 23.84 179.693 24.128 180.024 24.512V20.128H182.024ZM177.512 30.4C177.992 30.4 178.424 30.2933 178.808 30.08C179.192 29.856 179.496 29.5413 179.72 29.136C179.944 28.7307 180.056 28.2613 180.056 27.728C180.056 27.1947 179.944 26.7253 179.72 26.32C179.496 25.9147 179.192 25.6053 178.808 25.392C178.424 25.168 177.992 25.056 177.512 25.056C177.032 25.056 176.6 25.168 176.216 25.392C175.832 25.6053 175.528 25.9147 175.304 26.32C175.08 26.7253 174.968 27.1947 174.968 27.728C174.968 28.2613 175.08 28.7307 175.304 29.136C175.528 29.5413 175.832 29.856 176.216 30.08C176.6 30.2933 177.032 30.4 177.512 30.4ZM192.672 27.776C192.672 27.9147 192.661 28.112 192.64 28.368H185.936C186.053 28.9973 186.357 29.4987 186.848 29.872C187.349 30.2347 187.968 30.416 188.704 30.416C189.643 30.416 190.416 30.1067 191.024 29.488L192.096 30.72C191.712 31.1787 191.227 31.5253 190.64 31.76C190.053 31.9947 189.392 32.112 188.656 32.112C187.717 32.112 186.891 31.9253 186.176 31.552C185.461 31.1787 184.907 30.6613 184.512 30C184.128 29.328 183.936 28.5707 183.936 27.728C183.936 26.896 184.123 26.1493 184.496 25.488C184.88 24.816 185.408 24.2933 186.08 23.92C186.752 23.5467 187.509 23.36 188.352 23.36C189.184 23.36 189.925 23.5467 190.576 23.92C191.237 24.2827 191.749 24.8 192.112 25.472C192.485 26.1333 192.672 26.9013 192.672 27.776ZM188.352 24.96C187.712 24.96 187.168 25.152 186.72 25.536C186.283 25.9093 186.016 26.4107 185.92 27.04H190.768C190.683 26.4213 190.421 25.92 189.984 25.536C189.547 25.152 189.003 24.96 188.352 24.96ZM203.751 23.36C204.583 23.36 205.324 23.5413 205.975 23.904C206.636 24.2667 207.154 24.7787 207.527 25.44C207.9 26.1013 208.087 26.864 208.087 27.728C208.087 28.592 207.9 29.36 207.527 30.032C207.154 30.6933 206.636 31.2053 205.975 31.568C205.324 31.9307 204.583 32.112 203.751 32.112C202.599 32.112 201.687 31.728 201.015 30.96V35.104H199.015V23.456H200.919V24.576C201.25 24.1707 201.655 23.8667 202.135 23.664C202.626 23.4613 203.164 23.36 203.751 23.36ZM203.527 30.4C204.263 30.4 204.866 30.1547 205.335 29.664C205.815 29.1733 206.055 28.528 206.055 27.728C206.055 26.928 205.815 26.2827 205.335 25.792C204.866 25.3013 204.263 25.056 203.527 25.056C203.047 25.056 202.615 25.168 202.231 25.392C201.847 25.6053 201.543 25.9147 201.319 26.32C201.095 26.7253 200.983 27.1947 200.983 27.728C200.983 28.2613 201.095 28.7307 201.319 29.136C201.543 29.5413 201.847 29.856 202.231 30.08C202.615 30.2933 203.047 30.4 203.527 30.4ZM218.016 27.776C218.016 27.9147 218.005 28.112 217.984 28.368H211.28C211.397 28.9973 211.701 29.4987 212.192 29.872C212.693 30.2347 213.312 30.416 214.048 30.416C214.987 30.416 215.76 30.1067 216.368 29.488L217.44 30.72C217.056 31.1787 216.571 31.5253 215.984 31.76C215.397 31.9947 214.736 32.112 214 32.112C213.061 32.112 212.235 31.9253 211.52 31.552C210.805 31.1787 210.251 30.6613 209.856 30C209.472 29.328 209.28 28.5707 209.28 27.728C209.28 26.896 209.467 26.1493 209.84 25.488C210.224 24.816 210.752 24.2933 211.424 23.92C212.096 23.5467 212.853 23.36 213.696 23.36C214.528 23.36 215.269 23.5467 215.92 23.92C216.581 24.2827 217.093 24.8 217.456 25.472C217.829 26.1333 218.016 26.9013 218.016 27.776ZM213.696 24.96C213.056 24.96 212.512 25.152 212.064 25.536C211.627 25.9093 211.36 26.4107 211.264 27.04H216.112C216.027 26.4213 215.765 25.92 215.328 25.536C214.891 25.152 214.347 24.96 213.696 24.96ZM221.841 24.704C222.417 23.808 223.43 23.36 224.881 23.36V25.264C224.71 25.232 224.556 25.216 224.417 25.216C223.638 25.216 223.03 25.4453 222.593 25.904C222.156 26.352 221.937 27.0027 221.937 27.856V32H219.937V23.456H221.841V24.704ZM229.249 32.112C228.556 32.112 227.878 32.0213 227.217 31.84C226.556 31.6587 226.028 31.4293 225.633 31.152L226.401 29.632C226.785 29.888 227.244 30.096 227.777 30.256C228.321 30.4053 228.854 30.48 229.377 30.48C230.572 30.48 231.169 30.1653 231.169 29.536C231.169 29.2373 231.014 29.0293 230.705 28.912C230.406 28.7947 229.921 28.6827 229.249 28.576C228.545 28.4693 227.969 28.3467 227.521 28.208C227.084 28.0693 226.7 27.8293 226.369 27.488C226.049 27.136 225.889 26.6507 225.889 26.032C225.889 25.2213 226.225 24.576 226.897 24.096C227.58 23.6053 228.497 23.36 229.649 23.36C230.236 23.36 230.822 23.4293 231.409 23.568C231.996 23.696 232.476 23.872 232.849 24.096L232.081 25.616C231.356 25.1893 230.54 24.976 229.633 24.976C229.046 24.976 228.598 25.0667 228.289 25.248C227.99 25.4187 227.841 25.648 227.841 25.936C227.841 26.256 228.001 26.4853 228.321 26.624C228.652 26.752 229.158 26.8747 229.841 26.992C230.524 27.0987 231.084 27.2213 231.521 27.36C231.958 27.4987 232.332 27.7333 232.641 28.064C232.961 28.3947 233.121 28.864 233.121 29.472C233.121 30.272 232.774 30.912 232.081 31.392C231.388 31.872 230.444 32.112 229.249 32.112ZM238.683 32.112C237.819 32.112 237.041 31.9253 236.347 31.552C235.654 31.1787 235.11 30.6613 234.715 30C234.331 29.328 234.139 28.5707 234.139 27.728C234.139 26.8853 234.331 26.1333 234.715 25.472C235.11 24.8107 235.654 24.2933 236.347 23.92C237.041 23.5467 237.819 23.36 238.683 23.36C239.558 23.36 240.342 23.5467 241.035 23.92C241.729 24.2933 242.267 24.8107 242.651 25.472C243.046 26.1333 243.243 26.8853 243.243 27.728C243.243 28.5707 243.046 29.328 242.651 30C242.267 30.6613 241.729 31.1787 241.035 31.552C240.342 31.9253 239.558 32.112 238.683 32.112ZM238.683 30.4C239.419 30.4 240.027 30.1547 240.507 29.664C240.987 29.1733 241.227 28.528 241.227 27.728C241.227 26.928 240.987 26.2827 240.507 25.792C240.027 25.3013 239.419 25.056 238.683 25.056C237.947 25.056 237.339 25.3013 236.859 25.792C236.39 26.2827 236.155 26.928 236.155 27.728C236.155 28.528 236.39 29.1733 236.859 29.664C237.339 30.1547 237.947 30.4 238.683 30.4ZM250.004 23.36C251.081 23.36 251.945 23.6747 252.596 24.304C253.246 24.9333 253.572 25.8667 253.572 27.104V32H251.572V27.36C251.572 26.6133 251.396 26.0533 251.044 25.68C250.692 25.296 250.19 25.104 249.54 25.104C248.804 25.104 248.222 25.328 247.796 25.776C247.369 26.2133 247.156 26.848 247.156 27.68V32H245.156V23.456H247.06V24.56C247.39 24.1653 247.806 23.8667 248.308 23.664C248.809 23.4613 249.374 23.36 250.004 23.36ZM259.373 23.36C260.632 23.36 261.592 23.664 262.253 24.272C262.925 24.8693 263.261 25.776 263.261 26.992V32H261.373V30.96C261.128 31.3333 260.776 31.6213 260.317 31.824C259.869 32.016 259.325 32.112 258.685 32.112C258.045 32.112 257.485 32.0053 257.005 31.792C256.525 31.568 256.152 31.264 255.885 30.88C255.629 30.4853 255.501 30.0427 255.501 29.552C255.501 28.784 255.784 28.1707 256.349 27.712C256.925 27.2427 257.826 27.008 259.053 27.008H261.261V26.88C261.261 26.2827 261.08 25.824 260.717 25.504C260.365 25.184 259.837 25.024 259.133 25.024C258.653 25.024 258.178 25.0987 257.709 25.248C257.25 25.3973 256.861 25.6053 256.541 25.872L255.757 24.416C256.205 24.0747 256.744 23.8133 257.373 23.632C258.002 23.4507 258.669 23.36 259.373 23.36ZM259.101 30.656C259.602 30.656 260.045 30.544 260.429 30.32C260.824 30.0853 261.101 29.7547 261.261 29.328V28.336H259.197C258.045 28.336 257.469 28.7147 257.469 29.472C257.469 29.8347 257.613 30.1227 257.901 30.336C258.189 30.5493 258.589 30.656 259.101 30.656ZM265.828 20.128H267.828V32H265.828V20.128ZM276.859 35.104C276.229 34.1333 275.744 33.008 275.403 31.728C275.072 30.448 274.907 29.0773 274.907 27.616C274.907 26.1547 275.072 24.784 275.403 23.504C275.744 22.2133 276.229 21.088 276.859 20.128H278.763C278.112 21.28 277.632 22.4693 277.323 23.696C277.024 24.912 276.875 26.2187 276.875 27.616C276.875 29.0133 277.024 30.3253 277.323 31.552C277.632 32.768 278.112 33.952 278.763 35.104H276.859ZM288.549 26.176C289.168 26.3787 289.659 26.72 290.021 27.2C290.384 27.6693 290.565 28.256 290.565 28.96C290.565 29.9307 290.192 30.6827 289.445 31.216C288.699 31.7387 287.611 32 286.181 32H280.613V20.8H285.861C287.184 20.8 288.203 21.0613 288.917 21.584C289.632 22.096 289.989 22.8053 289.989 23.712C289.989 24.2667 289.861 24.7573 289.605 25.184C289.349 25.6107 288.997 25.9413 288.549 26.176ZM282.693 22.432V25.52H285.637C286.363 25.52 286.917 25.392 287.301 25.136C287.696 24.8693 287.893 24.4853 287.893 23.984C287.893 23.472 287.696 23.088 287.301 22.832C286.917 22.5653 286.363 22.432 285.637 22.432H282.693ZM286.053 30.368C287.664 30.368 288.469 29.8293 288.469 28.752C288.469 27.6747 287.664 27.136 286.053 27.136H282.693V30.368H286.053ZM294.497 24.704C295.073 23.808 296.087 23.36 297.537 23.36V25.264C297.367 25.232 297.212 25.216 297.073 25.216C296.295 25.216 295.687 25.4453 295.249 25.904C294.812 26.352 294.593 27.0027 294.593 27.856V32H292.593V23.456H294.497V24.704ZM307.188 27.776C307.188 27.9147 307.177 28.112 307.156 28.368H300.452C300.569 28.9973 300.873 29.4987 301.364 29.872C301.865 30.2347 302.484 30.416 303.22 30.416C304.158 30.416 304.932 30.1067 305.54 29.488L306.612 30.72C306.228 31.1787 305.742 31.5253 305.156 31.76C304.569 31.9947 303.908 32.112 303.172 32.112C302.233 32.112 301.406 31.9253 300.692 31.552C299.977 31.1787 299.422 30.6613 299.028 30C298.644 29.328 298.452 28.5707 298.452 27.728C298.452 26.896 298.638 26.1493 299.012 25.488C299.396 24.816 299.924 24.2933 300.596 23.92C301.268 23.5467 302.025 23.36 302.868 23.36C303.7 23.36 304.441 23.5467 305.092 23.92C305.753 24.2827 306.265 24.8 306.628 25.472C307.001 26.1333 307.188 26.9013 307.188 27.776ZM302.868 24.96C302.228 24.96 301.684 25.152 301.236 25.536C300.798 25.9093 300.532 26.4107 300.436 27.04H305.284C305.198 26.4213 304.937 25.92 304.5 25.536C304.062 25.152 303.518 24.96 302.868 24.96ZM313.029 32.112C312.144 32.112 311.349 31.9253 310.645 31.552C309.941 31.1787 309.392 30.6613 308.997 30C308.602 29.328 308.405 28.5707 308.405 27.728C308.405 26.8853 308.602 26.1333 308.997 25.472C309.392 24.8107 309.936 24.2933 310.629 23.92C311.333 23.5467 312.133 23.36 313.029 23.36C313.872 23.36 314.608 23.5307 315.237 23.872C315.877 24.2133 316.357 24.704 316.677 25.344L315.141 26.24C314.896 25.8453 314.586 25.552 314.213 25.36C313.85 25.1573 313.45 25.056 313.013 25.056C312.266 25.056 311.648 25.3013 311.157 25.792C310.666 26.272 310.421 26.9173 310.421 27.728C310.421 28.5387 310.661 29.1893 311.141 29.68C311.632 30.16 312.256 30.4 313.013 30.4C313.45 30.4 313.85 30.304 314.213 30.112C314.586 29.9093 314.896 29.6107 315.141 29.216L316.677 30.112C316.346 30.752 315.861 31.248 315.221 31.6C314.592 31.9413 313.861 32.112 313.029 32.112ZM323.176 23.36C324.253 23.36 325.117 23.6747 325.768 24.304C326.418 24.9333 326.744 25.8667 326.744 27.104V32H324.744V27.36C324.744 26.6133 324.568 26.0533 324.216 25.68C323.864 25.296 323.362 25.104 322.712 25.104C321.976 25.104 321.394 25.328 320.968 25.776C320.541 26.2133 320.328 26.848 320.328 27.68V32H318.328V20.128H320.328V24.448C320.658 24.096 321.064 23.8293 321.544 23.648C322.034 23.456 322.578 23.36 323.176 23.36ZM332.545 23.36C333.803 23.36 334.763 23.664 335.425 24.272C336.097 24.8693 336.433 25.776 336.433 26.992V32H334.545V30.96C334.299 31.3333 333.947 31.6213 333.489 31.824C333.041 32.016 332.497 32.112 331.857 32.112C331.217 32.112 330.657 32.0053 330.177 31.792C329.697 31.568 329.323 31.264 329.057 30.88C328.801 30.4853 328.673 30.0427 328.673 29.552C328.673 28.784 328.955 28.1707 329.521 27.712C330.097 27.2427 330.998 27.008 332.225 27.008H334.433V26.88C334.433 26.2827 334.251 25.824 333.889 25.504C333.537 25.184 333.009 25.024 332.305 25.024C331.825 25.024 331.35 25.0987 330.881 25.248C330.422 25.3973 330.033 25.6053 329.713 25.872L328.929 24.416C329.377 24.0747 329.915 23.8133 330.545 23.632C331.174 23.4507 331.841 23.36 332.545 23.36ZM332.273 30.656C332.774 30.656 333.217 30.544 333.601 30.32C333.995 30.0853 334.273 29.7547 334.433 29.328V28.336H332.369C331.217 28.336 330.641 28.7147 330.641 29.472C330.641 29.8347 330.785 30.1227 331.073 30.336C331.361 30.5493 331.761 30.656 332.273 30.656ZM341.64 32.112C340.946 32.112 340.269 32.0213 339.608 31.84C338.946 31.6587 338.418 31.4293 338.024 31.152L338.792 29.632C339.176 29.888 339.634 30.096 340.168 30.256C340.712 30.4053 341.245 30.48 341.768 30.48C342.962 30.48 343.56 30.1653 343.56 29.536C343.56 29.2373 343.405 29.0293 343.096 28.912C342.797 28.7947 342.312 28.6827 341.64 28.576C340.936 28.4693 340.36 28.3467 339.912 28.208C339.474 28.0693 339.09 27.8293 338.76 27.488C338.44 27.136 338.28 26.6507 338.28 26.032C338.28 25.2213 338.616 24.576 339.288 24.096C339.97 23.6053 340.888 23.36 342.04 23.36C342.626 23.36 343.213 23.4293 343.8 23.568C344.386 23.696 344.866 23.872 345.24 24.096L344.472 25.616C343.746 25.1893 342.93 24.976 342.024 24.976C341.437 24.976 340.989 25.0667 340.68 25.248C340.381 25.4187 340.232 25.648 340.232 25.936C340.232 26.256 340.392 26.4853 340.712 26.624C341.042 26.752 341.549 26.8747 342.232 26.992C342.914 27.0987 343.474 27.2213 343.912 27.36C344.349 27.4987 344.722 27.7333 345.032 28.064C345.352 28.3947 345.512 28.864 345.512 29.472C345.512 30.272 345.165 30.912 344.472 31.392C343.778 31.872 342.834 32.112 341.64 32.112ZM346.274 35.104C346.925 33.952 347.405 32.7627 347.714 31.536C348.023 30.3093 348.178 29.0027 348.178 27.616C348.178 26.2293 348.023 24.9227 347.714 23.696C347.405 22.4693 346.925 21.28 346.274 20.128H348.178C348.807 21.0773 349.287 22.1973 349.618 23.488C349.959 24.768 350.13 26.144 350.13 27.616C350.13 29.088 349.959 30.464 349.618 31.744C349.287 33.0133 348.807 34.1333 348.178 35.104H346.274Z" fill="white"/>
<defs>
<filter id="filter0_d_4908_5844" x="0" y="0" width="394" height="57" filterUnits="userSpaceOnUse" color-interpolation-filters="sRGB">
<feFlood flood-opacity="0" result="BackgroundImageFix"/>
<feColorMatrix in="SourceAlpha" type="matrix" values="0 0 0 0 0 0 0 0 0 0 0 0 0 0 0 0 0 0 127 0" result="hardAlpha"/>
<feOffset dx="2"/>
<feGaussianBlur stdDeviation="3"/>
<feComposite in2="hardAlpha" operator="out"/>
<feColorMatrix type="matrix" values="0 0 0 0 0 0 0 0 0 0 0 0 0 0 0 0 0 0 0.12 0"/>
<feBlend mode="normal" in2="BackgroundImageFix" result="effect1_dropShadow_4908_5844"/>
<feBlend mode="normal" in="SourceGraphic" in2="effect1_dropShadow_4908_5844" result="shape"/>
</filter>
<linearGradient id="paint0_linear_4908_5844" x1="338.526" y1="-13" x2="25.0831" y2="78.921" gradientUnits="userSpaceOnUse">
<stop stop-color="#0C7486"/>
<stop offset="1" stop-color="#065462"/>
</linearGradient>
<linearGradient id="paint1_linear_4908_5844" x1="420.107" y1="-26.0001" x2="-72.9623" y2="81.103" gradientUnits="userSpaceOnUse">
<stop stop-color="#0C7486"/>
<stop offset="1" stop-color="#065462"/>
</linearGradient>
</defs>
</svg>
