<svg width="246" height="58" viewBox="0 0 246 58" fill="none" xmlns="http://www.w3.org/2000/svg">
    <g filter="url(#vux4vbyara)">
        <path d="M4.854 14.152a8 8 0 0 1 8-8h199.62a8 8 0 0 1 7.298 4.724l18.082 40.276h-233v-37z" fill="url(#bne6x3p5jb)"/>
    </g>
    <mask id="oe1s3ac81d" style="mask-type:alpha" maskUnits="userSpaceOnUse" x="4" y="6" width="234" height="46">
        <path d="M4.854 14.152a8 8 0 0 1 8-8h199.62a8 8 0 0 1 7.298 4.724l18.082 40.276h-233v-37z" fill="url(#8x70mgr7rc)"/>
    </mask>
    <g mask="url(#oe1s3ac81d)">
        <path fill="#BC955C" d="M4.854 46.152h346v5h-346z"/>
    </g>
    <defs>
        <linearGradient id="bne6x3p5jb" x1="208.897" y1="-12.848" x2="7.708" y2="23.14" gradientUnits="userSpaceOnUse">
            <stop stop-color="#0C7486"/>
            <stop offset="1" stop-color="#065462"/>
        </linearGradient>
        <linearGradient id="8x70mgr7rc" x1="258.657" y1="-25.848" x2="-50.847" y2="15.159" gradientUnits="userSpaceOnUse">
            <stop stop-color="#0C7486"/>
            <stop offset="1" stop-color="#065462"/>
        </linearGradient>
        <filter id="vux4vbyara" x=".854" y=".152" width="245" height="57" filterUnits="userSpaceOnUse" color-interpolation-filters="sRGB">
            <feFlood flood-opacity="0" result="BackgroundImageFix"/>
            <feColorMatrix in="SourceAlpha" values="0 0 0 0 0 0 0 0 0 0 0 0 0 0 0 0 0 0 127 0" result="hardAlpha"/>
            <feOffset dx="2"/>
            <feGaussianBlur stdDeviation="3"/>
            <feComposite in2="hardAlpha" operator="out"/>
            <feColorMatrix values="0 0 0 0 0 0 0 0 0 0 0 0 0 0 0 0 0 0 0.12 0"/>
            <feBlend in2="BackgroundImageFix" result="effect1_dropShadow_6507_25386"/>
            <feBlend in="SourceGraphic" in2="effect1_dropShadow_6507_25386" result="shape"/>
        </filter>
    </defs>
</svg>
