<?xml version="1.0" encoding="UTF-8"?>
<svg xmlns="http://www.w3.org/2000/svg" xmlns:xlink="http://www.w3.org/1999/xlink" width="350px" height="47px" viewBox="0 0 350 47" version="1.1">
<defs>
<linearGradient id="linear0" gradientUnits="userSpaceOnUse" x1="265" y1="0" x2="374.578" y2="0" >
<stop offset="0" style="stop-color:rgb(2.745098%,33.333333%,38.823529%);stop-opacity:1;"/>
<stop offset="1" style="stop-color:rgb(5.098039%,45.882353%,52.54902%);stop-opacity:1;"/>
</linearGradient>
</defs>
<g id="surface1">
<path style="fill-rule:nonzero;fill:url(#linear0);stroke-width:1;stroke-linecap:butt;stroke-linejoin:miter;stroke:rgb(67.843137%,70.980392%,74.901961%);stroke-opacity:1;stroke-miterlimit:4;" d="M 0.50279 10 C 0.50279 4.753906 4.755804 0.5 10.002567 0.5 L 513.147656 0.5 L 529.296094 46.5 L 0.50279 46.5 Z M 0.50279 10 " transform="matrix(0.660377,0,0,1,0,0)"/>
<path style=" stroke:none;fill-rule:nonzero;fill:rgb(73.72549%,58.431373%,36.078431%);fill-opacity:1;" d="M 0 41 L 348.023438 41 L 349.339844 46 L 0 46 Z M 0 41 "/>
<path style=" stroke:none;fill-rule:nonzero;fill:rgb(86.666667%,78.823529%,63.921569%);fill-opacity:1;" d="M 17.886719 31.890625 C 17.953125 31.789062 17.992188 31.644531 17.992188 31.5 C 17.992188 31.355469 17.953125 31.214844 17.886719 31.109375 C 17.816406 31.007812 17.722656 30.949219 17.628906 30.949219 C 17.53125 30.949219 17.4375 31.007812 17.371094 31.109375 C 17.304688 31.214844 17.265625 31.355469 17.265625 31.5 C 17.265625 31.644531 17.304688 31.789062 17.371094 31.890625 C 17.4375 31.992188 17.53125 32.050781 17.628906 32.050781 C 17.722656 32.050781 17.816406 31.992188 17.886719 31.890625 Z M 17.886719 31.890625 "/>
<path style=" stroke:none;fill-rule:nonzero;fill:rgb(86.666667%,78.823529%,63.921569%);fill-opacity:1;" d="M 14.546875 26.097656 C 14.449219 26.097656 14.355469 26.15625 14.289062 26.257812 C 14.21875 26.363281 14.179688 26.503906 14.179688 26.648438 C 14.179688 26.792969 14.21875 26.9375 14.289062 27.039062 C 14.355469 27.140625 14.449219 27.199219 14.546875 27.199219 C 14.640625 27.199219 14.734375 27.140625 14.804688 27.039062 C 14.871094 26.9375 14.910156 26.792969 14.910156 26.648438 C 14.910156 26.503906 14.871094 26.363281 14.804688 26.257812 C 14.734375 26.15625 14.640625 26.097656 14.546875 26.097656 Z M 14.546875 26.097656 "/>
</g>
</svg>
