<svg width="208" height="57" viewBox="0 0 208 57" fill="none" xmlns="http://www.w3.org/2000/svg">
<g filter="url(#filter0_d_4908_5842)">
<path d="M4 14.0005C4 9.58221 7.58172 6.00049 12 6.00049H177.475C180.803 6.00049 183.784 8.06078 184.96 11.1741L200 51.0005H4V14.0005Z" fill="url(#paint0_linear_4908_5842)"/>
</g>
<mask id="mask0_4908_5842" style="mask-type:alpha" maskUnits="userSpaceOnUse" x="4" y="6" width="196" height="45">
<path d="M4 14C4 9.58172 7.58172 6 12 6H177.475C180.803 6 183.784 8.06029 184.96 11.1736L200 51H4V14Z" fill="url(#paint1_linear_4908_5842)"/>
</mask>
<g mask="url(#mask0_4908_5842)">
</g>
<g clip-path="url(#clip0_4908_5842)">
<path d="M13.1699 14.3606V36.7706C13.1699 36.7951 13.1748 36.8194 13.1844 36.8419C13.1941 36.8644 13.2083 36.8847 13.2261 36.9016C13.2439 36.9184 13.265 36.9315 13.288 36.9399C13.311 36.9483 13.3354 36.952 13.3599 36.9506H16.5099C16.5586 36.9507 16.6054 36.9321 16.6407 36.8986C16.6761 36.8651 16.6973 36.8193 16.6998 36.7706V31.7106H18.4099V33.7106C18.4099 33.9758 18.5152 34.2302 18.7028 34.4177C18.8903 34.6053 19.1447 34.7106 19.4099 34.7106H35.1699C35.4351 34.7106 35.6894 34.6053 35.877 34.4177C36.0645 34.2302 36.1699 33.9758 36.1699 33.7106V17.4506C36.1699 17.1854 36.0645 16.9311 35.877 16.7435C35.6894 16.556 35.4351 16.4506 35.1699 16.4506H19.4099C19.1447 16.4506 18.8903 16.556 18.7028 16.7435C18.5152 16.9311 18.4099 17.1854 18.4099 17.4506V19.4506H16.7399V14.4006C16.7399 14.3502 16.7198 14.3019 16.6842 14.2663C16.6486 14.2306 16.6003 14.2106 16.5499 14.2106H13.3999C13.3749 14.2032 13.3485 14.2012 13.3226 14.205C13.2968 14.2087 13.272 14.2181 13.2501 14.2324C13.2282 14.2466 13.2098 14.2655 13.1959 14.2876C13.1821 14.3098 13.1732 14.3347 13.1699 14.3606V14.3606ZM18.8799 17.4506C18.8799 17.3101 18.9358 17.1753 19.0352 17.0759C19.1346 16.9765 19.2693 16.9206 19.4099 16.9206H35.1699C35.3105 16.9206 35.4453 16.9765 35.5447 17.0759C35.6441 17.1753 35.6998 17.3101 35.6998 17.4506V33.6506C35.6998 33.7912 35.6441 33.926 35.5447 34.0254C35.4453 34.1248 35.3105 34.1806 35.1699 34.1806H19.4099C19.2693 34.1806 19.1346 34.1248 19.0352 34.0254C18.9358 33.926 18.8799 33.7912 18.8799 33.6506V17.4506ZM16.7399 29.5606H18.4498V31.2306H16.7399V29.5606ZM16.7399 22.0406H18.4498V29.0406H16.7399V22.0406ZM16.7399 19.8906H18.4498V21.5706H16.7399V19.8906ZM13.7399 36.2906V14.8306C13.7399 14.7829 13.7588 14.7371 13.7926 14.7033C13.8264 14.6696 13.8722 14.6506 13.9199 14.6506H16.1299C16.1776 14.6506 16.2234 14.6696 16.2572 14.7033C16.291 14.7371 16.3098 14.7829 16.3098 14.8306V36.2906C16.3099 36.3393 16.2913 36.3862 16.2578 36.4216C16.2243 36.4569 16.1785 36.4781 16.1299 36.4806H13.9199C13.8896 36.4949 13.8559 36.5009 13.8225 36.498C13.7891 36.4951 13.757 36.4834 13.7296 36.4641C13.7022 36.4448 13.6804 36.4186 13.6664 36.3881C13.6524 36.3576 13.6467 36.324 13.6499 36.2906H13.7399Z" fill="#DDC9A3" stroke="#DDC9A3" stroke-width="0.35" stroke-miterlimit="10"/>
<path d="M34.7404 32.4704V18.6504C34.7404 18.4408 34.6571 18.2399 34.5089 18.0917C34.3608 17.9436 34.1598 17.8604 33.9503 17.8604H20.6104C20.4008 17.8604 20.1999 17.9436 20.0518 18.0917C19.9036 18.2399 19.8203 18.4408 19.8203 18.6504V32.4604C19.8203 32.5636 19.8408 32.6659 19.8806 32.7612C19.9204 32.8565 19.9789 32.9429 20.0524 33.0155C20.1259 33.088 20.213 33.1453 20.3088 33.1839C20.4046 33.2225 20.5071 33.2417 20.6104 33.2403H33.9503C34.0528 33.2417 34.1545 33.2228 34.2496 33.1848C34.3448 33.1468 34.4315 33.0905 34.5049 33.019C34.5782 32.9475 34.6367 32.8622 34.6771 32.7681C34.7175 32.674 34.7391 32.5728 34.7404 32.4704V32.4704ZM34.2604 19.1304V31.9903C34.2604 32.1972 34.1781 32.3956 34.0319 32.5419C33.8856 32.6882 33.6872 32.7704 33.4803 32.7704H21.0803C20.8735 32.7704 20.6751 32.6882 20.5288 32.5419C20.3825 32.3956 20.3004 32.1972 20.3004 31.9903V19.1304C20.3004 18.9235 20.3825 18.7251 20.5288 18.5788C20.6751 18.4325 20.8735 18.3503 21.0803 18.3503H33.4803C33.5836 18.349 33.6862 18.3682 33.782 18.4068C33.8778 18.4454 33.9648 18.5027 34.0383 18.5752C34.1118 18.6478 34.1703 18.7342 34.2101 18.8295C34.2499 18.9248 34.2704 19.0271 34.2704 19.1304H34.2604Z" fill="#DDC9A3" stroke="#DDC9A3" stroke-width="0.35" stroke-miterlimit="10"/>
<path d="M22.1602 23.8206V26.7406C22.1601 26.8052 22.185 26.8674 22.2297 26.914C22.2745 26.9606 22.3356 26.988 22.4001 26.9906H25.6001C25.6324 26.9893 25.6648 26.9945 25.6951 27.0059C25.7254 27.0174 25.753 27.0349 25.7764 27.0573C25.7997 27.0797 25.8183 27.1066 25.8309 27.1364C25.8436 27.1662 25.8501 27.1983 25.8501 27.2306V30.4306C25.85 30.4952 25.8751 30.5574 25.9198 30.604C25.9645 30.6506 26.0255 30.678 26.0901 30.6806H28.7401C28.8064 30.6806 28.87 30.6543 28.9169 30.6074C28.9638 30.5605 28.9901 30.4969 28.9901 30.4306V27.2306C28.9901 27.167 29.0154 27.1059 29.0604 27.0609C29.1054 27.0159 29.1665 26.9906 29.2301 26.9906H32.4301C32.4964 26.9906 32.56 26.9643 32.6069 26.9174C32.6538 26.8705 32.6801 26.8069 32.6801 26.7406V24.0706C32.6801 24.0043 32.6538 23.9407 32.6069 23.8939C32.56 23.847 32.4964 23.8206 32.4301 23.8206H29.2301C29.1665 23.8206 29.1054 23.7953 29.0604 23.7503C29.0154 23.7053 28.9901 23.6443 28.9901 23.5806V20.3806C28.9875 20.3161 28.9601 20.255 28.9135 20.2103C28.8668 20.1655 28.8047 20.1406 28.7401 20.1406H26.0701C26.0064 20.1406 25.9454 20.1659 25.9004 20.2109C25.8554 20.2559 25.8301 20.317 25.8301 20.3806V23.5806C25.8301 23.613 25.8236 23.6451 25.8109 23.6748C25.7982 23.7046 25.7797 23.7315 25.7563 23.754C25.733 23.7764 25.7053 23.7939 25.675 23.8053C25.6448 23.8168 25.6124 23.822 25.5801 23.8206H22.1602ZM22.7301 26.1706V24.6506C22.7301 24.587 22.7554 24.5259 22.8004 24.4809C22.8454 24.4359 22.9064 24.4106 22.9701 24.4106H26.1801C26.2446 24.408 26.3057 24.3806 26.3505 24.334C26.3952 24.2874 26.4202 24.2252 26.4202 24.1606V20.9606C26.4202 20.897 26.4453 20.8359 26.4904 20.7909C26.5354 20.7459 26.5965 20.7206 26.6602 20.7206H28.1901C28.2537 20.7206 28.3149 20.7459 28.3599 20.7909C28.4049 20.8359 28.4301 20.897 28.4301 20.9606V24.1606C28.4301 24.2269 28.4564 24.2905 28.5033 24.3374C28.5502 24.3843 28.6137 24.4106 28.6801 24.4106H31.8801C31.9438 24.4106 32.0048 24.4359 32.0498 24.4809C32.0948 24.5259 32.1201 24.587 32.1201 24.6506V26.1806C32.1201 26.2443 32.0948 26.3053 32.0498 26.3503C32.0048 26.3953 31.9438 26.4206 31.8801 26.4206H28.6801C28.6137 26.4206 28.5502 26.447 28.5033 26.4939C28.4564 26.5407 28.4301 26.6043 28.4301 26.6706V29.8706C28.4301 29.9343 28.4049 29.9953 28.3599 30.0403C28.3149 30.0853 28.2537 30.1106 28.1901 30.1106H26.6602C26.5965 30.1106 26.5354 30.0853 26.4904 30.0403C26.4453 29.9953 26.4202 29.9343 26.4202 29.8706V26.6506C26.4202 26.586 26.3952 26.5239 26.3505 26.4773C26.3057 26.4307 26.2446 26.4032 26.1801 26.4006H22.9701C22.9099 26.3982 22.8528 26.3731 22.8102 26.3305C22.7676 26.2879 22.7426 26.2308 22.7401 26.1706H22.7301Z" fill="#DDC9A3" stroke="#DDC9A3" stroke-width="0.35" stroke-miterlimit="10"/>
</g>
<path d="M4 46H198.136L200 51H4V46Z" fill="#BC955C"/>
<path d="M50.736 32.16C49.5947 32.16 48.5653 31.9147 47.648 31.424C46.7307 30.9227 46.0107 30.2347 45.488 29.36C44.9653 28.4747 44.704 27.488 44.704 26.4C44.704 25.312 44.9653 24.3307 45.488 23.456C46.0107 22.5707 46.7307 21.8827 47.648 21.392C48.5653 20.8907 49.5947 20.64 50.736 20.64C51.8773 20.64 52.9067 20.8907 53.824 21.392C54.7413 21.8827 55.4613 22.5653 55.984 23.44C56.5067 24.3147 56.768 25.3013 56.768 26.4C56.768 27.4987 56.5067 28.4853 55.984 29.36C55.4613 30.2347 54.7413 30.9227 53.824 31.424C52.9067 31.9147 51.8773 32.16 50.736 32.16ZM50.736 30.336C51.4827 30.336 52.1547 30.1707 52.752 29.84C53.3493 29.4987 53.8187 29.0293 54.16 28.432C54.5013 27.824 54.672 27.1467 54.672 26.4C54.672 25.6533 54.5013 24.9813 54.16 24.384C53.8187 23.776 53.3493 23.3067 52.752 22.976C52.1547 22.6347 51.4827 22.464 50.736 22.464C49.9893 22.464 49.3173 22.6347 48.72 22.976C48.1227 23.3067 47.6533 23.776 47.312 24.384C46.9707 24.9813 46.8 25.6533 46.8 26.4C46.8 27.1467 46.9707 27.824 47.312 28.432C47.6533 29.0293 48.1227 29.4987 48.72 29.84C49.3173 30.1707 49.9893 30.336 50.736 30.336ZM63.5168 23.36C64.3488 23.36 65.0901 23.5413 65.7408 23.904C66.4021 24.2667 66.9194 24.7787 67.2928 25.44C67.6661 26.1013 67.8528 26.864 67.8528 27.728C67.8528 28.592 67.6661 29.36 67.2928 30.032C66.9194 30.6933 66.4021 31.2053 65.7408 31.568C65.0901 31.9307 64.3488 32.112 63.5168 32.112C62.9301 32.112 62.3914 32.0107 61.9008 31.808C61.4208 31.6053 61.0154 31.3013 60.6848 30.896V32H58.7808V20.128H60.7808V24.496C61.1221 24.1227 61.5221 23.84 61.9808 23.648C62.4501 23.456 62.9621 23.36 63.5168 23.36ZM63.2928 30.4C64.0288 30.4 64.6314 30.1547 65.1008 29.664C65.5808 29.1733 65.8208 28.528 65.8208 27.728C65.8208 26.928 65.5808 26.2827 65.1008 25.792C64.6314 25.3013 64.0288 25.056 63.2928 25.056C62.8128 25.056 62.3808 25.168 61.9968 25.392C61.6128 25.6053 61.3088 25.9147 61.0848 26.32C60.8608 26.7253 60.7488 27.1947 60.7488 27.728C60.7488 28.2613 60.8608 28.7307 61.0848 29.136C61.3088 29.5413 61.6128 29.856 61.9968 30.08C62.3808 30.2933 62.8128 30.4 63.2928 30.4ZM71.6535 24.704C72.2295 23.808 73.2428 23.36 74.6935 23.36V25.264C74.5228 25.232 74.3682 25.216 74.2295 25.216C73.4508 25.216 72.8428 25.4453 72.4055 25.904C71.9682 26.352 71.7495 27.0027 71.7495 27.856V32H69.7495V23.456H71.6535V24.704ZM79.6073 23.36C80.8659 23.36 81.8259 23.664 82.4873 24.272C83.1593 24.8693 83.4953 25.776 83.4953 26.992V32H81.6073V30.96C81.3619 31.3333 81.0099 31.6213 80.5513 31.824C80.1033 32.016 79.5593 32.112 78.9193 32.112C78.2793 32.112 77.7193 32.0053 77.2393 31.792C76.7593 31.568 76.3859 31.264 76.1193 30.88C75.8633 30.4853 75.7353 30.0427 75.7353 29.552C75.7353 28.784 76.0179 28.1707 76.5833 27.712C77.1593 27.2427 78.0606 27.008 79.2873 27.008H81.4953V26.88C81.4953 26.2827 81.3139 25.824 80.9513 25.504C80.5993 25.184 80.0713 25.024 79.3673 25.024C78.8873 25.024 78.4126 25.0987 77.9433 25.248C77.4846 25.3973 77.0953 25.6053 76.7753 25.872L75.9913 24.416C76.4393 24.0747 76.9779 23.8133 77.6073 23.632C78.2366 23.4507 78.9033 23.36 79.6073 23.36ZM79.3353 30.656C79.8366 30.656 80.2793 30.544 80.6633 30.32C81.0579 30.0853 81.3353 29.7547 81.4953 29.328V28.336H79.4313C78.2793 28.336 77.7033 28.7147 77.7033 29.472C77.7033 29.8347 77.8473 30.1227 78.1353 30.336C78.4233 30.5493 78.8233 30.656 79.3353 30.656Z" fill="white"/>
<defs>
<filter id="filter0_d_4908_5842" x="0" y="0.000488281" width="208" height="57" filterUnits="userSpaceOnUse" color-interpolation-filters="sRGB">
<feFlood flood-opacity="0" result="BackgroundImageFix"/>
<feColorMatrix in="SourceAlpha" type="matrix" values="0 0 0 0 0 0 0 0 0 0 0 0 0 0 0 0 0 0 127 0" result="hardAlpha"/>
<feOffset dx="2"/>
<feGaussianBlur stdDeviation="3"/>
<feComposite in2="hardAlpha" operator="out"/>
<feColorMatrix type="matrix" values="0 0 0 0 0 0 0 0 0 0 0 0 0 0 0 0 0 0 0.12 0"/>
<feBlend mode="normal" in2="BackgroundImageFix" result="effect1_dropShadow_4908_5842"/>
<feBlend mode="normal" in="SourceGraphic" in2="effect1_dropShadow_4908_5842" result="shape"/>
</filter>
<linearGradient id="paint0_linear_4908_5842" x1="175.642" y1="-12.9995" x2="4.85303" y2="12.699" gradientUnits="userSpaceOnUse">
<stop stop-color="#0C7486"/>
<stop offset="1" stop-color="#065462"/>
</linearGradient>
<linearGradient id="paint1_linear_4908_5842" x1="217.5" y1="-26.0001" x2="-44.1749" y2="3.16401" gradientUnits="userSpaceOnUse">
<stop stop-color="#0C7486"/>
<stop offset="1" stop-color="#065462"/>
</linearGradient>
<clipPath id="clip0_4908_5842">
<rect width="23.35" height="23.13" fill="white" transform="translate(13 14.0005)"/>
</clipPath>
</defs>
</svg>
