<svg width="200" height="46" viewBox="0 0 200 46" fill="none" xmlns="http://www.w3.org/2000/svg">
    <mask id="ca4ba0p5ob" style="mask-type:alpha" maskUnits="userSpaceOnUse" x="0" y="0" width="200" height="46">
        <path d="M.104 8.337a8 8 0 0 1 8-8h171.719a8 8 0 0 1 7.672 5.732l11.609 39.268h-199v-37z" fill="url(#2bafe2meoa)"/>
    </mask>
    <g mask="url(#ca4ba0p5ob)">
        <g filter="url(#s2a928xr0c)">
            <path d="M.085 8.337a8 8 0 0 1 8-8h171.791a8 8 0 0 1 7.67 5.725l11.653 39.275H.085v-37z" fill="url(#friwccfpud)"/>
        </g>
        <path d="M.104 40.337h199v5h-199v-5z" fill="#BC955C"/>
    </g>
    <path d="M55.84 23.745h-5.6l-1.104 2.592h-2.144l5.04-11.2h2.048l5.056 11.2H56.96l-1.12-2.592zm-.688-1.632-2.112-4.896-2.096 4.896h4.208zm5.217-7.648h2v11.872h-2V14.465zm12.657 7.648c0 .139-.011.336-.032.592H66.29c.117.63.421 1.13.912 1.504.501.363 1.12.544 1.856.544.938 0 1.712-.31 2.32-.928l1.072 1.232a3.61 3.61 0 0 1-1.456 1.04c-.587.235-1.248.352-1.984.352-.939 0-1.766-.186-2.48-.56a4.104 4.104 0 0 1-1.664-1.552c-.384-.672-.576-1.43-.576-2.272 0-.832.186-1.578.56-2.24a4.07 4.07 0 0 1 1.584-1.568c.672-.373 1.429-.56 2.272-.56.832 0 1.573.187 2.224.56.661.363 1.173.88 1.536 1.552.373.662.56 1.43.56 2.304zm-4.32-2.816c-.64 0-1.184.192-1.632.576-.438.374-.704.875-.8 1.504h4.848c-.086-.618-.347-1.12-.784-1.504-.438-.384-.982-.576-1.632-.576zm8.145-.256c.576-.896 1.59-1.344 3.04-1.344v1.904a2.54 2.54 0 0 0-.464-.048c-.779 0-1.387.23-1.824.688-.438.448-.656 1.099-.656 1.952v4.144h-2v-8.544h1.904v1.248zm10.185 6.832a2.35 2.35 0 0 1-.864.432 3.77 3.77 0 0 1-1.056.144c-.939 0-1.664-.245-2.176-.736-.512-.49-.768-1.205-.768-2.144v-4.112h-1.408v-1.6h1.408v-1.952h2v1.952h2.288v1.6h-2.288v4.064c0 .416.101.736.304.96.203.214.496.32.88.32.448 0 .821-.117 1.12-.352l.56 1.424zm4.91-8.176c1.258 0 2.218.304 2.88.912.671.598 1.007 1.504 1.007 2.72v5.008h-1.888v-1.04c-.245.374-.597.662-1.056.864-.448.192-.992.288-1.632.288-.64 0-1.2-.106-1.68-.32-.48-.224-.853-.528-1.12-.912a2.387 2.387 0 0 1-.384-1.328c0-.768.283-1.381.848-1.84.576-.47 1.477-.704 2.704-.704h2.208v-.128c0-.597-.181-1.056-.544-1.376-.352-.32-.88-.48-1.584-.48-.48 0-.954.075-1.424.224-.459.15-.848.358-1.168.624l-.784-1.456c.448-.341.987-.602 1.616-.784a7.192 7.192 0 0 1 2-.272zm-.273 7.296c.501 0 .944-.112 1.328-.336a1.9 1.9 0 0 0 .832-.992v-.992H91.77c-1.152 0-1.728.379-1.728 1.136 0 .363.144.65.432.864.288.214.688.32 1.2.32zm9.367 1.456a7.65 7.65 0 0 1-2.032-.272c-.661-.181-1.19-.41-1.584-.688l.768-1.52a5.12 5.12 0 0 0 1.376.624c.544.15 1.077.224 1.6.224 1.195 0 1.792-.314 1.792-.944 0-.298-.155-.506-.464-.624-.299-.117-.784-.23-1.456-.336-.704-.106-1.28-.23-1.728-.368a2.735 2.735 0 0 1-1.152-.72c-.32-.352-.48-.837-.48-1.456 0-.81.336-1.456 1.008-1.936.683-.49 1.6-.736 2.752-.736.587 0 1.173.07 1.76.208.587.128 1.067.304 1.44.528l-.768 1.52c-.725-.426-1.541-.64-2.448-.64-.587 0-1.035.09-1.344.272-.299.17-.448.4-.448.688 0 .32.16.55.48.688.331.128.837.25 1.52.368.683.107 1.243.23 1.68.368.437.139.811.374 1.12.704.32.33.48.8.48 1.408 0 .8-.347 1.44-1.04 1.92-.693.48-1.637.72-2.832.72z" fill="#fff"/>
    <path d="M11.832 30.933c-.4-.2-.6-.5-.6-1 0-1.2-.1-2.4 0-3.6.1-1.2.4-2.3 1-3.4.2-.3.2-.3-.2-.4-1.6-.5-2.7-2.1-2.5-3.9.2-1.7 1.6-3.1 3.3-3.3 2.2-.2 4.4-.4 6.6-.7 3.7-.4 7.1-1.6 10.2-3.5.2-.1.3-.2.3-.5v-.9c0-.5.4-.8.9-.8s.9.4.9.8v18.8c-.1.4-.5.7-.9.7s-.7-.4-.8-.8v-1c0-.2 0-.3-.2-.4-2.6-1.6-5.5-2.7-8.5-3.3-.9-.2-1.9-.3-2.8-.4-.3 0-.6 0-.8.3-1 1-1.2 2.2-.8 3.5.2.8.6 1.6 1 2.3.4.6.2 1.1-.4 1.4-2 .1-3.8.1-5.7.1zm18.1-11.8v-5.7c0-.3 0-.3-.3-.2-3 1.7-6.2 2.7-9.6 3.2-.2 0-.3.1-.3.4v4.3c0 .8 0 .8.8.9 3.2.5 6.3 1.5 9.1 3.1.3.2.3.2.3-.2v-5.8zm-11.9 0v-2c0-.5 0-.5-.5-.4-1.5.1-2.9.3-4.4.4-1 .1-1.8.9-1.9 1.9 0 1 .8 1.9 1.9 2 .4 0 .9.1 1.3.1 1.1.1 2.1.2 3.2.4.2 0 .3 0 .3-.3.1-.7.1-1.4.1-2.1zm-3.7 10.1h1.1c.3 0 .3 0 .2-.3-.4-.8-.6-1.7-.7-2.6-.1-1.1.1-2.1.8-3 .1-.2.1-.2-.1-.2-.3 0-.7-.1-1-.1-.2 0-.3 0-.4.2-.4.5-.7 1.1-.9 1.7-.4 1.3-.4 2.7-.3 4.1 0 .2.1.2.2.2h1.1zM38.432 14.333c-.1.3-.4.5-.6.6-1 .5-2.1 1-3.1 1.5-.3.1-.5.2-.8.1-.3-.1-.5-.4-.6-.7 0-.4.1-.7.5-.9.9-.4 1.7-.9 2.6-1.3l.6-.3c.6-.3 1-.2 1.4.4v.6zM38.432 24.433c-.4.6-.8.7-1.4.4-1.1-.5-2.1-1-3.1-1.6-.5-.2-.7-.7-.5-1.2.2-.5.7-.7 1.2-.4.9.4 1.8.9 2.7 1.4.1.1.3.2.4.2.3.1.5.3.6.6.1.2.1.4.1.6zM38.432 19.333c-.2.4-.6.6-1.1.6h-3.1c-.6 0-1-.4-.9-.9 0-.5.4-.8.9-.9h3.1c.5 0 .8.1 1.1.6v.6z" fill="#DDC9A3"/>
    <defs>
        <linearGradient id="2bafe2meoa" x1="212.803" y1="-31.66" x2="6.987" y2="-13.704" gradientUnits="userSpaceOnUse">
            <stop stop-color="#0C7486"/>
            <stop offset="1" stop-color="#065462"/>
        </linearGradient>
        <linearGradient id="friwccfpud" x1="275.793" y1="-18.661" x2="112.043" y2="4.919" gradientUnits="userSpaceOnUse">
            <stop stop-color="#0C7486"/>
            <stop offset="1" stop-color="#065462"/>
        </linearGradient>
        <filter id="s2a928xr0c" x="-3.915" y="-5.663" width="211.114" height="57" filterUnits="userSpaceOnUse" color-interpolation-filters="sRGB">
            <feFlood flood-opacity="0" result="BackgroundImageFix"/>
            <feColorMatrix in="SourceAlpha" values="0 0 0 0 0 0 0 0 0 0 0 0 0 0 0 0 0 0 127 0" result="hardAlpha"/>
            <feOffset dx="2"/>
            <feGaussianBlur stdDeviation="3"/>
            <feComposite in2="hardAlpha" operator="out"/>
            <feColorMatrix values="0 0 0 0 0 0 0 0 0 0 0 0 0 0 0 0 0 0 0.12 0"/>
            <feBlend in2="BackgroundImageFix" result="effect1_dropShadow_3612_27090"/>
            <feBlend in="SourceGraphic" in2="effect1_dropShadow_3612_27090" result="shape"/>
        </filter>
    </defs>
</svg>
