<svg width="208" height="57" viewBox="0 0 208 57" fill="none" xmlns="http://www.w3.org/2000/svg">
<g filter="url(#filter0_d_4908_5843)">
<path d="M4 14C4 9.58172 7.58172 6 12 6H177.475C180.803 6 183.784 8.06029 184.96 11.1736L200 51H4V14Z" fill="url(#paint0_linear_4908_5843)"/>
</g>
<mask id="mask0_4908_5843" style="mask-type:alpha" maskUnits="userSpaceOnUse" x="4" y="6" width="196" height="45">
<path d="M4 14C4 9.58172 7.58172 6 12 6H177.475C180.803 6 183.784 8.06029 184.96 11.1736L200 51H4V14Z" fill="url(#paint1_linear_4908_5843)"/>
</mask>
<g mask="url(#mask0_4908_5843)">
<path d="M35.6484 31.2969C35.8426 31.2969 36 31.1395 36 30.9453V19.4141C36 18.8325 35.5269 18.3594 34.9453 18.3594H34.5938V18.0078C34.5938 17.4262 34.1206 16.9531 33.5391 16.9531H24.7031C24.4332 16.9531 24.1867 17.0552 24 17.2225C23.8133 17.0552 23.5668 16.9531 23.2969 16.9531H20.0859C19.8918 16.9531 19.7344 17.1105 19.7344 17.3047C19.7344 17.4988 19.8918 17.6562 20.0859 17.6562H23.2969C23.4908 17.6562 23.6484 17.814 23.6484 18.0078V18.9219H23.4844C23.2902 18.9219 23.1328 19.0793 23.1328 19.2734C23.1328 19.4676 23.2902 19.625 23.4844 19.625H23.6484V21.4531H23.4375C23.2433 21.4531 23.0859 21.6105 23.0859 21.8047C23.0859 21.9988 23.2433 22.1562 23.4375 22.1562H23.6484V24.0312H23.4375C23.2433 24.0312 23.0859 24.1887 23.0859 24.3828C23.0859 24.577 23.2433 24.7344 23.4375 24.7344H23.6484V26.6094H23.4375C23.2433 26.6094 23.0859 26.7668 23.0859 26.9609C23.0859 27.1551 23.2433 27.3125 23.4375 27.3125H23.6484V29.1875H23.4375C23.2433 29.1875 23.0859 29.3449 23.0859 29.5391C23.0859 29.7332 23.2433 29.8906 23.4375 29.8906H23.6484V31.7656H23.4375C23.2433 31.7656 23.0859 31.923 23.0859 32.1172C23.0859 32.3113 23.2433 32.4688 23.4375 32.4688H23.6484V33.1016V33.1719V33.2924C23.6484 33.4863 23.4908 33.644 23.2969 33.644H14.4609C14.2671 33.644 14.1094 33.4863 14.1094 33.2924V18.0078C14.1094 17.814 14.2671 17.6562 14.4609 17.6562H15.5156V20.4922C15.5156 20.7249 15.6473 20.9293 15.8591 21.0256C15.9382 21.0616 16.0213 21.0792 16.1035 21.0792C16.2415 21.0792 16.377 21.0296 16.4868 20.9337L17.1562 20.3495L17.8257 20.9337C18.001 21.0867 18.2415 21.1219 18.4534 21.0256C18.6653 20.9293 18.7969 20.7249 18.7969 20.4922V16.8359C18.7969 16.5128 18.5341 16.25 18.211 16.25H16.1016C15.7785 16.25 15.5156 16.5128 15.5156 16.8359V16.9531H14.4609C13.8794 16.9531 13.4062 17.4262 13.4062 18.0078V18.3594H13.0547C12.4731 18.3594 12 18.8325 12 19.4141V33.5234C12 34.7511 12.9989 35.75 14.2266 35.75H23.0625C23.4316 35.75 23.7648 35.5938 24 35.3443C24.2352 35.5938 24.5684 35.75 24.9375 35.75H33.7734C35.0011 35.75 36 34.7511 36 33.5234V32.5859C36 32.3918 35.8426 32.2344 35.6484 32.2344C35.4543 32.2344 35.2969 32.3918 35.2969 32.5859V33.5234C35.2969 34.3634 34.6134 35.0469 33.7734 35.0469H24.9375C24.6144 35.0469 24.3516 34.784 24.3516 34.4609V34.2867C24.4616 34.3257 24.5799 34.3471 24.7031 34.3471H33.5391C34.1206 34.3471 34.5938 33.874 34.5938 33.2924V19.0625H34.9453C35.1392 19.0625 35.2969 19.2202 35.2969 19.4141V30.9453C35.2969 31.1395 35.4543 31.2969 35.6484 31.2969ZM16.2188 16.9531H18.0938V20.2344L17.5415 19.7524C17.4317 19.6566 17.294 19.6086 17.1562 19.6086C17.0185 19.6086 16.8808 19.6565 16.771 19.7524L16.2188 20.2344V16.9531ZM23.0625 35.0469H14.2266C13.3866 35.0469 12.7031 34.3634 12.7031 33.5234V19.4141C12.7031 19.2202 12.8608 19.0625 13.0547 19.0625H13.4062V33.2924C13.4062 33.874 13.8794 34.3471 14.4609 34.3471H23.2969C23.4201 34.3471 23.5384 34.3257 23.6484 34.2867V34.4609C23.6484 34.784 23.3856 35.0469 23.0625 35.0469ZM33.8906 33.2924C33.8906 33.4863 33.7329 33.644 33.5391 33.644H24.7031C24.5092 33.644 24.3516 33.4863 24.3516 33.2924V33.1719V33.1016V32.4688H24.5156C24.7098 32.4688 24.8672 32.3113 24.8672 32.1172C24.8672 31.923 24.7098 31.7656 24.5156 31.7656H24.3516V29.8906H24.5156C24.7098 29.8906 24.8672 29.7332 24.8672 29.5391C24.8672 29.3449 24.7098 29.1875 24.5156 29.1875H24.3516V27.3125H24.5156C24.7098 27.3125 24.8672 27.1551 24.8672 26.9609C24.8672 26.7668 24.7098 26.6094 24.5156 26.6094H24.3516V24.7344H24.5156C24.7098 24.7344 24.8672 24.577 24.8672 24.3828C24.8672 24.1887 24.7098 24.0312 24.5156 24.0312H24.3516V22.1562H24.5156C24.7098 22.1562 24.8672 21.9988 24.8672 21.8047C24.8672 21.6105 24.7098 21.4531 24.5156 21.4531H24.3516V19.625H24.5625C24.7567 19.625 24.9141 19.4676 24.9141 19.2734C24.9141 19.0793 24.7567 18.9219 24.5625 18.9219H24.3516V18.0078C24.3516 17.814 24.5092 17.6562 24.7031 17.6562H33.5391C33.7329 17.6562 33.8906 17.814 33.8906 18.0078V33.2924Z" fill="#DDC9A3"/>
<path d="M27.0819 24.7713C26.6706 25.1825 26.6706 25.8516 27.0819 26.2629C27.2875 26.4685 27.5576 26.5713 27.8276 26.5713C28.0977 26.5713 28.3678 26.4685 28.5734 26.2629L29.1369 25.6994C29.1668 25.6695 29.2016 25.6651 29.2198 25.6651C29.2379 25.6651 29.2728 25.6695 29.3027 25.6994L29.833 26.2297C30.0322 26.4289 30.297 26.5386 30.5787 26.5386C30.8605 26.5386 31.1253 26.4289 31.3245 26.2297C31.5237 26.0305 31.6334 25.7657 31.6334 25.4839C31.6334 25.2022 31.5237 24.9374 31.3245 24.7382L30.7942 24.2079C30.7643 24.178 30.7599 24.1431 30.7599 24.125C30.7599 24.1069 30.7643 24.072 30.7942 24.0421L31.3245 23.5118C31.5237 23.3126 31.6334 23.0478 31.6334 22.766C31.6334 22.4843 31.5237 22.2194 31.3245 22.0203C31.1253 21.821 30.8605 21.7114 30.5787 21.7114C30.297 21.7114 30.0322 21.821 29.833 22.0203L29.3027 22.5506C29.2728 22.5805 29.2379 22.5849 29.2198 22.5849C29.2016 22.5849 29.1668 22.5805 29.1369 22.5506L28.5734 21.9871C28.1622 21.5759 27.4931 21.5759 27.0819 21.9871C26.6706 22.3984 26.6706 23.0674 27.0819 23.4787L27.6453 24.0422C27.6752 24.072 27.6797 24.1069 27.6797 24.125C27.6797 24.1432 27.6752 24.1781 27.6453 24.2079L27.0819 24.7713ZM28.1426 23.5449L27.5791 22.9814C27.442 22.8443 27.442 22.6212 27.5791 22.4842C27.6476 22.4156 27.7376 22.3814 27.8277 22.3814C27.9177 22.3814 28.0077 22.4156 28.0763 22.4842L28.6398 23.0477C28.9596 23.3675 29.48 23.3675 29.7999 23.0477L30.3302 22.5173C30.4673 22.3803 30.6903 22.3803 30.8274 22.5173C30.9644 22.6544 30.9644 22.8775 30.8274 23.0145L30.297 23.5448C29.9772 23.8647 29.9772 24.3851 30.297 24.7049L30.8274 25.2352C30.9644 25.3723 30.9644 25.5954 30.8274 25.7324C30.6903 25.8695 30.4672 25.8695 30.3302 25.7324L29.7999 25.2021C29.48 24.8823 28.9596 24.8823 28.6398 25.2021L28.0763 25.7656C27.9392 25.9027 27.7162 25.9026 27.5791 25.7656C27.442 25.6285 27.442 25.4054 27.5791 25.2684L28.1426 24.7049C28.4624 24.3852 28.4624 23.8647 28.1426 23.5449V23.5449Z" fill="#DDC9A3"/>
<path d="M21.7574 21.9705C21.3463 21.5593 20.6771 21.5593 20.2659 21.9705L18.1943 24.0421L17.5148 23.3626C17.3156 23.1634 17.0508 23.0537 16.7691 23.0537C16.4873 23.0537 16.2225 23.1634 16.0233 23.3626C15.612 23.7738 15.612 24.4429 16.0233 24.8541L17.4485 26.2794C17.6541 26.485 17.9242 26.5878 18.1943 26.5878C18.4644 26.5878 18.7345 26.485 18.9401 26.2794L21.7574 23.462C22.1686 23.0508 22.1686 22.3817 21.7574 21.9705V21.9705ZM21.2602 22.9649L18.4429 25.7822C18.3764 25.8487 18.2882 25.8852 18.1942 25.8852C18.1003 25.8852 18.012 25.8487 17.9457 25.7822L16.5204 24.357C16.454 24.2906 16.4174 24.2023 16.4174 24.1084C16.4174 24.0145 16.454 23.9262 16.5204 23.8598C16.5868 23.7935 16.6751 23.7569 16.769 23.7569C16.8629 23.7569 16.9512 23.7934 17.0176 23.8598L17.78 24.6222C17.8906 24.7328 18.0378 24.7938 18.1943 24.7938C18.3508 24.7938 18.4979 24.7328 18.6086 24.6222L20.7631 22.4677C20.9001 22.3306 21.1232 22.3306 21.2602 22.4677C21.3267 22.5341 21.3632 22.6224 21.3632 22.7163C21.3632 22.8102 21.3267 22.8985 21.2602 22.9649V22.9649Z" fill="#DDC9A3"/>
<path d="M21.5859 28.1328C21.5859 27.9387 21.4285 27.7812 21.2344 27.7812H16.5469C16.3527 27.7812 16.1953 27.9387 16.1953 28.1328C16.1953 28.327 16.3527 28.4844 16.5469 28.4844H21.2344C21.4285 28.4844 21.5859 28.327 21.5859 28.1328Z" fill="#DDC9A3"/>
<path d="M17.4844 29.1875C17.2902 29.1875 17.1328 29.3449 17.1328 29.5391C17.1328 29.7332 17.2902 29.8906 17.4844 29.8906H20.2969C20.491 29.8906 20.6484 29.7332 20.6484 29.5391C20.6484 29.3449 20.491 29.1875 20.2969 29.1875H17.4844Z" fill="#DDC9A3"/>
<path d="M31.5469 27.7812H26.8594C26.6652 27.7812 26.5078 27.9387 26.5078 28.1328C26.5078 28.327 26.6652 28.4844 26.8594 28.4844H31.5469C31.741 28.4844 31.8984 28.327 31.8984 28.1328C31.8984 27.9387 31.741 27.7812 31.5469 27.7812Z" fill="#DDC9A3"/>
<path d="M30.6094 29.1875H27.7969C27.6027 29.1875 27.4453 29.3449 27.4453 29.5391C27.4453 29.7332 27.6027 29.8906 27.7969 29.8906H30.6094C30.8035 29.8906 30.9609 29.7332 30.9609 29.5391C30.9609 29.3449 30.8035 29.1875 30.6094 29.1875Z" fill="#DDC9A3"/>
<rect x="4" y="46" width="346" height="5" fill="#BC955C"/>
</g>
<path d="M50.112 20.8C51.0827 20.8 51.9253 20.96 52.64 21.28C53.3653 21.6 53.92 22.0587 54.304 22.656C54.688 23.2533 54.88 23.9627 54.88 24.784C54.88 25.5947 54.688 26.304 54.304 26.912C53.92 27.5093 53.3653 27.968 52.64 28.288C51.9253 28.608 51.0827 28.768 50.112 28.768H47.584V32H45.504V20.8H50.112ZM50.016 27.008C50.9227 27.008 51.6107 26.816 52.08 26.432C52.5493 26.048 52.784 25.4987 52.784 24.784C52.784 24.0693 52.5493 23.52 52.08 23.136C51.6107 22.752 50.9227 22.56 50.016 22.56H47.584V27.008H50.016ZM56.9214 20.128H58.9214V32H56.9214V20.128ZM64.8104 23.36C66.069 23.36 67.029 23.664 67.6904 24.272C68.3624 24.8693 68.6984 25.776 68.6984 26.992V32H66.8104V30.96C66.565 31.3333 66.213 31.6213 65.7544 31.824C65.3064 32.016 64.7624 32.112 64.1224 32.112C63.4824 32.112 62.9224 32.0053 62.4424 31.792C61.9624 31.568 61.589 31.264 61.3224 30.88C61.0664 30.4853 60.9384 30.0427 60.9384 29.552C60.9384 28.784 61.221 28.1707 61.7864 27.712C62.3624 27.2427 63.2637 27.008 64.4904 27.008H66.6984V26.88C66.6984 26.2827 66.517 25.824 66.1544 25.504C65.8024 25.184 65.2744 25.024 64.5704 25.024C64.0904 25.024 63.6157 25.0987 63.1464 25.248C62.6877 25.3973 62.2984 25.6053 61.9784 25.872L61.1944 24.416C61.6424 24.0747 62.181 23.8133 62.8104 23.632C63.4397 23.4507 64.1064 23.36 64.8104 23.36ZM64.5384 30.656C65.0397 30.656 65.4824 30.544 65.8664 30.32C66.261 30.0853 66.5384 29.7547 66.6984 29.328V28.336H64.6344C63.4824 28.336 62.9064 28.7147 62.9064 29.472C62.9064 29.8347 63.0504 30.1227 63.3384 30.336C63.6264 30.5493 64.0264 30.656 64.5384 30.656ZM76.1131 23.36C77.1905 23.36 78.0545 23.6747 78.7051 24.304C79.3558 24.9333 79.6811 25.8667 79.6811 27.104V32H77.6811V27.36C77.6811 26.6133 77.5051 26.0533 77.1531 25.68C76.8011 25.296 76.2998 25.104 75.6491 25.104C74.9131 25.104 74.3318 25.328 73.9051 25.776C73.4785 26.2133 73.2651 26.848 73.2651 27.68V32H71.2651V23.456H73.1691V24.56C73.4998 24.1653 73.9158 23.8667 74.4171 23.664C74.9185 23.4613 75.4838 23.36 76.1131 23.36ZM87.3543 31.536C87.1196 31.728 86.8316 31.872 86.4903 31.968C86.1596 32.064 85.8076 32.112 85.4343 32.112C84.4956 32.112 83.7703 31.8667 83.2582 31.376C82.7463 30.8853 82.4903 30.1707 82.4903 29.232V25.12H81.0823V23.52H82.4903V21.568H84.4903V23.52H86.7783V25.12H84.4903V29.184C84.4903 29.6 84.5916 29.92 84.7943 30.144C84.9969 30.3573 85.2903 30.464 85.6743 30.464C86.1223 30.464 86.4956 30.3467 86.7943 30.112L87.3543 31.536ZM88.9995 23.456H90.9995V32H88.9995V23.456ZM90.0075 22.048C89.6448 22.048 89.3408 21.936 89.0955 21.712C88.8502 21.4773 88.7275 21.1893 88.7275 20.848C88.7275 20.5067 88.8502 20.224 89.0955 20C89.3408 19.7653 89.6448 19.648 90.0075 19.648C90.3702 19.648 90.6742 19.76 90.9195 19.984C91.1648 20.1973 91.2875 20.4693 91.2875 20.8C91.2875 21.152 91.1648 21.4507 90.9195 21.696C90.6848 21.9307 90.3808 22.048 90.0075 22.048ZM93.6245 20.128H95.6245V32H93.6245V20.128ZM98.2495 20.128H100.25V32H98.2495V20.128ZM106.139 23.36C107.397 23.36 108.357 23.664 109.019 24.272C109.691 24.8693 110.027 25.776 110.027 26.992V32H108.139V30.96C107.893 31.3333 107.541 31.6213 107.083 31.824C106.635 32.016 106.091 32.112 105.451 32.112C104.811 32.112 104.251 32.0053 103.771 31.792C103.291 31.568 102.917 31.264 102.651 30.88C102.395 30.4853 102.267 30.0427 102.267 29.552C102.267 28.784 102.549 28.1707 103.115 27.712C103.691 27.2427 104.592 27.008 105.819 27.008H108.027V26.88C108.027 26.2827 107.845 25.824 107.483 25.504C107.131 25.184 106.603 25.024 105.899 25.024C105.419 25.024 104.944 25.0987 104.475 25.248C104.016 25.3973 103.627 25.6053 103.307 25.872L102.523 24.416C102.971 24.0747 103.509 23.8133 104.139 23.632C104.768 23.4507 105.435 23.36 106.139 23.36ZM105.867 30.656C106.368 30.656 106.811 30.544 107.195 30.32C107.589 30.0853 107.867 29.7547 108.027 29.328V28.336H105.963C104.811 28.336 104.235 28.7147 104.235 29.472C104.235 29.8347 104.379 30.1227 104.667 30.336C104.955 30.5493 105.355 30.656 105.867 30.656ZM120.279 23.36C121.538 23.36 122.498 23.664 123.159 24.272C123.831 24.8693 124.167 25.776 124.167 26.992V32H122.279V30.96C122.034 31.3333 121.682 31.6213 121.223 31.824C120.775 32.016 120.231 32.112 119.591 32.112C118.951 32.112 118.391 32.0053 117.911 31.792C117.431 31.568 117.058 31.264 116.791 30.88C116.535 30.4853 116.407 30.0427 116.407 29.552C116.407 28.784 116.69 28.1707 117.255 27.712C117.831 27.2427 118.732 27.008 119.959 27.008H122.167V26.88C122.167 26.2827 121.986 25.824 121.623 25.504C121.271 25.184 120.743 25.024 120.039 25.024C119.559 25.024 119.084 25.0987 118.615 25.248C118.156 25.3973 117.767 25.6053 117.447 25.872L116.663 24.416C117.111 24.0747 117.65 23.8133 118.279 23.632C118.908 23.4507 119.575 23.36 120.279 23.36ZM120.007 30.656C120.508 30.656 120.951 30.544 121.335 30.32C121.73 30.0853 122.007 29.7547 122.167 29.328V28.336H120.103C118.951 28.336 118.375 28.7147 118.375 29.472C118.375 29.8347 118.519 30.1227 118.807 30.336C119.095 30.5493 119.495 30.656 120.007 30.656ZM130.732 32.112C129.847 32.112 129.052 31.9253 128.348 31.552C127.644 31.1787 127.095 30.6613 126.7 30C126.305 29.328 126.108 28.5707 126.108 27.728C126.108 26.8853 126.305 26.1333 126.7 25.472C127.095 24.8107 127.639 24.2933 128.332 23.92C129.036 23.5467 129.836 23.36 130.732 23.36C131.575 23.36 132.311 23.5307 132.94 23.872C133.58 24.2133 134.06 24.704 134.38 25.344L132.844 26.24C132.599 25.8453 132.289 25.552 131.916 25.36C131.553 25.1573 131.153 25.056 130.716 25.056C129.969 25.056 129.351 25.3013 128.86 25.792C128.369 26.272 128.124 26.9173 128.124 27.728C128.124 28.5387 128.364 29.1893 128.844 29.68C129.335 30.16 129.959 30.4 130.716 30.4C131.153 30.4 131.553 30.304 131.916 30.112C132.289 29.9093 132.599 29.6107 132.844 29.216L134.38 30.112C134.049 30.752 133.564 31.248 132.924 31.6C132.295 31.9413 131.564 32.112 130.732 32.112ZM141.354 31.536C141.12 31.728 140.832 31.872 140.49 31.968C140.16 32.064 139.808 32.112 139.434 32.112C138.496 32.112 137.77 31.8667 137.258 31.376C136.746 30.8853 136.49 30.1707 136.49 29.232V25.12H135.082V23.52H136.49V21.568H138.49V23.52H140.778V25.12H138.49V29.184C138.49 29.6 138.592 29.92 138.794 30.144C138.997 30.3573 139.29 30.464 139.674 30.464C140.122 30.464 140.496 30.3467 140.794 30.112L141.354 31.536ZM151.272 23.456V32H149.368V30.912C149.048 31.296 148.648 31.5947 148.168 31.808C147.688 32.0107 147.17 32.112 146.616 32.112C145.474 32.112 144.573 31.7973 143.912 31.168C143.261 30.528 142.936 29.584 142.936 28.336V23.456H144.936V28.064C144.936 28.832 145.106 29.408 145.448 29.792C145.8 30.1653 146.296 30.352 146.936 30.352C147.65 30.352 148.216 30.1333 148.632 29.696C149.058 29.248 149.272 28.608 149.272 27.776V23.456H151.272ZM157.154 23.36C158.413 23.36 159.373 23.664 160.034 24.272C160.706 24.8693 161.042 25.776 161.042 26.992V32H159.154V30.96C158.909 31.3333 158.557 31.6213 158.098 31.824C157.65 32.016 157.106 32.112 156.466 32.112C155.826 32.112 155.266 32.0053 154.786 31.792C154.306 31.568 153.933 31.264 153.666 30.88C153.41 30.4853 153.282 30.0427 153.282 29.552C153.282 28.784 153.565 28.1707 154.13 27.712C154.706 27.2427 155.607 27.008 156.834 27.008H159.042V26.88C159.042 26.2827 158.861 25.824 158.498 25.504C158.146 25.184 157.618 25.024 156.914 25.024C156.434 25.024 155.959 25.0987 155.49 25.248C155.031 25.3973 154.642 25.6053 154.322 25.872L153.538 24.416C153.986 24.0747 154.525 23.8133 155.154 23.632C155.783 23.4507 156.45 23.36 157.154 23.36ZM156.882 30.656C157.383 30.656 157.826 30.544 158.21 30.32C158.605 30.0853 158.882 29.7547 159.042 29.328V28.336H156.978C155.826 28.336 155.25 28.7147 155.25 29.472C155.25 29.8347 155.394 30.1227 155.682 30.336C155.97 30.5493 156.37 30.656 156.882 30.656ZM163.609 20.128H165.609V32H163.609V20.128Z" fill="white"/>
<defs>
<filter id="filter0_d_4908_5843" x="0" y="0" width="208" height="57" filterUnits="userSpaceOnUse" color-interpolation-filters="sRGB">
<feFlood flood-opacity="0" result="BackgroundImageFix"/>
<feColorMatrix in="SourceAlpha" type="matrix" values="0 0 0 0 0 0 0 0 0 0 0 0 0 0 0 0 0 0 127 0" result="hardAlpha"/>
<feOffset dx="2"/>
<feGaussianBlur stdDeviation="3"/>
<feComposite in2="hardAlpha" operator="out"/>
<feColorMatrix type="matrix" values="0 0 0 0 0 0 0 0 0 0 0 0 0 0 0 0 0 0 0.12 0"/>
<feBlend mode="normal" in2="BackgroundImageFix" result="effect1_dropShadow_4908_5843"/>
<feBlend mode="normal" in="SourceGraphic" in2="effect1_dropShadow_4908_5843" result="shape"/>
</filter>
<linearGradient id="paint0_linear_4908_5843" x1="175.642" y1="-13" x2="4.85303" y2="12.6985" gradientUnits="userSpaceOnUse">
<stop stop-color="#0C7486"/>
<stop offset="1" stop-color="#065462"/>
</linearGradient>
<linearGradient id="paint1_linear_4908_5843" x1="217.5" y1="-26.0001" x2="-44.1749" y2="3.16401" gradientUnits="userSpaceOnUse">
<stop stop-color="#0C7486"/>
<stop offset="1" stop-color="#065462"/>
</linearGradient>
</defs>
</svg>
