<svg width="147" height="45" viewBox="0 0 310 45" fill="none" xmlns="http://www.w3.org/2000/svg">
<mask id="mask0_2756_15082" style="mask-type:alpha" maskUnits="userSpaceOnUse" x="0" y="0" width="310" height="45">
<path d="M0 8C0 3.58172 3.58172 0 8 0H288.365C291.772 0 294.805 2.15772 295.922 5.37623L309.678 45H0V8Z" fill="url(#paint0_linear_2756_15082)"/>
</mask>
<g mask="url(#mask0_2756_15082)">
<g filter="url(#filter0_d_2756_15082)">
<path d="M0.25 8C0.25 3.58172 3.83172 0 8.25 0H258.069C261.172 0 263.995 1.79452 265.312 4.60421L284.25 45H0.25V8Z" fill="url(#paint1_linear_2756_15082)"/>
</g>
<path d="M25.0829 24.8162C26.6345 24.8162 28.0935 24.2114 29.1908 23.1132C31.4558 20.8462 31.4558 17.1575 29.1908 14.8905C28.0935 13.7923 26.6346 13.1875 25.0829 13.1875C23.5311 13.1875 22.0722 13.7923 20.975 14.8905C19.8777 15.9887 19.2734 17.4488 19.2734 19.0019C19.2734 20.555 19.8777 22.0151 20.975 23.1132C22.0722 24.2114 23.5311 24.8162 25.0829 24.8162ZM21.5546 15.4705C22.497 14.5273 23.7501 14.0078 25.0829 14.0078C26.4157 14.0078 27.6687 14.5273 28.6111 15.4705C30.5566 17.4177 30.5566 20.586 28.6111 22.5332C27.6687 23.4765 26.4156 23.996 25.0829 23.996C23.75 23.996 22.497 23.4765 21.5546 22.5332C20.6121 21.59 20.0931 20.3358 20.0931 19.0019C20.0931 17.6679 20.6121 16.4138 21.5546 15.4705Z" fill="#DDC9A3"/>
<path d="M23.7516 20.3293V21.9283C23.7516 22.4401 24.1676 22.8565 24.679 22.8565H25.4834C25.9947 22.8565 26.4108 22.4402 26.4108 21.9283V20.3293H28.0085C28.5198 20.3293 28.9358 19.9129 28.9358 19.4011V18.596C28.9358 18.0842 28.5199 17.6678 28.0085 17.6678H26.4108V16.0688C26.4108 15.557 25.9948 15.1406 25.4834 15.1406H24.679C24.1677 15.1406 23.7516 15.557 23.7516 16.0688V17.6678H22.1539C21.6426 17.6678 21.2266 18.0842 21.2266 18.596V19.4011C21.2266 19.9129 21.6425 20.3293 22.1539 20.3293H23.7516ZM22.0462 19.4011V18.596C22.0462 18.5366 22.0945 18.4882 22.1539 18.4882H24.1614C24.3878 18.4882 24.5712 18.3045 24.5712 18.078V16.0688C24.5712 16.0093 24.6196 15.9609 24.679 15.9609H25.4834C25.5428 15.9609 25.5912 16.0093 25.5912 16.0688V18.078C25.5912 18.3045 25.7746 18.4882 26.001 18.4882H28.0085C28.0679 18.4882 28.1162 18.5366 28.1162 18.596V19.4011C28.1162 19.4606 28.0679 19.509 28.0085 19.509H26.001C25.7746 19.509 25.5912 19.6926 25.5912 19.9191V21.9283C25.5912 21.9878 25.5428 22.0362 25.4834 22.0362H24.679C24.6196 22.0362 24.5712 21.9878 24.5712 21.9283V19.9191C24.5712 19.6926 24.3878 19.509 24.1614 19.509H22.1539C22.0945 19.509 22.0462 19.4606 22.0462 19.4011Z" fill="#DDC9A3"/>
<path d="M38.723 12.4807C38.6159 12.1935 38.4036 11.9651 38.125 11.8378L37.459 11.5333C36.8838 11.2704 36.2021 11.5248 35.9394 12.1004L35.1169 13.9025V8.70951C35.1169 7.44038 34.0853 6.40793 32.8172 6.40793H28.9403V6.32196C28.9403 5.59303 28.3478 5 27.6195 5H21.888C21.1598 5 20.5672 5.59303 20.5672 6.32191V6.40788H16.6903C15.4222 6.40788 14.3906 7.44038 14.3906 8.70946V30.6984C14.3906 31.9676 15.4222 33 16.6903 33H32.8173C34.0853 33 35.117 31.9675 35.117 30.6984V21.1912L38.6917 13.3586C38.8189 13.0797 38.83 12.7679 38.723 12.4807ZM36.9829 12.2498C37.0283 12.2498 37.0745 12.2593 37.1184 12.2794L37.7844 12.5839C37.9485 12.6589 38.021 12.8536 37.946 13.0177L37.5863 13.8059L36.3252 13.2294L36.6849 12.4412C36.7398 12.3209 36.8588 12.2498 36.9829 12.2498ZM37.0144 15.0592L35.7533 14.4827L35.9847 13.9755L37.2458 14.552L37.0144 15.0592ZM30.5045 29.3217L29.2444 28.7456C29.2503 28.732 35.4127 15.2288 35.4127 15.2288L36.6738 15.8053C36.6738 15.8053 30.5111 29.3084 30.5045 29.3217ZM29.0333 29.551L30.0345 30.0087L28.4505 32.1537L29.0333 29.551ZM30.994 30.0895C30.994 30.0895 30.994 30.0895 30.994 30.0895C31.1015 29.9439 31.194 29.7867 31.2691 29.6223L32.4055 27.1323V29.9289C32.4055 30.1729 32.2071 30.3728 31.9635 30.3744L30.778 30.382L30.994 30.0895ZM21.3868 6.32191C21.3868 6.0453 21.6116 5.82031 21.888 5.82031H27.6196C27.8959 5.82031 28.1207 6.04535 28.1207 6.32191V7.37443C28.1207 7.65104 27.8959 7.87602 27.6196 7.87602H21.888C21.6116 7.87602 21.3868 7.65098 21.3868 7.37443V6.32191ZM15.2102 30.6985V8.70951C15.2102 8.03527 15.6627 7.46483 16.2796 7.28627V26.3464C16.2796 26.5729 16.463 26.7565 16.6894 26.7565C16.9158 26.7565 17.0992 26.5729 17.0992 26.3464L17.0993 7.22825H20.5672V7.37448C20.5672 8.10341 21.1598 8.69639 21.888 8.69639H27.6196C28.3478 8.69639 28.9403 8.10336 28.9403 7.37448V7.22825H32.4055V10.4826C32.4055 10.7091 32.5889 10.8928 32.8153 10.8928C33.0417 10.8928 33.2251 10.7091 33.2251 10.4826V7.2854C33.8436 7.46308 34.2973 8.03423 34.2973 8.70951V15.6984L33.2251 18.0478V12.1232C33.2251 11.8967 33.0417 11.713 32.8153 11.713C32.5889 11.713 32.4055 11.8967 32.4055 12.1232V19.8436L28.5169 28.364C28.4419 28.5286 28.3837 28.7015 28.3442 28.878L28.0034 30.3996L17.5473 30.4665C17.5463 30.4665 17.5453 30.4665 17.5443 30.4665C17.426 30.4665 17.3147 30.4207 17.2307 30.3371C17.1459 30.2528 17.0993 30.1406 17.0993 30.0211V27.9869C17.0993 27.7604 16.9159 27.5767 16.6895 27.5767C16.4631 27.5767 16.2797 27.7604 16.2797 27.9869V30.0211C16.2797 30.3608 16.4123 30.6797 16.653 30.9191C16.8918 31.1564 17.208 31.2869 17.5441 31.2869C17.547 31.2869 17.5498 31.2869 17.5527 31.2869L27.8195 31.2211L27.6016 32.1797H16.6903C15.8742 32.1797 15.2102 31.5152 15.2102 30.6985ZM34.2973 30.6985C34.2973 31.5153 33.6333 32.1797 32.8172 32.1797H29.4505L30.1694 31.2062L31.9688 31.1947C32.6616 31.1901 33.2251 30.6222 33.2251 29.9289V25.3365L34.2973 22.9871V30.6985Z" fill="#DDC9A3"/>
<path d="M0.25 40H281.868L284.228 45H0.25V40Z" fill="#BC955C"/>
</g>
<path d="M57.5388 25.16C55.9921 25.16 54.7868 24.728 53.9228 23.864C53.0588 22.9893 52.6268 21.7413 52.6268 20.12V13.8H54.7068V20.04C54.7068 22.2373 55.6561 23.336 57.5548 23.336C59.4428 23.336 60.3868 22.2373 60.3868 20.04V13.8H62.4348V20.12C62.4348 21.7413 62.0028 22.9893 61.1388 23.864C60.2854 24.728 59.0854 25.16 57.5388 25.16ZM70.0038 16.36C71.0811 16.36 71.9451 16.6747 72.5958 17.304C73.2464 17.9333 73.5718 18.8667 73.5718 20.104V25H71.5718V20.36C71.5718 19.6133 71.3958 19.0533 71.0438 18.68C70.6918 18.296 70.1904 18.104 69.5398 18.104C68.8038 18.104 68.2224 18.328 67.7958 18.776C67.3691 19.2133 67.1558 19.848 67.1558 20.68V25H65.1558V16.456H67.0598V17.56C67.3904 17.1653 67.8064 16.8667 68.3078 16.664C68.8091 16.4613 69.3744 16.36 70.0038 16.36ZM76.1089 16.456H78.1089V25H76.1089V16.456ZM77.1169 15.048C76.7542 15.048 76.4502 14.936 76.2049 14.712C75.9595 14.4773 75.8369 14.1893 75.8369 13.848C75.8369 13.5067 75.9595 13.224 76.2049 13C76.4502 12.7653 76.7542 12.648 77.1169 12.648C77.4795 12.648 77.7835 12.76 78.0289 12.984C78.2742 13.1973 78.3969 13.4693 78.3969 13.8C78.3969 14.152 78.2742 14.4507 78.0289 14.696C77.7942 14.9307 77.4902 15.048 77.1169 15.048ZM89.1019 13.128V25H87.1819V23.896C86.8512 24.3013 86.4405 24.6053 85.9499 24.808C85.4699 25.0107 84.9365 25.112 84.3499 25.112C83.5285 25.112 82.7872 24.9307 82.1259 24.568C81.4752 24.2053 80.9632 23.6933 80.5899 23.032C80.2165 22.36 80.0299 21.592 80.0299 20.728C80.0299 19.864 80.2165 19.1013 80.5899 18.44C80.9632 17.7787 81.4752 17.2667 82.1259 16.904C82.7872 16.5413 83.5285 16.36 84.3499 16.36C84.9152 16.36 85.4325 16.456 85.9019 16.648C86.3712 16.84 86.7712 17.128 87.1019 17.512V13.128H89.1019ZM84.5899 23.4C85.0699 23.4 85.5019 23.2933 85.8859 23.08C86.2699 22.856 86.5739 22.5413 86.7979 22.136C87.0219 21.7307 87.1339 21.2613 87.1339 20.728C87.1339 20.1947 87.0219 19.7253 86.7979 19.32C86.5739 18.9147 86.2699 18.6053 85.8859 18.392C85.5019 18.168 85.0699 18.056 84.5899 18.056C84.1099 18.056 83.6779 18.168 83.2939 18.392C82.9099 18.6053 82.6059 18.9147 82.3819 19.32C82.1579 19.7253 82.0459 20.1947 82.0459 20.728C82.0459 21.2613 82.1579 21.7307 82.3819 22.136C82.6059 22.5413 82.9099 22.856 83.2939 23.08C83.6779 23.2933 84.1099 23.4 84.5899 23.4ZM94.9823 16.36C96.2409 16.36 97.2009 16.664 97.8623 17.272C98.5343 17.8693 98.8703 18.776 98.8703 19.992V25H96.9823V23.96C96.7369 24.3333 96.3849 24.6213 95.9263 24.824C95.4783 25.016 94.9343 25.112 94.2943 25.112C93.6543 25.112 93.0943 25.0053 92.6143 24.792C92.1343 24.568 91.7609 24.264 91.4943 23.88C91.2383 23.4853 91.1103 23.0427 91.1103 22.552C91.1103 21.784 91.3929 21.1707 91.9583 20.712C92.5343 20.2427 93.4356 20.008 94.6623 20.008H96.8703V19.88C96.8703 19.2827 96.6889 18.824 96.3263 18.504C95.9743 18.184 95.4463 18.024 94.7423 18.024C94.2623 18.024 93.7876 18.0987 93.3183 18.248C92.8596 18.3973 92.4703 18.6053 92.1503 18.872L91.3663 17.416C91.8143 17.0747 92.3529 16.8133 92.9823 16.632C93.6116 16.4507 94.2783 16.36 94.9823 16.36ZM94.7103 23.656C95.2116 23.656 95.6543 23.544 96.0383 23.32C96.4329 23.0853 96.7103 22.7547 96.8703 22.328V21.336H94.8063C93.6543 21.336 93.0783 21.7147 93.0783 22.472C93.0783 22.8347 93.2223 23.1227 93.5103 23.336C93.7983 23.5493 94.1983 23.656 94.7103 23.656ZM109.883 13.128V25H107.963V23.896C107.632 24.3013 107.222 24.6053 106.731 24.808C106.251 25.0107 105.718 25.112 105.131 25.112C104.31 25.112 103.568 24.9307 102.907 24.568C102.256 24.2053 101.744 23.6933 101.371 23.032C100.998 22.36 100.811 21.592 100.811 20.728C100.811 19.864 100.998 19.1013 101.371 18.44C101.744 17.7787 102.256 17.2667 102.907 16.904C103.568 16.5413 104.31 16.36 105.131 16.36C105.696 16.36 106.214 16.456 106.683 16.648C107.152 16.84 107.552 17.128 107.883 17.512V13.128H109.883ZM105.371 23.4C105.851 23.4 106.283 23.2933 106.667 23.08C107.051 22.856 107.355 22.5413 107.579 22.136C107.803 21.7307 107.915 21.2613 107.915 20.728C107.915 20.1947 107.803 19.7253 107.579 19.32C107.355 18.9147 107.051 18.6053 106.667 18.392C106.283 18.168 105.851 18.056 105.371 18.056C104.891 18.056 104.459 18.168 104.075 18.392C103.691 18.6053 103.387 18.9147 103.163 19.32C102.939 19.7253 102.827 20.1947 102.827 20.728C102.827 21.2613 102.939 21.7307 103.163 22.136C103.387 22.5413 103.691 22.856 104.075 23.08C104.459 23.2933 104.891 23.4 105.371 23.4ZM120.532 20.776C120.532 20.9147 120.521 21.112 120.5 21.368H113.796C113.913 21.9973 114.217 22.4987 114.708 22.872C115.209 23.2347 115.828 23.416 116.564 23.416C117.502 23.416 118.276 23.1067 118.884 22.488L119.956 23.72C119.572 24.1787 119.086 24.5253 118.5 24.76C117.913 24.9947 117.252 25.112 116.516 25.112C115.577 25.112 114.75 24.9253 114.036 24.552C113.321 24.1787 112.766 23.6613 112.372 23C111.988 22.328 111.796 21.5707 111.796 20.728C111.796 19.896 111.982 19.1493 112.356 18.488C112.74 17.816 113.268 17.2933 113.94 16.92C114.612 16.5467 115.369 16.36 116.212 16.36C117.044 16.36 117.785 16.5467 118.436 16.92C119.097 17.2827 119.609 17.8 119.972 18.472C120.345 19.1333 120.532 19.9013 120.532 20.776ZM116.212 17.96C115.572 17.96 115.028 18.152 114.58 18.536C114.142 18.9093 113.876 19.4107 113.78 20.04H118.628C118.542 19.4213 118.281 18.92 117.844 18.536C117.406 18.152 116.862 17.96 116.212 17.96ZM125.093 25.112C124.399 25.112 123.722 25.0213 123.061 24.84C122.399 24.6587 121.871 24.4293 121.477 24.152L122.245 22.632C122.629 22.888 123.087 23.096 123.621 23.256C124.165 23.4053 124.698 23.48 125.221 23.48C126.415 23.48 127.013 23.1653 127.013 22.536C127.013 22.2373 126.858 22.0293 126.549 21.912C126.25 21.7947 125.765 21.6827 125.093 21.576C124.389 21.4693 123.813 21.3467 123.365 21.208C122.927 21.0693 122.543 20.8293 122.213 20.488C121.893 20.136 121.733 19.6507 121.733 19.032C121.733 18.2213 122.069 17.576 122.741 17.096C123.423 16.6053 124.341 16.36 125.493 16.36C126.079 16.36 126.666 16.4293 127.253 16.568C127.839 16.696 128.319 16.872 128.693 17.096L127.925 18.616C127.199 18.1893 126.383 17.976 125.477 17.976C124.89 17.976 124.442 18.0667 124.133 18.248C123.834 18.4187 123.685 18.648 123.685 18.936C123.685 19.256 123.845 19.4853 124.165 19.624C124.495 19.752 125.002 19.8747 125.685 19.992C126.367 20.0987 126.927 20.2213 127.365 20.36C127.802 20.4987 128.175 20.7333 128.485 21.064C128.805 21.3947 128.965 21.864 128.965 22.472C128.965 23.272 128.618 23.912 127.925 24.392C127.231 24.872 126.287 25.112 125.093 25.112ZM139.845 16.36C140.677 16.36 141.418 16.5413 142.069 16.904C142.73 17.2667 143.248 17.7787 143.621 18.44C143.994 19.1013 144.181 19.864 144.181 20.728C144.181 21.592 143.994 22.36 143.621 23.032C143.248 23.6933 142.73 24.2053 142.069 24.568C141.418 24.9307 140.677 25.112 139.845 25.112C138.693 25.112 137.781 24.728 137.109 23.96V28.104H135.109V16.456H137.013V17.576C137.344 17.1707 137.749 16.8667 138.229 16.664C138.72 16.4613 139.258 16.36 139.845 16.36ZM139.621 23.4C140.357 23.4 140.96 23.1547 141.429 22.664C141.909 22.1733 142.149 21.528 142.149 20.728C142.149 19.928 141.909 19.2827 141.429 18.792C140.96 18.3013 140.357 18.056 139.621 18.056C139.141 18.056 138.709 18.168 138.325 18.392C137.941 18.6053 137.637 18.9147 137.413 19.32C137.189 19.7253 137.077 20.1947 137.077 20.728C137.077 21.2613 137.189 21.7307 137.413 22.136C137.637 22.5413 137.941 22.856 138.325 23.08C138.709 23.2933 139.141 23.4 139.621 23.4ZM149.918 25.112C149.054 25.112 148.275 24.9253 147.582 24.552C146.888 24.1787 146.344 23.6613 145.95 23C145.566 22.328 145.374 21.5707 145.374 20.728C145.374 19.8853 145.566 19.1333 145.95 18.472C146.344 17.8107 146.888 17.2933 147.582 16.92C148.275 16.5467 149.054 16.36 149.918 16.36C150.792 16.36 151.576 16.5467 152.27 16.92C152.963 17.2933 153.502 17.8107 153.886 18.472C154.28 19.1333 154.478 19.8853 154.478 20.728C154.478 21.5707 154.28 22.328 153.886 23C153.502 23.6613 152.963 24.1787 152.27 24.552C151.576 24.9253 150.792 25.112 149.918 25.112ZM149.918 23.4C150.654 23.4 151.262 23.1547 151.742 22.664C152.222 22.1733 152.462 21.528 152.462 20.728C152.462 19.928 152.222 19.2827 151.742 18.792C151.262 18.3013 150.654 18.056 149.918 18.056C149.182 18.056 148.574 18.3013 148.094 18.792C147.624 19.2827 147.39 19.928 147.39 20.728C147.39 21.528 147.624 22.1733 148.094 22.664C148.574 23.1547 149.182 23.4 149.918 23.4ZM158.294 17.704C158.87 16.808 159.883 16.36 161.334 16.36V18.264C161.163 18.232 161.009 18.216 160.87 18.216C160.091 18.216 159.483 18.4453 159.046 18.904C158.609 19.352 158.39 20.0027 158.39 20.856V25H156.39V16.456H158.294V17.704ZM171.451 25.112C170.565 25.112 169.771 24.9253 169.067 24.552C168.363 24.1787 167.813 23.6613 167.419 23C167.024 22.328 166.827 21.5707 166.827 20.728C166.827 19.8853 167.024 19.1333 167.419 18.472C167.813 17.8107 168.357 17.2933 169.051 16.92C169.755 16.5467 170.555 16.36 171.451 16.36C172.293 16.36 173.029 16.5307 173.659 16.872C174.299 17.2133 174.779 17.704 175.099 18.344L173.563 19.24C173.317 18.8453 173.008 18.552 172.635 18.36C172.272 18.1573 171.872 18.056 171.435 18.056C170.688 18.056 170.069 18.3013 169.579 18.792C169.088 19.272 168.843 19.9173 168.843 20.728C168.843 21.5387 169.083 22.1893 169.563 22.68C170.053 23.16 170.677 23.4 171.435 23.4C171.872 23.4 172.272 23.304 172.635 23.112C173.008 22.9093 173.317 22.6107 173.563 22.216L175.099 23.112C174.768 23.752 174.283 24.248 173.643 24.6C173.013 24.9413 172.283 25.112 171.451 25.112ZM180.543 25.112C179.679 25.112 178.9 24.9253 178.207 24.552C177.513 24.1787 176.969 23.6613 176.575 23C176.191 22.328 175.999 21.5707 175.999 20.728C175.999 19.8853 176.191 19.1333 176.575 18.472C176.969 17.8107 177.513 17.2933 178.207 16.92C178.9 16.5467 179.679 16.36 180.543 16.36C181.417 16.36 182.201 16.5467 182.895 16.92C183.588 17.2933 184.127 17.8107 184.511 18.472C184.905 19.1333 185.103 19.8853 185.103 20.728C185.103 21.5707 184.905 22.328 184.511 23C184.127 23.6613 183.588 24.1787 182.895 24.552C182.201 24.9253 181.417 25.112 180.543 25.112ZM180.543 23.4C181.279 23.4 181.887 23.1547 182.367 22.664C182.847 22.1733 183.087 21.528 183.087 20.728C183.087 19.928 182.847 19.2827 182.367 18.792C181.887 18.3013 181.279 18.056 180.543 18.056C179.807 18.056 179.199 18.3013 178.719 18.792C178.249 19.2827 178.015 19.928 178.015 20.728C178.015 21.528 178.249 22.1733 178.719 22.664C179.199 23.1547 179.807 23.4 180.543 23.4ZM191.863 16.36C192.94 16.36 193.804 16.6747 194.455 17.304C195.106 17.9333 195.431 18.8667 195.431 20.104V25H193.431V20.36C193.431 19.6133 193.255 19.0533 192.903 18.68C192.551 18.296 192.05 18.104 191.399 18.104C190.663 18.104 190.082 18.328 189.655 18.776C189.228 19.2133 189.015 19.848 189.015 20.68V25H187.015V16.456H188.919V17.56C189.25 17.1653 189.666 16.8667 190.167 16.664C190.668 16.4613 191.234 16.36 191.863 16.36ZM201.44 14.632C200.598 14.632 200.176 15.0907 200.176 16.008V16.52H202.528V18.12H200.24V25H198.24V18.12H196.832V16.52H198.24V15.976C198.24 15.0587 198.507 14.3387 199.04 13.816C199.574 13.2827 200.326 13.016 201.296 13.016C202.064 13.016 202.667 13.1707 203.104 13.48L202.544 14.984C202.203 14.7493 201.835 14.632 201.44 14.632ZM205.152 16.456H207.152V25H205.152V16.456ZM206.16 15.048C205.798 15.048 205.494 14.936 205.248 14.712C205.003 14.4773 204.88 14.1893 204.88 13.848C204.88 13.5067 205.003 13.224 205.248 13C205.494 12.7653 205.798 12.648 206.16 12.648C206.523 12.648 206.827 12.76 207.072 12.984C207.318 13.1973 207.44 13.4693 207.44 13.8C207.44 14.152 207.318 14.4507 207.072 14.696C206.838 14.9307 206.534 15.048 206.16 15.048ZM211.685 17.704C212.261 16.808 213.274 16.36 214.725 16.36V18.264C214.554 18.232 214.399 18.216 214.261 18.216C213.482 18.216 212.874 18.4453 212.437 18.904C211.999 19.352 211.781 20.0027 211.781 20.856V25H209.781V16.456H211.685V17.704ZM227.205 16.36C228.283 16.36 229.136 16.6747 229.765 17.304C230.395 17.9227 230.709 18.856 230.709 20.104V25H228.709V20.36C228.709 19.6133 228.544 19.0533 228.213 18.68C227.883 18.296 227.408 18.104 226.789 18.104C226.117 18.104 225.579 18.328 225.173 18.776C224.768 19.2133 224.565 19.8427 224.565 20.664V25H222.565V20.36C222.565 19.6133 222.4 19.0533 222.069 18.68C221.739 18.296 221.264 18.104 220.645 18.104C219.963 18.104 219.419 18.3227 219.013 18.76C218.619 19.1973 218.421 19.832 218.421 20.664V25H216.421V16.456H218.325V17.544C218.645 17.16 219.045 16.8667 219.525 16.664C220.005 16.4613 220.539 16.36 221.125 16.36C221.765 16.36 222.331 16.4827 222.821 16.728C223.323 16.9627 223.717 17.3147 224.005 17.784C224.357 17.336 224.811 16.9893 225.365 16.744C225.92 16.488 226.533 16.36 227.205 16.36ZM236.529 16.36C237.788 16.36 238.748 16.664 239.409 17.272C240.081 17.8693 240.417 18.776 240.417 19.992V25H238.529V23.96C238.284 24.3333 237.932 24.6213 237.473 24.824C237.025 25.016 236.481 25.112 235.841 25.112C235.201 25.112 234.641 25.0053 234.161 24.792C233.681 24.568 233.308 24.264 233.041 23.88C232.785 23.4853 232.657 23.0427 232.657 22.552C232.657 21.784 232.94 21.1707 233.505 20.712C234.081 20.2427 234.982 20.008 236.209 20.008H238.417V19.88C238.417 19.2827 238.236 18.824 237.873 18.504C237.521 18.184 236.993 18.024 236.289 18.024C235.809 18.024 235.334 18.0987 234.865 18.248C234.406 18.3973 234.017 18.6053 233.697 18.872L232.913 17.416C233.361 17.0747 233.9 16.8133 234.529 16.632C235.158 16.4507 235.825 16.36 236.529 16.36ZM236.257 23.656C236.758 23.656 237.201 23.544 237.585 23.32C237.98 23.0853 238.257 22.7547 238.417 22.328V21.336H236.353C235.201 21.336 234.625 21.7147 234.625 22.472C234.625 22.8347 234.769 23.1227 235.057 23.336C235.345 23.5493 235.745 23.656 236.257 23.656ZM244.888 17.704C245.464 16.808 246.477 16.36 247.928 16.36V18.264C247.757 18.232 247.603 18.216 247.464 18.216C246.685 18.216 246.077 18.4453 245.64 18.904C245.203 19.352 244.984 20.0027 244.984 20.856V25H242.984V16.456H244.888V17.704Z" fill="white"/>
<defs>
<filter id="filter0_d_2756_15082" x="-3.75" y="-6" width="296" height="57" filterUnits="userSpaceOnUse" color-interpolation-filters="sRGB">
<feFlood flood-opacity="0" result="BackgroundImageFix"/>
<feColorMatrix in="SourceAlpha" type="matrix" values="0 0 0 0 0 0 0 0 0 0 0 0 0 0 0 0 0 0 127 0" result="hardAlpha"/>
<feOffset dx="2"/>
<feGaussianBlur stdDeviation="3"/>
<feComposite in2="hardAlpha" operator="out"/>
<feColorMatrix type="matrix" values="0 0 0 0 0 0 0 0 0 0 0 0 0 0 0 0 0 0 0.12 0"/>
<feBlend mode="normal" in2="BackgroundImageFix" result="effect1_dropShadow_2756_15082"/>
<feBlend mode="normal" in="SourceGraphic" in2="effect1_dropShadow_2756_15082" result="shape"/>
</filter>
<linearGradient id="paint0_linear_2756_15082" x1="215.767" y1="-31.9968" x2="-25.2499" y2="-7.30279" gradientUnits="userSpaceOnUse">
<stop stop-color="#0C7486"/>
<stop offset="1" stop-color="#065462"/>
</linearGradient>
<linearGradient id="paint1_linear_2756_15082" x1="188.346" y1="-18.9985" x2="75.3972" y2="-7.90168" gradientUnits="userSpaceOnUse">
<stop stop-color="#0C7486"/>
<stop offset="1" stop-color="#065462"/>
</linearGradient>
</defs>
</svg>