<svg width="246" height="58" viewBox="0 0 246 58" fill="none" xmlns="http://www.w3.org/2000/svg">
    <g filter="url(#b53419c3za)">
        <path d="M4.854 14.152a8 8 0 0 1 8-8h199.62a8 8 0 0 1 7.298 4.724l18.082 40.276h-233v-37z" fill="url(#m6m5pn8gxb)"/>
    </g>
    <mask id="wtbyq1l2id" style="mask-type:alpha" maskUnits="userSpaceOnUse" x="4" y="6" width="234" height="46">
        <path d="M4.854 14.152a8 8 0 0 1 8-8h199.62a8 8 0 0 1 7.298 4.724l18.082 40.276h-233v-37z" fill="url(#unorwdll6c)"/>
    </mask>
    <g mask="url(#wtbyq1l2id)">
        <path d="M38.083 20.744h-6.675v-2.286h.562c.425 0 .77-.346.77-.77v-.765a.772.772 0 0 0-.77-.77h-8.933a.38.38 0 0 0 0 .761h8.933c.005 0 .009.004.009.01v.763a.009.009 0 0 1-.01.01H19.738a.009.009 0 0 1-.009-.01v-.764c0-.005.004-.009.01-.009h1.469a.38.38 0 0 0 0-.762h-1.47a.772.772 0 0 0-.77.771v.764c0 .425.345.771.77.771h.562v2.286h-6.675a.772.772 0 0 0-.77.77v.765c0 .425.345.77.77.77h.24v10.363c0 .616.5 1.117 1.116 1.117h17.122a.38.38 0 1 0 0-.762h-.694V23.049h5.674v10.363c0 .196-.16.355-.355.355h-2.729a.38.38 0 1 0 0 .762h2.729c.616 0 1.117-.502 1.117-1.117V23.049h.239c.425 0 .77-.346.77-.77v-.765a.772.772 0 0 0-.77-.77zm-24.468 1.535v-.765c0-.005.004-.009.01-.009h6.674v.783h-6.675a.009.009 0 0 1-.009-.01zm1.01 11.133V23.049H20.3v10.718H14.98a.355.355 0 0 1-.355-.355zm8.446-1.856a.38.38 0 0 0-.38.38v1.83h-1.63V18.459h9.585v15.309h-1.63V28.2a.946.946 0 0 0-.944-.945h-4.437a.946.946 0 0 0-.945.945v1.812a.38.38 0 1 0 .762 0V28.2c0-.101.082-.183.183-.183h1.838v5.75h-2.021v-1.83a.38.38 0 0 0-.38-.381zm3.163 2.21v-5.75h1.838c.1 0 .183.083.183.184v5.567h-2.02zM38.092 22.28a.009.009 0 0 1-.01.009h-6.674v-.783h6.675c.005 0 .009.004.009.01v.764z" fill="#DDC9A3"/>
        <path d="M33.202 26.493h2.086c.42 0 .76-.34.76-.76v-.785c0-.42-.34-.76-.76-.76h-2.086c-.42 0-.76.34-.76.76v.785c0 .42.34.76.76.76zm2.084-1.545.002.784h-2.085l-.001-.783 2.084-.001zM36.048 28.801v-.785c0-.419-.34-.76-.76-.76h-2.086c-.42 0-.76.341-.76.76v.785c0 .42.34.76.76.76h2.086c.42 0 .76-.34.76-.76zm-2.846-.783 2.084-.002.002.784-2.085.001-.001-.783zM18.505 24.188h-2.086c-.42 0-.76.34-.76.76v.785c0 .42.34.76.76.76h2.086c.419 0 .76-.34.76-.76v-.785c0-.42-.341-.76-.76-.76zm-2.085 1.544-.001-.783 2.084-.001.002.784H16.42zM18.505 27.256h-2.086c-.42 0-.76.341-.76.76v.785c0 .42.34.76.76.76h2.086c.419 0 .76-.34.76-.76v-.785c0-.419-.341-.76-.76-.76zM16.42 28.8l-.001-.783h2.084l.002.783H16.42zM24.322 22.543h.405v.405c0 .447.363.81.81.81h.632c.446 0 .81-.363.81-.81v-.405h.405c.447 0 .81-.363.81-.81v-.631a.811.811 0 0 0-.81-.81h-.405v-.405a.811.811 0 0 0-.81-.81h-.632a.811.811 0 0 0-.81.81v.404h-.405a.811.811 0 0 0-.81.81v.632c0 .447.363.81.81.81zm-.049-1.441c0-.027.022-.049.049-.049h.786c.21 0 .38-.17.38-.38v-.786c0-.027.022-.05.05-.05h.63c.027 0 .05.023.05.05v.785c0 .21.17.381.38.381h.786c.026 0 .048.022.048.049v.631a.049.049 0 0 1-.048.049h-.786a.38.38 0 0 0-.38.38v.786a.049.049 0 0 1-.05.049h-.63a.049.049 0 0 1-.05-.049v-.785a.38.38 0 0 0-.38-.381h-.786a.049.049 0 0 1-.049-.049v-.631zM23.462 26.598h4.781a.774.774 0 0 0 .773-.773v-.74a.774.774 0 0 0-.773-.773h-4.78a.774.774 0 0 0-.774.773v.74c0 .426.347.773.773.773zm-.01-1.513c0-.006.004-.01.01-.01h4.781c.006 0 .011.004.011.01v.74a.011.011 0 0 1-.01.01h-4.782a.011.011 0 0 1-.01-.01v-.74z" fill="#DDC9A3"/>
        <path fill="#BC955C" d="M4.854 46.152h346v5h-346z"/>
        <path d="M50.965 20.952c.971 0 1.814.16 2.528.48.726.32 1.28.779 1.664 1.376.385.598.577 1.307.577 2.128 0 .811-.193 1.52-.577 2.128-.383.598-.938 1.056-1.663 1.376-.715.32-1.558.48-2.529.48h-2.528v3.232h-2.08v-11.2h4.608zm-.096 6.208c.907 0 1.595-.192 2.065-.576.469-.384.704-.933.704-1.648 0-.714-.235-1.264-.704-1.648-.47-.384-1.158-.576-2.064-.576h-2.432v4.448h2.431zm14.75.768c0 .139-.01.336-.032.592h-6.704c.118.63.422 1.131.912 1.504.502.363 1.12.544 1.856.544.94 0 1.712-.309 2.32-.928l1.072 1.232a3.61 3.61 0 0 1-1.456 1.04c-.586.235-1.248.352-1.984.352-.938 0-1.765-.186-2.48-.56a4.103 4.103 0 0 1-1.664-1.552c-.384-.672-.576-1.429-.576-2.272 0-.832.187-1.578.56-2.24a4.07 4.07 0 0 1 1.584-1.568c.672-.373 1.43-.56 2.272-.56.832 0 1.574.187 2.224.56.662.363 1.174.88 1.536 1.552.374.662.56 1.43.56 2.304zm-4.32-2.816c-.64 0-1.184.192-1.632.576-.437.374-.704.875-.8 1.504h4.848c-.085-.618-.346-1.12-.784-1.504-.437-.384-.98-.576-1.632-.576zm8.146-.256c.576-.896 1.589-1.344 3.04-1.344v1.904a2.539 2.539 0 0 0-.465-.048c-.778 0-1.386.23-1.823.688-.438.448-.657 1.099-.657 1.952v4.144h-2v-8.544h1.904v1.248zm7.407 7.408c-.693 0-1.37-.09-2.032-.272-.66-.181-1.189-.41-1.584-.688l.768-1.52a5.12 5.12 0 0 0 1.376.624c.544.15 1.078.224 1.6.224 1.195 0 1.792-.314 1.792-.944 0-.298-.154-.506-.464-.624-.298-.117-.784-.229-1.456-.336-.704-.106-1.28-.229-1.728-.368a2.735 2.735 0 0 1-1.152-.72c-.32-.352-.48-.837-.48-1.456 0-.81.336-1.456 1.008-1.936.683-.49 1.6-.736 2.752-.736.587 0 1.174.07 1.76.208.587.128 1.067.304 1.44.528l-.768 1.52c-.725-.426-1.54-.64-2.448-.64-.586 0-1.034.091-1.344.272-.298.171-.448.4-.448.688 0 .32.16.55.48.688.331.128.838.251 1.52.368.683.107 1.243.23 1.68.368.438.139.811.374 1.12.704.32.331.48.8.48 1.408 0 .8-.346 1.44-1.04 1.92-.693.48-1.637.72-2.832.72zm9.435 0c-.864 0-1.643-.186-2.336-.56a4.155 4.155 0 0 1-1.632-1.552c-.384-.672-.576-1.429-.576-2.272 0-.842.192-1.594.576-2.256a4.156 4.156 0 0 1 1.632-1.552c.693-.373 1.472-.56 2.336-.56.874 0 1.658.187 2.352.56.693.374 1.232.891 1.616 1.552.394.662.592 1.414.592 2.256 0 .843-.198 1.6-.592 2.272a4.044 4.044 0 0 1-1.616 1.552c-.694.374-1.478.56-2.352.56zm0-1.712c.736 0 1.344-.245 1.824-.736.48-.49.72-1.136.72-1.936s-.24-1.445-.72-1.936c-.48-.49-1.088-.736-1.824-.736s-1.344.246-1.824.736c-.47.491-.704 1.136-.704 1.936s.234 1.446.704 1.936c.48.491 1.088.736 1.824.736zm11.32-7.04c1.078 0 1.942.315 2.592.944.651.63.976 1.563.976 2.8v4.896h-2v-4.64c0-.746-.176-1.306-.528-1.68-.352-.384-.853-.576-1.504-.576-.736 0-1.317.224-1.744.672-.426.438-.64 1.072-.64 1.904v4.32h-2v-8.544h1.904v1.104c.33-.394.747-.693 1.248-.896.502-.202 1.067-.304 1.696-.304zm9.369 0c1.259 0 2.219.304 2.88.912.672.598 1.008 1.504 1.008 2.72v5.008h-1.888v-1.04c-.245.374-.597.662-1.056.864-.448.192-.992.288-1.632.288-.64 0-1.2-.106-1.68-.32-.48-.224-.853-.528-1.12-.912a2.387 2.387 0 0 1-.384-1.328c0-.768.283-1.381.848-1.84.576-.469 1.478-.704 2.704-.704h2.208v-.128c0-.597-.181-1.056-.544-1.376-.352-.32-.88-.48-1.584-.48-.48 0-.954.075-1.424.224-.458.15-.848.358-1.168.624l-.784-1.456c.448-.341.987-.602 1.616-.784a7.195 7.195 0 0 1 2-.272zm-.272 7.296c.502 0 .944-.112 1.328-.336.395-.234.672-.565.832-.992v-.992H106.8c-1.152 0-1.728.379-1.728 1.136 0 .363.144.651.432.864.288.214.688.32 1.2.32zm6.727-10.528h2v11.872h-2V20.28zm10.951 4.576c.576-.896 1.589-1.344 3.04-1.344v1.904a2.539 2.539 0 0 0-.464-.048c-.779 0-1.387.23-1.824.688-.437.448-.656 1.099-.656 1.952v4.144h-2v-8.544h1.904v1.248zm12.691 3.072c0 .139-.011.336-.032.592h-6.704c.117.63.421 1.131.912 1.504.501.363 1.12.544 1.856.544.938 0 1.712-.309 2.32-.928l1.072 1.232c-.384.459-.87.806-1.456 1.04-.587.235-1.248.352-1.984.352-.939 0-1.766-.186-2.48-.56a4.097 4.097 0 0 1-1.664-1.552c-.384-.672-.576-1.429-.576-2.272 0-.832.186-1.578.56-2.24a4.07 4.07 0 0 1 1.584-1.568c.672-.373 1.429-.56 2.272-.56.832 0 1.573.187 2.224.56.661.363 1.173.88 1.536 1.552.373.662.56 1.43.56 2.304zm-4.32-2.816c-.64 0-1.184.192-1.632.576-.438.374-.704.875-.8 1.504h4.848c-.086-.618-.347-1.12-.784-1.504-.438-.384-.982-.576-1.632-.576zm8.881 7.152c-.694 0-1.371-.09-2.032-.272-.662-.181-1.19-.41-1.584-.688l.768-1.52a5.11 5.11 0 0 0 1.376.624c.544.15 1.077.224 1.6.224 1.194 0 1.792-.314 1.792-.944 0-.298-.155-.506-.464-.624-.299-.117-.784-.229-1.456-.336-.704-.106-1.28-.229-1.728-.368a2.727 2.727 0 0 1-1.152-.72c-.32-.352-.48-.837-.48-1.456 0-.81.336-1.456 1.008-1.936.682-.49 1.6-.736 2.752-.736.586 0 1.173.07 1.76.208.586.128 1.066.304 1.44.528l-.768 1.52c-.726-.426-1.542-.64-2.448-.64-.587 0-1.035.091-1.344.272-.299.171-.448.4-.448.688 0 .32.16.55.48.688.33.128.837.251 1.52.368.682.107 1.242.23 1.68.368.437.139.81.374 1.12.704.32.331.48.8.48 1.408 0 .8-.347 1.44-1.04 1.92-.694.48-1.638.72-2.832.72zm10.33-8.752c.832 0 1.573.182 2.224.544a3.91 3.91 0 0 1 1.552 1.536c.373.662.56 1.424.56 2.288 0 .864-.187 1.632-.56 2.304a3.908 3.908 0 0 1-1.552 1.536c-.651.363-1.392.544-2.224.544-1.152 0-2.064-.384-2.736-1.152v4.144h-2V23.608h1.904v1.12a3.11 3.11 0 0 1 1.216-.912 4.194 4.194 0 0 1 1.616-.304zm-.224 7.04c.736 0 1.339-.245 1.808-.736.48-.49.72-1.136.72-1.936s-.24-1.445-.72-1.936c-.469-.49-1.072-.736-1.808-.736-.48 0-.912.112-1.296.336a2.316 2.316 0 0 0-.912.928c-.224.406-.336.875-.336 1.408 0 .534.112 1.003.336 1.408.224.406.528.72.912.944.384.214.816.32 1.296.32zm10.297 1.712c-.864 0-1.643-.186-2.336-.56a4.147 4.147 0 0 1-1.632-1.552c-.384-.672-.576-1.429-.576-2.272 0-.842.192-1.594.576-2.256a4.148 4.148 0 0 1 1.632-1.552c.693-.373 1.472-.56 2.336-.56.874 0 1.658.187 2.352.56.693.374 1.232.891 1.616 1.552.394.662.592 1.414.592 2.256 0 .843-.198 1.6-.592 2.272a4.046 4.046 0 0 1-1.616 1.552c-.694.374-1.478.56-2.352.56zm0-1.712c.736 0 1.344-.245 1.824-.736.48-.49.72-1.136.72-1.936s-.24-1.445-.72-1.936c-.48-.49-1.088-.736-1.824-.736s-1.344.246-1.824.736c-.47.491-.704 1.136-.704 1.936s.234 1.446.704 1.936c.48.491 1.088.736 1.824.736zm11.32-7.04c1.078 0 1.942.315 2.592.944.651.63.976 1.563.976 2.8v4.896h-2v-4.64c0-.746-.176-1.306-.528-1.68-.352-.384-.853-.576-1.504-.576-.736 0-1.317.224-1.744.672-.426.438-.64 1.072-.64 1.904v4.32h-2v-8.544h1.904v1.104a3.132 3.132 0 0 1 1.248-.896c.502-.202 1.067-.304 1.696-.304zm8.745 8.752c-.693 0-1.37-.09-2.032-.272-.661-.181-1.189-.41-1.584-.688l.768-1.52c.384.256.843.464 1.376.624a6.03 6.03 0 0 0 1.6.224c1.195 0 1.792-.314 1.792-.944 0-.298-.154-.506-.464-.624-.298-.117-.784-.229-1.456-.336-.704-.106-1.28-.229-1.728-.368a2.739 2.739 0 0 1-1.152-.72c-.32-.352-.48-.837-.48-1.456 0-.81.336-1.456 1.008-1.936.683-.49 1.6-.736 2.752-.736.587 0 1.174.07 1.76.208.587.128 1.067.304 1.44.528l-.768 1.52c-.725-.426-1.541-.64-2.448-.64-.586 0-1.034.091-1.344.272-.298.171-.448.4-.448.688 0 .32.16.55.48.688.331.128.838.251 1.52.368.683.107 1.243.23 1.68.368.438.139.811.374 1.12.704.32.331.48.8.48 1.408 0 .8-.346 1.44-1.04 1.92-.693.48-1.637.72-2.832.72zm8.859-8.752c1.258 0 2.218.304 2.88.912.672.598 1.008 1.504 1.008 2.72v5.008h-1.888v-1.04c-.246.374-.598.662-1.056.864-.448.192-.992.288-1.632.288-.64 0-1.2-.106-1.68-.32-.48-.224-.854-.528-1.12-.912a2.387 2.387 0 0 1-.384-1.328c0-.768.282-1.381.848-1.84.576-.469 1.477-.704 2.704-.704h2.208v-.128c0-.597-.182-1.056-.544-1.376-.352-.32-.88-.48-1.584-.48-.48 0-.955.075-1.424.224-.459.15-.848.358-1.168.624l-.784-1.456c.448-.341.986-.602 1.616-.784a7.19 7.19 0 0 1 2-.272zm-.272 7.296c.501 0 .944-.112 1.328-.336.394-.234.672-.565.832-.992v-.992h-2.064c-1.152 0-1.728.379-1.728 1.136 0 .363.144.651.432.864.288.214.688.32 1.2.32zm11.463-7.296c.832 0 1.573.182 2.224.544a3.916 3.916 0 0 1 1.552 1.536c.373.662.56 1.424.56 2.288 0 .864-.187 1.632-.56 2.304a3.914 3.914 0 0 1-1.552 1.536c-.651.363-1.392.544-2.224.544a4.189 4.189 0 0 1-1.616-.304 3.1 3.1 0 0 1-1.216-.912v1.104h-1.904V20.28h2v4.368a3.37 3.37 0 0 1 1.2-.848 4.016 4.016 0 0 1 1.536-.288zm-.224 7.04c.736 0 1.338-.245 1.808-.736.48-.49.72-1.136.72-1.936s-.24-1.445-.72-1.936c-.47-.49-1.072-.736-1.808-.736-.48 0-.912.112-1.296.336a2.316 2.316 0 0 0-.912.928c-.224.406-.336.875-.336 1.408 0 .534.112 1.003.336 1.408.224.406.528.72.912.944.384.214.816.32 1.296.32zm6.456-10.272h2v11.872h-2V20.28zm12.657 7.648c0 .139-.01.336-.032.592h-6.704c.118.63.422 1.131.912 1.504.502.363 1.12.544 1.856.544.939 0 1.712-.309 2.32-.928l1.072 1.232a3.609 3.609 0 0 1-1.456 1.04c-.586.235-1.248.352-1.984.352-.938 0-1.765-.186-2.48-.56a4.11 4.11 0 0 1-1.664-1.552c-.384-.672-.576-1.429-.576-2.272 0-.832.187-1.578.56-2.24a4.07 4.07 0 0 1 1.584-1.568c.672-.373 1.43-.56 2.272-.56.832 0 1.574.187 2.224.56a3.77 3.77 0 0 1 1.536 1.552c.374.662.56 1.43.56 2.304zm-4.32-2.816c-.64 0-1.184.192-1.632.576-.437.374-.704.875-.8 1.504h4.848c-.085-.618-.346-1.12-.784-1.504-.437-.384-.981-.576-1.632-.576z" fill="#fff"/>
    </g>
    <defs>
        <linearGradient id="m6m5pn8gxb" x1="208.897" y1="-12.848" x2="7.708" y2="23.14" gradientUnits="userSpaceOnUse">
            <stop stop-color="#0C7486"/>
            <stop offset="1" stop-color="#065462"/>
        </linearGradient>
        <linearGradient id="unorwdll6c" x1="258.657" y1="-25.848" x2="-50.847" y2="15.159" gradientUnits="userSpaceOnUse">
            <stop stop-color="#0C7486"/>
            <stop offset="1" stop-color="#065462"/>
        </linearGradient>
        <filter id="b53419c3za" x=".854" y=".152" width="245" height="57" filterUnits="userSpaceOnUse" color-interpolation-filters="sRGB">
            <feFlood flood-opacity="0" result="BackgroundImageFix"/>
            <feColorMatrix in="SourceAlpha" values="0 0 0 0 0 0 0 0 0 0 0 0 0 0 0 0 0 0 127 0" result="hardAlpha"/>
            <feOffset dx="2"/>
            <feGaussianBlur stdDeviation="3"/>
            <feComposite in2="hardAlpha" operator="out"/>
            <feColorMatrix values="0 0 0 0 0 0 0 0 0 0 0 0 0 0 0 0 0 0 0.12 0"/>
            <feBlend in2="BackgroundImageFix" result="effect1_dropShadow_6507_25371"/>
            <feBlend in="SourceGraphic" in2="effect1_dropShadow_6507_25371" result="shape"/>
        </filter>
    </defs>
</svg>
