<svg width="208" height="57" viewBox="0 0 208 57" fill="none" xmlns="http://www.w3.org/2000/svg">
<g filter="url(#filter0_d_4908_5840)">
<path d="M4 14C4 9.58172 7.58172 6 12 6H177.475C180.803 6 183.784 8.06029 184.96 11.1736L200 51H4V14Z" fill="url(#paint0_linear_4908_5840)"/>
</g>
<mask id="mask0_4908_5840" style="mask-type:alpha" maskUnits="userSpaceOnUse" x="4" y="6" width="196" height="45">
<path d="M4 14C4 9.58172 7.58172 6 12 6H177.475C180.803 6 183.784 8.06029 184.96 11.1736L200 51H4V14Z" fill="url(#paint1_linear_4908_5840)"/>
</mask>
<g mask="url(#mask0_4908_5840)">
<path d="M18.3567 32.1551C18.2558 32.0596 18.1539 31.9635 18.052 31.8664C19.5698 30.3775 21.1154 28.5482 21.1154 26.067C21.1154 23.5857 19.5698 21.7565 18.052 20.2672C18.1539 20.1702 18.2558 20.074 18.3567 19.9786C19.6653 18.7424 20.795 17.6748 20.795 16.4547V16.1343H20.1542V16.4547C20.1542 16.6658 20.0997 16.8792 20.0055 17.0955H15.1763C15.0821 16.8792 15.0276 16.6658 15.0276 16.4547V16.1343H14.3868V16.4547C14.3868 17.6748 15.5166 18.7424 16.8251 19.9789C16.9261 20.0744 17.028 20.1705 17.1298 20.2676C15.6121 21.7565 14.0664 23.5857 14.0664 26.067C14.0664 28.5482 15.6121 30.3775 17.1298 31.8667C17.028 31.9638 16.9261 32.0599 16.8251 32.1554C15.5166 33.3916 14.3868 34.4592 14.3868 35.6793V35.9997H15.0276V35.6793C15.0276 35.4681 15.0821 35.2548 15.1763 35.0385H20.0058C20.0997 35.2548 20.1542 35.4681 20.1542 35.6793V35.9997H20.795V35.6793C20.795 34.4592 19.6653 33.3916 18.3567 32.1551ZM15.5595 17.7363H19.6223C19.466 17.9456 19.2804 18.1589 19.0751 18.3771H16.1068C15.9014 18.1589 15.7156 17.9456 15.5595 17.7363ZM16.745 19.018H18.4365C18.2683 19.1801 18.0946 19.3445 17.9165 19.513C17.8094 19.6143 17.7005 19.7171 17.5909 19.8212C17.481 19.7171 17.3724 19.6143 17.2654 19.513C17.0872 19.3445 16.9133 19.1801 16.745 19.018ZM17.5909 20.712C17.9786 21.0913 18.3618 21.4851 18.7159 21.9017H16.466C16.82 21.4851 17.2032 21.0913 17.5909 20.712ZM15.2039 23.8241H18.2317V23.1833H15.5416C15.679 22.951 15.8283 22.7258 15.9889 22.5066V22.5425H19.193V22.5066C19.3535 22.7254 19.5028 22.951 19.6403 23.1833H18.8726V23.8241H19.9783C20.0722 24.0314 20.1513 24.2461 20.2208 24.4649H14.9613C15.0308 24.2461 15.1097 24.0314 15.2039 23.8241ZM14.796 25.1058H20.3862C20.4246 25.3134 20.4467 25.5281 20.4602 25.7466H14.722C14.7351 25.5281 14.7572 25.3134 14.796 25.1058ZM14.961 27.669H15.9889V27.0282H14.7957C14.7572 26.8206 14.7351 26.6059 14.7216 26.3874H20.4599C20.4467 26.6059 20.4246 26.8206 20.3859 27.0282H16.6297V27.669H20.2205C20.151 27.8879 20.0722 28.1026 19.978 28.3099H15.2035C15.1097 28.1026 15.0305 27.8879 14.961 27.669ZM15.9889 29.6274C15.8283 29.4082 15.679 29.183 15.5416 28.9507H19.6403C19.5031 29.183 19.3535 29.4082 19.193 29.6274V29.5915H15.9889V29.6274V29.6274ZM16.466 30.2323H18.7159C18.3618 30.6489 17.9786 31.0426 17.5909 31.422C17.2032 31.0426 16.82 30.6489 16.466 30.2323ZM17.2654 32.621C17.3724 32.5197 17.4813 32.4169 17.5909 32.3127C17.7008 32.4172 17.8094 32.5201 17.9165 32.621C18.0946 32.7895 18.2686 32.9539 18.4365 33.116H16.745C16.9133 32.9539 17.0872 32.7895 17.2654 32.621ZM15.5595 34.3977C15.7159 34.1884 15.9014 33.975 16.1068 33.7568H19.0754C19.2808 33.975 19.4663 34.1884 19.6226 34.3977H15.5595Z" fill="#DDC9A3"/>
<path d="M32.3296 33.4367H31.8128C32.5683 32.0689 32.9704 30.5232 32.9704 28.951C32.9704 26.3643 31.8871 23.8968 29.9944 22.1403L30.8644 21.2704L30.2232 20.6293L31.3725 19.4806L31.6942 19.802L33.1021 18.3816L30.7269 16L29.319 17.4287L29.6369 17.7466L28.4866 18.893L27.848 18.2544L23.3623 22.7401L22.7215 22.0993L21.3072 23.5136L25.6051 27.8116L27.0194 26.3973L26.3786 25.7565L28.1761 23.959C29.1005 24.7937 29.7817 25.8744 30.1313 27.0606C29.5571 27.1868 29.1255 27.6982 29.1255 28.3102C29.1255 29.0064 29.6843 29.5719 30.3764 29.5886C30.3511 29.8565 30.3088 30.1224 30.2517 30.3848C30.0012 30.288 29.7301 30.2326 29.4459 30.2326H24.6397C23.7564 30.2326 23.0377 30.9513 23.0377 31.8347V32.1551H27.2287C27.2136 32.2602 27.203 32.3665 27.203 32.4755V33.4367H22.7173C21.8339 33.4367 21.1152 34.1554 21.1152 35.0388V36H33.9316V35.0388C33.9316 34.1554 33.213 33.4367 32.3296 33.4367ZM30.7295 16.91L32.1979 18.3829L31.6917 18.8939L30.2219 17.4252L30.7295 16.91ZM30.0902 18.1993L30.9191 19.0276L29.7702 20.1759L28.94 19.3457L30.0902 18.1993ZM25.6051 26.9052L22.2133 23.5133L22.7215 23.0051L26.1133 26.397L25.6051 26.9052ZM25.9256 25.3031L23.8153 23.1929L27.848 19.1602L29.9582 21.2704L25.9256 25.3031ZM28.6298 23.5053L29.5414 22.5937C31.3142 24.2301 32.3296 26.5344 32.3296 28.951C32.3296 30.0872 32.1059 31.2086 31.6772 32.2493C31.6148 31.6283 31.2969 31.0827 30.832 30.7158C30.9361 30.2929 31.0028 29.8593 31.0306 29.4229C31.4212 29.2031 31.6888 28.7895 31.6888 28.3102C31.6888 27.7437 31.3171 27.2675 30.8067 27.0987C30.4488 25.7248 29.6856 24.4672 28.6298 23.5053ZM29.7663 28.3102C29.7663 27.9567 30.0537 27.6693 30.4071 27.6693C30.7605 27.6693 31.048 27.9567 31.048 28.3102C31.048 28.6636 30.7605 28.951 30.4071 28.951C30.0537 28.951 29.7663 28.6636 29.7663 28.3102ZM23.7333 31.5143C23.8656 31.1413 24.2219 30.8734 24.6397 30.8734H27.8791C27.691 31.0574 27.5369 31.2743 27.4225 31.5143H23.7333ZM33.2908 35.3592H21.7561V35.0388C21.7561 34.5088 22.1873 34.0775 22.7173 34.0775H28.4847V33.4367H27.8438V32.4755C27.8438 31.5921 28.5625 30.8734 29.4459 30.8734C30.3293 30.8734 31.048 31.5921 31.048 32.4755V33.4367H29.1255V34.0775H32.3296C32.8595 34.0775 33.2908 34.5088 33.2908 35.0388V35.3592Z" fill="#DDC9A3"/>
<rect x="4" y="46" width="346" height="5" fill="#BC955C"/>
</g>
<path d="M53.152 26.272H55.12V30.736C54.544 31.1947 53.872 31.5467 53.104 31.792C52.336 32.0373 51.5467 32.16 50.736 32.16C49.5947 32.16 48.5653 31.9147 47.648 31.424C46.7307 30.9227 46.0107 30.2347 45.488 29.36C44.9653 28.4853 44.704 27.4987 44.704 26.4C44.704 25.3013 44.9653 24.3147 45.488 23.44C46.0107 22.5653 46.7307 21.8827 47.648 21.392C48.576 20.8907 49.616 20.64 50.768 20.64C51.7067 20.64 52.56 20.7947 53.328 21.104C54.096 21.4133 54.7413 21.8667 55.264 22.464L53.952 23.744C53.0987 22.8907 52.0693 22.464 50.864 22.464C50.0747 22.464 49.3707 22.6293 48.752 22.96C48.144 23.2907 47.664 23.7547 47.312 24.352C46.9707 24.9493 46.8 25.632 46.8 26.4C46.8 27.1467 46.9707 27.8187 47.312 28.416C47.664 29.0133 48.144 29.4827 48.752 29.824C49.3707 30.1653 50.0693 30.336 50.848 30.336C51.7227 30.336 52.4907 30.144 53.152 29.76V26.272ZM65.7034 27.776C65.7034 27.9147 65.6927 28.112 65.6714 28.368H58.9674C59.0847 28.9973 59.3887 29.4987 59.8794 29.872C60.3807 30.2347 60.9994 30.416 61.7354 30.416C62.674 30.416 63.4474 30.1067 64.0554 29.488L65.1274 30.72C64.7434 31.1787 64.258 31.5253 63.6714 31.76C63.0847 31.9947 62.4234 32.112 61.6874 32.112C60.7487 32.112 59.922 31.9253 59.2074 31.552C58.4927 31.1787 57.938 30.6613 57.5434 30C57.1594 29.328 56.9674 28.5707 56.9674 27.728C56.9674 26.896 57.154 26.1493 57.5274 25.488C57.9114 24.816 58.4394 24.2933 59.1114 23.92C59.7834 23.5467 60.5407 23.36 61.3834 23.36C62.2154 23.36 62.9567 23.5467 63.6074 23.92C64.2687 24.2827 64.7807 24.8 65.1434 25.472C65.5167 26.1333 65.7034 26.9013 65.7034 27.776ZM61.3834 24.96C60.7434 24.96 60.1994 25.152 59.7514 25.536C59.314 25.9093 59.0474 26.4107 58.9514 27.04H63.7994C63.714 26.4213 63.4527 25.92 63.0154 25.536C62.578 25.152 62.034 24.96 61.3834 24.96ZM72.4725 23.36C73.5498 23.36 74.4138 23.6747 75.0645 24.304C75.7152 24.9333 76.0405 25.8667 76.0405 27.104V32H74.0405V27.36C74.0405 26.6133 73.8645 26.0533 73.5125 25.68C73.1605 25.296 72.6592 25.104 72.0085 25.104C71.2725 25.104 70.6912 25.328 70.2645 25.776C69.8378 26.2133 69.6245 26.848 69.6245 27.68V32H67.6245V23.456H69.5285V24.56C69.8592 24.1653 70.2752 23.8667 70.7765 23.664C71.2778 23.4613 71.8432 23.36 72.4725 23.36ZM86.6878 27.776C86.6878 27.9147 86.6771 28.112 86.6558 28.368H79.9518C80.0691 28.9973 80.3731 29.4987 80.8638 29.872C81.3651 30.2347 81.9838 30.416 82.7198 30.416C83.6584 30.416 84.4318 30.1067 85.0398 29.488L86.1118 30.72C85.7278 31.1787 85.2424 31.5253 84.6558 31.76C84.0691 31.9947 83.4078 32.112 82.6718 32.112C81.7331 32.112 80.9064 31.9253 80.1918 31.552C79.4771 31.1787 78.9224 30.6613 78.5278 30C78.1438 29.328 77.9518 28.5707 77.9518 27.728C77.9518 26.896 78.1384 26.1493 78.5118 25.488C78.8958 24.816 79.4238 24.2933 80.0958 23.92C80.7678 23.5467 81.5251 23.36 82.3678 23.36C83.1998 23.36 83.9411 23.5467 84.5918 23.92C85.2531 24.2827 85.7651 24.8 86.1278 25.472C86.5011 26.1333 86.6878 26.9013 86.6878 27.776ZM82.3678 24.96C81.7278 24.96 81.1838 25.152 80.7358 25.536C80.2984 25.9093 80.0318 26.4107 79.9358 27.04H84.7838C84.6984 26.4213 84.4371 25.92 83.9998 25.536C83.5624 25.152 83.0184 24.96 82.3678 24.96ZM90.5129 24.704C91.0889 23.808 92.1022 23.36 93.5529 23.36V25.264C93.3822 25.232 93.2275 25.216 93.0889 25.216C92.3102 25.216 91.7022 25.4453 91.2649 25.904C90.8275 26.352 90.6089 27.0027 90.6089 27.856V32H88.6089V23.456H90.5129V24.704ZM98.4666 23.36C99.7253 23.36 100.685 23.664 101.347 24.272C102.019 24.8693 102.355 25.776 102.355 26.992V32H100.467V30.96C100.221 31.3333 99.8693 31.6213 99.4106 31.824C98.9626 32.016 98.4186 32.112 97.7786 32.112C97.1386 32.112 96.5786 32.0053 96.0986 31.792C95.6186 31.568 95.2453 31.264 94.9786 30.88C94.7226 30.4853 94.5946 30.0427 94.5946 29.552C94.5946 28.784 94.8773 28.1707 95.4426 27.712C96.0186 27.2427 96.92 27.008 98.1466 27.008H100.355V26.88C100.355 26.2827 100.173 25.824 99.8106 25.504C99.4586 25.184 98.9306 25.024 98.2266 25.024C97.7466 25.024 97.272 25.0987 96.8026 25.248C96.344 25.3973 95.9546 25.6053 95.6346 25.872L94.8506 24.416C95.2986 24.0747 95.8373 23.8133 96.4666 23.632C97.096 23.4507 97.7626 23.36 98.4666 23.36ZM98.1946 30.656C98.696 30.656 99.1386 30.544 99.5226 30.32C99.9173 30.0853 100.195 29.7547 100.355 29.328V28.336H98.2906C97.1386 28.336 96.5626 28.7147 96.5626 29.472C96.5626 29.8347 96.7066 30.1227 96.9946 30.336C97.2826 30.5493 97.6826 30.656 98.1946 30.656ZM104.921 20.128H106.921V32H104.921V20.128ZM117.578 27.776C117.578 27.9147 117.568 28.112 117.546 28.368H110.842C110.96 28.9973 111.264 29.4987 111.754 29.872C112.256 30.2347 112.874 30.416 113.61 30.416C114.549 30.416 115.322 30.1067 115.93 29.488L117.002 30.72C116.618 31.1787 116.133 31.5253 115.546 31.76C114.96 31.9947 114.298 32.112 113.562 32.112C112.624 32.112 111.797 31.9253 111.082 31.552C110.368 31.1787 109.813 30.6613 109.418 30C109.034 29.328 108.842 28.5707 108.842 27.728C108.842 26.896 109.029 26.1493 109.402 25.488C109.786 24.816 110.314 24.2933 110.986 23.92C111.658 23.5467 112.416 23.36 113.258 23.36C114.09 23.36 114.832 23.5467 115.482 23.92C116.144 24.2827 116.656 24.8 117.018 25.472C117.392 26.1333 117.578 26.9013 117.578 27.776ZM113.258 24.96C112.618 24.96 112.074 25.152 111.626 25.536C111.189 25.9093 110.922 26.4107 110.826 27.04H115.674C115.589 26.4213 115.328 25.92 114.89 25.536C114.453 25.152 113.909 24.96 113.258 24.96ZM122.14 32.112C121.446 32.112 120.769 32.0213 120.108 31.84C119.446 31.6587 118.918 31.4293 118.524 31.152L119.292 29.632C119.676 29.888 120.134 30.096 120.668 30.256C121.212 30.4053 121.745 30.48 122.268 30.48C123.462 30.48 124.06 30.1653 124.06 29.536C124.06 29.2373 123.905 29.0293 123.596 28.912C123.297 28.7947 122.812 28.6827 122.14 28.576C121.436 28.4693 120.86 28.3467 120.412 28.208C119.974 28.0693 119.59 27.8293 119.26 27.488C118.94 27.136 118.78 26.6507 118.78 26.032C118.78 25.2213 119.116 24.576 119.788 24.096C120.47 23.6053 121.388 23.36 122.54 23.36C123.126 23.36 123.713 23.4293 124.3 23.568C124.886 23.696 125.366 23.872 125.74 24.096L124.972 25.616C124.246 25.1893 123.43 24.976 122.524 24.976C121.937 24.976 121.489 25.0667 121.18 25.248C120.881 25.4187 120.732 25.648 120.732 25.936C120.732 26.256 120.892 26.4853 121.212 26.624C121.542 26.752 122.049 26.8747 122.732 26.992C123.414 27.0987 123.974 27.2213 124.412 27.36C124.849 27.4987 125.222 27.7333 125.532 28.064C125.852 28.3947 126.012 28.864 126.012 29.472C126.012 30.272 125.665 30.912 124.972 31.392C124.278 31.872 123.334 32.112 122.14 32.112Z" fill="white"/>
<defs>
<filter id="filter0_d_4908_5840" x="0" y="0" width="208" height="57" filterUnits="userSpaceOnUse" color-interpolation-filters="sRGB">
<feFlood flood-opacity="0" result="BackgroundImageFix"/>
<feColorMatrix in="SourceAlpha" type="matrix" values="0 0 0 0 0 0 0 0 0 0 0 0 0 0 0 0 0 0 127 0" result="hardAlpha"/>
<feOffset dx="2"/>
<feGaussianBlur stdDeviation="3"/>
<feComposite in2="hardAlpha" operator="out"/>
<feColorMatrix type="matrix" values="0 0 0 0 0 0 0 0 0 0 0 0 0 0 0 0 0 0 0.12 0"/>
<feBlend mode="normal" in2="BackgroundImageFix" result="effect1_dropShadow_4908_5840"/>
<feBlend mode="normal" in="SourceGraphic" in2="effect1_dropShadow_4908_5840" result="shape"/>
</filter>
<linearGradient id="paint0_linear_4908_5840" x1="175.642" y1="-13" x2="4.85303" y2="12.6985" gradientUnits="userSpaceOnUse">
<stop stop-color="#0C7486"/>
<stop offset="1" stop-color="#065462"/>
</linearGradient>
<linearGradient id="paint1_linear_4908_5840" x1="217.5" y1="-26.0001" x2="-44.1749" y2="3.16401" gradientUnits="userSpaceOnUse">
<stop stop-color="#0C7486"/>
<stop offset="1" stop-color="#065462"/>
</linearGradient>
</defs>
</svg>
