<svg width="1153" height="112" viewBox="0 0 1153 112" fill="none" xmlns="http://www.w3.org/2000/svg">
<g filter="url(#filter0_d_4908_5300)">
<rect x="12" y="2" width="452" height="88" rx="8" fill="#EEF7F9"/>
<rect x="12.5" y="2.5" width="451" height="87" rx="7.5" stroke="#EEEEEE"/>
</g>
<path d="M1152.5 10V82C1152.5 86.1421 1149.14 89.5 1145 89.5L85.9647 89.5C82.1409 89.5 79.0411 86.4002 79.0411 82.5764C79.0411 79.9017 77.6916 77.4074 75.4527 75.944L60.8966 66.4296C58.7773 65.0444 57.5 62.6835 57.5 60.1517V33.0744C57.5 30.8231 58.5113 28.6909 60.2547 27.2665L76.4459 14.0375C78.0883 12.6956 79.0411 10.6868 79.0411 8.56584C79.0411 5.21577 81.7569 2.5 85.1069 2.5L1145 2.5C1149.14 2.5 1152.5 5.85787 1152.5 10Z" fill="white" stroke="#EEEEEE"/>
<g filter="url(#filter1_d_4908_5300)">
<path d="M22 26.2083C22 23.3319 24.3319 21 27.2083 21H66.7917C69.6681 21 72 23.3319 72 26.2083V65.7917C72 68.6681 69.6681 71 66.7917 71H27.2083C24.3319 71 22 68.6681 22 65.7917V26.2083Z" fill="#F4F8FF"/>
</g>
<path d="M59.3594 44.2947V37.9219C59.3594 35.208 57.1514 33 54.4375 33H49.2695C48.9675 33 48.7227 33.2448 48.7227 33.5469C48.7227 33.8489 48.9675 34.0938 49.2695 34.0938H54.4375C56.5483 34.0938 58.2656 35.811 58.2656 37.9219V43.719C57.8537 43.5774 57.4125 43.4993 56.9531 43.4993H56.8438V40.3639C56.8438 39.198 55.8951 38.2493 54.7291 38.2493H48.5677C47.9466 38.2493 47.3872 38.5186 47 38.9464C46.6128 38.5186 46.0534 38.2493 45.4323 38.2493H39.2709C38.1049 38.2493 37.1562 39.198 37.1562 40.3639V43.4993H37.0469C36.5875 43.4993 36.1463 43.5773 35.7344 43.719V37.9219C35.7344 35.811 37.4517 34.0938 39.5625 34.0938H44.8398C45.1419 34.0938 45.3867 33.8489 45.3867 33.5469C45.3867 33.2448 45.1419 33 44.8398 33H39.5625C36.8486 33 34.6406 35.208 34.6406 37.9219V44.2948C33.646 45.0328 33 46.2154 33 47.5463V54.5463C33 54.8483 33.2448 55.0932 33.5469 55.0932H34.6406V57.4994C34.6406 57.8014 34.8855 58.0463 35.1875 58.0463H38.1413C38.4433 58.0463 38.6882 57.8014 38.6882 57.4994V55.0932H55.3118V57.4994C55.3118 57.8014 55.5567 58.0463 55.8587 58.0463H58.8125C59.1145 58.0463 59.3594 57.8014 59.3594 57.4994V55.0932H60.4531C60.7552 55.0932 61 54.8483 61 54.5463V47.5463C61 46.2153 60.354 45.0327 59.3594 44.2947ZM47.5469 40.3639C47.5469 39.801 48.0048 39.343 48.5677 39.343H54.7292C55.2921 39.343 55.7501 39.801 55.7501 40.3639V43.4993H47.5469V40.3639ZM38.25 40.3639C38.25 39.801 38.708 39.343 39.2709 39.343H45.4323C45.9952 39.343 46.4532 39.801 46.4532 40.3639V43.4993H38.25V40.3639ZM37.5944 56.9525H35.7344V55.0931H37.5944V56.9525ZM58.2656 56.9525H56.4056V55.0931H58.2656V56.9525ZM59.9062 51.3743H38.0269C37.7249 51.3743 37.4801 51.6192 37.4801 51.9212C37.4801 52.2233 37.7249 52.4681 38.0269 52.4681H59.9062V53.9993H58.8257C58.8213 53.9992 58.817 53.9987 58.8125 53.9987H55.8587C55.8542 53.9987 55.8499 53.9992 55.8455 53.9993H38.1545C38.1501 53.9992 38.1458 53.9987 38.1413 53.9987H35.1875C35.183 53.9987 35.1787 53.9992 35.1743 53.9993H34.0938V47.5462C34.0938 45.9178 35.4185 44.5931 37.0469 44.5931H37.7031H47H56.2969H56.9531C58.5815 44.5931 59.9062 45.9178 59.9062 47.5462V51.3743Z" fill="#179894"/>
<path d="M46.3866 33.1602C46.2849 33.0585 46.1438 33 46 33C45.8562 33 45.7151 33.0585 45.6134 33.1602C45.5116 33.262 45.4531 33.403 45.4531 33.5469C45.4531 33.6907 45.5116 33.8318 45.6134 33.9335C45.7151 34.0352 45.8562 34.0938 46 34.0938C46.1438 34.0938 46.2849 34.0352 46.3866 33.9335C46.4884 33.8318 46.5469 33.6913 46.5469 33.5469C46.5469 33.403 46.4884 33.2619 46.3866 33.1602Z" fill="#5F8CDC"/>
<path d="M35.2343 51.5347C35.1326 51.433 34.9915 51.3745 34.8477 51.3745C34.7033 51.3745 34.5627 51.433 34.461 51.5347C34.3593 51.6365 34.3008 51.7776 34.3008 51.9214C34.3008 52.0652 34.3593 52.2063 34.461 52.308C34.5627 52.4097 34.7038 52.4683 34.8477 52.4683C34.9915 52.4683 35.1326 52.4097 35.2343 52.308C35.336 52.2063 35.3945 52.0652 35.3945 51.9214C35.3945 51.7776 35.336 51.6365 35.2343 51.5347Z" fill="#5F8CDC"/>
<defs>
<filter id="filter0_d_4908_5300" x="0" y="0" width="476" height="112" filterUnits="userSpaceOnUse" color-interpolation-filters="sRGB">
<feFlood flood-opacity="0" result="BackgroundImageFix"/>
<feColorMatrix in="SourceAlpha" type="matrix" values="0 0 0 0 0 0 0 0 0 0 0 0 0 0 0 0 0 0 127 0" result="hardAlpha"/>
<feOffset dy="10"/>
<feGaussianBlur stdDeviation="6"/>
<feComposite in2="hardAlpha" operator="out"/>
<feColorMatrix type="matrix" values="0 0 0 0 0 0 0 0 0 0 0 0 0 0 0 0 0 0 0.04 0"/>
<feBlend mode="normal" in2="BackgroundImageFix" result="effect1_dropShadow_4908_5300"/>
<feBlend mode="normal" in="SourceGraphic" in2="effect1_dropShadow_4908_5300" result="shape"/>
</filter>
<filter id="filter1_d_4908_5300" x="12" y="17" width="70" height="70" filterUnits="userSpaceOnUse" color-interpolation-filters="sRGB">
<feFlood flood-opacity="0" result="BackgroundImageFix"/>
<feColorMatrix in="SourceAlpha" type="matrix" values="0 0 0 0 0 0 0 0 0 0 0 0 0 0 0 0 0 0 127 0" result="hardAlpha"/>
<feOffset dy="6"/>
<feGaussianBlur stdDeviation="5"/>
<feComposite in2="hardAlpha" operator="out"/>
<feColorMatrix type="matrix" values="0 0 0 0 0.169886 0 0 0 0 0.8125 0 0 0 0 0.792574 0 0 0 0.68 0"/>
<feBlend mode="normal" in2="BackgroundImageFix" result="effect1_dropShadow_4908_5300"/>
<feBlend mode="normal" in="SourceGraphic" in2="effect1_dropShadow_4908_5300" result="shape"/>
</filter>
</defs>
</svg>
