<svg width="150" height="37" viewBox="0 0 150 37" fill="none" xmlns="http://www.w3.org/2000/svg">
    <g filter="url(#3bwlhf3gta)">
        <path d="M4.557 14.507a8 8 0 0 1 8-8H123.65a8 8 0 0 1 7.066 4.25l10.482 19.75H4.557v-16z" fill="url(#m83oezuwhb)"/>
    </g>
    <path d="M4.557 30.507h136.772l1.051 2H4.557v-2z" fill="#BC955C"/>
    <path d="M32.282 26.026H16.557v-7.752a.578.578 0 0 1 .495-.275h2.914c.274 0 .274 0 .274-.275v-6.488c-.054-.33.056-.44.44-.44h7.753c.385 0 .495.11.495.495v6.488c0 .275 0 .275.22.275h2.914c.33 0 .495.165.495.495v7.093c0 .165-.055.33-.275.384zM20.955 18.44V25.092c0 .22 0 .22.22.22h.935c.22 0 .22 0 .22-.22v-2.584c0-.33.165-.495.495-.495h3.409c.33 0 .494.165.494.494v2.585c0 .165.055.22.22.22h.935c.275 0 .275 0 .275-.275V11.84c0-.275 0-.275-.275-.275H21.23c-.275 0-.275 0-.275.275v6.598zm-3.629 3.629v3.024c0 .165.055.22.22.22h2.42c.22 0 .22 0 .22-.22v-6.048c0-.22 0-.22-.22-.22h-2.42c-.22 0-.22 0-.22.22v3.024zm14.46 0v-3.024c0-.165-.054-.22-.22-.22h-2.473c-.165 0-.22.055-.22.22v6.048c0 .22 0 .22.22.22h2.419c.275 0 .275 0 .275-.22v-3.024zm-7.257.714h-1.21c-.164 0-.22.055-.22.22v2.09c0 .165.056.22.22.22h2.42c.165 0 .22-.055.22-.22v-2.09c0-.165-.055-.22-.22-.22h-1.21z" fill="#E4D5BE"/>
    <path d="M24.529 17.34h-.66c-.33 0-.44-.11-.44-.44v-.825c0-.11-.055-.165-.165-.165h-.825c-.33 0-.495-.165-.495-.495V14.15c0-.33.165-.44.44-.44h.825c.11 0 .165-.055.165-.165v-.88c0-.274.165-.384.385-.44h1.43c.274 0 .384.166.384.44v.825c0 .165.055.22.22.22h.825c.275 0 .44.165.44.44v1.32c0 .275-.165.44-.44.44h-.825c-.11 0-.165.054-.165.165v.824c0 .33-.11.44-.44.44h-.66zm-1.155-2.2h.385c.275 0 .44.165.44.44v.55c0 .494-.055.44.44.44.164 0 .22-.056.22-.22v-.825c0-.275.164-.44.44-.44h.55c.549 0 .494.11.494-.495 0-.11-.055-.165-.165-.165h-.77c-.33 0-.495-.165-.495-.495v-.77c0-.165-.055-.22-.22-.22h-.22c-.274 0-.274 0-.274.275v.77c0 .275-.165.44-.44.44h-.495c-.605 0-.495-.11-.495.495 0 .11.055.165.165.165.165.055.275.055.44.055z" fill="#E4D5BE"/>
    <path d="M52.845 24.54c-1.493 0-2.656-.427-3.488-1.28-.832-.854-1.248-2.08-1.248-3.68V13.21h1.6v6.304c0 2.4 1.051 3.6 3.152 3.6 1.024 0 1.808-.293 2.352-.88.544-.597.816-1.504.816-2.72v-6.304h1.552v6.368c0 1.61-.416 2.843-1.248 3.696-.832.843-1.994 1.264-3.488 1.264zm12.32-8.689c1.078 0 1.931.315 2.56.944.64.619.96 1.53.96 2.736v4.88H67.15v-4.704c0-.821-.198-1.44-.592-1.856-.395-.416-.96-.624-1.696-.624-.832 0-1.488.246-1.968.736-.48.48-.72 1.174-.72 2.08v4.368h-1.536v-8.48h1.472v1.28c.309-.437.725-.773 1.248-1.008.533-.234 1.136-.352 1.808-.352zm6.363.08h1.536v8.48h-1.536v-8.48zm.768-1.632c-.298 0-.55-.096-.752-.288a.958.958 0 0 1-.288-.704c0-.277.096-.512.288-.704.203-.202.454-.304.752-.304.299 0 .544.096.736.288.203.182.304.41.304.688 0 .288-.101.534-.304.736a.997.997 0 0 1-.736.288zm11.701-1.76v11.872h-1.472v-1.344c-.341.47-.773.827-1.296 1.072a4.017 4.017 0 0 1-1.728.368c-.821 0-1.557-.181-2.208-.544a3.969 3.969 0 0 1-1.536-1.52c-.363-.661-.544-1.418-.544-2.272 0-.853.181-1.605.544-2.256a3.967 3.967 0 0 1 1.536-1.52c.65-.362 1.387-.544 2.208-.544.608 0 1.168.118 1.68.352.512.224.939.56 1.28 1.008V12.54h1.536zm-4.368 10.624c.533 0 1.019-.122 1.456-.368a2.707 2.707 0 0 0 1.024-1.056c.245-.458.368-.981.368-1.568 0-.586-.123-1.104-.368-1.552a2.572 2.572 0 0 0-1.024-1.056 2.924 2.924 0 0 0-1.456-.368c-.544 0-1.035.123-1.472.368a2.71 2.71 0 0 0-1.024 1.056c-.245.448-.368.966-.368 1.552 0 .587.123 1.11.368 1.568.256.448.597.8 1.024 1.056.437.246.928.368 1.472.368zm10.362-7.312c1.174 0 2.07.288 2.688.864.63.576.944 1.435.944 2.576v5.12h-1.456v-1.12c-.256.395-.624.699-1.104.912-.47.203-1.03.304-1.68.304-.95 0-1.712-.23-2.288-.688-.565-.458-.848-1.061-.848-1.808 0-.746.272-1.344.816-1.792.544-.458 1.408-.688 2.592-.688h2.432v-.304c0-.661-.192-1.168-.576-1.52-.384-.352-.95-.528-1.696-.528-.501 0-.992.086-1.472.256-.48.16-.885.379-1.216.656l-.64-1.152c.438-.352.96-.618 1.568-.8a6.392 6.392 0 0 1 1.936-.288zm-.352 7.472c.587 0 1.094-.128 1.52-.384.427-.266.736-.64.928-1.12v-1.184H89.72c-1.301 0-1.952.438-1.952 1.312 0 .427.166.763.496 1.008.33.246.79.368 1.376.368zm14.874-10.784v11.872h-1.472v-1.344c-.342.47-.774.827-1.296 1.072a4.018 4.018 0 0 1-1.728.368c-.822 0-1.558-.181-2.208-.544a3.97 3.97 0 0 1-1.536-1.52c-.363-.661-.544-1.418-.544-2.272 0-.853.181-1.605.544-2.256a3.969 3.969 0 0 1 1.536-1.52c.65-.362 1.386-.544 2.208-.544.608 0 1.168.118 1.68.352a3.2 3.2 0 0 1 1.28 1.008V12.54h1.536zm-4.368 10.624c.533 0 1.018-.122 1.456-.368a2.714 2.714 0 0 0 1.024-1.056c.245-.458.368-.981.368-1.568 0-.586-.123-1.104-.368-1.552a2.578 2.578 0 0 0-1.024-1.056 2.926 2.926 0 0 0-1.456-.368c-.544 0-1.035.123-1.472.368a2.711 2.711 0 0 0-1.024 1.056c-.246.448-.368.966-.368 1.552 0 .587.122 1.11.368 1.568.256.448.597.8 1.024 1.056.437.246.928.368 1.472.368zm14.938-2.944c0 .118-.011.272-.032.464h-6.88c.096.747.421 1.35.976 1.808.565.448 1.264.672 2.096.672 1.013 0 1.829-.341 2.448-1.024l.848.992c-.384.448-.864.79-1.44 1.024-.565.235-1.2.352-1.904.352-.896 0-1.691-.181-2.384-.544a4.047 4.047 0 0 1-1.616-1.552c-.373-.661-.56-1.408-.56-2.24 0-.821.181-1.562.544-2.224a3.967 3.967 0 0 1 1.52-1.536c.651-.373 1.381-.56 2.192-.56.811 0 1.531.187 2.16.56.64.363 1.136.875 1.488 1.536.363.662.544 1.419.544 2.272zm-4.192-3.072c-.736 0-1.355.224-1.856.672-.491.448-.779 1.035-.864 1.76h5.44c-.085-.714-.379-1.296-.88-1.744-.491-.458-1.104-.688-1.84-.688zm8.757 7.36a7.3 7.3 0 0 1-2-.272c-.64-.192-1.142-.432-1.504-.72l.64-1.216c.373.267.826.48 1.36.64.533.16 1.072.24 1.616.24 1.344 0 2.016-.384 2.016-1.152a.747.747 0 0 0-.272-.608 1.651 1.651 0 0 0-.688-.32 12.097 12.097 0 0 0-1.152-.24 11.66 11.66 0 0 1-1.68-.368 2.58 2.58 0 0 1-1.104-.704c-.31-.33-.464-.794-.464-1.392 0-.768.32-1.381.96-1.84.64-.47 1.498-.704 2.576-.704.565 0 1.13.07 1.696.208.565.139 1.029.326 1.392.56l-.656 1.216c-.694-.448-1.51-.672-2.448-.672-.651 0-1.147.107-1.488.32-.342.214-.512.496-.512.848 0 .278.096.496.288.656.192.16.426.278.704.352.288.075.688.16 1.2.256.682.118 1.232.246 1.648.384.426.128.789.352 1.088.672.298.32.448.768.448 1.344 0 .768-.331 1.382-.992 1.84-.651.448-1.542.672-2.672.672z" fill="#fff"/>
    <defs>
        <linearGradient id="m83oezuwhb" x1="192.652" y1="-4.983" x2="81.592" y2="13.203" gradientUnits="userSpaceOnUse">
            <stop stop-color="#0C7486"/>
            <stop offset="1" stop-color="#065462"/>
        </linearGradient>
        <filter id="3bwlhf3gta" x=".557" y=".507" width="148.642" height="36" filterUnits="userSpaceOnUse" color-interpolation-filters="sRGB">
            <feFlood flood-opacity="0" result="BackgroundImageFix"/>
            <feColorMatrix in="SourceAlpha" values="0 0 0 0 0 0 0 0 0 0 0 0 0 0 0 0 0 0 127 0" result="hardAlpha"/>
            <feOffset dx="2"/>
            <feGaussianBlur stdDeviation="3"/>
            <feComposite in2="hardAlpha" operator="out"/>
            <feColorMatrix values="0 0 0 0 0 0 0 0 0 0 0 0 0 0 0 0 0 0 0.12 0"/>
            <feBlend in2="BackgroundImageFix" result="effect1_dropShadow_1598_8648"/>
            <feBlend in="SourceGraphic" in2="effect1_dropShadow_1598_8648" result="shape"/>
        </filter>
    </defs>
</svg>
