<svg width="18" height="18" viewBox="0 0 18 18" fill="none" xmlns="http://www.w3.org/2000/svg">
    <rect x=".5" y=".5" width="17" height="17" rx="2.5" fill="#fff" stroke="#CA3A0D"/>
    <path d="M10.803 12.83a.2.2 0 0 0 .16.081H13a.2.2 0 0 0 .159-.321l-2.925-3.821 2.795-3.647a.2.2 0 0 0-.159-.322h-1.95a.2.2 0 0 0-.16.08L9.03 7.193 7.297 4.88a.2.2 0 0 0-.16-.08H5.13a.2.2 0 0 0-.16.32l2.782 3.677-2.91 3.792a.2.2 0 0 0 .158.322h1.993a.2.2 0 0 0 .16-.08l1.832-2.456 1.818 2.455z" fill="#CA3A0D" stroke="#CA3A0D" stroke-width=".4" stroke-linejoin="round"/>
</svg>
