<?xml version="1.0" encoding="utf-8"?>
<!-- Generator: Adobe Illustrator 23.0.1, SVG Export Plug-In . SVG Version: 6.00 Build 0)  -->
<svg version="1.1" id="Capa_1" xmlns="http://www.w3.org/2000/svg" xmlns:xlink="http://www.w3.org/1999/xlink" x="0px" y="0px"
	 viewBox="0 0 69 68.9" style="enable-background:new 0 0 69 68.9;" xml:space="preserve">
<style type="text/css">
	.st0{fill:#FFFFFF;stroke:#DDDFE1;stroke-width:2;}
	.st1{fill:#F1F2F2;}
	.st2{fill:#D0D7DF;}
	.st3{fill:#9D2449;}
	.st4{fill:#B38E5D;}
	.st5{fill:#A4B0C0;}
	.st6{fill:none;stroke:#CD0000;stroke-width:1.5698;stroke-linecap:round;}
	.st7{fill:none;stroke:#CD0000;stroke-width:1.5698;}
</style>
<path class="st0" d="M26.7,7c13.9,0,25.1,11.3,25.1,25.1S40.6,57.3,26.7,57.3c-13.9,0-25.1-11.3-25.1-25.1S12.8,7,26.7,7z"/>
<g>
	<path class="st1" d="M38,26.1v17.5c0,1.3-1.1,2.4-2.4,2.4H17.4c0,0-2.4,0-2.4-2.4V20.7c0-1.3,1.1-2.4,2.4-2.4h12.7v5.4
		c0,1.3,1.1,2.4,2.4,2.4H38z"/>
</g>
<path class="st2" d="M38,26.1h-5.4c-1.3,0-2.4-1.1-2.4-2.4v-5.4L38,26.1z"/>
<path class="st3" d="M34.7,31.2c0.2,0.2,0.2,0.6,0,0.9l-1.3,1.3l-1.7-1.7l1.3-1.3c0.2-0.2,0.6-0.2,0.9,0L34.7,31.2z"/>
<path class="st4" d="M33.4,33.3l-7.3,7.3l-2.6,0.9l0.9-2.6l7.3-7.3L33.4,33.3z"/>
<path class="st5" d="M33.4,33.9c-0.2,0-0.3-0.1-0.4-0.2L31.2,32c-0.2-0.2-0.2-0.6,0-0.9c0.2-0.2,0.6-0.2,0.9,0l1.7,1.7
	c0.2,0.2,0.2,0.6,0,0.9C33.7,33.9,33.5,33.9,33.4,33.9z"/>
<path class="st2" d="M27.1,31.6h-8.5c-0.3,0-0.6-0.3-0.6-0.6c0-0.3,0.3-0.6,0.6-0.6h8.5c0.3,0,0.6,0.3,0.6,0.6S27.4,31.6,27.1,31.6z
	"/>
<path class="st2" d="M24.1,35.2h-5.4c-0.3,0-0.6-0.3-0.6-0.6c0-0.3,0.3-0.6,0.6-0.6h5.4c0.3,0,0.6,0.3,0.6,0.6
	C24.7,34.9,24.4,35.2,24.1,35.2z"/>
<path class="st2" d="M19.8,38.8h-1.2c-0.3,0-0.6-0.3-0.6-0.6s0.3-0.6,0.6-0.6h1.2c0.3,0,0.6,0.3,0.6,0.6S20.2,38.8,19.8,38.8z"/>
<path class="st6" d="M51.5,10.3l-6.3,6.3"/>
<path class="st6" d="M45.2,10.3l6.3,6.3"/>
<circle class="st7" cx="48.4" cy="13.3" r="7.1"/>
</svg>
