<?xml version="1.0" encoding="utf-8"?>
<!-- Generator: Adobe Illustrator 23.0.1, SVG Export Plug-In . SVG Version: 6.00 Build 0)  -->
<svg version="1.1" id="Capa_1" xmlns="http://www.w3.org/2000/svg" xmlns:xlink="http://www.w3.org/1999/xlink" x="0px" y="0px"
	 viewBox="0 0 69 68.9" style="enable-background:new 0 0 69 68.9;" xml:space="preserve">
<style type="text/css">
	.st0{fill-rule:evenodd;clip-rule:evenodd;fill:#ADDDD7;}
	.st1{fill:#F1F2F2;}
	.st2{fill:#D0D7DF;}
	.st3{fill:#9D2449;}
	.st4{fill:#B38E5D;}
	.st5{fill:#A4B0C0;}
	.st6{fill:none;stroke:#0DAF00;stroke-width:1.5698;}
	.st7{fill:#0DAF00;}
</style>
<path class="st0" d="M26.5,8.7c14.4,0,26.1,11.7,26.1,26.1S40.9,61,26.5,61C12,61,0.3,49.3,0.3,34.8S12,8.7,26.5,8.7z"/>
<g>
	<path class="st1" d="M38,28.8v17.5c0,1.3-1.1,2.4-2.4,2.4H17.4c0,0-2.4,0-2.4-2.4V23.4c0-1.3,1.1-2.4,2.4-2.4h12.7v5.4
		c0,1.3,1.1,2.4,2.4,2.4H38z"/>
</g>
<path class="st2" d="M38,28.8h-5.4c-1.3,0-2.4-1.1-2.4-2.4V21L38,28.8z"/>
<path class="st3" d="M34.7,33.9c0.2,0.2,0.2,0.6,0,0.9L33.4,36l-1.7-1.7l1.3-1.3c0.2-0.2,0.6-0.2,0.9,0L34.7,33.9z"/>
<path class="st4" d="M33.4,36l-7.3,7.3l-2.6,0.9l0.9-2.6l7.3-7.3L33.4,36z"/>
<path class="st5" d="M33.4,36.6c-0.2,0-0.3-0.1-0.4-0.2l-1.7-1.7c-0.2-0.2-0.2-0.6,0-0.9c0.2-0.2,0.6-0.2,0.9,0l1.7,1.7
	c0.2,0.2,0.2,0.6,0,0.9C33.7,36.5,33.5,36.6,33.4,36.6z"/>
<path class="st2" d="M27.1,34.2h-8.5c-0.3,0-0.6-0.3-0.6-0.6c0-0.3,0.3-0.6,0.6-0.6h8.5c0.3,0,0.6,0.3,0.6,0.6
	C27.7,34,27.4,34.2,27.1,34.2z"/>
<path class="st2" d="M24,37.9h-5.4c-0.3,0-0.6-0.3-0.6-0.6c0-0.3,0.3-0.6,0.6-0.6H24c0.3,0,0.6,0.3,0.6,0.6
	C24.6,37.6,24.4,37.9,24,37.9z"/>
<path class="st2" d="M19.8,41.5h-1.2c-0.3,0-0.6-0.3-0.6-0.6c0-0.3,0.3-0.6,0.6-0.6h1.2c0.3,0,0.6,0.3,0.6,0.6
	C20.4,41.2,20.1,41.5,19.8,41.5z"/>
<circle class="st6" cx="47.9" cy="12.7" r="7.1"/>
<path class="st7" d="M47,16.9c-0.1,0-0.2,0-0.2-0.1l-3.8-4.1c0-0.1-0.1-0.2-0.1-0.3c0-0.1,0-0.2,0.1-0.2l1.3-1.4
	c0.1-0.1,0.3-0.1,0.4,0l2.3,2.4l4-4.2c0.1-0.1,0.3-0.1,0.4,0l1.3,1.4c0.1,0.1,0.1,0.3,0,0.5l-5.5,5.9C47.2,16.9,47.1,16.9,47,16.9z"
	/>
</svg>
