<?xml version="1.0" encoding="utf-8"?>
<!-- Generator: Adobe Illustrator 23.0.1, SVG Export Plug-In . SVG Version: 6.00 Build 0)  -->
<svg version="1.1" id="Capa_1" xmlns="http://www.w3.org/2000/svg" xmlns:xlink="http://www.w3.org/1999/xlink" x="0px" y="0px"
	 viewBox="0 0 62 68.9" style="enable-background:new 0 0 62 68.9;" xml:space="preserve">
<style type="text/css">
	.st0{fill-rule:evenodd;clip-rule:evenodd;fill:#ADDDD7;}
	.st1{fill:#F1F2F2;}
	.st2{fill:#D0D7DF;}
	.st3{fill:#9D2449;}
	.st4{fill:#B38E5D;}
	.st5{fill:#A4B0C0;}
</style>
<path class="st0" d="M26.8,7.5c14.4,0,26.1,11.7,26.1,26.1S41.2,59.8,26.8,59.8S0.7,48.1,0.7,33.7S12.4,7.5,26.8,7.5z"/>
<g>
	<path class="st1" d="M38.3,27.6v17.5c0,1.3-1.1,2.4-2.4,2.4H17.7c0,0-2.4,0-2.4-2.4V22.2c0-1.3,1.1-2.4,2.4-2.4h12.7v5.4
		c0,1.3,1.1,2.4,2.4,2.4H38.3z"/>
</g>
<path class="st2" d="M38.3,27.6h-5.4c-1.3,0-2.4-1.1-2.4-2.4v-5.4L38.3,27.6z"/>
<path class="st3" d="M35,32.7c0.2,0.2,0.2,0.6,0,0.9l-1.3,1.3L32,33.1l1.3-1.3c0.2-0.2,0.6-0.2,0.9,0L35,32.7z"/>
<path class="st4" d="M33.7,34.8l-7.3,7.3l-2.6,0.9l0.9-2.6l7.3-7.3L33.7,34.8z"/>
<path class="st5" d="M33.7,35.4c-0.2,0-0.3-0.1-0.4-0.2l-1.7-1.7c-0.2-0.2-0.2-0.6,0-0.9c0.2-0.2,0.6-0.2,0.9,0l1.7,1.7
	c0.2,0.2,0.2,0.6,0,0.9C34,35.4,33.9,35.4,33.7,35.4z"/>
<path class="st2" d="M27.4,33.1h-8.5c-0.3,0-0.6-0.3-0.6-0.6c0-0.3,0.3-0.6,0.6-0.6h8.5c0.3,0,0.6,0.3,0.6,0.6
	C28,32.8,27.7,33.1,27.4,33.1z"/>
<path class="st2" d="M24.4,36.7h-5.4c-0.3,0-0.6-0.3-0.6-0.6c0-0.3,0.3-0.6,0.6-0.6h5.4c0.3,0,0.6,0.3,0.6,0.6
	C25,36.4,24.7,36.7,24.4,36.7z"/>
<path class="st2" d="M20.2,40.3h-1.2c-0.3,0-0.6-0.3-0.6-0.6c0-0.3,0.3-0.6,0.6-0.6h1.2c0.3,0,0.6,0.3,0.6,0.6
	C20.8,40,20.5,40.3,20.2,40.3z"/>
</svg>
